ISO-10303-21;
HEADER;
/* Generated by software containing ST-Developer
 * from STEP Tools, Inc. (www.steptools.com) 
 */
/* OPTION: using custom schema-name function */

FILE_DESCRIPTION(
/* description */ (''),
/* implementation_level */ '2;1');

FILE_NAME(
/* name */ 'coupler',
/* time_stamp */ '2025-07-22T17:03:38+03:00',
/* author */ (''),
/* organization */ (''),
/* preprocessor_version */ 'ST-DEVELOPER v16.5',
/* originating_system */ 'Rhino 7.23',
/* authorisation */ '');

FILE_SCHEMA (('CONFIG_CONTROL_DESIGN'));
ENDSEC;

DATA;
#10=SHAPE_REPRESENTATION_RELATIONSHIP('','',#261,#12);
#11=MANIFOLD_SOLID_BREP('brep_1',#13);
#12=ADVANCED_BREP_SHAPE_REPRESENTATION('brep_rep_0',(#11,#273),#260);
#13=CLOSED_SHELL('',(#18,#19,#20,#21,#22,#23,#24,#25,#26,#27,#28,#29,#30));
#14=FACE_BOUND('',#46,.T.);
#15=FACE_BOUND('',#48,.T.);
#16=FACE_BOUND('',#53,.T.);
#17=FACE_BOUND('',#57,.T.);
#18=ADVANCED_FACE('',(#31),#169,.T.);
#19=ADVANCED_FACE('',(#32,#14),#165,.T.);
#20=ADVANCED_FACE('',(#33,#15),#166,.T.);
#21=ADVANCED_FACE('',(#34),#170,.T.);
#22=ADVANCED_FACE('',(#35),#171,.F.);
#23=ADVANCED_FACE('',(#36),#172,.F.);
#24=ADVANCED_FACE('',(#37,#16),#167,.T.);
#25=ADVANCED_FACE('',(#38),#173,.F.);
#26=ADVANCED_FACE('',(#39),#162,.T.);
#27=ADVANCED_FACE('',(#40,#17),#168,.T.);
#28=ADVANCED_FACE('',(#41),#163,.T.);
#29=ADVANCED_FACE('',(#42),#174,.F.);
#30=ADVANCED_FACE('',(#43),#164,.T.);
#31=FACE_OUTER_BOUND('',#44,.T.);
#32=FACE_OUTER_BOUND('',#45,.T.);
#33=FACE_OUTER_BOUND('',#47,.T.);
#34=FACE_OUTER_BOUND('',#49,.T.);
#35=FACE_OUTER_BOUND('',#50,.T.);
#36=FACE_OUTER_BOUND('',#51,.T.);
#37=FACE_OUTER_BOUND('',#52,.T.);
#38=FACE_OUTER_BOUND('',#54,.T.);
#39=FACE_OUTER_BOUND('',#55,.T.);
#40=FACE_OUTER_BOUND('',#56,.T.);
#41=FACE_OUTER_BOUND('',#58,.T.);
#42=FACE_OUTER_BOUND('',#59,.T.);
#43=FACE_OUTER_BOUND('',#60,.T.);
#44=EDGE_LOOP('',(#61,#62,#63,#64));
#45=EDGE_LOOP('',(#65));
#46=EDGE_LOOP('',(#66));
#47=EDGE_LOOP('',(#67));
#48=EDGE_LOOP('',(#68));
#49=EDGE_LOOP('',(#69,#70,#71,#72));
#50=EDGE_LOOP('',(#73,#74,#75,#76));
#51=EDGE_LOOP('',(#77,#78,#79,#80));
#52=EDGE_LOOP('',(#81));
#53=EDGE_LOOP('',(#82));
#54=EDGE_LOOP('',(#83,#84,#85,#86));
#55=EDGE_LOOP('',(#87,#88,#89,#90));
#56=EDGE_LOOP('',(#91));
#57=EDGE_LOOP('',(#92));
#58=EDGE_LOOP('',(#93,#94,#95,#96));
#59=EDGE_LOOP('',(#97,#98,#99,#100));
#60=EDGE_LOOP('',(#101,#102,#103,#104));
#61=ORIENTED_EDGE('',*,*,#105,.T.);
#62=ORIENTED_EDGE('',*,*,#106,.T.);
#63=ORIENTED_EDGE('',*,*,#107,.F.);
#64=ORIENTED_EDGE('',*,*,#106,.F.);
#65=ORIENTED_EDGE('',*,*,#105,.F.);
#66=ORIENTED_EDGE('',*,*,#110,.T.);
#67=ORIENTED_EDGE('',*,*,#107,.T.);
#68=ORIENTED_EDGE('',*,*,#118,.T.);
#69=ORIENTED_EDGE('',*,*,#119,.T.);
#70=ORIENTED_EDGE('',*,*,#120,.T.);
#71=ORIENTED_EDGE('',*,*,#110,.F.);
#72=ORIENTED_EDGE('',*,*,#120,.F.);
#73=ORIENTED_EDGE('',*,*,#112,.F.);
#74=ORIENTED_EDGE('',*,*,#111,.F.);
#75=ORIENTED_EDGE('',*,*,#112,.T.);
#76=ORIENTED_EDGE('',*,*,#115,.F.);
#77=ORIENTED_EDGE('',*,*,#114,.T.);
#78=ORIENTED_EDGE('',*,*,#108,.T.);
#79=ORIENTED_EDGE('',*,*,#114,.F.);
#80=ORIENTED_EDGE('',*,*,#113,.F.);
#81=ORIENTED_EDGE('',*,*,#113,.T.);
#82=ORIENTED_EDGE('',*,*,#126,.F.);
#83=ORIENTED_EDGE('',*,*,#109,.F.);
#84=ORIENTED_EDGE('',*,*,#108,.F.);
#85=ORIENTED_EDGE('',*,*,#109,.T.);
#86=ORIENTED_EDGE('',*,*,#116,.F.);
#87=ORIENTED_EDGE('',*,*,#116,.T.);
#88=ORIENTED_EDGE('',*,*,#117,.T.);
#89=ORIENTED_EDGE('',*,*,#118,.F.);
#90=ORIENTED_EDGE('',*,*,#117,.F.);
#91=ORIENTED_EDGE('',*,*,#122,.F.);
#92=ORIENTED_EDGE('',*,*,#115,.T.);
#93=ORIENTED_EDGE('',*,*,#121,.T.);
#94=ORIENTED_EDGE('',*,*,#122,.T.);
#95=ORIENTED_EDGE('',*,*,#121,.F.);
#96=ORIENTED_EDGE('',*,*,#119,.F.);
#97=ORIENTED_EDGE('',*,*,#123,.T.);
#98=ORIENTED_EDGE('',*,*,#124,.T.);
#99=ORIENTED_EDGE('',*,*,#111,.T.);
#100=ORIENTED_EDGE('',*,*,#124,.F.);
#101=ORIENTED_EDGE('',*,*,#125,.T.);
#102=ORIENTED_EDGE('',*,*,#126,.T.);
#103=ORIENTED_EDGE('',*,*,#125,.F.);
#104=ORIENTED_EDGE('',*,*,#123,.F.);
#105=EDGE_CURVE('',#149,#149,#127,.T.);
#106=EDGE_CURVE('',#149,#150,#128,.T.);
#107=EDGE_CURVE('',#150,#150,#129,.T.);
#108=EDGE_CURVE('',#151,#151,#130,.T.);
#109=EDGE_CURVE('',#151,#156,#131,.T.);
#110=EDGE_CURVE('',#154,#154,#132,.T.);
#111=EDGE_CURVE('',#152,#152,#133,.T.);
#112=EDGE_CURVE('',#152,#155,#134,.T.);
#113=EDGE_CURVE('',#153,#153,#135,.T.);
#114=EDGE_CURVE('',#153,#151,#136,.T.);
#115=EDGE_CURVE('',#155,#155,#137,.T.);
#116=EDGE_CURVE('',#156,#156,#138,.T.);
#117=EDGE_CURVE('',#156,#157,#139,.T.);
#118=EDGE_CURVE('',#157,#157,#140,.T.);
#119=EDGE_CURVE('',#158,#158,#141,.T.);
#120=EDGE_CURVE('',#158,#154,#142,.T.);
#121=EDGE_CURVE('',#158,#159,#143,.T.);
#122=EDGE_CURVE('',#159,#159,#144,.T.);
#123=EDGE_CURVE('',#160,#160,#145,.T.);
#124=EDGE_CURVE('',#160,#152,#146,.T.);
#125=EDGE_CURVE('',#160,#161,#147,.T.);
#126=EDGE_CURVE('',#161,#161,#148,.T.);
#127=(
BOUNDED_CURVE()
B_SPLINE_CURVE(2,(#393,#394,#395,#396,#397,#398,#399,#400,#401),
 .UNSPECIFIED.,.T.,.F.)
B_SPLINE_CURVE_WITH_KNOTS((3,2,2,2,3),(-239.389360203542,-179.542020152657,
-119.694680101771,-59.8473400508856,0.),.UNSPECIFIED.)
CURVE()
GEOMETRIC_REPRESENTATION_ITEM()
RATIONAL_B_SPLINE_CURVE((1.,0.707106781186548,1.,0.707106781186548,1.,0.707106781186548,
1.,0.707106781186548,1.))
REPRESENTATION_ITEM('')
);
#128=(
BOUNDED_CURVE()
B_SPLINE_CURVE(1,(#402,#403),.UNSPECIFIED.,.F.,.F.)
B_SPLINE_CURVE_WITH_KNOTS((2,2),(0.,5.),.UNSPECIFIED.)
CURVE()
GEOMETRIC_REPRESENTATION_ITEM()
RATIONAL_B_SPLINE_CURVE((1.,1.))
REPRESENTATION_ITEM('')
);
#129=(
BOUNDED_CURVE()
B_SPLINE_CURVE(2,(#404,#405,#406,#407,#408,#409,#410,#411,#412),
 .UNSPECIFIED.,.T.,.F.)
B_SPLINE_CURVE_WITH_KNOTS((3,2,2,2,3),(-239.389360203542,-179.542020152657,
-119.694680101771,-59.8473400508856,0.),.UNSPECIFIED.)
CURVE()
GEOMETRIC_REPRESENTATION_ITEM()
RATIONAL_B_SPLINE_CURVE((1.,0.707106781186548,1.,0.707106781186548,1.,0.707106781186548,
1.,0.707106781186548,1.))
REPRESENTATION_ITEM('')
);
#130=(
BOUNDED_CURVE()
B_SPLINE_CURVE(2,(#413,#414,#415,#416,#417,#418,#419,#420,#421),
 .UNSPECIFIED.,.T.,.F.)
B_SPLINE_CURVE_WITH_KNOTS((3,2,2,2,3),(-210.486707790516,-157.865030842887,
-105.243353895258,-52.621676947629,0.),.UNSPECIFIED.)
CURVE()
GEOMETRIC_REPRESENTATION_ITEM()
RATIONAL_B_SPLINE_CURVE((1.,0.707106781186548,1.,0.707106781186548,1.,0.707106781186548,
1.,0.707106781186548,1.))
REPRESENTATION_ITEM('')
);
#131=(
BOUNDED_CURVE()
B_SPLINE_CURVE(1,(#422,#423),.UNSPECIFIED.,.F.,.F.)
B_SPLINE_CURVE_WITH_KNOTS((2,2),(0.,3.5),.UNSPECIFIED.)
CURVE()
GEOMETRIC_REPRESENTATION_ITEM()
RATIONAL_B_SPLINE_CURVE((1.,1.))
REPRESENTATION_ITEM('')
);
#132=(
BOUNDED_CURVE()
B_SPLINE_CURVE(2,(#424,#425,#426,#427,#428,#429,#430,#431,#432),
 .UNSPECIFIED.,.T.,.F.)
B_SPLINE_CURVE_WITH_KNOTS((3,2,2,2,3),(-239.389360203542,-179.542020152657,
-119.694680101771,-59.8473400508856,0.),.UNSPECIFIED.)
CURVE()
GEOMETRIC_REPRESENTATION_ITEM()
RATIONAL_B_SPLINE_CURVE((1.,0.707106781186548,1.,0.707106781186548,1.,0.707106781186548,
1.,0.707106781186548,1.))
REPRESENTATION_ITEM('')
);
#133=(
BOUNDED_CURVE()
B_SPLINE_CURVE(2,(#433,#434,#435,#436,#437,#438,#439,#440,#441),
 .UNSPECIFIED.,.T.,.F.)
B_SPLINE_CURVE_WITH_KNOTS((3,2,2,2,3),(-188.966798113426,-141.72509858507,
-94.483399056713,-47.2416995283565,0.),.UNSPECIFIED.)
CURVE()
GEOMETRIC_REPRESENTATION_ITEM()
RATIONAL_B_SPLINE_CURVE((1.,0.707106781186548,1.,0.707106781186548,1.,0.707106781186548,
1.,0.707106781186548,1.))
REPRESENTATION_ITEM('')
);
#134=(
BOUNDED_CURVE()
B_SPLINE_CURVE(1,(#442,#443),.UNSPECIFIED.,.F.,.F.)
B_SPLINE_CURVE_WITH_KNOTS((2,2),(0.,13.),.UNSPECIFIED.)
CURVE()
GEOMETRIC_REPRESENTATION_ITEM()
RATIONAL_B_SPLINE_CURVE((1.,1.))
REPRESENTATION_ITEM('')
);
#135=(
BOUNDED_CURVE()
B_SPLINE_CURVE(2,(#444,#445,#446,#447,#448,#449,#450,#451,#452),
 .UNSPECIFIED.,.T.,.F.)
B_SPLINE_CURVE_WITH_KNOTS((3,2,2,2,3),(0.,52.621676947629,105.243353895258,
157.865030842887,210.486707790516),.UNSPECIFIED.)
CURVE()
GEOMETRIC_REPRESENTATION_ITEM()
RATIONAL_B_SPLINE_CURVE((1.,0.707106781186548,1.,0.707106781186548,1.,0.707106781186548,
1.,0.707106781186548,1.))
REPRESENTATION_ITEM('')
);
#136=(
BOUNDED_CURVE()
B_SPLINE_CURVE(1,(#453,#454),.UNSPECIFIED.,.F.,.F.)
B_SPLINE_CURVE_WITH_KNOTS((2,2),(0.,2.),.UNSPECIFIED.)
CURVE()
GEOMETRIC_REPRESENTATION_ITEM()
RATIONAL_B_SPLINE_CURVE((1.,1.))
REPRESENTATION_ITEM('')
);
#137=(
BOUNDED_CURVE()
B_SPLINE_CURVE(2,(#455,#456,#457,#458,#459,#460,#461,#462,#463),
 .UNSPECIFIED.,.T.,.F.)
B_SPLINE_CURVE_WITH_KNOTS((3,2,2,2,3),(0.,47.2416995283565,94.483399056713,
141.72509858507,188.966798113426),.UNSPECIFIED.)
CURVE()
GEOMETRIC_REPRESENTATION_ITEM()
RATIONAL_B_SPLINE_CURVE((1.,0.707106781186548,1.,0.707106781186548,1.,0.707106781186548,
1.,0.707106781186548,1.))
REPRESENTATION_ITEM('')
);
#138=(
BOUNDED_CURVE()
B_SPLINE_CURVE(2,(#464,#465,#466,#467,#468,#469,#470,#471,#472),
 .UNSPECIFIED.,.T.,.F.)
B_SPLINE_CURVE_WITH_KNOTS((3,2,2,2,3),(0.,54.977524185281,109.955048370562,
164.932572555843,219.910096741124),.UNSPECIFIED.)
CURVE()
GEOMETRIC_REPRESENTATION_ITEM()
RATIONAL_B_SPLINE_CURVE((1.,0.707106781186548,1.,0.707106781186548,1.,0.707106781186548,
1.,0.707106781186548,1.))
REPRESENTATION_ITEM('')
);
#139=(
BOUNDED_CURVE()
B_SPLINE_CURVE(2,(#473,#474,#475),.UNSPECIFIED.,.F.,.F.)
B_SPLINE_CURVE_WITH_KNOTS((3,3),(0.,2.35619449019255),.UNSPECIFIED.)
CURVE()
GEOMETRIC_REPRESENTATION_ITEM()
RATIONAL_B_SPLINE_CURVE((1.,0.707106781236142,1.))
REPRESENTATION_ITEM('')
);
#140=(
BOUNDED_CURVE()
B_SPLINE_CURVE(2,(#476,#477,#478,#479,#480,#481,#482,#483,#484),
 .UNSPECIFIED.,.T.,.F.)
B_SPLINE_CURVE_WITH_KNOTS((3,2,2,2,3),(0.,54.977524185281,109.955048370562,
164.932572555843,219.910096741124),.UNSPECIFIED.)
CURVE()
GEOMETRIC_REPRESENTATION_ITEM()
RATIONAL_B_SPLINE_CURVE((1.,0.707106781186548,1.,0.707106781186548,1.,0.707106781186548,
1.,0.707106781186548,1.))
REPRESENTATION_ITEM('')
);
#141=(
BOUNDED_CURVE()
B_SPLINE_CURVE(2,(#485,#486,#487,#488,#489,#490,#491,#492,#493),
 .UNSPECIFIED.,.T.,.F.)
B_SPLINE_CURVE_WITH_KNOTS((3,2,2,2,3),(2.9881628330713E-16,57.4907824337507,
114.981564867501,172.472347301252,229.963129735003),.UNSPECIFIED.)
CURVE()
GEOMETRIC_REPRESENTATION_ITEM()
RATIONAL_B_SPLINE_CURVE((1.,0.707106781186548,1.,0.707106781186548,1.,0.707106781186548,
1.,0.707106781186548,1.))
REPRESENTATION_ITEM('')
);
#142=(
BOUNDED_CURVE()
B_SPLINE_CURVE(1,(#494,#495),.UNSPECIFIED.,.F.,.F.)
B_SPLINE_CURVE_WITH_KNOTS((2,2),(12.5,30.),.UNSPECIFIED.)
CURVE()
GEOMETRIC_REPRESENTATION_ITEM()
RATIONAL_B_SPLINE_CURVE((1.,1.))
REPRESENTATION_ITEM('')
);
#143=(
BOUNDED_CURVE()
B_SPLINE_CURVE(2,(#496,#497,#498),.UNSPECIFIED.,.F.,.F.)
B_SPLINE_CURVE_WITH_KNOTS((3,3),(0.,2.35619449162161),.UNSPECIFIED.)
CURVE()
GEOMETRIC_REPRESENTATION_ITEM()
RATIONAL_B_SPLINE_CURVE((1.,0.707106781186553,1.))
REPRESENTATION_ITEM('')
);
#144=(
BOUNDED_CURVE()
B_SPLINE_CURVE(2,(#499,#500,#501,#502,#503,#504,#505,#506,#507),
 .UNSPECIFIED.,.T.,.F.)
B_SPLINE_CURVE_WITH_KNOTS((3,2,2,2,3),(0.,57.4907824337507,114.981564867501,
172.472347301252,229.963129735003),.UNSPECIFIED.)
CURVE()
GEOMETRIC_REPRESENTATION_ITEM()
RATIONAL_B_SPLINE_CURVE((1.,0.707106781186548,1.,0.707106781186548,1.,0.707106781186548,
1.,0.707106781186548,1.))
REPRESENTATION_ITEM('')
);
#145=(
BOUNDED_CURVE()
B_SPLINE_CURVE(2,(#508,#509,#510,#511,#512,#513,#514,#515,#516),
 .UNSPECIFIED.,.T.,.F.)
B_SPLINE_CURVE_WITH_KNOTS((3,2,2,2,3),(5.86861593091661E-29,48.8121875445087,
97.6243750890174,146.436562633526,195.248750178035),.UNSPECIFIED.)
CURVE()
GEOMETRIC_REPRESENTATION_ITEM()
RATIONAL_B_SPLINE_CURVE((1.,0.707106781186548,1.,0.707106781186548,1.,0.707106781186548,
1.,0.707106781186548,1.))
REPRESENTATION_ITEM('')
);
#146=(
BOUNDED_CURVE()
B_SPLINE_CURVE(1,(#517,#518),.UNSPECIFIED.,.F.,.F.)
B_SPLINE_CURVE_WITH_KNOTS((2,2),(1.,4.),.UNSPECIFIED.)
CURVE()
GEOMETRIC_REPRESENTATION_ITEM()
RATIONAL_B_SPLINE_CURVE((1.,1.))
REPRESENTATION_ITEM('')
);
#147=(
BOUNDED_CURVE()
B_SPLINE_CURVE(2,(#519,#520,#521),.UNSPECIFIED.,.F.,.F.)
B_SPLINE_CURVE_WITH_KNOTS((3,3),(0.,1.57079632679506),.UNSPECIFIED.)
CURVE()
GEOMETRIC_REPRESENTATION_ITEM()
RATIONAL_B_SPLINE_CURVE((1.,0.707106781216909,1.))
REPRESENTATION_ITEM('')
);
#148=(
BOUNDED_CURVE()
B_SPLINE_CURVE(2,(#522,#523,#524,#525,#526,#527,#528,#529,#530),
 .UNSPECIFIED.,.T.,.F.)
B_SPLINE_CURVE_WITH_KNOTS((3,2,2,2,3),(0.,48.8121875445087,97.6243750890174,
146.436562633526,195.248750178035),.UNSPECIFIED.)
CURVE()
GEOMETRIC_REPRESENTATION_ITEM()
RATIONAL_B_SPLINE_CURVE((1.,0.707106781186548,1.,0.707106781186548,1.,0.707106781186548,
1.,0.707106781186548,1.))
REPRESENTATION_ITEM('')
);
#149=VERTEX_POINT('',#380);
#150=VERTEX_POINT('',#381);
#151=VERTEX_POINT('',#382);
#152=VERTEX_POINT('',#383);
#153=VERTEX_POINT('',#384);
#154=VERTEX_POINT('',#385);
#155=VERTEX_POINT('',#386);
#156=VERTEX_POINT('',#387);
#157=VERTEX_POINT('',#388);
#158=VERTEX_POINT('',#389);
#159=VERTEX_POINT('',#390);
#160=VERTEX_POINT('',#391);
#161=VERTEX_POINT('',#392);
#162=(
BOUNDED_SURFACE()
B_SPLINE_SURFACE(2,2,((#297,#298,#299),(#300,#301,#302),(#303,#304,#305),
(#306,#307,#308),(#309,#310,#311),(#312,#313,#314),(#315,#316,#317),(#318,
#319,#320),(#321,#322,#323)),.UNSPECIFIED.,.T.,.F.,.F.)
B_SPLINE_SURFACE_WITH_KNOTS((3,2,2,2,3),(3,3),(0.,54.977524185281,109.955048370562,
164.932572555843,219.910096741124),(0.,2.35619449019255),.UNSPECIFIED.)
GEOMETRIC_REPRESENTATION_ITEM()
RATIONAL_B_SPLINE_SURFACE(((1.,0.707106781236142,1.),(0.707106781186548,
0.500000000035069,0.707106781186548),(1.,0.707106781236142,1.),(0.707106781186548,
0.500000000035069,0.707106781186548),(1.,0.707106781236142,1.),(0.707106781186548,
0.500000000035069,0.707106781186548),(1.,0.707106781236142,1.),(0.707106781186548,
0.500000000035069,0.707106781186548),(1.,0.707106781236142,1.)))
REPRESENTATION_ITEM('')
SURFACE()
);
#163=(
BOUNDED_SURFACE()
B_SPLINE_SURFACE(2,2,((#325,#326,#327,#328,#329,#330,#331,#332,#333),(#334,
#335,#336,#337,#338,#339,#340,#341,#342),(#343,#344,#345,#346,#347,#348,
#349,#350,#351)),.UNSPECIFIED.,.F.,.F.,.F.)
B_SPLINE_SURFACE_WITH_KNOTS((3,3),(3,2,2,2,3),(0.,2.35619449162161),(0.,
57.4907824337507,114.981564867501,172.472347301252,229.963129735003),
 .UNSPECIFIED.)
GEOMETRIC_REPRESENTATION_ITEM()
RATIONAL_B_SPLINE_SURFACE(((1.,0.707106781186548,1.,0.707106781186548,1.,
0.707106781186548,1.,0.707106781186548,1.),(0.707106781186553,0.500000000000004,
0.707106781186553,0.500000000000004,0.707106781186553,0.500000000000004,
0.707106781186553,0.500000000000004,0.707106781186553),(1.,0.707106781186548,
1.,0.707106781186548,1.,0.707106781186548,1.,0.707106781186548,1.)))
REPRESENTATION_ITEM('')
SURFACE()
);
#164=(
BOUNDED_SURFACE()
B_SPLINE_SURFACE(2,2,((#353,#354,#355,#356,#357,#358,#359,#360,#361),(#362,
#363,#364,#365,#366,#367,#368,#369,#370),(#371,#372,#373,#374,#375,#376,
#377,#378,#379)),.UNSPECIFIED.,.F.,.F.,.F.)
B_SPLINE_SURFACE_WITH_KNOTS((3,3),(3,2,2,2,3),(0.,1.57079632679506),(0.,
48.8121875445087,97.6243750890174,146.436562633526,195.248750178035),
 .UNSPECIFIED.)
GEOMETRIC_REPRESENTATION_ITEM()
RATIONAL_B_SPLINE_SURFACE(((1.,0.707106781186548,1.,0.707106781186548,1.,
0.707106781186548,1.,0.707106781186548,1.),(0.707106781216909,0.500000000021469,
0.707106781216909,0.500000000021469,0.707106781216909,0.500000000021469,
0.707106781216909,0.500000000021469,0.707106781216909),(1.,0.707106781186548,
1.,0.707106781186548,1.,0.707106781186548,1.,0.707106781186548,1.)))
REPRESENTATION_ITEM('')
SURFACE()
);
#165=PLANE('',#264);
#166=PLANE('',#265);
#167=PLANE('',#269);
#168=PLANE('',#271);
#169=CYLINDRICAL_SURFACE('',#263,43.);
#170=CYLINDRICAL_SURFACE('',#266,38.1);
#171=CYLINDRICAL_SURFACE('',#267,30.075);
#172=CYLINDRICAL_SURFACE('',#268,33.5);
#173=CYLINDRICAL_SURFACE('',#270,33.5);
#174=CYLINDRICAL_SURFACE('',#272,30.075);
#175=SHAPE_DEFINITION_REPRESENTATION(#176,#261);
#176=PRODUCT_DEFINITION_SHAPE('Document','',#178);
#177=PRODUCT_DEFINITION_CONTEXT('3D Mechanical Parts',#250,'design');
#178=PRODUCT_DEFINITION('A','First version',#220,#177);
#179=DATE_TIME_ROLE('classification_date');
#180=DATE_TIME_ROLE('creation_date');
#181=APPLIED_DATE_AND_TIME_ASSIGNMENT(#205,#179,(#184));
#182=APPLIED_DATE_AND_TIME_ASSIGNMENT(#207,#180,(#178));
#183=SECURITY_CLASSIFICATION_LEVEL('unclassified');
#184=SECURITY_CLASSIFICATION('A','Security for version',#183);
#185=APPLIED_SECURITY_CLASSIFICATION_ASSIGNMENT(#184,(#220));
#186=APPROVAL_ROLE('Version approval');
#187=APPROVAL_ROLE('Version Security approval');
#188=APPROVAL_ROLE('Definition approval');
#189=APPROVAL_PERSON_ORGANIZATION(#238,#214,#186);
#190=APPROVAL_PERSON_ORGANIZATION(#239,#215,#187);
#191=APPROVAL_PERSON_ORGANIZATION(#242,#216,#188);
#192=COORDINATED_UNIVERSAL_TIME_OFFSET(5,0,.BEHIND.);
#193=LOCAL_TIME(0,0,0.,#192);
#194=LOCAL_TIME(0,0,0.,#192);
#195=LOCAL_TIME(0,0,0.,#192);
#196=LOCAL_TIME(0,0,0.,#192);
#197=LOCAL_TIME(0,0,0.,#192);
#198=CALENDAR_DATE(1999,1,1);
#199=CALENDAR_DATE(1999,1,1);
#200=CALENDAR_DATE(1999,1,1);
#201=CALENDAR_DATE(1999,1,1);
#202=CALENDAR_DATE(1999,1,1);
#203=DATE_AND_TIME(#198,#193);
#204=DATE_AND_TIME(#199,#194);
#205=DATE_AND_TIME(#200,#195);
#206=DATE_AND_TIME(#201,#196);
#207=DATE_AND_TIME(#202,#197);
#208=APPROVAL_DATE_TIME(#203,#214);
#209=APPROVAL_DATE_TIME(#204,#215);
#210=APPROVAL_DATE_TIME(#206,#216);
#211=APPROVAL_STATUS('not_yet_approved');
#212=APPROVAL_STATUS('not_yet_approved');
#213=APPROVAL_STATUS('approved');
#214=APPROVAL(#211,'Version approval');
#215=APPROVAL(#212,'Version Security approval');
#216=APPROVAL(#213,'Definition approval');
#217=APPLIED_APPROVAL_ASSIGNMENT(#214,(#220));
#218=APPLIED_APPROVAL_ASSIGNMENT(#215,(#184));
#219=APPLIED_APPROVAL_ASSIGNMENT(#216,(#178));
#220=PRODUCT_DEFINITION_FORMATION_WITH_SPECIFIED_SOURCE('A',
'First version',#252,.MADE.);
#221=PERSON_AND_ORGANIZATION_ROLE('design_owner');
#222=PERSON_AND_ORGANIZATION_ROLE('creator');
#223=PERSON_AND_ORGANIZATION_ROLE('design_supplier');
#224=PERSON_AND_ORGANIZATION_ROLE('classification_officer');
#225=PERSON_AND_ORGANIZATION_ROLE('creator');
#226=ORGANIZATION('STI','lab','lab');
#227=ORGANIZATION('STI','unknown','unknown');
#228=ORGANIZATION('STI','unknown','unknown');
#229=ORGANIZATION('STI','unknown','unknown');
#230=ORGANIZATION('STI','unknown','unknown');
#231=ORGANIZATION('STI','unknown','unknown');
#232=ORGANIZATION('STI','unknown','unknown');
#233=PERSON('1','Box','vc60',$,$,$);
#234=PERSON('2','last','first',$,$,$);
#235=PERSON('3','President','Mr.',$,$,$);
#236=PERSON_AND_ORGANIZATION(#233,#226);
#237=PERSON_AND_ORGANIZATION(#234,#227);
#238=PERSON_AND_ORGANIZATION(#235,#228);
#239=PERSON_AND_ORGANIZATION(#235,#229);
#240=PERSON_AND_ORGANIZATION(#235,#230);
#241=PERSON_AND_ORGANIZATION(#234,#231);
#242=PERSON_AND_ORGANIZATION(#235,#232);
#243=APPLIED_PERSON_AND_ORGANIZATION_ASSIGNMENT(#236,#221,(#252));
#244=APPLIED_PERSON_AND_ORGANIZATION_ASSIGNMENT(#237,#222,(#220));
#245=APPLIED_PERSON_AND_ORGANIZATION_ASSIGNMENT(#237,#223,(#220));
#246=APPLIED_PERSON_AND_ORGANIZATION_ASSIGNMENT(#240,#224,(#184));
#247=APPLIED_PERSON_AND_ORGANIZATION_ASSIGNMENT(#241,#225,(#178));
#248=PRODUCT_RELATED_PRODUCT_CATEGORY('detail','detail',(#252));
#249=APPLICATION_PROTOCOL_DEFINITION('International Standard',
'config_control_design',1994,#250);
#250=APPLICATION_CONTEXT(
'configuration controlled 3d designs of mechanical parts and assemblie
s');
#251=PRODUCT_CONTEXT('3D Mechanical Parts',#250,'mechanical');
#252=PRODUCT('Document','Document','',(#251));
#253=(
LENGTH_UNIT()
NAMED_UNIT(*)
SI_UNIT(.MILLI.,.METRE.)
);
#254=(
NAMED_UNIT(*)
PLANE_ANGLE_UNIT()
SI_UNIT($,.RADIAN.)
);
#255=DIMENSIONAL_EXPONENTS(0.,0.,0.,0.,0.,0.,0.);
#256=PLANE_ANGLE_MEASURE_WITH_UNIT(PLANE_ANGLE_MEASURE(0.01745329252),#254);
#257=(
CONVERSION_BASED_UNIT('DEGREES',#256)
NAMED_UNIT(#255)
PLANE_ANGLE_UNIT()
);
#258=(
NAMED_UNIT(*)
SI_UNIT($,.STERADIAN.)
SOLID_ANGLE_UNIT()
);
#259=UNCERTAINTY_MEASURE_WITH_UNIT(LENGTH_MEASURE(0.001),#253,
'DISTANCE_ACCURACY_VALUE',
'Maximum model space distance between geometric entities at asserted c
onnectivities');
#260=(
GEOMETRIC_REPRESENTATION_CONTEXT(3)
GLOBAL_UNCERTAINTY_ASSIGNED_CONTEXT((#259))
GLOBAL_UNIT_ASSIGNED_CONTEXT((#258,#257,#253))
REPRESENTATION_CONTEXT('ID1','3D')
);
#261=SHAPE_REPRESENTATION('Document',(#262,#273),#260);
#262=AXIS2_PLACEMENT_3D('',#288,#274,#275);
#263=AXIS2_PLACEMENT_3D('',#289,#276,$);
#264=AXIS2_PLACEMENT_3D('',#290,#277,$);
#265=AXIS2_PLACEMENT_3D('',#291,#278,$);
#266=AXIS2_PLACEMENT_3D('',#292,#279,$);
#267=AXIS2_PLACEMENT_3D('',#293,#280,$);
#268=AXIS2_PLACEMENT_3D('',#294,#281,$);
#269=AXIS2_PLACEMENT_3D('',#295,#282,$);
#270=AXIS2_PLACEMENT_3D('',#296,#283,$);
#271=AXIS2_PLACEMENT_3D('',#324,#284,$);
#272=AXIS2_PLACEMENT_3D('',#352,#285,$);
#273=AXIS2_PLACEMENT_3D('',#531,#286,#287);
#274=DIRECTION('',(0.,0.,1.));
#275=DIRECTION('',(1.,0.,0.));
#276=DIRECTION('',(0.,0.,1.));
#277=DIRECTION('',(0.,0.,-1.));
#278=DIRECTION('',(0.,0.,1.));
#279=DIRECTION('',(0.,0.,1.));
#280=DIRECTION('',(-2.36256936246085E-16,2.36256936246085E-16,-1.));
#281=DIRECTION('',(0.,0.,1.));
#282=DIRECTION('',(0.,0.,1.));
#283=DIRECTION('',(0.,0.,-1.));
#284=DIRECTION('',(0.,0.,-1.));
#285=DIRECTION('',(0.,0.,-1.));
#286=DIRECTION('',(0.,0.,1.));
#287=DIRECTION('',(1.,0.,0.));
#288=CARTESIAN_POINT('',(0.,0.,0.));
#289=CARTESIAN_POINT('',(219.,5.6843418860808E-14,32.5));
#290=CARTESIAN_POINT('',(165.25,-53.75,30.));
#291=CARTESIAN_POINT('',(165.25,-53.75,35.));
#292=CARTESIAN_POINT('',(219.,-2.00971834711523E-14,15.));
#293=CARTESIAN_POINT('',(219.,-4.01943669423047E-14,-37.));
#294=CARTESIAN_POINT('',(219.,2.8421709430404E-14,29.));
#295=CARTESIAN_POINT('',(177.125,-41.875,28.));
#296=CARTESIAN_POINT('',(219.,2.00971834711523E-14,32.5));
#297=CARTESIAN_POINT('',(252.5,-1.27675647831893E-15,33.5));
#298=CARTESIAN_POINT('',(252.50000000041,-1.27675616399795E-15,35.));
#299=CARTESIAN_POINT('',(254.00000000041,1.54285832879556E-12,35.));
#300=CARTESIAN_POINT('',(252.5,-33.5,33.5));
#301=CARTESIAN_POINT('',(252.50000000041,-33.5000000004097,35.));
#302=CARTESIAN_POINT('',(254.000000000411,-35.0000000004081,35.));
#303=CARTESIAN_POINT('',(219.,-33.5,33.5));
#304=CARTESIAN_POINT('',(219.,-33.5000000004096,35.));
#305=CARTESIAN_POINT('',(219.000000000002,-35.0000000004096,35.));
#306=CARTESIAN_POINT('',(185.5,-33.5,33.5));
#307=CARTESIAN_POINT('',(185.49999999959,-33.5000000004096,35.));
#308=CARTESIAN_POINT('',(183.999999999592,-35.0000000004111,35.));
#309=CARTESIAN_POINT('',(185.5,3.736855664348E-14,33.5));
#310=CARTESIAN_POINT('',(185.49999999959,3.73685563291088E-14,35.));
#311=CARTESIAN_POINT('',(183.99999999959,-1.50695022565032E-12,35.));
#312=CARTESIAN_POINT('',(185.5,33.5000000000001,33.5));
#313=CARTESIAN_POINT('',(185.49999999959,33.5000000004097,35.));
#314=CARTESIAN_POINT('',(183.999999999589,35.0000000004081,35.));
#315=CARTESIAN_POINT('',(219.,33.5,33.5));
#316=CARTESIAN_POINT('',(219.,33.5000000004097,35.));
#317=CARTESIAN_POINT('',(218.999999999998,35.0000000004097,35.));
#318=CARTESIAN_POINT('',(252.5,33.5,33.5));
#319=CARTESIAN_POINT('',(252.50000000041,33.5000000004097,35.));
#320=CARTESIAN_POINT('',(254.000000000408,35.0000000004112,35.));
#321=CARTESIAN_POINT('',(252.5,-1.27675647831893E-15,33.5));
#322=CARTESIAN_POINT('',(252.50000000041,-1.27675616399795E-15,35.));
#323=CARTESIAN_POINT('',(254.00000000041,1.54285832879556E-12,35.));
#324=CARTESIAN_POINT('',(270.,76.,11.));
#325=CARTESIAN_POINT('',(257.1,5.62862836469446E-15,12.5));
#326=CARTESIAN_POINT('',(257.1,38.1,12.5));
#327=CARTESIAN_POINT('',(219.,38.1,12.5));
#328=CARTESIAN_POINT('',(180.9,38.1,12.5));
#329=CARTESIAN_POINT('',(180.9,-4.11570910022477E-14,12.5));
#330=CARTESIAN_POINT('',(180.9,-38.1000000000001,12.5));
#331=CARTESIAN_POINT('',(219.,-38.1,12.5));
#332=CARTESIAN_POINT('',(257.1,-38.1,12.5));
#333=CARTESIAN_POINT('',(257.1,5.62862836469446E-15,12.5));
#334=CARTESIAN_POINT('',(257.1,5.62862836469444E-15,11.));
#335=CARTESIAN_POINT('',(257.1,38.1,11.));
#336=CARTESIAN_POINT('',(219.,38.1,11.));
#337=CARTESIAN_POINT('',(180.9,38.1,11.));
#338=CARTESIAN_POINT('',(180.9,-4.11570910022477E-14,11.));
#339=CARTESIAN_POINT('',(180.9,-38.1000000000001,11.));
#340=CARTESIAN_POINT('',(219.,-38.1,11.));
#341=CARTESIAN_POINT('',(257.1,-38.1,11.));
#342=CARTESIAN_POINT('',(257.1,5.62862836469444E-15,11.));
#343=CARTESIAN_POINT('',(255.6,3.99680288865056E-15,11.));
#344=CARTESIAN_POINT('',(255.6,36.6,11.));
#345=CARTESIAN_POINT('',(219.,36.6,11.));
#346=CARTESIAN_POINT('',(182.4,36.6,11.));
#347=CARTESIAN_POINT('',(182.4,-3.97089625460759E-14,11.));
#348=CARTESIAN_POINT('',(182.4,-36.6000000000001,11.));
#349=CARTESIAN_POINT('',(219.,-36.6,11.));
#350=CARTESIAN_POINT('',(255.6,-36.6,11.));
#351=CARTESIAN_POINT('',(255.6,3.99680288865056E-15,11.));
#352=CARTESIAN_POINT('',(219.,-5.6843418860808E-14,26.));
#353=CARTESIAN_POINT('',(249.075,-1.27675647831893E-15,27.));
#354=CARTESIAN_POINT('',(249.075,30.075,27.));
#355=CARTESIAN_POINT('',(219.,30.0749999999999,27.));
#356=CARTESIAN_POINT('',(188.925,30.0749999999999,27.));
#357=CARTESIAN_POINT('',(188.925,-1.08726955994861E-13,27.));
#358=CARTESIAN_POINT('',(188.925,-30.0750000000001,27.));
#359=CARTESIAN_POINT('',(219.,-30.075,27.));
#360=CARTESIAN_POINT('',(249.075,-30.075,27.));
#361=CARTESIAN_POINT('',(249.075,-1.27675647831893E-15,27.));
#362=CARTESIAN_POINT('',(249.075000000034,-1.27675647652969E-15,28.));
#363=CARTESIAN_POINT('',(249.075000000034,30.0750000000344,28.));
#364=CARTESIAN_POINT('',(219.,30.0750000000343,28.));
#365=CARTESIAN_POINT('',(188.924999999966,30.0750000000342,28.));
#366=CARTESIAN_POINT('',(188.924999999966,-1.08726955996646E-13,28.));
#367=CARTESIAN_POINT('',(188.924999999966,-30.0750000000345,28.));
#368=CARTESIAN_POINT('',(219.,-30.0750000000344,28.));
#369=CARTESIAN_POINT('',(249.075000000034,-30.0750000000344,28.));
#370=CARTESIAN_POINT('',(249.075000000034,-1.27675647652969E-15,28.));
#371=CARTESIAN_POINT('',(250.075000000034,6.99897678820226E-14,28.));
#372=CARTESIAN_POINT('',(250.075000000034,31.0750000000344,28.));
#373=CARTESIAN_POINT('',(219.,31.0750000000343,28.));
#374=CARTESIAN_POINT('',(187.924999999966,31.0750000000342,28.));
#375=CARTESIAN_POINT('',(187.924999999966,-1.79871015675284E-13,28.));
#376=CARTESIAN_POINT('',(187.924999999966,-31.0750000000346,28.));
#377=CARTESIAN_POINT('',(219.,-31.0750000000344,28.));
#378=CARTESIAN_POINT('',(250.075000000034,-31.0750000000343,28.));
#379=CARTESIAN_POINT('',(250.075000000034,6.99897678820226E-14,28.));
#380=CARTESIAN_POINT('',(262.,5.93969318174459E-15,30.));
#381=CARTESIAN_POINT('',(262.,5.93969318174459E-15,35.));
#382=CARTESIAN_POINT('',(252.5,-1.27675647831893E-15,30.));
#383=CARTESIAN_POINT('',(249.075,-1.27675647831893E-15,24.));
#384=CARTESIAN_POINT('',(252.5,-1.27675647831893E-15,28.));
#385=CARTESIAN_POINT('',(257.1,5.93969318174459E-15,30.));
#386=CARTESIAN_POINT('',(249.075,3.38849318974136E-16,11.));
#387=CARTESIAN_POINT('',(252.5,-1.27675647831893E-15,33.5));
#388=CARTESIAN_POINT('',(254.00000000041,1.54800184535204E-12,35.));
#389=CARTESIAN_POINT('',(257.1,6.25710117351214E-15,12.5));
#390=CARTESIAN_POINT('',(255.6,-1.38184585320461E-15,11.));
#391=CARTESIAN_POINT('',(249.075,-1.27675647831893E-15,27.));
#392=CARTESIAN_POINT('',(250.075000000034,6.54230599679971E-14,28.));
#393=CARTESIAN_POINT('',(262.,5.93969318174459E-15,30.));
#394=CARTESIAN_POINT('',(262.,43.,30.));
#395=CARTESIAN_POINT('',(219.,43.,30.));
#396=CARTESIAN_POINT('',(176.,43.,30.));
#397=CARTESIAN_POINT('',(176.,6.73711945410969E-16,30.));
#398=CARTESIAN_POINT('',(176.,-43.,30.));
#399=CARTESIAN_POINT('',(219.,-43.,30.));
#400=CARTESIAN_POINT('',(262.,-43.,30.));
#401=CARTESIAN_POINT('',(262.,5.93969318174459E-15,30.));
#402=CARTESIAN_POINT('',(262.,5.93969318174459E-15,30.));
#403=CARTESIAN_POINT('',(262.,5.93969318174459E-15,35.));
#404=CARTESIAN_POINT('',(262.,5.93969318174459E-15,35.));
#405=CARTESIAN_POINT('',(262.,43.,35.));
#406=CARTESIAN_POINT('',(219.,43.,35.));
#407=CARTESIAN_POINT('',(176.,43.,35.));
#408=CARTESIAN_POINT('',(176.,6.73711945410969E-16,35.));
#409=CARTESIAN_POINT('',(176.,-43.,35.));
#410=CARTESIAN_POINT('',(219.,-43.,35.));
#411=CARTESIAN_POINT('',(262.,-43.,35.));
#412=CARTESIAN_POINT('',(262.,5.93969318174459E-15,35.));
#413=CARTESIAN_POINT('',(252.5,-1.27675647831893E-15,30.));
#414=CARTESIAN_POINT('',(252.5,33.5,30.));
#415=CARTESIAN_POINT('',(219.,33.5,30.));
#416=CARTESIAN_POINT('',(185.5,33.5,30.));
#417=CARTESIAN_POINT('',(185.5,2.8258102988247E-15,30.));
#418=CARTESIAN_POINT('',(185.5,-33.5,30.));
#419=CARTESIAN_POINT('',(219.,-33.5,30.));
#420=CARTESIAN_POINT('',(252.5,-33.5,30.));
#421=CARTESIAN_POINT('',(252.5,-1.27675647831893E-15,30.));
#422=CARTESIAN_POINT('',(252.5,-1.27675647831893E-15,30.));
#423=CARTESIAN_POINT('',(252.5,-1.27675647831893E-15,33.5));
#424=CARTESIAN_POINT('',(257.1,5.93969318174459E-15,30.));
#425=CARTESIAN_POINT('',(257.1,38.1,30.));
#426=CARTESIAN_POINT('',(219.,38.1,30.));
#427=CARTESIAN_POINT('',(180.9,38.1,30.));
#428=CARTESIAN_POINT('',(180.9,1.27378887699317E-15,30.));
#429=CARTESIAN_POINT('',(180.9,-38.1,30.));
#430=CARTESIAN_POINT('',(219.,-38.1,30.));
#431=CARTESIAN_POINT('',(257.1,-38.1,30.));
#432=CARTESIAN_POINT('',(257.1,5.93969318174459E-15,30.));
#433=CARTESIAN_POINT('',(249.075,-1.27675647831893E-15,24.));
#434=CARTESIAN_POINT('',(249.075,-30.075,24.));
#435=CARTESIAN_POINT('',(219.,-30.075,24.));
#436=CARTESIAN_POINT('',(188.925,-30.075,24.));
#437=CARTESIAN_POINT('',(188.925,2.40636877011673E-15,24.));
#438=CARTESIAN_POINT('',(188.925,30.075,24.));
#439=CARTESIAN_POINT('',(219.,30.075,24.));
#440=CARTESIAN_POINT('',(249.075,30.075,24.));
#441=CARTESIAN_POINT('',(249.075,-1.27675647831893E-15,24.));
#442=CARTESIAN_POINT('',(249.075,-1.27675647831893E-15,24.));
#443=CARTESIAN_POINT('',(249.075,3.38849318974136E-16,11.));
#444=CARTESIAN_POINT('',(252.5,-1.27675647831893E-15,28.));
#445=CARTESIAN_POINT('',(252.5,33.5,28.));
#446=CARTESIAN_POINT('',(219.,33.5,28.));
#447=CARTESIAN_POINT('',(185.5,33.5,28.));
#448=CARTESIAN_POINT('',(185.5,2.8258102988247E-15,28.));
#449=CARTESIAN_POINT('',(185.5,-33.5,28.));
#450=CARTESIAN_POINT('',(219.,-33.5,28.));
#451=CARTESIAN_POINT('',(252.5,-33.5,28.));
#452=CARTESIAN_POINT('',(252.5,-1.27675647831893E-15,28.));
#453=CARTESIAN_POINT('',(252.5,-1.27675647831893E-15,28.));
#454=CARTESIAN_POINT('',(252.5,-1.27675647831893E-15,30.));
#455=CARTESIAN_POINT('',(249.075,-1.27675647831893E-15,11.));
#456=CARTESIAN_POINT('',(249.075,30.075,11.));
#457=CARTESIAN_POINT('',(219.,30.075,11.));
#458=CARTESIAN_POINT('',(188.925,30.075,11.));
#459=CARTESIAN_POINT('',(188.925,2.40636877011674E-15,11.));
#460=CARTESIAN_POINT('',(188.925,-30.075,11.));
#461=CARTESIAN_POINT('',(219.,-30.075,11.));
#462=CARTESIAN_POINT('',(249.075,-30.075,11.));
#463=CARTESIAN_POINT('',(249.075,-1.27675647831893E-15,11.));
#464=CARTESIAN_POINT('',(252.5,-1.27675647831893E-15,33.5));
#465=CARTESIAN_POINT('',(252.5,-33.5,33.5));
#466=CARTESIAN_POINT('',(219.,-33.5,33.5));
#467=CARTESIAN_POINT('',(185.5,-33.5,33.5));
#468=CARTESIAN_POINT('',(185.5,3.736855664348E-14,33.5));
#469=CARTESIAN_POINT('',(185.5,33.5000000000001,33.5));
#470=CARTESIAN_POINT('',(219.,33.5,33.5));
#471=CARTESIAN_POINT('',(252.5,33.5,33.5));
#472=CARTESIAN_POINT('',(252.5,-1.27675647831893E-15,33.5));
#473=CARTESIAN_POINT('',(252.5,-1.27675647831893E-15,33.5));
#474=CARTESIAN_POINT('',(252.50000000041,1.29500211424155E-15,35.));
#475=CARTESIAN_POINT('',(254.00000000041,1.54800184535204E-12,35.));
#476=CARTESIAN_POINT('',(254.00000000041,1.54285832879556E-12,35.));
#477=CARTESIAN_POINT('',(254.000000000411,-35.0000000004081,35.));
#478=CARTESIAN_POINT('',(219.000000000002,-35.0000000004096,35.));
#479=CARTESIAN_POINT('',(183.999999999592,-35.0000000004111,35.));
#480=CARTESIAN_POINT('',(183.99999999959,-1.50695022565032E-12,35.));
#481=CARTESIAN_POINT('',(183.999999999589,35.0000000004081,35.));
#482=CARTESIAN_POINT('',(218.999999999998,35.0000000004097,35.));
#483=CARTESIAN_POINT('',(254.000000000408,35.0000000004112,35.));
#484=CARTESIAN_POINT('',(254.00000000041,1.54285832879556E-12,35.));
#485=CARTESIAN_POINT('',(257.1,5.62862836469446E-15,12.5));
#486=CARTESIAN_POINT('',(257.1,38.1,12.5));
#487=CARTESIAN_POINT('',(219.,38.1,12.5));
#488=CARTESIAN_POINT('',(180.9,38.1,12.5));
#489=CARTESIAN_POINT('',(180.9,-4.11570910022477E-14,12.5));
#490=CARTESIAN_POINT('',(180.9,-38.1000000000001,12.5));
#491=CARTESIAN_POINT('',(219.,-38.1,12.5));
#492=CARTESIAN_POINT('',(257.1,-38.1,12.5));
#493=CARTESIAN_POINT('',(257.1,5.62862836469446E-15,12.5));
#494=CARTESIAN_POINT('',(257.1,6.25710117351214E-15,12.5));
#495=CARTESIAN_POINT('',(257.1,5.93969318174459E-15,30.));
#496=CARTESIAN_POINT('',(257.1,6.25710117351214E-15,12.5));
#497=CARTESIAN_POINT('',(257.1,3.25354039817569E-15,11.));
#498=CARTESIAN_POINT('',(255.6,-1.38184585320461E-15,11.));
#499=CARTESIAN_POINT('',(255.6,3.99680288865056E-15,11.));
#500=CARTESIAN_POINT('',(255.6,36.6,11.));
#501=CARTESIAN_POINT('',(219.,36.6,11.));
#502=CARTESIAN_POINT('',(182.4,36.6,11.));
#503=CARTESIAN_POINT('',(182.4,-3.97089625460759E-14,11.));
#504=CARTESIAN_POINT('',(182.4,-36.6000000000001,11.));
#505=CARTESIAN_POINT('',(219.,-36.6,11.));
#506=CARTESIAN_POINT('',(255.6,-36.6,11.));
#507=CARTESIAN_POINT('',(255.6,3.99680288865056E-15,11.));
#508=CARTESIAN_POINT('',(249.075,-1.27675647831894E-15,27.));
#509=CARTESIAN_POINT('',(249.075,30.075,27.));
#510=CARTESIAN_POINT('',(219.,30.0749999999999,27.));
#511=CARTESIAN_POINT('',(188.925,30.0749999999999,27.));
#512=CARTESIAN_POINT('',(188.925,-1.08726955994861E-13,27.));
#513=CARTESIAN_POINT('',(188.925,-30.0750000000001,27.));
#514=CARTESIAN_POINT('',(219.,-30.075,27.));
#515=CARTESIAN_POINT('',(249.075,-30.075,27.));
#516=CARTESIAN_POINT('',(249.075,-1.27675647831894E-15,27.));
#517=CARTESIAN_POINT('',(249.075,-1.27675647831893E-15,27.));
#518=CARTESIAN_POINT('',(249.075,-1.27675647831893E-15,24.));
#519=CARTESIAN_POINT('',(249.075,-1.27675647831893E-15,27.));
#520=CARTESIAN_POINT('',(249.075000000034,-3.56011043354236E-15,28.));
#521=CARTESIAN_POINT('',(250.075000000034,6.54230599679971E-14,28.));
#522=CARTESIAN_POINT('',(250.075000000034,6.99897678820226E-14,28.));
#523=CARTESIAN_POINT('',(250.075000000034,31.0750000000344,28.));
#524=CARTESIAN_POINT('',(219.,31.0750000000343,28.));
#525=CARTESIAN_POINT('',(187.924999999966,31.0750000000342,28.));
#526=CARTESIAN_POINT('',(187.924999999966,-1.79871015675284E-13,28.));
#527=CARTESIAN_POINT('',(187.924999999966,-31.0750000000346,28.));
#528=CARTESIAN_POINT('',(219.,-31.0750000000344,28.));
#529=CARTESIAN_POINT('',(250.075000000034,-31.0750000000343,28.));
#530=CARTESIAN_POINT('',(250.075000000034,6.99897678820226E-14,28.));
#531=CARTESIAN_POINT('',(0.,0.,0.));
ENDSEC;
END-ISO-10303-21;
