ISO-10303-21;
HEADER;
/* Generated by software containing ST-Developer
 * from STEP Tools, Inc. (www.steptools.com) 
 */
/* OPTION: using custom schema-name function */

FILE_DESCRIPTION(
/* description */ (''),
/* implementation_level */ '2;1');

FILE_NAME(
/* name */ 'coupler2',
/* time_stamp */ '2025-07-22T19:28:39+03:00',
/* author */ (''),
/* organization */ (''),
/* preprocessor_version */ 'ST-DEVELOPER v16.5',
/* originating_system */ 'Rhino 7.23',
/* authorisation */ '');

FILE_SCHEMA (('CONFIG_CONTROL_DESIGN'));
ENDSEC;

DATA;
#10=SHAPE_REPRESENTATION_RELATIONSHIP('','',#248,#12);
#11=MANIFOLD_SOLID_BREP('brep_1',#13);
#12=ADVANCED_BREP_SHAPE_REPRESENTATION('brep_rep_0',(#11,#258),#247);
#13=CLOSED_SHELL('',(#18,#19,#20,#21,#22,#23,#24,#25,#26,#27,#28,#29));
#14=FACE_BOUND('',#44,.T.);
#15=FACE_BOUND('',#48,.T.);
#16=FACE_BOUND('',#50,.T.);
#17=FACE_BOUND('',#52,.T.);
#18=ADVANCED_FACE('',(#30),#158,.T.);
#19=ADVANCED_FACE('',(#31,#14),#154,.T.);
#20=ADVANCED_FACE('',(#32),#159,.T.);
#21=ADVANCED_FACE('',(#33),#150,.T.);
#22=ADVANCED_FACE('',(#34,#15),#155,.T.);
#23=ADVANCED_FACE('',(#35,#16),#156,.T.);
#24=ADVANCED_FACE('',(#36,#17),#157,.T.);
#25=ADVANCED_FACE('',(#37),#160,.F.);
#26=ADVANCED_FACE('',(#38),#151,.T.);
#27=ADVANCED_FACE('',(#39),#161,.F.);
#28=ADVANCED_FACE('',(#40),#152,.T.);
#29=ADVANCED_FACE('',(#41),#153,.T.);
#30=FACE_OUTER_BOUND('',#42,.T.);
#31=FACE_OUTER_BOUND('',#43,.T.);
#32=FACE_OUTER_BOUND('',#45,.T.);
#33=FACE_OUTER_BOUND('',#46,.T.);
#34=FACE_OUTER_BOUND('',#47,.T.);
#35=FACE_OUTER_BOUND('',#49,.T.);
#36=FACE_OUTER_BOUND('',#51,.T.);
#37=FACE_OUTER_BOUND('',#53,.T.);
#38=FACE_OUTER_BOUND('',#54,.T.);
#39=FACE_OUTER_BOUND('',#55,.T.);
#40=FACE_OUTER_BOUND('',#56,.T.);
#41=FACE_OUTER_BOUND('',#57,.T.);
#42=EDGE_LOOP('',(#58,#59,#60,#61));
#43=EDGE_LOOP('',(#62));
#44=EDGE_LOOP('',(#63));
#45=EDGE_LOOP('',(#64,#65,#66,#67));
#46=EDGE_LOOP('',(#68,#69,#70,#71));
#47=EDGE_LOOP('',(#72));
#48=EDGE_LOOP('',(#73));
#49=EDGE_LOOP('',(#74));
#50=EDGE_LOOP('',(#75));
#51=EDGE_LOOP('',(#76));
#52=EDGE_LOOP('',(#77));
#53=EDGE_LOOP('',(#78,#79,#80,#81));
#54=EDGE_LOOP('',(#82,#83,#84,#85));
#55=EDGE_LOOP('',(#86,#87,#88,#89));
#56=EDGE_LOOP('',(#90,#91,#92,#93));
#57=EDGE_LOOP('',(#94,#95,#96,#97));
#58=ORIENTED_EDGE('',*,*,#98,.T.);
#59=ORIENTED_EDGE('',*,*,#99,.T.);
#60=ORIENTED_EDGE('',*,*,#100,.F.);
#61=ORIENTED_EDGE('',*,*,#99,.F.);
#62=ORIENTED_EDGE('',*,*,#98,.F.);
#63=ORIENTED_EDGE('',*,*,#101,.T.);
#64=ORIENTED_EDGE('',*,*,#102,.T.);
#65=ORIENTED_EDGE('',*,*,#103,.T.);
#66=ORIENTED_EDGE('',*,*,#101,.F.);
#67=ORIENTED_EDGE('',*,*,#103,.F.);
#68=ORIENTED_EDGE('',*,*,#104,.T.);
#69=ORIENTED_EDGE('',*,*,#105,.T.);
#70=ORIENTED_EDGE('',*,*,#104,.F.);
#71=ORIENTED_EDGE('',*,*,#102,.F.);
#72=ORIENTED_EDGE('',*,*,#100,.T.);
#73=ORIENTED_EDGE('',*,*,#110,.F.);
#74=ORIENTED_EDGE('',*,*,#106,.T.);
#75=ORIENTED_EDGE('',*,*,#114,.F.);
#76=ORIENTED_EDGE('',*,*,#105,.F.);
#77=ORIENTED_EDGE('',*,*,#117,.T.);
#78=ORIENTED_EDGE('',*,*,#108,.T.);
#79=ORIENTED_EDGE('',*,*,#107,.F.);
#80=ORIENTED_EDGE('',*,*,#106,.F.);
#81=ORIENTED_EDGE('',*,*,#107,.T.);
#82=ORIENTED_EDGE('',*,*,#109,.T.);
#83=ORIENTED_EDGE('',*,*,#110,.T.);
#84=ORIENTED_EDGE('',*,*,#109,.F.);
#85=ORIENTED_EDGE('',*,*,#108,.F.);
#86=ORIENTED_EDGE('',*,*,#112,.F.);
#87=ORIENTED_EDGE('',*,*,#111,.T.);
#88=ORIENTED_EDGE('',*,*,#112,.T.);
#89=ORIENTED_EDGE('',*,*,#115,.F.);
#90=ORIENTED_EDGE('',*,*,#113,.T.);
#91=ORIENTED_EDGE('',*,*,#114,.T.);
#92=ORIENTED_EDGE('',*,*,#113,.F.);
#93=ORIENTED_EDGE('',*,*,#111,.F.);
#94=ORIENTED_EDGE('',*,*,#115,.T.);
#95=ORIENTED_EDGE('',*,*,#116,.T.);
#96=ORIENTED_EDGE('',*,*,#117,.F.);
#97=ORIENTED_EDGE('',*,*,#116,.F.);
#98=EDGE_CURVE('',#138,#138,#118,.T.);
#99=EDGE_CURVE('',#138,#139,#119,.T.);
#100=EDGE_CURVE('',#139,#139,#120,.T.);
#101=EDGE_CURVE('',#140,#140,#121,.T.);
#102=EDGE_CURVE('',#141,#141,#122,.T.);
#103=EDGE_CURVE('',#141,#140,#123,.T.);
#104=EDGE_CURVE('',#141,#142,#124,.T.);
#105=EDGE_CURVE('',#142,#142,#125,.T.);
#106=EDGE_CURVE('',#143,#143,#126,.T.);
#107=EDGE_CURVE('',#143,#145,#127,.T.);
#108=EDGE_CURVE('',#145,#145,#128,.T.);
#109=EDGE_CURVE('',#145,#144,#129,.T.);
#110=EDGE_CURVE('',#144,#144,#130,.T.);
#111=EDGE_CURVE('',#147,#147,#131,.T.);
#112=EDGE_CURVE('',#147,#149,#132,.T.);
#113=EDGE_CURVE('',#147,#146,#133,.T.);
#114=EDGE_CURVE('',#146,#146,#134,.T.);
#115=EDGE_CURVE('',#149,#149,#135,.T.);
#116=EDGE_CURVE('',#149,#148,#136,.T.);
#117=EDGE_CURVE('',#148,#148,#137,.T.);
#118=(
BOUNDED_CURVE()
B_SPLINE_CURVE(2,(#400,#401,#402,#403,#404,#405,#406,#407,#408),
 .UNSPECIFIED.,.T.,.F.)
B_SPLINE_CURVE_WITH_KNOTS((3,2,2,2,3),(-239.389360203542,-179.542020152657,
-119.694680101771,-59.8473400508856,0.),.UNSPECIFIED.)
CURVE()
GEOMETRIC_REPRESENTATION_ITEM()
RATIONAL_B_SPLINE_CURVE((1.,0.707106781186548,1.,0.707106781186548,1.,0.707106781186548,
1.,0.707106781186548,1.))
REPRESENTATION_ITEM('')
);
#119=(
BOUNDED_CURVE()
B_SPLINE_CURVE(1,(#409,#410),.UNSPECIFIED.,.F.,.F.)
B_SPLINE_CURVE_WITH_KNOTS((2,2),(0.,5.),.UNSPECIFIED.)
CURVE()
GEOMETRIC_REPRESENTATION_ITEM()
RATIONAL_B_SPLINE_CURVE((1.,1.))
REPRESENTATION_ITEM('')
);
#120=(
BOUNDED_CURVE()
B_SPLINE_CURVE(2,(#411,#412,#413,#414,#415,#416,#417,#418,#419),
 .UNSPECIFIED.,.T.,.F.)
B_SPLINE_CURVE_WITH_KNOTS((3,2,2,2,3),(-239.389360203542,-179.542020152657,
-119.694680101771,-59.8473400508856,0.),.UNSPECIFIED.)
CURVE()
GEOMETRIC_REPRESENTATION_ITEM()
RATIONAL_B_SPLINE_CURVE((1.,0.707106781186548,1.,0.707106781186548,1.,0.707106781186548,
1.,0.707106781186548,1.))
REPRESENTATION_ITEM('')
);
#121=(
BOUNDED_CURVE()
B_SPLINE_CURVE(2,(#420,#421,#422,#423,#424,#425,#426,#427,#428),
 .UNSPECIFIED.,.T.,.F.)
B_SPLINE_CURVE_WITH_KNOTS((3,2,2,2,3),(-239.389360203542,-179.542020152657,
-119.694680101771,-59.8473400508856,0.),.UNSPECIFIED.)
CURVE()
GEOMETRIC_REPRESENTATION_ITEM()
RATIONAL_B_SPLINE_CURVE((1.,0.707106781186548,1.,0.707106781186548,1.,0.707106781186548,
1.,0.707106781186548,1.))
REPRESENTATION_ITEM('')
);
#122=(
BOUNDED_CURVE()
B_SPLINE_CURVE(2,(#429,#430,#431,#432,#433,#434,#435,#436,#437),
 .UNSPECIFIED.,.T.,.F.)
B_SPLINE_CURVE_WITH_KNOTS((3,2,2,2,3),(2.9881628330713E-16,57.4907824337507,
114.981564867501,172.472347301252,229.963129735003),.UNSPECIFIED.)
CURVE()
GEOMETRIC_REPRESENTATION_ITEM()
RATIONAL_B_SPLINE_CURVE((1.,0.707106781186548,1.,0.707106781186548,1.,0.707106781186548,
1.,0.707106781186548,1.))
REPRESENTATION_ITEM('')
);
#123=(
BOUNDED_CURVE()
B_SPLINE_CURVE(1,(#438,#439),.UNSPECIFIED.,.F.,.F.)
B_SPLINE_CURVE_WITH_KNOTS((2,2),(12.5,30.),.UNSPECIFIED.)
CURVE()
GEOMETRIC_REPRESENTATION_ITEM()
RATIONAL_B_SPLINE_CURVE((1.,1.))
REPRESENTATION_ITEM('')
);
#124=(
BOUNDED_CURVE()
B_SPLINE_CURVE(2,(#440,#441,#442),.UNSPECIFIED.,.F.,.F.)
B_SPLINE_CURVE_WITH_KNOTS((3,3),(0.,2.35619449162161),.UNSPECIFIED.)
CURVE()
GEOMETRIC_REPRESENTATION_ITEM()
RATIONAL_B_SPLINE_CURVE((1.,0.707106781186553,1.))
REPRESENTATION_ITEM('')
);
#125=(
BOUNDED_CURVE()
B_SPLINE_CURVE(2,(#443,#444,#445,#446,#447,#448,#449,#450,#451),
 .UNSPECIFIED.,.T.,.F.)
B_SPLINE_CURVE_WITH_KNOTS((3,2,2,2,3),(0.,57.4907824337507,114.981564867501,
172.472347301252,229.963129735003),.UNSPECIFIED.)
CURVE()
GEOMETRIC_REPRESENTATION_ITEM()
RATIONAL_B_SPLINE_CURVE((1.,0.707106781186548,1.,0.707106781186548,1.,0.707106781186548,
1.,0.707106781186548,1.))
REPRESENTATION_ITEM('')
);
#126=(
BOUNDED_CURVE()
B_SPLINE_CURVE(2,(#452,#453,#454,#455,#456,#457,#458,#459,#460),
 .UNSPECIFIED.,.T.,.F.)
B_SPLINE_CURVE_WITH_KNOTS((3,2,2,2,3),(0.,44.1001068747667,88.2002137495334,
132.3003206243,176.400427499067),.UNSPECIFIED.)
CURVE()
GEOMETRIC_REPRESENTATION_ITEM()
RATIONAL_B_SPLINE_CURVE((1.,0.707106781186548,1.,0.707106781186548,1.,0.707106781186548,
1.,0.707106781186548,1.))
REPRESENTATION_ITEM('')
);
#127=(
BOUNDED_CURVE()
B_SPLINE_CURVE(1,(#461,#462),.UNSPECIFIED.,.F.,.F.)
B_SPLINE_CURVE_WITH_KNOTS((2,2),(0.,9.99999999999999),.UNSPECIFIED.)
CURVE()
GEOMETRIC_REPRESENTATION_ITEM()
RATIONAL_B_SPLINE_CURVE((1.,1.))
REPRESENTATION_ITEM('')
);
#128=(
BOUNDED_CURVE()
B_SPLINE_CURVE(2,(#463,#464,#465,#466,#467,#468,#469,#470,#471),
 .UNSPECIFIED.,.T.,.F.)
B_SPLINE_CURVE_WITH_KNOTS((3,2,2,2,3),(0.,45.6706147339245,91.341229467849,
137.011844201774,182.682458935698),.UNSPECIFIED.)
CURVE()
GEOMETRIC_REPRESENTATION_ITEM()
RATIONAL_B_SPLINE_CURVE((1.,0.707106781186548,1.,0.707106781186548,1.,0.707106781186548,
1.,0.707106781186548,1.))
REPRESENTATION_ITEM('')
);
#129=(
BOUNDED_CURVE()
B_SPLINE_CURVE(2,(#472,#473,#474),.UNSPECIFIED.,.F.,.F.)
B_SPLINE_CURVE_WITH_KNOTS((3,3),(0.,1.57079632679492),.UNSPECIFIED.)
CURVE()
GEOMETRIC_REPRESENTATION_ITEM()
RATIONAL_B_SPLINE_CURVE((1.,0.707106781247493,1.))
REPRESENTATION_ITEM('')
);
#130=(
BOUNDED_CURVE()
B_SPLINE_CURVE(2,(#475,#476,#477,#478,#479,#480,#481,#482,#483),
 .UNSPECIFIED.,.T.,.F.)
B_SPLINE_CURVE_WITH_KNOTS((3,2,2,2,3),(0.,45.6706147339245,91.341229467849,
137.011844201774,182.682458935698),.UNSPECIFIED.)
CURVE()
GEOMETRIC_REPRESENTATION_ITEM()
RATIONAL_B_SPLINE_CURVE((1.,0.707106781186548,1.,0.707106781186548,1.,0.707106781186548,
1.,0.707106781186548,1.))
REPRESENTATION_ITEM('')
);
#131=(
BOUNDED_CURVE()
B_SPLINE_CURVE(2,(#484,#485,#486,#487,#488,#489,#490,#491,#492),
 .UNSPECIFIED.,.T.,.F.)
B_SPLINE_CURVE_WITH_KNOTS((3,2,2,2,3),(0.,31.5728067464389,63.1456134928777,
94.7184202393166,126.291226985755),.UNSPECIFIED.)
CURVE()
GEOMETRIC_REPRESENTATION_ITEM()
RATIONAL_B_SPLINE_CURVE((1.,0.707106781186548,1.,0.707106781186548,1.,0.707106781186548,
1.,0.707106781186548,1.))
REPRESENTATION_ITEM('')
);
#132=(
BOUNDED_CURVE()
B_SPLINE_CURVE(1,(#493,#494),.UNSPECIFIED.,.F.,.F.)
B_SPLINE_CURVE_WITH_KNOTS((2,2),(45.,56.),.UNSPECIFIED.)
CURVE()
GEOMETRIC_REPRESENTATION_ITEM()
RATIONAL_B_SPLINE_CURVE((1.,1.))
REPRESENTATION_ITEM('')
);
#133=(
BOUNDED_CURVE()
B_SPLINE_CURVE(2,(#495,#496,#497),.UNSPECIFIED.,.F.,.F.)
B_SPLINE_CURVE_WITH_KNOTS((3,3),(0.,1.57079632679492),.UNSPECIFIED.)
CURVE()
GEOMETRIC_REPRESENTATION_ITEM()
RATIONAL_B_SPLINE_CURVE((1.,0.70710678189673,1.))
REPRESENTATION_ITEM('')
);
#134=(
BOUNDED_CURVE()
B_SPLINE_CURVE(2,(#498,#499,#500,#501,#502,#503,#504,#505,#506),
 .UNSPECIFIED.,.T.,.F.)
B_SPLINE_CURVE_WITH_KNOTS((3,2,2,2,3),(0.,31.5728067464389,63.1456134928777,
94.7184202393166,126.291226985755),.UNSPECIFIED.)
CURVE()
GEOMETRIC_REPRESENTATION_ITEM()
RATIONAL_B_SPLINE_CURVE((1.,0.707106781186548,1.,0.707106781186548,1.,0.707106781186548,
1.,0.707106781186548,1.))
REPRESENTATION_ITEM('')
);
#135=(
BOUNDED_CURVE()
B_SPLINE_CURVE(2,(#507,#508,#509,#510,#511,#512,#513,#514,#515),
 .UNSPECIFIED.,.T.,.F.)
B_SPLINE_CURVE_WITH_KNOTS((3,2,2,2,3),(0.,31.5728067464381,63.1456134928763,
94.7184202393144,126.291226985753),.UNSPECIFIED.)
CURVE()
GEOMETRIC_REPRESENTATION_ITEM()
RATIONAL_B_SPLINE_CURVE((1.,0.707106781186548,1.,0.707106781186548,1.,0.707106781186548,
1.,0.707106781186548,1.))
REPRESENTATION_ITEM('')
);
#136=(
BOUNDED_CURVE()
B_SPLINE_CURVE(2,(#516,#517,#518),.UNSPECIFIED.,.F.,.F.)
B_SPLINE_CURVE_WITH_KNOTS((3,3),(0.,1.57079632679493),.UNSPECIFIED.)
CURVE()
GEOMETRIC_REPRESENTATION_ITEM()
RATIONAL_B_SPLINE_CURVE((1.,0.707106781896757,1.))
REPRESENTATION_ITEM('')
);
#137=(
BOUNDED_CURVE()
B_SPLINE_CURVE(2,(#519,#520,#521,#522,#523,#524,#525,#526,#527),
 .UNSPECIFIED.,.T.,.F.)
B_SPLINE_CURVE_WITH_KNOTS((3,2,2,2,3),(0.,31.5728067464381,63.1456134928763,
94.7184202393144,126.291226985753),.UNSPECIFIED.)
CURVE()
GEOMETRIC_REPRESENTATION_ITEM()
RATIONAL_B_SPLINE_CURVE((1.,0.707106781186548,1.,0.707106781186548,1.,0.707106781186548,
1.,0.707106781186548,1.))
REPRESENTATION_ITEM('')
);
#138=VERTEX_POINT('',#388);
#139=VERTEX_POINT('',#389);
#140=VERTEX_POINT('',#390);
#141=VERTEX_POINT('',#391);
#142=VERTEX_POINT('',#392);
#143=VERTEX_POINT('',#393);
#144=VERTEX_POINT('',#394);
#145=VERTEX_POINT('',#395);
#146=VERTEX_POINT('',#396);
#147=VERTEX_POINT('',#397);
#148=VERTEX_POINT('',#398);
#149=VERTEX_POINT('',#399);
#150=(
BOUNDED_SURFACE()
B_SPLINE_SURFACE(2,2,((#275,#276,#277,#278,#279,#280,#281,#282,#283),(#284,
#285,#286,#287,#288,#289,#290,#291,#292),(#293,#294,#295,#296,#297,#298,
#299,#300,#301)),.UNSPECIFIED.,.F.,.F.,.F.)
B_SPLINE_SURFACE_WITH_KNOTS((3,3),(3,2,2,2,3),(0.,2.35619449162161),(0.,
57.4907824337507,114.981564867501,172.472347301252,229.963129735003),
 .UNSPECIFIED.)
GEOMETRIC_REPRESENTATION_ITEM()
RATIONAL_B_SPLINE_SURFACE(((1.,0.707106781186548,1.,0.707106781186548,1.,
0.707106781186548,1.,0.707106781186548,1.),(0.707106781186553,0.500000000000004,
0.707106781186553,0.500000000000004,0.707106781186553,0.500000000000004,
0.707106781186553,0.500000000000004,0.707106781186553),(1.,0.707106781186548,
1.,0.707106781186548,1.,0.707106781186548,1.,0.707106781186548,1.)))
REPRESENTATION_ITEM('')
SURFACE()
);
#151=(
BOUNDED_SURFACE()
B_SPLINE_SURFACE(2,2,((#306,#307,#308,#309,#310,#311,#312,#313,#314),(#315,
#316,#317,#318,#319,#320,#321,#322,#323),(#324,#325,#326,#327,#328,#329,
#330,#331,#332)),.UNSPECIFIED.,.F.,.F.,.F.)
B_SPLINE_SURFACE_WITH_KNOTS((3,3),(3,2,2,2,3),(0.,1.57079632679492),(0.,
45.6706147339245,91.341229467849,137.011844201774,182.682458935698),
 .UNSPECIFIED.)
GEOMETRIC_REPRESENTATION_ITEM()
RATIONAL_B_SPLINE_SURFACE(((1.,0.707106781186548,1.,0.707106781186548,1.,
0.707106781186548,1.,0.707106781186548,1.),(0.707106781247493,0.500000000043095,
0.707106781247493,0.500000000043095,0.707106781247493,0.500000000043095,
0.707106781247493,0.500000000043095,0.707106781247493),(1.,0.707106781186548,
1.,0.707106781186548,1.,0.707106781186548,1.,0.707106781186548,1.)))
REPRESENTATION_ITEM('')
SURFACE()
);
#152=(
BOUNDED_SURFACE()
B_SPLINE_SURFACE(2,2,((#334,#335,#336,#337,#338,#339,#340,#341,#342),(#343,
#344,#345,#346,#347,#348,#349,#350,#351),(#352,#353,#354,#355,#356,#357,
#358,#359,#360)),.UNSPECIFIED.,.F.,.F.,.F.)
B_SPLINE_SURFACE_WITH_KNOTS((3,3),(3,2,2,2,3),(0.,1.57079632679492),(0.,
31.5728067464389,63.1456134928777,94.7184202393166,126.291226985755),
 .UNSPECIFIED.)
GEOMETRIC_REPRESENTATION_ITEM()
RATIONAL_B_SPLINE_SURFACE(((1.,0.707106781186548,1.,0.707106781186548,1.,
0.707106781186548,1.,0.707106781186548,1.),(0.70710678189673,0.500000000502175,
0.70710678189673,0.500000000502175,0.70710678189673,0.500000000502175,0.70710678189673,
0.500000000502175,0.70710678189673),(1.,0.707106781186548,1.,0.707106781186548,
1.,0.707106781186548,1.,0.707106781186548,1.)))
REPRESENTATION_ITEM('')
SURFACE()
);
#153=(
BOUNDED_SURFACE()
B_SPLINE_SURFACE(2,2,((#361,#362,#363),(#364,#365,#366),(#367,#368,#369),
(#370,#371,#372),(#373,#374,#375),(#376,#377,#378),(#379,#380,#381),(#382,
#383,#384),(#385,#386,#387)),.UNSPECIFIED.,.T.,.F.,.F.)
B_SPLINE_SURFACE_WITH_KNOTS((3,2,2,2,3),(3,3),(0.,31.5728067464381,63.1456134928763,
94.7184202393144,126.291226985753),(0.,1.57079632679493),.UNSPECIFIED.)
GEOMETRIC_REPRESENTATION_ITEM()
RATIONAL_B_SPLINE_SURFACE(((1.,0.707106781896757,1.),(0.707106781186548,
0.500000000502194,0.707106781186548),(1.,0.707106781896757,1.),(0.707106781186548,
0.500000000502194,0.707106781186548),(1.,0.707106781896757,1.),(0.707106781186548,
0.500000000502194,0.707106781186548),(1.,0.707106781896757,1.),(0.707106781186548,
0.500000000502194,0.707106781186548),(1.,0.707106781896757,1.)))
REPRESENTATION_ITEM('')
SURFACE()
);
#154=PLANE('',#251);
#155=PLANE('',#253);
#156=PLANE('',#254);
#157=PLANE('',#255);
#158=CYLINDRICAL_SURFACE('',#250,43.);
#159=CYLINDRICAL_SURFACE('',#252,38.1);
#160=CYLINDRICAL_SURFACE('',#256,28.075);
#161=CYLINDRICAL_SURFACE('',#257,19.1);
#162=SHAPE_DEFINITION_REPRESENTATION(#163,#248);
#163=PRODUCT_DEFINITION_SHAPE('Document','',#165);
#164=PRODUCT_DEFINITION_CONTEXT('3D Mechanical Parts',#237,'design');
#165=PRODUCT_DEFINITION('A','First version',#207,#164);
#166=DATE_TIME_ROLE('classification_date');
#167=DATE_TIME_ROLE('creation_date');
#168=APPLIED_DATE_AND_TIME_ASSIGNMENT(#192,#166,(#171));
#169=APPLIED_DATE_AND_TIME_ASSIGNMENT(#194,#167,(#165));
#170=SECURITY_CLASSIFICATION_LEVEL('unclassified');
#171=SECURITY_CLASSIFICATION('A','Security for version',#170);
#172=APPLIED_SECURITY_CLASSIFICATION_ASSIGNMENT(#171,(#207));
#173=APPROVAL_ROLE('Version approval');
#174=APPROVAL_ROLE('Version Security approval');
#175=APPROVAL_ROLE('Definition approval');
#176=APPROVAL_PERSON_ORGANIZATION(#225,#201,#173);
#177=APPROVAL_PERSON_ORGANIZATION(#226,#202,#174);
#178=APPROVAL_PERSON_ORGANIZATION(#229,#203,#175);
#179=COORDINATED_UNIVERSAL_TIME_OFFSET(5,0,.BEHIND.);
#180=LOCAL_TIME(0,0,0.,#179);
#181=LOCAL_TIME(0,0,0.,#179);
#182=LOCAL_TIME(0,0,0.,#179);
#183=LOCAL_TIME(0,0,0.,#179);
#184=LOCAL_TIME(0,0,0.,#179);
#185=CALENDAR_DATE(1999,1,1);
#186=CALENDAR_DATE(1999,1,1);
#187=CALENDAR_DATE(1999,1,1);
#188=CALENDAR_DATE(1999,1,1);
#189=CALENDAR_DATE(1999,1,1);
#190=DATE_AND_TIME(#185,#180);
#191=DATE_AND_TIME(#186,#181);
#192=DATE_AND_TIME(#187,#182);
#193=DATE_AND_TIME(#188,#183);
#194=DATE_AND_TIME(#189,#184);
#195=APPROVAL_DATE_TIME(#190,#201);
#196=APPROVAL_DATE_TIME(#191,#202);
#197=APPROVAL_DATE_TIME(#193,#203);
#198=APPROVAL_STATUS('not_yet_approved');
#199=APPROVAL_STATUS('not_yet_approved');
#200=APPROVAL_STATUS('approved');
#201=APPROVAL(#198,'Version approval');
#202=APPROVAL(#199,'Version Security approval');
#203=APPROVAL(#200,'Definition approval');
#204=APPLIED_APPROVAL_ASSIGNMENT(#201,(#207));
#205=APPLIED_APPROVAL_ASSIGNMENT(#202,(#171));
#206=APPLIED_APPROVAL_ASSIGNMENT(#203,(#165));
#207=PRODUCT_DEFINITION_FORMATION_WITH_SPECIFIED_SOURCE('A',
'First version',#239,.MADE.);
#208=PERSON_AND_ORGANIZATION_ROLE('design_owner');
#209=PERSON_AND_ORGANIZATION_ROLE('creator');
#210=PERSON_AND_ORGANIZATION_ROLE('design_supplier');
#211=PERSON_AND_ORGANIZATION_ROLE('classification_officer');
#212=PERSON_AND_ORGANIZATION_ROLE('creator');
#213=ORGANIZATION('STI','lab','lab');
#214=ORGANIZATION('STI','unknown','unknown');
#215=ORGANIZATION('STI','unknown','unknown');
#216=ORGANIZATION('STI','unknown','unknown');
#217=ORGANIZATION('STI','unknown','unknown');
#218=ORGANIZATION('STI','unknown','unknown');
#219=ORGANIZATION('STI','unknown','unknown');
#220=PERSON('1','Box','vc60',$,$,$);
#221=PERSON('2','last','first',$,$,$);
#222=PERSON('3','President','Mr.',$,$,$);
#223=PERSON_AND_ORGANIZATION(#220,#213);
#224=PERSON_AND_ORGANIZATION(#221,#214);
#225=PERSON_AND_ORGANIZATION(#222,#215);
#226=PERSON_AND_ORGANIZATION(#222,#216);
#227=PERSON_AND_ORGANIZATION(#222,#217);
#228=PERSON_AND_ORGANIZATION(#221,#218);
#229=PERSON_AND_ORGANIZATION(#222,#219);
#230=APPLIED_PERSON_AND_ORGANIZATION_ASSIGNMENT(#223,#208,(#239));
#231=APPLIED_PERSON_AND_ORGANIZATION_ASSIGNMENT(#224,#209,(#207));
#232=APPLIED_PERSON_AND_ORGANIZATION_ASSIGNMENT(#224,#210,(#207));
#233=APPLIED_PERSON_AND_ORGANIZATION_ASSIGNMENT(#227,#211,(#171));
#234=APPLIED_PERSON_AND_ORGANIZATION_ASSIGNMENT(#228,#212,(#165));
#235=PRODUCT_RELATED_PRODUCT_CATEGORY('detail','detail',(#239));
#236=APPLICATION_PROTOCOL_DEFINITION('International Standard',
'config_control_design',1994,#237);
#237=APPLICATION_CONTEXT(
'configuration controlled 3d designs of mechanical parts and assemblie
s');
#238=PRODUCT_CONTEXT('3D Mechanical Parts',#237,'mechanical');
#239=PRODUCT('Document','Document','',(#238));
#240=(
LENGTH_UNIT()
NAMED_UNIT(*)
SI_UNIT(.MILLI.,.METRE.)
);
#241=(
NAMED_UNIT(*)
PLANE_ANGLE_UNIT()
SI_UNIT($,.RADIAN.)
);
#242=DIMENSIONAL_EXPONENTS(0.,0.,0.,0.,0.,0.,0.);
#243=PLANE_ANGLE_MEASURE_WITH_UNIT(PLANE_ANGLE_MEASURE(0.01745329252),#241);
#244=(
CONVERSION_BASED_UNIT('DEGREES',#243)
NAMED_UNIT(#242)
PLANE_ANGLE_UNIT()
);
#245=(
NAMED_UNIT(*)
SI_UNIT($,.STERADIAN.)
SOLID_ANGLE_UNIT()
);
#246=UNCERTAINTY_MEASURE_WITH_UNIT(LENGTH_MEASURE(0.001),#240,
'DISTANCE_ACCURACY_VALUE',
'Maximum model space distance between geometric entities at asserted c
onnectivities');
#247=(
GEOMETRIC_REPRESENTATION_CONTEXT(3)
GLOBAL_UNCERTAINTY_ASSIGNED_CONTEXT((#246))
GLOBAL_UNIT_ASSIGNED_CONTEXT((#245,#244,#240))
REPRESENTATION_CONTEXT('ID1','3D')
);
#248=SHAPE_REPRESENTATION('Document',(#249,#258),#247);
#249=AXIS2_PLACEMENT_3D('',#271,#259,#260);
#250=AXIS2_PLACEMENT_3D('',#272,#261,$);
#251=AXIS2_PLACEMENT_3D('',#273,#262,$);
#252=AXIS2_PLACEMENT_3D('',#274,#263,$);
#253=AXIS2_PLACEMENT_3D('',#302,#264,$);
#254=AXIS2_PLACEMENT_3D('',#303,#265,$);
#255=AXIS2_PLACEMENT_3D('',#304,#266,$);
#256=AXIS2_PLACEMENT_3D('',#305,#267,$);
#257=AXIS2_PLACEMENT_3D('',#333,#268,$);
#258=AXIS2_PLACEMENT_3D('',#528,#269,#270);
#259=DIRECTION('',(0.,0.,1.));
#260=DIRECTION('',(1.,0.,0.));
#261=DIRECTION('',(0.,0.,1.));
#262=DIRECTION('',(0.,0.,-1.));
#263=DIRECTION('',(0.,0.,1.));
#264=DIRECTION('',(0.,0.,1.));
#265=DIRECTION('',(0.,0.,1.));
#266=DIRECTION('',(0.,0.,-1.));
#267=DIRECTION('',(0.,0.,1.));
#268=DIRECTION('',(0.,0.,-1.));
#269=DIRECTION('',(0.,0.,1.));
#270=DIRECTION('',(1.,0.,0.));
#271=CARTESIAN_POINT('',(0.,0.,0.));
#272=CARTESIAN_POINT('',(-5.57808895494736E-31,7.53644380168212E-15,32.5));
#273=CARTESIAN_POINT('',(-53.75,-53.75,30.));
#274=CARTESIAN_POINT('',(1.38168136364172E-14,-1.25607396694702E-15,15.));
#275=CARTESIAN_POINT('',(38.1,5.62862836469446E-15,12.5));
#276=CARTESIAN_POINT('',(38.1,38.1,12.5));
#277=CARTESIAN_POINT('',(-2.33928596834711E-14,38.1,12.5));
#278=CARTESIAN_POINT('',(-38.1,38.1,12.5));
#279=CARTESIAN_POINT('',(-38.1,-4.11570910022477E-14,12.5));
#280=CARTESIAN_POINT('',(-38.1,-38.1000000000001,12.5));
#281=CARTESIAN_POINT('',(1.87269553787197E-14,-38.1,12.5));
#282=CARTESIAN_POINT('',(38.1,-38.1,12.5));
#283=CARTESIAN_POINT('',(38.1,5.62862836469446E-15,12.5));
#284=CARTESIAN_POINT('',(38.1,5.62862836469444E-15,11.));
#285=CARTESIAN_POINT('',(38.1,38.1,11.));
#286=CARTESIAN_POINT('',(-2.33928596834711E-14,38.1,11.));
#287=CARTESIAN_POINT('',(-38.1,38.1,11.));
#288=CARTESIAN_POINT('',(-38.1,-4.11570910022477E-14,11.));
#289=CARTESIAN_POINT('',(-38.1,-38.1000000000001,11.));
#290=CARTESIAN_POINT('',(1.87269553787196E-14,-38.1,11.));
#291=CARTESIAN_POINT('',(38.1,-38.1,11.));
#292=CARTESIAN_POINT('',(38.1,5.62862836469444E-15,11.));
#293=CARTESIAN_POINT('',(36.6,3.99680288865056E-15,11.));
#294=CARTESIAN_POINT('',(36.6,36.6,11.));
#295=CARTESIAN_POINT('',(-2.18528827173632E-14,36.6,11.));
#296=CARTESIAN_POINT('',(-36.6,36.6,11.));
#297=CARTESIAN_POINT('',(-36.6,-3.97089625460759E-14,11.));
#298=CARTESIAN_POINT('',(-36.6,-36.6000000000001,11.));
#299=CARTESIAN_POINT('',(1.73706754324839E-14,-36.6,11.));
#300=CARTESIAN_POINT('',(36.6,-36.6,11.));
#301=CARTESIAN_POINT('',(36.6,3.99680288865056E-15,11.));
#302=CARTESIAN_POINT('',(-43.86,-43.86,35.));
#303=CARTESIAN_POINT('',(-35.09375,-35.09375,24.));
#304=CARTESIAN_POINT('',(43.92,43.92,11.));
#305=CARTESIAN_POINT('',(7.88860905221012E-31,5.02429586778808E-15,51.5));
#306=CARTESIAN_POINT('',(28.075,7.53644380168212E-15,34.));
#307=CARTESIAN_POINT('',(28.075,28.075,34.));
#308=CARTESIAN_POINT('',(-7.93049989590942E-16,28.075,34.));
#309=CARTESIAN_POINT('',(-28.075,28.075,34.));
#310=CARTESIAN_POINT('',(-28.075,5.95034382250023E-15,34.));
#311=CARTESIAN_POINT('',(-28.075,-28.075,34.));
#312=CARTESIAN_POINT('',(-2.64514589901525E-15,-28.075,34.));
#313=CARTESIAN_POINT('',(28.075,-28.075,34.));
#314=CARTESIAN_POINT('',(28.075,7.53644380168212E-15,34.));
#315=CARTESIAN_POINT('',(28.0750000001036,7.53644378873688E-15,35.));
#316=CARTESIAN_POINT('',(28.0750000001036,28.0750000001036,35.));
#317=CARTESIAN_POINT('',(-7.93049976639354E-16,28.0750000001036,35.));
#318=CARTESIAN_POINT('',(-28.0750000001036,28.0750000001036,35.));
#319=CARTESIAN_POINT('',(-28.0750000001036,5.95034383545817E-15,35.));
#320=CARTESIAN_POINT('',(-28.0750000001036,-28.0750000001036,35.));
#321=CARTESIAN_POINT('',(-2.64514591197953E-15,-28.0750000001036,35.));
#322=CARTESIAN_POINT('',(28.0750000001036,-28.0750000001036,35.));
#323=CARTESIAN_POINT('',(28.0750000001036,7.53644378873688E-15,35.));
#324=CARTESIAN_POINT('',(29.0750000001036,-2.39900085574709E-13,35.));
#325=CARTESIAN_POINT('',(29.0750000001039,29.0750000001034,35.));
#326=CARTESIAN_POINT('',(2.46704711726764E-13,29.0750000001036,35.));
#327=CARTESIAN_POINT('',(-29.0750000001034,29.0750000001039,35.));
#328=CARTESIAN_POINT('',(-29.0750000001036,2.53509337878819E-13,35.));
#329=CARTESIAN_POINT('',(-29.0750000001039,-29.0750000001034,35.));
#330=CARTESIAN_POINT('',(-2.50265372295298E-13,-29.0750000001036,35.));
#331=CARTESIAN_POINT('',(29.0750000001034,-29.0750000001039,35.));
#332=CARTESIAN_POINT('',(29.0750000001036,-2.39900085574709E-13,35.));
#333=CARTESIAN_POINT('',(6.2803698347351E-16,6.90840681820861E-15,16.));
#334=CARTESIAN_POINT('',(19.1,7.53644380168212E-15,23.));
#335=CARTESIAN_POINT('',(19.1,19.1,23.));
#336=CARTESIAN_POINT('',(1.16953769318572E-15,19.1,23.));
#337=CARTESIAN_POINT('',(-19.1,19.1,23.));
#338=CARTESIAN_POINT('',(-19.1,8.61944522110655E-15,23.));
#339=CARTESIAN_POINT('',(-19.1,-19.1,23.));
#340=CARTESIAN_POINT('',(-2.25253911261015E-15,-19.1,23.));
#341=CARTESIAN_POINT('',(19.1,-19.1,23.));
#342=CARTESIAN_POINT('',(19.1,7.53644380168212E-15,23.));
#343=CARTESIAN_POINT('',(19.1000000008001,7.53644635512724E-15,24.));
#344=CARTESIAN_POINT('',(19.1000000008001,19.1000000008001,24.));
#345=CARTESIAN_POINT('',(1.1695351397896E-15,19.1000000008001,24.));
#346=CARTESIAN_POINT('',(-19.1000000008001,19.1000000008001,24.));
#347=CARTESIAN_POINT('',(-19.1000000008001,8.61944266775941E-15,24.));
#348=CARTESIAN_POINT('',(-19.1000000008001,-19.1000000008001,24.));
#349=CARTESIAN_POINT('',(-2.25253655931201E-15,-19.1000000008001,24.));
#350=CARTESIAN_POINT('',(19.1000000008001,-19.1000000008001,24.));
#351=CARTESIAN_POINT('',(19.1000000008001,7.53644635512724E-15,24.));
#352=CARTESIAN_POINT('',(20.1000000008001,4.21471966262315E-12,24.));
#353=CARTESIAN_POINT('',(20.1000000007959,20.1000000008043,24.));
#354=CARTESIAN_POINT('',(-4.20595244878828E-12,20.1000000008001,24.));
#355=CARTESIAN_POINT('',(-20.1000000008043,20.1000000007959,24.));
#356=CARTESIAN_POINT('',(-20.1000000008001,-4.19844130892035E-12,24.));
#357=CARTESIAN_POINT('',(-20.1000000007959,-20.1000000008043,24.));
#358=CARTESIAN_POINT('',(4.20474698268884E-12,-20.1000000008001,24.));
#359=CARTESIAN_POINT('',(20.1000000008043,-20.1000000007959,24.));
#360=CARTESIAN_POINT('',(20.1000000008001,4.21471966262315E-12,24.));
#361=CARTESIAN_POINT('',(19.1,7.53644380168212E-15,12.));
#362=CARTESIAN_POINT('',(19.1000000008001,7.53644635645762E-15,11.));
#363=CARTESIAN_POINT('',(20.1000000008001,4.21840340436574E-12,11.));
#364=CARTESIAN_POINT('',(19.1,19.1,12.));
#365=CARTESIAN_POINT('',(19.1000000008001,19.1000000008001,11.));
#366=CARTESIAN_POINT('',(20.1000000007959,20.1000000008043,11.));
#367=CARTESIAN_POINT('',(1.16953769318572E-15,19.1,12.));
#368=CARTESIAN_POINT('',(1.16953513845922E-15,19.1000000008001,11.));
#369=CARTESIAN_POINT('',(-4.20963619053087E-12,20.1000000008001,11.));
#370=CARTESIAN_POINT('',(-19.1,19.1,12.));
#371=CARTESIAN_POINT('',(-19.1000000008001,19.1000000008001,11.));
#372=CARTESIAN_POINT('',(-20.1000000008043,20.1000000007959,11.));
#373=CARTESIAN_POINT('',(-19.1,8.61944522110655E-15,12.));
#374=CARTESIAN_POINT('',(-19.1000000008001,8.61944266642903E-15,11.));
#375=CARTESIAN_POINT('',(-20.1000000008001,-4.20212505066294E-12,11.));
#376=CARTESIAN_POINT('',(-19.1,-19.1,12.));
#377=CARTESIAN_POINT('',(-19.1000000008001,-19.1000000008001,11.));
#378=CARTESIAN_POINT('',(-20.1000000007959,-20.1000000008043,11.));
#379=CARTESIAN_POINT('',(-2.25253911261015E-15,-19.1,12.));
#380=CARTESIAN_POINT('',(-2.25253655798163E-15,-19.1000000008001,11.));
#381=CARTESIAN_POINT('',(4.20843072443143E-12,-20.1000000008001,11.));
#382=CARTESIAN_POINT('',(19.1,-19.1,12.));
#383=CARTESIAN_POINT('',(19.1000000008001,-19.1000000008001,11.));
#384=CARTESIAN_POINT('',(20.1000000008043,-20.1000000007959,11.));
#385=CARTESIAN_POINT('',(19.1,7.53644380168212E-15,12.));
#386=CARTESIAN_POINT('',(19.1000000008001,7.53644635645762E-15,11.));
#387=CARTESIAN_POINT('',(20.1000000008001,4.21840340436574E-12,11.));
#388=CARTESIAN_POINT('',(43.,5.93969318174459E-15,30.));
#389=CARTESIAN_POINT('',(43.,5.93969318174459E-15,35.));
#390=CARTESIAN_POINT('',(38.1,5.93969318174459E-15,30.));
#391=CARTESIAN_POINT('',(38.1,6.25710117351214E-15,12.5));
#392=CARTESIAN_POINT('',(36.6,-1.38184585320461E-15,11.));
#393=CARTESIAN_POINT('',(28.075,7.53644380168212E-15,24.));
#394=CARTESIAN_POINT('',(29.0750000001036,-2.4417287825695E-13,35.));
#395=CARTESIAN_POINT('',(28.075,7.98098086051461E-15,34.));
#396=CARTESIAN_POINT('',(20.1000000008001,4.21176581454349E-12,24.));
#397=CARTESIAN_POINT('',(19.1,7.53553479172644E-15,23.));
#398=CARTESIAN_POINT('',(20.1000000008001,4.21544955628608E-12,11.));
#399=CARTESIAN_POINT('',(19.1,7.14504129821729E-15,12.));
#400=CARTESIAN_POINT('',(43.,5.93969318174459E-15,30.));
#401=CARTESIAN_POINT('',(43.,43.,30.));
#402=CARTESIAN_POINT('',(0.,43.,30.));
#403=CARTESIAN_POINT('',(-43.,43.,30.));
#404=CARTESIAN_POINT('',(-43.,6.73711945410969E-16,30.));
#405=CARTESIAN_POINT('',(-43.,-43.,30.));
#406=CARTESIAN_POINT('',(0.,-43.,30.));
#407=CARTESIAN_POINT('',(43.,-43.,30.));
#408=CARTESIAN_POINT('',(43.,5.93969318174459E-15,30.));
#409=CARTESIAN_POINT('',(43.,5.93969318174459E-15,30.));
#410=CARTESIAN_POINT('',(43.,5.93969318174459E-15,35.));
#411=CARTESIAN_POINT('',(43.,5.93969318174459E-15,35.));
#412=CARTESIAN_POINT('',(43.,43.,35.));
#413=CARTESIAN_POINT('',(0.,43.,35.));
#414=CARTESIAN_POINT('',(-43.,43.,35.));
#415=CARTESIAN_POINT('',(-43.,6.73711945410969E-16,35.));
#416=CARTESIAN_POINT('',(-43.,-43.,35.));
#417=CARTESIAN_POINT('',(0.,-43.,35.));
#418=CARTESIAN_POINT('',(43.,-43.,35.));
#419=CARTESIAN_POINT('',(43.,5.93969318174459E-15,35.));
#420=CARTESIAN_POINT('',(38.1,5.93969318174459E-15,30.));
#421=CARTESIAN_POINT('',(38.1,38.1,30.));
#422=CARTESIAN_POINT('',(0.,38.1,30.));
#423=CARTESIAN_POINT('',(-38.1,38.1,30.));
#424=CARTESIAN_POINT('',(-38.1,1.27378887699317E-15,30.));
#425=CARTESIAN_POINT('',(-38.1,-38.1,30.));
#426=CARTESIAN_POINT('',(0.,-38.1,30.));
#427=CARTESIAN_POINT('',(38.1,-38.1,30.));
#428=CARTESIAN_POINT('',(38.1,5.93969318174459E-15,30.));
#429=CARTESIAN_POINT('',(38.1,5.62862836469446E-15,12.5));
#430=CARTESIAN_POINT('',(38.1,38.1,12.5));
#431=CARTESIAN_POINT('',(-2.33928596834711E-14,38.1,12.5));
#432=CARTESIAN_POINT('',(-38.1,38.1,12.5));
#433=CARTESIAN_POINT('',(-38.1,-4.11570910022477E-14,12.5));
#434=CARTESIAN_POINT('',(-38.1,-38.1000000000001,12.5));
#435=CARTESIAN_POINT('',(1.87269553787197E-14,-38.1,12.5));
#436=CARTESIAN_POINT('',(38.1,-38.1,12.5));
#437=CARTESIAN_POINT('',(38.1,5.62862836469446E-15,12.5));
#438=CARTESIAN_POINT('',(38.1,6.25710117351214E-15,12.5));
#439=CARTESIAN_POINT('',(38.1,5.93969318174459E-15,30.));
#440=CARTESIAN_POINT('',(38.1,6.25710117351214E-15,12.5));
#441=CARTESIAN_POINT('',(38.1,3.25354039817569E-15,11.));
#442=CARTESIAN_POINT('',(36.6,-1.38184585320461E-15,11.));
#443=CARTESIAN_POINT('',(36.6,3.99680288865056E-15,11.));
#444=CARTESIAN_POINT('',(36.6,36.6,11.));
#445=CARTESIAN_POINT('',(-2.18528827173632E-14,36.6,11.));
#446=CARTESIAN_POINT('',(-36.6,36.6,11.));
#447=CARTESIAN_POINT('',(-36.6,-3.97089625460759E-14,11.));
#448=CARTESIAN_POINT('',(-36.6,-36.6000000000001,11.));
#449=CARTESIAN_POINT('',(1.73706754324839E-14,-36.6,11.));
#450=CARTESIAN_POINT('',(36.6,-36.6,11.));
#451=CARTESIAN_POINT('',(36.6,3.99680288865056E-15,11.));
#452=CARTESIAN_POINT('',(28.075,7.53644380168212E-15,24.));
#453=CARTESIAN_POINT('',(28.075,28.075,24.));
#454=CARTESIAN_POINT('',(1.7190979443031E-15,28.075,24.));
#455=CARTESIAN_POINT('',(-28.075,28.075,24.));
#456=CARTESIAN_POINT('',(-28.075,1.09746396902883E-14,24.));
#457=CARTESIAN_POINT('',(-28.075,-28.075,24.));
#458=CARTESIAN_POINT('',(-5.15729383290929E-15,-28.075,24.));
#459=CARTESIAN_POINT('',(28.075,-28.075,24.));
#460=CARTESIAN_POINT('',(28.075,7.53644380168212E-15,24.));
#461=CARTESIAN_POINT('',(28.075,7.53644380168212E-15,24.));
#462=CARTESIAN_POINT('',(28.075,7.98098086051461E-15,34.));
#463=CARTESIAN_POINT('',(28.075,7.53644380168212E-15,34.));
#464=CARTESIAN_POINT('',(28.075,28.075,34.));
#465=CARTESIAN_POINT('',(-7.93049989590942E-16,28.075,34.));
#466=CARTESIAN_POINT('',(-28.075,28.075,34.));
#467=CARTESIAN_POINT('',(-28.075,5.95034382250023E-15,34.));
#468=CARTESIAN_POINT('',(-28.075,-28.075,34.));
#469=CARTESIAN_POINT('',(-2.64514589901525E-15,-28.075,34.));
#470=CARTESIAN_POINT('',(28.075,-28.075,34.));
#471=CARTESIAN_POINT('',(28.075,7.53644380168212E-15,34.));
#472=CARTESIAN_POINT('',(28.075,7.98098086051461E-15,34.));
#473=CARTESIAN_POINT('',(28.0750000001036,5.62231597703297E-15,35.));
#474=CARTESIAN_POINT('',(29.0750000001036,-2.4417287825695E-13,35.));
#475=CARTESIAN_POINT('',(29.0750000001036,-2.39900085574709E-13,35.));
#476=CARTESIAN_POINT('',(29.0750000001039,29.0750000001034,35.));
#477=CARTESIAN_POINT('',(2.46704711726764E-13,29.0750000001036,35.));
#478=CARTESIAN_POINT('',(-29.0750000001034,29.0750000001039,35.));
#479=CARTESIAN_POINT('',(-29.0750000001036,2.53509337878819E-13,35.));
#480=CARTESIAN_POINT('',(-29.0750000001039,-29.0750000001034,35.));
#481=CARTESIAN_POINT('',(-2.50265372295298E-13,-29.0750000001036,35.));
#482=CARTESIAN_POINT('',(29.0750000001034,-29.0750000001039,35.));
#483=CARTESIAN_POINT('',(29.0750000001036,-2.39900085574709E-13,35.));
#484=CARTESIAN_POINT('',(19.1,7.53644380168212E-15,23.));
#485=CARTESIAN_POINT('',(19.1,19.1,23.));
#486=CARTESIAN_POINT('',(1.16953769318572E-15,19.1,23.));
#487=CARTESIAN_POINT('',(-19.1,19.1,23.));
#488=CARTESIAN_POINT('',(-19.1,8.61944522110655E-15,23.));
#489=CARTESIAN_POINT('',(-19.1,-19.1,23.));
#490=CARTESIAN_POINT('',(-2.25253911261015E-15,-19.1,23.));
#491=CARTESIAN_POINT('',(19.1,-19.1,23.));
#492=CARTESIAN_POINT('',(19.1,7.53644380168212E-15,23.));
#493=CARTESIAN_POINT('',(19.1,7.53553479172644E-15,23.));
#494=CARTESIAN_POINT('',(19.1,7.14504129821729E-15,12.));
#495=CARTESIAN_POINT('',(19.1,7.53553479172644E-15,23.));
#496=CARTESIAN_POINT('',(19.1000000008001,6.05906781031874E-15,24.));
#497=CARTESIAN_POINT('',(20.1000000008001,4.21176581454349E-12,24.));
#498=CARTESIAN_POINT('',(20.1000000008001,4.21471966262315E-12,24.));
#499=CARTESIAN_POINT('',(20.1000000007959,20.1000000008043,24.));
#500=CARTESIAN_POINT('',(-4.20595244878828E-12,20.1000000008001,24.));
#501=CARTESIAN_POINT('',(-20.1000000008043,20.1000000007959,24.));
#502=CARTESIAN_POINT('',(-20.1000000008001,-4.19844130892035E-12,24.));
#503=CARTESIAN_POINT('',(-20.1000000007959,-20.1000000008043,24.));
#504=CARTESIAN_POINT('',(4.20474698268884E-12,-20.1000000008001,24.));
#505=CARTESIAN_POINT('',(20.1000000008043,-20.1000000007959,24.));
#506=CARTESIAN_POINT('',(20.1000000008001,4.21471966262315E-12,24.));
#507=CARTESIAN_POINT('',(19.1,7.53644380168212E-15,12.));
#508=CARTESIAN_POINT('',(19.1,19.1,12.));
#509=CARTESIAN_POINT('',(1.16953769318572E-15,19.1,12.));
#510=CARTESIAN_POINT('',(-19.1,19.1,12.));
#511=CARTESIAN_POINT('',(-19.1,8.61944522110655E-15,12.));
#512=CARTESIAN_POINT('',(-19.1,-19.1,12.));
#513=CARTESIAN_POINT('',(-2.25253911261015E-15,-19.1,12.));
#514=CARTESIAN_POINT('',(19.1,-19.1,12.));
#515=CARTESIAN_POINT('',(19.1,7.53644380168212E-15,12.));
#516=CARTESIAN_POINT('',(19.1,7.14504129821729E-15,12.));
#517=CARTESIAN_POINT('',(19.1000000008001,5.86382106489494E-15,11.));
#518=CARTESIAN_POINT('',(20.1000000008001,4.21544955628608E-12,11.));
#519=CARTESIAN_POINT('',(20.1000000008001,4.21840340436574E-12,11.));
#520=CARTESIAN_POINT('',(20.1000000007959,20.1000000008043,11.));
#521=CARTESIAN_POINT('',(-4.20963619053087E-12,20.1000000008001,11.));
#522=CARTESIAN_POINT('',(-20.1000000008043,20.1000000007959,11.));
#523=CARTESIAN_POINT('',(-20.1000000008001,-4.20212505066294E-12,11.));
#524=CARTESIAN_POINT('',(-20.1000000007959,-20.1000000008043,11.));
#525=CARTESIAN_POINT('',(4.20843072443143E-12,-20.1000000008001,11.));
#526=CARTESIAN_POINT('',(20.1000000008043,-20.1000000007959,11.));
#527=CARTESIAN_POINT('',(20.1000000008001,4.21840340436574E-12,11.));
#528=CARTESIAN_POINT('',(0.,0.,0.));
ENDSEC;
END-ISO-10303-21;
