  0
SECTION
  2
HEADER
  9
$ACADVER
  1
AC1009
  9
$DWGCODEPAGE
  3
ansi_1252
  9
$INSBASE
 10
0.0
 20
0.0
 30
0.0
  9
$EXTMIN
 10
-355.3715241130828
 20
35.00000000000014
 30
0.0000000000000008
  9
$EXTMAX
 10
-197.6097122835951
 20
153.6309070915501
 30
13.0
  9
$LIMMIN
 10
0.0
 20
0.0
  9
$LIMMAX
 10
12.0
 20
9.0
  9
$ORTHOMODE
 70
     0
  9
$REGENMODE
 70
     1
  9
$FILLMODE
 70
     1
  9
$QTEXTMODE
 70
     0
  9
$MIRRTEXT
 70
     1
  9
$DRAGMODE
 70
     2
  9
$LTSCALE
 40
1.0
  9
$OSMODE
 70
    37
  9
$ATTMODE
 70
     1
  9
$TEXTSIZE
 40
0.2
  9
$TRACEWID
 40
0.05
  9
$TEXTSTYLE
  7
STANDARD
  9
$CLAYER
  8
DEFAULT
  9
$CELTYPE
  6
BYLAYER
  9
$CECOLOR
 62
   256
  9
$DIMSCALE
 40
1.0
  9
$DIMASZ
 40
0.18
  9
$DIMEXO
 40
0.0625
  9
$DIMDLI
 40
0.38
  9
$DIMRND
 40
0.0
  9
$DIMDLE
 40
0.0
  9
$DIMEXE
 40
0.18
  9
$DIMTP
 40
0.0
  9
$DIMTM
 40
0.0
  9
$DIMTXT
 40
0.18
  9
$DIMCEN
 40
0.09
  9
$DIMTSZ
 40
0.0
  9
$DIMTOL
 70
     0
  9
$DIMLIM
 70
     0
  9
$DIMTIH
 70
     1
  9
$DIMTOH
 70
     1
  9
$DIMSE1
 70
     0
  9
$DIMSE2
 70
     0
  9
$DIMTAD
 70
     0
  9
$DIMZIN
 70
     0
  9
$DIMBLK
  1

  9
$DIMASO
 70
     1
  9
$DIMSHO
 70
     1
  9
$DIMPOST
  1

  9
$DIMAPOST
  1

  9
$DIMALT
 70
     0
  9
$DIMALTD
 70
     2
  9
$DIMALTF
 40
25.4
  9
$DIMLFAC
 40
1.0
  9
$DIMTOFL
 70
     0
  9
$DIMTVP
 40
0.0
  9
$DIMTIX
 70
     0
  9
$DIMSOXD
 70
     0
  9
$DIMSAH
 70
     0
  9
$DIMBLK1
  1

  9
$DIMBLK2
  1

  9
$DIMSTYLE
  2
STANDARD_ACAD
  9
$DIMCLRD
 70
     0
  9
$DIMCLRE
 70
     0
  9
$DIMCLRT
 70
     0
  9
$DIMTFAC
 40
1.0
  9
$DIMGAP
 40
0.09
  9
$LUNITS
 70
     2
  9
$LUPREC
 70
     3
  9
$SKETCHINC
 40
0.1
  9
$FILLETRAD
 40
0.0
  9
$AUNITS
 70
     0
  9
$AUPREC
 70
     0
  9
$MENU
  1
.
  9
$ELEVATION
 40
0.0
  9
$PELEVATION
 40
0.0
  9
$THICKNESS
 40
0.0
  9
$LIMCHECK
 70
     0
  9
$CHAMFERA
 40
0.0
  9
$CHAMFERB
 40
0.0
  9
$SKPOLY
 70
     0
  9
$TDCREATE
 40
2460711.587360544
  9
$TDUPDATE
 40
2460711.587377292
  9
$TDINDWG
 40
0.0000000116
  9
$TDUSRTIMER
 40
0.0000000116
  9
$USRTIMER
 70
     1
  9
$ANGBASE
 50
0.0
  9
$ANGDIR
 70
     0
  9
$PDMODE
 70
     0
  9
$PDSIZE
 40
0.0
  9
$PLINEWID
 40
0.0
  9
$COORDS
 70
     1
  9
$SPLFRAME
 70
     0
  9
$SPLINETYPE
 70
     6
  9
$SPLINESEGS
 70
     8
  9
$ATTDIA
 70
     0
  9
$ATTREQ
 70
     1
  9
$HANDLING
 70
     1
  9
$HANDSEED
  5
12D
  9
$SURFTAB1
 70
     6
  9
$SURFTAB2
 70
     6
  9
$SURFTYPE
 70
     6
  9
$SURFU
 70
     6
  9
$SURFV
 70
     6
  9
$UCSNAME
  2

  9
$UCSORG
 10
0.0
 20
0.0
 30
0.0
  9
$UCSXDIR
 10
1.0
 20
0.0
 30
0.0
  9
$UCSYDIR
 10
0.0
 20
1.0
 30
0.0
  9
$PUCSNAME
  2

  9
$PUCSORG
 10
0.0
 20
0.0
 30
0.0
  9
$PUCSXDIR
 10
1.0
 20
0.0
 30
0.0
  9
$PUCSYDIR
 10
0.0
 20
1.0
 30
0.0
  9
$USERI1
 70
     0
  9
$USERI2
 70
     0
  9
$USERI3
 70
     0
  9
$USERI4
 70
     0
  9
$USERI5
 70
     0
  9
$USERR1
 40
0.0
  9
$USERR2
 40
0.0
  9
$USERR3
 40
0.0
  9
$USERR4
 40
0.0
  9
$USERR5
 40
0.0
  9
$WORLDVIEW
 70
     1
  9
$SHADEDGE
 70
     3
  9
$SHADEDIF
 70
    70
  9
$TILEMODE
 70
     1
  9
$MAXACTVP
 70
    64
  9
$PLIMCHECK
 70
     0
  9
$PEXTMIN
 10
1.000000000000000E+20
 20
1.000000000000000E+20
 30
1.000000000000000E+20
  9
$PEXTMAX
 10
-1.000000000000000E+20
 20
-1.000000000000000E+20
 30
-1.000000000000000E+20
  9
$PLIMMIN
 10
0.0
 20
0.0
  9
$PLIMMAX
 10
12.0
 20
9.0
  9
$UNITMODE
 70
     0
  9
$VISRETAIN
 70
     1
  9
$PLINEGEN
 70
     0
  9
$PSLTSCALE
 70
     1
  0
ENDSEC
  0
SECTION
  2
TABLES
  0
TABLE
  2
VPORT
 70
     1
  0
VPORT
  2
*ACTIVE
 70
     0
 10
0.0
 20
0.0
 11
1.0
 21
1.0
 12
10.42990654205607
 22
4.5
 13
0.0
 23
0.0
 14
0.5
 24
0.5
 15
0.5
 25
0.5
 16
0.0
 26
0.0
 36
1.0
 17
0.0
 27
0.0
 37
0.0
 40
9.0
 41
1.972972972850329
 42
50.0
 43
0.0
 44
0.0
 50
0.0
 51
0.0
 71
     0
 72
   100
 73
     1
 74
     3
 75
     0
 76
     0
 77
     0
 78
     0
  0
ENDTAB
  0
TABLE
  2
LTYPE
 70
     1
  0
LTYPE
  2
CONTINUOUS
 70
     0
  3
Solid line
 72
    65
 73
     0
 40
0.0
  0
ENDTAB
  0
TABLE
  2
LAYER
 70
     2
  0
LAYER
  2
0
 70
     0
 62
     7
  6
CONTINUOUS
  0
LAYER
  2
DEFAULT
 70
     0
 62
     7
  6
CONTINUOUS
  0
ENDTAB
  0
TABLE
  2
STYLE
 70
     1
  0
STYLE
  2
STANDARD
 70
     0
 40
0.0
 41
1.0
 50
0.0
 71
     0
 42
0.2
  3
txt
  4

  0
ENDTAB
  0
TABLE
  2
VIEW
 70
     0
  0
ENDTAB
  0
TABLE
  2
UCS
 70
     0
  0
ENDTAB
  0
TABLE
  2
APPID
 70
     2
  0
APPID
  2
ACAD
 70
     0
  0
APPID
  2
RHINO
 70
     0
  0
ENDTAB
  0
TABLE
  2
DIMSTYLE
 70
     1
  0
DIMSTYLE
  2
STANDARD_ACAD
 70
     0
  3

  4

  5

  6

  7

 40
1.0
 41
0.18
 42
0.0625
 43
0.38
 44
0.18
 45
0.0
 46
0.0
 47
0.0
 48
0.0
140
0.18
141
0.09
142
0.0
143
25.4
144
1.0
145
0.0
146
1.0
147
0.09
 71
     0
 72
     0
 73
     1
 74
     1
 75
     0
 76
     0
 77
     0
 78
     0
170
     0
171
     2
172
     0
173
     0
174
     0
175
     0
176
     0
177
     0
178
     0
  0
ENDTAB
  0
ENDSEC
  0
SECTION
  2
BLOCKS
  0
BLOCK
  8
0
  2
$MODEL_SPACE
 70
     0
 10
0.0
 20
0.0
 30
0.0
  3
$MODEL_SPACE
  1

  0
ENDBLK
  5
21
  8
0
  0
BLOCK
 67
     1
  8
0
  2
$PAPER_SPACE
 70
     0
 10
0.0
 20
0.0
 30
0.0
  3
$PAPER_SPACE
  1

  0
ENDBLK
  5
1D
 67
     1
  8
0
  0
ENDSEC
  0
SECTION
  2
ENTITIES
  0
POLYLINE
  5
60
  8
DEFAULT
 66
     1
 10
0.0
 20
0.0
 30
7.619094085256084
 70
     1
  0
VERTEX
  5
61
  8
DEFAULT
 10
-239.0
 20
42.86909526206231
 30
7.619094085256084
  0
VERTEX
  5
62
  8
DEFAULT
 10
-239.0
 20
39.86909526206231
 30
7.619094085256084
  0
VERTEX
  5
63
  8
DEFAULT
 10
-246.0
 20
39.86909526206231
 30
7.619094085256084
  0
VERTEX
  5
64
  8
DEFAULT
 10
-246.0
 20
36.86909526206233
 30
7.619094085256084
  0
VERTEX
  5
65
  8
DEFAULT
 10
-229.5000000000001
 20
36.86909526206233
 30
7.619094085256084
  0
VERTEX
  5
66
  8
DEFAULT
 10
-229.5000000000001
 20
59.63090709155006
 30
7.619094085256084
  0
VERTEX
  5
67
  8
DEFAULT
 10
-246.0
 20
59.63090709155006
 30
7.619094085256084
  0
VERTEX
  5
68
  8
DEFAULT
 10
-246.0
 20
55.86909526206231
 30
7.619094085256084
  0
VERTEX
  5
69
  8
DEFAULT
 10
-239.0
 20
55.86909526206231
 30
7.619094085256084
  0
VERTEX
  5
6A
  8
DEFAULT
 10
-239.0
 20
52.86909526206231
 30
7.619094085256084
  0
VERTEX
  5
6B
  8
DEFAULT
 10
-246.0
 20
52.86909526206231
 30
7.619094085256084
  0
VERTEX
  5
6C
  8
DEFAULT
 10
-246.0
 20
42.86909526206231
 30
7.619094085256084
  0
SEQEND
  5
6D
  8
DEFAULT
  0
POLYLINE
  5
6E
  8
DEFAULT
 66
     1
 10
0.0
 20
0.0
 30
7.619094085256084
 70
     1
  0
VERTEX
  5
6F
  8
DEFAULT
 10
-292.0
 20
136.8690952620623
 30
7.619094085256084
  0
VERTEX
  5
70
  8
DEFAULT
 10
-292.0
 20
133.8690952620623
 30
7.619094085256084
  0
VERTEX
  5
71
  8
DEFAULT
 10
-299.0
 20
133.8690952620623
 30
7.619094085256084
  0
VERTEX
  5
72
  8
DEFAULT
 10
-299.0
 20
130.8690952620623
 30
7.619094085256084
  0
VERTEX
  5
73
  8
DEFAULT
 10
-282.5000000000001
 20
130.8690952620623
 30
7.619094085256084
  0
VERTEX
  5
74
  8
DEFAULT
 10
-282.5000000000001
 20
153.6309070915501
 30
7.619094085256084
  0
VERTEX
  5
75
  8
DEFAULT
 10
-299.0
 20
153.6309070915501
 30
7.619094085256084
  0
VERTEX
  5
76
  8
DEFAULT
 10
-299.0
 20
149.8690952620623
 30
7.619094085256084
  0
VERTEX
  5
77
  8
DEFAULT
 10
-292.0
 20
149.8690952620623
 30
7.619094085256084
  0
VERTEX
  5
78
  8
DEFAULT
 10
-292.0
 20
146.8690952620623
 30
7.619094085256084
  0
VERTEX
  5
79
  8
DEFAULT
 10
-299.0
 20
146.8690952620623
 30
7.619094085256084
  0
VERTEX
  5
7A
  8
DEFAULT
 10
-299.0
 20
136.8690952620623
 30
7.619094085256084
  0
SEQEND
  5
7B
  8
DEFAULT
  0
POLYLINE
  5
7C
  8
DEFAULT
 66
     1
 10
0.0
 20
0.0
 30
8.5
 70
     1
  0
VERTEX
  5
7D
  8
DEFAULT
 10
-263.490618198339
 20
50.50000000000008
 30
8.5
  0
VERTEX
  5
7E
  8
DEFAULT
 10
-263.490618198339
 20
42.50000000000007
 30
8.5
  0
VERTEX
  5
7F
  8
DEFAULT
 10
-259.6097122835952
 20
42.50000000000007
 30
8.5
  0
VERTEX
  5
80
  8
DEFAULT
 10
-259.6097122835952
 20
58.99999999999999
 30
8.5
  0
VERTEX
  5
81
  8
DEFAULT
 10
-282.3715241130828
 20
58.99999999999999
 30
8.5
  0
VERTEX
  5
82
  8
DEFAULT
 10
-282.3715241130828
 20
42.50000000000007
 30
8.5
  0
VERTEX
  5
83
  8
DEFAULT
 10
-279.490618198339
 20
42.50000000000008
 30
8.5
  0
VERTEX
  5
84
  8
DEFAULT
 10
-279.490618198339
 20
50.50000000000008
 30
8.5
  0
VERTEX
  5
85
  8
DEFAULT
 10
-276.490618198339
 20
50.50000000000007
 30
8.5
  0
VERTEX
  5
86
  8
DEFAULT
 10
-276.490618198339
 20
42.50000000000008
 30
8.5
  0
VERTEX
  5
87
  8
DEFAULT
 10
-266.490618198339
 20
42.50000000000008
 30
8.5
  0
VERTEX
  5
88
  8
DEFAULT
 10
-266.490618198339
 20
50.50000000000008
 30
8.5
  0
SEQEND
  5
89
  8
DEFAULT
  0
POLYLINE
  5
8A
  8
DEFAULT
 66
     1
 10
0.0
 20
0.0
 30
8.500000000000028
 70
     1
  0
VERTEX
  5
8B
  8
DEFAULT
 10
-309.490618198339
 20
143.5000000000001
 30
8.500000000000028
  0
VERTEX
  5
8C
  8
DEFAULT
 10
-309.490618198339
 20
135.5000000000001
 30
8.500000000000028
  0
VERTEX
  5
8D
  8
DEFAULT
 10
-305.6097122835952
 20
135.5000000000001
 30
8.500000000000028
  0
VERTEX
  5
8E
  8
DEFAULT
 10
-305.6097122835952
 20
152.0
 30
8.500000000000028
  0
VERTEX
  5
8F
  8
DEFAULT
 10
-328.3715241130828
 20
152.0
 30
8.500000000000028
  0
VERTEX
  5
90
  8
DEFAULT
 10
-328.3715241130828
 20
135.5000000000001
 30
8.500000000000028
  0
VERTEX
  5
91
  8
DEFAULT
 10
-325.490618198339
 20
135.5000000000001
 30
8.500000000000028
  0
VERTEX
  5
92
  8
DEFAULT
 10
-325.490618198339
 20
143.5000000000001
 30
8.500000000000028
  0
VERTEX
  5
93
  8
DEFAULT
 10
-322.490618198339
 20
143.5000000000001
 30
8.500000000000028
  0
VERTEX
  5
94
  8
DEFAULT
 10
-322.490618198339
 20
135.5000000000001
 30
8.500000000000028
  0
VERTEX
  5
95
  8
DEFAULT
 10
-312.490618198339
 20
135.5000000000001
 30
8.500000000000028
  0
VERTEX
  5
96
  8
DEFAULT
 10
-312.490618198339
 20
143.5000000000001
 30
8.500000000000028
  0
SEQEND
  5
97
  8
DEFAULT
  0
POLYLINE
  5
98
  8
DEFAULT
 66
     1
 10
0.0
 20
0.0
 30
8.5
 70
     1
  0
VERTEX
  5
99
  8
DEFAULT
 10
-201.490618198339
 20
48.50000000000007
 30
8.5
  0
VERTEX
  5
9A
  8
DEFAULT
 10
-201.490618198339
 20
35.00000000000014
 30
8.5
  0
VERTEX
  5
9B
  8
DEFAULT
 10
-197.6097122835951
 20
35.00000000000014
 30
8.5
  0
VERTEX
  5
9C
  8
DEFAULT
 10
-197.6097122835951
 20
68.49999999999999
 30
8.5
  0
VERTEX
  5
9D
  8
DEFAULT
 10
-220.3715241130829
 20
68.49999999999999
 30
8.5
  0
VERTEX
  5
9E
  8
DEFAULT
 10
-220.3715241130829
 20
35.00000000000014
 30
8.5
  0
VERTEX
  5
9F
  8
DEFAULT
 10
-217.490618198339
 20
35.00000000000014
 30
8.5
  0
VERTEX
  5
A0
  8
DEFAULT
 10
-217.490618198339
 20
48.50000000000007
 30
8.5
  0
VERTEX
  5
A1
  8
DEFAULT
 10
-214.490618198339
 20
48.50000000000007
 30
8.5
  0
VERTEX
  5
A2
  8
DEFAULT
 10
-214.490618198339
 20
35.00000000000014
 30
8.5
  0
VERTEX
  5
A3
  8
DEFAULT
 10
-204.490618198339
 20
35.00000000000014
 30
8.5
  0
VERTEX
  5
A4
  8
DEFAULT
 10
-204.490618198339
 20
48.50000000000007
 30
8.5
  0
SEQEND
  5
A5
  8
DEFAULT
  0
POLYLINE
  5
A6
  8
DEFAULT
 66
     1
 10
0.0
 20
0.0
 30
8.5
 70
     1
  0
VERTEX
  5
A7
  8
DEFAULT
 10
-336.490618198339
 20
133.5000000000001
 30
8.5
  0
VERTEX
  5
A8
  8
DEFAULT
 10
-336.490618198339
 20
120.0000000000001
 30
8.5
  0
VERTEX
  5
A9
  8
DEFAULT
 10
-332.6097122835952
 20
120.0000000000001
 30
8.5
  0
VERTEX
  5
AA
  8
DEFAULT
 10
-332.6097122835952
 20
153.5
 30
8.5
  0
VERTEX
  5
AB
  8
DEFAULT
 10
-355.3715241130828
 20
153.5
 30
8.5
  0
VERTEX
  5
AC
  8
DEFAULT
 10
-355.3715241130828
 20
120.0000000000001
 30
8.5
  0
VERTEX
  5
AD
  8
DEFAULT
 10
-352.490618198339
 20
120.0000000000001
 30
8.5
  0
VERTEX
  5
AE
  8
DEFAULT
 10
-352.490618198339
 20
133.5000000000001
 30
8.5
  0
VERTEX
  5
AF
  8
DEFAULT
 10
-349.490618198339
 20
133.5000000000001
 30
8.5
  0
VERTEX
  5
B0
  8
DEFAULT
 10
-349.490618198339
 20
120.0000000000001
 30
8.5
  0
VERTEX
  5
B1
  8
DEFAULT
 10
-339.490618198339
 20
120.0000000000001
 30
8.5
  0
VERTEX
  5
B2
  8
DEFAULT
 10
-339.490618198339
 20
133.5000000000001
 30
8.5
  0
SEQEND
  5
B3
  8
DEFAULT
  0
POLYLINE
  5
B4
  8
DEFAULT
 66
     1
 10
0.0
 20
0.0
 30
7.61909408525608
 70
     1
  0
VERTEX
  5
B5
  8
DEFAULT
 10
-325.0
 20
75.86909526206232
 30
7.61909408525608
  0
VERTEX
  5
B6
  8
DEFAULT
 10
-325.0
 20
72.86909526206232
 30
7.61909408525608
  0
VERTEX
  5
B7
  8
DEFAULT
 10
-332.0
 20
72.86909526206232
 30
7.61909408525608
  0
VERTEX
  5
B8
  8
DEFAULT
 10
-332.0
 20
69.86909526206234
 30
7.61909408525608
  0
VERTEX
  5
B9
  8
DEFAULT
 10
-315.5000000000001
 20
69.86909526206234
 30
7.61909408525608
  0
VERTEX
  5
BA
  8
DEFAULT
 10
-315.5000000000001
 20
92.63090709155007
 30
7.61909408525608
  0
VERTEX
  5
BB
  8
DEFAULT
 10
-332.0
 20
92.63090709155007
 30
7.61909408525608
  0
VERTEX
  5
BC
  8
DEFAULT
 10
-332.0
 20
88.86909526206232
 30
7.61909408525608
  0
VERTEX
  5
BD
  8
DEFAULT
 10
-325.0
 20
88.86909526206232
 30
7.61909408525608
  0
VERTEX
  5
BE
  8
DEFAULT
 10
-325.0
 20
85.86909526206232
 30
7.61909408525608
  0
VERTEX
  5
BF
  8
DEFAULT
 10
-332.0
 20
85.86909526206232
 30
7.61909408525608
  0
VERTEX
  5
C0
  8
DEFAULT
 10
-332.0
 20
75.86909526206232
 30
7.61909408525608
  0
SEQEND
  5
C1
  8
DEFAULT
  0
POLYLINE
  5
C2
  8
DEFAULT
 66
     1
 10
0.0
 20
0.0
 30
13.0
 70
     1
  0
VERTEX
  5
C3
  8
DEFAULT
 10
-353.9999999999999
 20
104.7499988231938
 30
13.0
  0
VERTEX
  5
C4
  8
DEFAULT
 10
-354.0
 20
84.74999882319398
 30
13.0
  0
VERTEX
  5
C5
  8
DEFAULT
 10
-347.0
 20
84.74999882319395
 30
13.0
  0
VERTEX
  5
C6
  8
DEFAULT
 10
-347.0
 20
81.74999882319396
 30
13.0
  0
VERTEX
  5
C7
  8
DEFAULT
 10
-354.0
 20
81.74999882319396
 30
13.0
  0
VERTEX
  5
C8
  8
DEFAULT
 10
-354.0000000000001
 20
62.74999882319386
 30
13.0
  0
VERTEX
  5
C9
  8
DEFAULT
 10
-347.0000000000001
 20
62.74999882319395
 30
13.0
  0
VERTEX
  5
CA
  8
DEFAULT
 10
-347.0000000000001
 20
59.74999882319398
 30
13.0
  0
VERTEX
  5
CB
  8
DEFAULT
 10
-354.0000000000001
 20
59.74999882319401
 30
13.0
  0
VERTEX
  5
CC
  8
DEFAULT
 10
-354.0000000000002
 20
42.00000000000017
 30
13.0
 42
0.4142135623730764
  0
VERTEX
  5
CD
  8
DEFAULT
 10
-351.0000000000002
 20
39.00000000000021
 30
13.0
  0
VERTEX
  5
CE
  8
DEFAULT
 10
-337.0093818016612
 20
39.00000000000011
 30
13.0
  0
VERTEX
  5
CF
  8
DEFAULT
 10
-337.0093818016611
 20
45.50000000000003
 30
13.0
  0
VERTEX
  5
D0
  8
DEFAULT
 10
-334.0093818016611
 20
45.50000000000004
 30
13.0
  0
VERTEX
  5
D1
  8
DEFAULT
 10
-334.0093818016612
 20
39.0000000000001
 30
13.0
  0
VERTEX
  5
D2
  8
DEFAULT
 10
-303.0093818016611
 20
39.0
 30
13.0
  0
VERTEX
  5
D3
  8
DEFAULT
 10
-303.0093818016611
 20
45.49999999999994
 30
13.0
  0
VERTEX
  5
D4
  8
DEFAULT
 10
-300.0093818016611
 20
45.49999999999993
 30
13.0
  0
VERTEX
  5
D5
  8
DEFAULT
 10
-300.0093818016612
 20
38.99999999999999
 30
13.0
  0
VERTEX
  5
D6
  8
DEFAULT
 10
-296.0000000000002
 20
38.99999999999997
 30
13.0
 42
0.414213562373091
  0
VERTEX
  5
D7
  8
DEFAULT
 10
-293.0000000000002
 20
41.99999999999993
 30
13.0
  0
VERTEX
  5
D8
  8
DEFAULT
 10
-293.0000000000001
 20
48.99999999999993
 30
13.0
 42
-0.4142135623730987
  0
VERTEX
  5
D9
  8
DEFAULT
 10
-278.0000000000001
 20
63.99999999999983
 30
13.0
  0
VERTEX
  5
DA
  8
DEFAULT
 10
-277.009381801661
 20
63.99999999999987
 30
13.0
  0
VERTEX
  5
DB
  8
DEFAULT
 10
-277.009381801661
 20
78.49999999999983
 30
13.0
  0
VERTEX
  5
DC
  8
DEFAULT
 10
-274.009381801661
 20
78.49999999999983
 30
13.0
  0
VERTEX
  5
DD
  8
DEFAULT
 10
-274.009381801661
 20
63.99999999999987
 30
13.0
  0
VERTEX
  5
DE
  8
DEFAULT
 10
-238.009381801661
 20
63.99999999999977
 30
13.0
  0
VERTEX
  5
DF
  8
DEFAULT
 10
-238.009381801661
 20
78.4999999999997
 30
13.0
  0
VERTEX
  5
E0
  8
DEFAULT
 10
-235.009381801661
 20
78.49999999999969
 30
13.0
  0
VERTEX
  5
E1
  8
DEFAULT
 10
-235.009381801661
 20
63.99999999999976
 30
13.0
  0
VERTEX
  5
E2
  8
DEFAULT
 10
-227.0000000000001
 20
63.99999999999974
 30
13.0
 42
0.4142135623730942
  0
VERTEX
  5
E3
  8
DEFAULT
 10
-224.0
 20
66.99999999999959
 30
13.0
  0
VERTEX
  5
E4
  8
DEFAULT
 10
-224.0
 20
89.99999999999973
 30
13.0
 42
0.4142135623731109
  0
VERTEX
  5
E5
  8
DEFAULT
 10
-227.0000000000001
 20
92.99999999999976
 30
13.0
  0
VERTEX
  5
E6
  8
DEFAULT
 10
-306.0
 20
93.0
 30
13.0
 42
0.4142135623731081
  0
VERTEX
  5
E7
  8
DEFAULT
 10
-309.0
 20
90.00000000000001
 30
13.0
  0
VERTEX
  5
E8
  8
DEFAULT
 10
-309.0000000000001
 20
66.99999999999997
 30
13.0
 42
-0.414213562373102
  0
VERTEX
  5
E9
  8
DEFAULT
 10
-324.0000000000001
 20
52.00000000000006
 30
13.0
  0
VERTEX
  5
EA
  8
DEFAULT
 10
-325.0000000000001
 20
52.00000000000001
 30
13.0
 42
-0.4142135623730933
  0
VERTEX
  5
EB
  8
DEFAULT
 10
-340.0000000000001
 20
67.00000000000007
 30
13.0
  0
VERTEX
  5
EC
  8
DEFAULT
 10
-339.9999999999999
 20
110.0000000000003
 30
13.0
 42
0.4142135623730666
  0
VERTEX
  5
ED
  8
DEFAULT
 10
-342.9999999999998
 20
113.0000000000002
 30
13.0
  0
VERTEX
  5
EE
  8
DEFAULT
 10
-350.9999999999998
 20
113.0000000000002
 30
13.0
 42
0.4142135623730738
  0
VERTEX
  5
EF
  8
DEFAULT
 10
-354.0
 20
110.0000000000002
 30
13.0
  0
VERTEX
  5
F0
  8
DEFAULT
 10
-353.9999999999999
 20
107.749998823194
 30
13.0
  0
VERTEX
  5
F1
  8
DEFAULT
 10
-346.9999999999999
 20
107.749998823194
 30
13.0
  0
VERTEX
  5
F2
  8
DEFAULT
 10
-346.9999999999999
 20
104.749998823194
 30
13.0
  0
SEQEND
  5
F3
  8
DEFAULT
  0
POLYLINE
  5
F4
  8
DEFAULT
 66
     1
 10
0.0
 20
0.0
 30
0.0000000000000008
 70
     1
  0
VERTEX
  5
F5
  8
DEFAULT
 10
-200.0
 20
86.2500011768062
 30
0.0000000000000008
  0
VERTEX
  5
F6
  8
DEFAULT
 10
-200.0
 20
106.2500011768062
 30
0.0000000000000008
  0
VERTEX
  5
F7
  8
DEFAULT
 10
-207.0
 20
106.2500011768062
 30
0.0000000000000008
  0
VERTEX
  5
F8
  8
DEFAULT
 10
-207.0
 20
109.2500011768062
 30
0.0000000000000008
  0
VERTEX
  5
F9
  8
DEFAULT
 10
-200.0
 20
109.2500011768063
 30
0.0000000000000008
  0
VERTEX
  5
FA
  8
DEFAULT
 10
-200.0
 20
128.2500011768062
 30
0.0000000000000008
  0
VERTEX
  5
FB
  8
DEFAULT
 10
-207.0
 20
128.2500011768062
 30
0.0000000000000008
  0
VERTEX
  5
FC
  8
DEFAULT
 10
-207.0
 20
131.2500011768062
 30
0.0000000000000008
  0
VERTEX
  5
FD
  8
DEFAULT
 10
-200.0
 20
131.250001176806
 30
0.0000000000000008
  0
VERTEX
  5
FE
  8
DEFAULT
 10
-200.0
 20
149.0
 30
0.0000000000000008
 42
0.4142135623730942
  0
VERTEX
  5
FF
  8
DEFAULT
 10
-203.0
 20
152.0
 30
0.0000000000000008
  0
VERTEX
  5
100
  8
DEFAULT
 10
-216.990618198339
 20
152.0
 30
0.0000000000000008
  0
VERTEX
  5
101
  8
DEFAULT
 10
-216.990618198339
 20
145.5000000000001
 30
0.0000000000000008
  0
VERTEX
  5
102
  8
DEFAULT
 10
-219.990618198339
 20
145.5000000000001
 30
0.0000000000000008
  0
VERTEX
  5
103
  8
DEFAULT
 10
-219.990618198339
 20
152.0
 30
0.0000000000000008
  0
VERTEX
  5
104
  8
DEFAULT
 10
-250.9906181983391
 20
152.0
 30
0.0000000000000008
  0
VERTEX
  5
105
  8
DEFAULT
 10
-250.990618198339
 20
145.5000000000001
 30
0.0000000000000008
  0
VERTEX
  5
106
  8
DEFAULT
 10
-253.990618198339
 20
145.5000000000001
 30
0.0000000000000008
  0
VERTEX
  5
107
  8
DEFAULT
 10
-253.990618198339
 20
152.0
 30
0.0000000000000008
  0
VERTEX
  5
108
  8
DEFAULT
 10
-258.0
 20
152.0
 30
0.0000000000000008
 42
0.4142135623730724
  0
VERTEX
  5
109
  8
DEFAULT
 10
-261.0
 20
149.0
 30
0.0000000000000008
  0
VERTEX
  5
10A
  8
DEFAULT
 10
-261.0
 20
142.0
 30
0.0000000000000008
 42
-0.4142135623730964
  0
VERTEX
  5
10B
  8
DEFAULT
 10
-276.0
 20
127.0
 30
0.0000000000000008
  0
VERTEX
  5
10C
  8
DEFAULT
 10
-276.990618198339
 20
127.0
 30
0.0000000000000008
  0
VERTEX
  5
10D
  8
DEFAULT
 10
-276.990618198339
 20
112.5000000000001
 30
0.0000000000000008
  0
VERTEX
  5
10E
  8
DEFAULT
 10
-279.990618198339
 20
112.5000000000001
 30
0.0000000000000008
  0
VERTEX
  5
10F
  8
DEFAULT
 10
-279.990618198339
 20
127.0
 30
0.0000000000000008
  0
VERTEX
  5
110
  8
DEFAULT
 10
-315.9906181983391
 20
127.0
 30
0.0000000000000008
  0
VERTEX
  5
111
  8
DEFAULT
 10
-315.990618198339
 20
112.5000000000001
 30
0.0000000000000008
  0
VERTEX
  5
112
  8
DEFAULT
 10
-318.990618198339
 20
112.5000000000001
 30
0.0000000000000008
  0
VERTEX
  5
113
  8
DEFAULT
 10
-318.9906181983391
 20
127.0
 30
0.0000000000000008
  0
VERTEX
  5
114
  8
DEFAULT
 10
-327.0
 20
127.0
 30
0.0000000000000008
 42
0.414213562373061
  0
VERTEX
  5
115
  8
DEFAULT
 10
-330.0
 20
124.0000000000001
 30
0.0000000000000008
  0
VERTEX
  5
116
  8
DEFAULT
 10
-330.0
 20
101.0
 30
0.0000000000000008
 42
0.414213562373121
  0
VERTEX
  5
117
  8
DEFAULT
 10
-326.9999999999999
 20
97.99999999999993
 30
0.0000000000000008
  0
VERTEX
  5
118
  8
DEFAULT
 10
-248.0
 20
98.0
 30
0.0000000000000008
 42
0.4142135623730851
  0
VERTEX
  5
119
  8
DEFAULT
 10
-245.0
 20
101.0
 30
0.0000000000000008
  0
VERTEX
  5
11A
  8
DEFAULT
 10
-245.0
 20
124.0
 30
0.0000000000000008
 42
-0.4142135623730921
  0
VERTEX
  5
11B
  8
DEFAULT
 10
-230.0
 20
139.0000000000001
 30
0.0000000000000008
  0
VERTEX
  5
11C
  8
DEFAULT
 10
-229.0
 20
139.0000000000001
 30
0.0000000000000008
 42
-0.4142135623730941
  0
VERTEX
  5
11D
  8
DEFAULT
 10
-214.0
 20
124.0
 30
0.0000000000000008
  0
VERTEX
  5
11E
  8
DEFAULT
 10
-214.0
 20
80.99999999999986
 30
0.0000000000000008
 42
0.4142135623730856
  0
VERTEX
  5
11F
  8
DEFAULT
 10
-211.0000000000001
 20
77.99999999999989
 30
0.0000000000000008
  0
VERTEX
  5
120
  8
DEFAULT
 10
-203.0000000000001
 20
77.99999999999997
 30
0.0000000000000008
 42
0.4142135623731003
  0
VERTEX
  5
121
  8
DEFAULT
 10
-200.0000000000001
 20
80.99999999999996
 30
0.0000000000000008
  0
VERTEX
  5
122
  8
DEFAULT
 10
-200.0
 20
83.25000117680632
 30
0.0000000000000008
  0
VERTEX
  5
123
  8
DEFAULT
 10
-207.0
 20
83.25000117680618
 30
0.0000000000000008
  0
VERTEX
  5
124
  8
DEFAULT
 10
-207.0
 20
86.25000117680617
 30
0.0000000000000008
  0
SEQEND
  5
125
  8
DEFAULT
  0
ENDSEC
  0
EOF
