  0
SECTION
  2
HEADER
  9
$ACADVER
  1
AC1009
  9
$DWGCODEPAGE
  3
ansi_1252
  9
$INSBASE
 10
0.0
 20
0.0
 30
0.0
  9
$EXTMIN
 10
126.3388128499409
 20
-345.0
 30
0.0
  9
$EXTMAX
 10
324.5
 20
-82.0
 30
97.99999999999966
  9
$LIMMIN
 10
0.0
 20
0.0
  9
$LIMMAX
 10
12.0
 20
9.0
  9
$ORTHOMODE
 70
     0
  9
$REGENMODE
 70
     1
  9
$FILLMODE
 70
     1
  9
$QTEXTMODE
 70
     0
  9
$MIRRTEXT
 70
     1
  9
$DRAGMODE
 70
     2
  9
$LTSCALE
 40
1.0
  9
$OSMODE
 70
    37
  9
$ATTMODE
 70
     1
  9
$TEXTSIZE
 40
0.2
  9
$TRACEWID
 40
0.05
  9
$TEXTSTYLE
  7
STANDARD
  9
$CLAYER
  8
DEFAULT
  9
$CELTYPE
  6
BYLAYER
  9
$CECOLOR
 62
   256
  9
$DIMSCALE
 40
1.0
  9
$DIMASZ
 40
0.18
  9
$DIMEXO
 40
0.0625
  9
$DIMDLI
 40
0.38
  9
$DIMRND
 40
0.0
  9
$DIMDLE
 40
0.0
  9
$DIMEXE
 40
0.18
  9
$DIMTP
 40
0.0
  9
$DIMTM
 40
0.0
  9
$DIMTXT
 40
0.18
  9
$DIMCEN
 40
0.09
  9
$DIMTSZ
 40
0.0
  9
$DIMTOL
 70
     0
  9
$DIMLIM
 70
     0
  9
$DIMTIH
 70
     1
  9
$DIMTOH
 70
     1
  9
$DIMSE1
 70
     0
  9
$DIMSE2
 70
     0
  9
$DIMTAD
 70
     0
  9
$DIMZIN
 70
     0
  9
$DIMBLK
  1

  9
$DIMASO
 70
     1
  9
$DIMSHO
 70
     1
  9
$DIMPOST
  1

  9
$DIMAPOST
  1

  9
$DIMALT
 70
     0
  9
$DIMALTD
 70
     2
  9
$DIMALTF
 40
25.4
  9
$DIMLFAC
 40
1.0
  9
$DIMTOFL
 70
     0
  9
$DIMTVP
 40
0.0
  9
$DIMTIX
 70
     0
  9
$DIMSOXD
 70
     0
  9
$DIMSAH
 70
     0
  9
$DIMBLK1
  1

  9
$DIMBLK2
  1

  9
$DIMSTYLE
  2
STANDARD_ACAD
  9
$DIMCLRD
 70
     0
  9
$DIMCLRE
 70
     0
  9
$DIMCLRT
 70
     0
  9
$DIMTFAC
 40
1.0
  9
$DIMGAP
 40
0.09
  9
$LUNITS
 70
     2
  9
$LUPREC
 70
     3
  9
$SKETCHINC
 40
0.1
  9
$FILLETRAD
 40
0.0
  9
$AUNITS
 70
     0
  9
$AUPREC
 70
     0
  9
$MENU
  1
.
  9
$ELEVATION
 40
0.0
  9
$PELEVATION
 40
0.0
  9
$THICKNESS
 40
0.0
  9
$LIMCHECK
 70
     0
  9
$CHAMFERA
 40
0.0
  9
$CHAMFERB
 40
0.0
  9
$SKPOLY
 70
     0
  9
$TDCREATE
 40
2460923.831062986
  9
$TDUPDATE
 40
2460923.831074051
  9
$TDINDWG
 40
0.0000000116
  9
$TDUSRTIMER
 40
0.0000000116
  9
$USRTIMER
 70
     1
  9
$ANGBASE
 50
0.0
  9
$ANGDIR
 70
     0
  9
$PDMODE
 70
     0
  9
$PDSIZE
 40
0.0
  9
$PLINEWID
 40
0.0
  9
$COORDS
 70
     1
  9
$SPLFRAME
 70
     0
  9
$SPLINETYPE
 70
     6
  9
$SPLINESEGS
 70
     8
  9
$ATTDIA
 70
     0
  9
$ATTREQ
 70
     1
  9
$HANDLING
 70
     1
  9
$HANDSEED
  5
3E9
  9
$SURFTAB1
 70
     6
  9
$SURFTAB2
 70
     6
  9
$SURFTYPE
 70
     6
  9
$SURFU
 70
     6
  9
$SURFV
 70
     6
  9
$UCSNAME
  2

  9
$UCSORG
 10
0.0
 20
0.0
 30
0.0
  9
$UCSXDIR
 10
1.0
 20
0.0
 30
0.0
  9
$UCSYDIR
 10
0.0
 20
1.0
 30
0.0
  9
$PUCSNAME
  2

  9
$PUCSORG
 10
0.0
 20
0.0
 30
0.0
  9
$PUCSXDIR
 10
1.0
 20
0.0
 30
0.0
  9
$PUCSYDIR
 10
0.0
 20
1.0
 30
0.0
  9
$USERI1
 70
     0
  9
$USERI2
 70
     0
  9
$USERI3
 70
     0
  9
$USERI4
 70
     0
  9
$USERI5
 70
     0
  9
$USERR1
 40
0.0
  9
$USERR2
 40
0.0
  9
$USERR3
 40
0.0
  9
$USERR4
 40
0.0
  9
$USERR5
 40
0.0
  9
$WORLDVIEW
 70
     1
  9
$SHADEDGE
 70
     3
  9
$SHADEDIF
 70
    70
  9
$TILEMODE
 70
     1
  9
$MAXACTVP
 70
    64
  9
$PLIMCHECK
 70
     0
  9
$PEXTMIN
 10
1.000000000000000E+20
 20
1.000000000000000E+20
 30
1.000000000000000E+20
  9
$PEXTMAX
 10
-1.000000000000000E+20
 20
-1.000000000000000E+20
 30
-1.000000000000000E+20
  9
$PLIMMIN
 10
0.0
 20
0.0
  9
$PLIMMAX
 10
12.0
 20
9.0
  9
$UNITMODE
 70
     0
  9
$VISRETAIN
 70
     1
  9
$PLINEGEN
 70
     0
  9
$PSLTSCALE
 70
     1
  0
ENDSEC
  0
SECTION
  2
TABLES
  0
TABLE
  2
VPORT
 70
     1
  0
VPORT
  2
*ACTIVE
 70
     0
 10
0.0
 20
0.0
 11
1.0
 21
1.0
 12
10.42990654205607
 22
4.5
 13
0.0
 23
0.0
 14
0.5
 24
0.5
 15
0.5
 25
0.5
 16
0.0
 26
0.0
 36
1.0
 17
0.0
 27
0.0
 37
0.0
 40
9.0
 41
1.972972972850329
 42
50.0
 43
0.0
 44
0.0
 50
0.0
 51
0.0
 71
     0
 72
   100
 73
     1
 74
     3
 75
     0
 76
     0
 77
     0
 78
     0
  0
ENDTAB
  0
TABLE
  2
LTYPE
 70
     1
  0
LTYPE
  2
CONTINUOUS
 70
     0
  3
Solid line
 72
    65
 73
     0
 40
0.0
  0
ENDTAB
  0
TABLE
  2
LAYER
 70
     2
  0
LAYER
  2
0
 70
     0
 62
     7
  6
CONTINUOUS
  0
LAYER
  2
DEFAULT
 70
     0
 62
     7
  6
CONTINUOUS
  0
ENDTAB
  0
TABLE
  2
STYLE
 70
     2
  0
STYLE
  2
STANDARD
 70
     0
 40
0.0
 41
1.0
 50
0.0
 71
     0
 42
0.2
  3
txt
  4

  0
STYLE
  2
DEFAULT
 70
     0
 40
0.0
 41
1.0
 50
0.0
 71
     0
 42
0.2
  3

  4

  0
ENDTAB
  0
TABLE
  2
VIEW
 70
     0
  0
ENDTAB
  0
TABLE
  2
UCS
 70
     0
  0
ENDTAB
  0
TABLE
  2
APPID
 70
     3
  0
APPID
  2
ACAD
 70
     0
  0
APPID
  2
RHINO
 70
     0
  0
APPID
  2
ACADANNOTATIVE
 70
     0
  0
ENDTAB
  0
TABLE
  2
DIMSTYLE
 70
     1
  0
DIMSTYLE
  2
STANDARD_ACAD
 70
     0
  3

  4

  5

  6

  7

 40
1.0
 41
0.18
 42
0.0625
 43
0.38
 44
0.18
 45
0.0
 46
0.0
 47
0.0
 48
0.0
140
0.18
141
0.09
142
0.0
143
25.4
144
1.0
145
0.0
146
1.0
147
0.09
 71
     0
 72
     0
 73
     1
 74
     1
 75
     0
 76
     0
 77
     0
 78
     0
170
     0
171
     2
172
     0
173
     0
174
     0
175
     0
176
     0
177
     0
178
     0
  0
ENDTAB
  0
ENDSEC
  0
SECTION
  2
BLOCKS
  0
BLOCK
  8
0
  2
$MODEL_SPACE
 70
     0
 10
0.0
 20
0.0
 30
0.0
  3
$MODEL_SPACE
  1

  0
ENDBLK
  5
21
  8
0
  0
BLOCK
 67
     1
  8
0
  2
$PAPER_SPACE
 70
     0
 10
0.0
 20
0.0
 30
0.0
  3
$PAPER_SPACE
  1

  0
ENDBLK
  5
1D
 67
     1
  8
0
  0
ENDSEC
  0
SECTION
  2
ENTITIES
  0
POLYLINE
  5
60
  8
DEFAULT
 66
     1
 10
0.0
 20
0.0
 30
52.20543883440776
 70
     1
  0
VERTEX
  5
61
  8
DEFAULT
 10
319.0
 20
-317.0
 30
52.20543883440776
  0
VERTEX
  5
62
  8
DEFAULT
 10
272.0
 20
-317.0
 30
52.20543883440776
  0
VERTEX
  5
63
  8
DEFAULT
 10
272.0
 20
-345.0
 30
52.20543883440776
  0
VERTEX
  5
64
  8
DEFAULT
 10
319.0
 20
-345.0
 30
52.20543883440776
  0
SEQEND
  5
65
  8
DEFAULT
  0
POLYLINE
  5
66
  8
DEFAULT
 66
     1
 10
0.0
 20
0.0
 30
97.99999999999966
 70
     1
  0
VERTEX
  5
67
  8
DEFAULT
 10
301.39
 20
-261.0
 30
97.99999999999966
 42
1.000000440247903
  0
VERTEX
  5
68
  8
DEFAULT
 10
301.9999999999999
 20
-260.9999997314488
 30
97.99999999999966
  0
VERTEX
  5
69
  8
DEFAULT
 10
302.0
 20
-234.8
 30
97.99999999999966
  0
VERTEX
  5
6A
  8
DEFAULT
 10
319.0
 20
-234.8
 30
97.99999999999966
  0
VERTEX
  5
6B
  8
DEFAULT
 10
319.0
 20
-253.0
 30
97.99999999999966
  0
VERTEX
  5
6C
  8
DEFAULT
 10
310.0000000971161
 20
-253.0
 30
97.99999999999966
 42
1.000000159207014
  0
VERTEX
  5
6D
  8
DEFAULT
 10
310.0000000000001
 20
-253.61
 30
97.99999999999966
  0
VERTEX
  5
6E
  8
DEFAULT
 10
310.0
 20
-261.89
 30
97.99999999999966
 42
1.000000128828069
  0
VERTEX
  5
6F
  8
DEFAULT
 10
310.000000078585
 20
-262.5
 30
97.99999999999966
  0
VERTEX
  5
70
  8
DEFAULT
 10
319.0
 20
-262.5
 30
97.99999999999966
  0
VERTEX
  5
71
  8
DEFAULT
 10
319.0
 20
-312.7
 30
97.99999999999966
  0
VERTEX
  5
72
  8
DEFAULT
 10
299.5494282001005
 20
-312.7
 30
97.99999999999966
 42
0.9999999999999999
  0
VERTEX
  5
73
  8
DEFAULT
 10
298.9394282001005
 20
-312.7
 30
97.99999999999966
  0
VERTEX
  5
74
  8
DEFAULT
 10
298.9402955566546
 20
-312.7434929867363
 30
97.99999999999966
  0
VERTEX
  5
75
  8
DEFAULT
 10
298.9402922191199
 20
-314.5
 30
97.99999999999966
  0
VERTEX
  5
76
  8
DEFAULT
 10
249.0
 20
-314.5
 30
97.99999999999966
  0
VERTEX
  5
77
  8
DEFAULT
 10
249.0
 20
-261.0
 30
97.99999999999966
  0
SEQEND
  5
78
  8
DEFAULT
  0
POLYLINE
  5
79
  8
DEFAULT
 66
     1
 10
0.0
 20
0.0
 30
97.99999999999966
 70
     1
  0
VERTEX
  5
7A
  8
DEFAULT
 10
283.61
 20
-231.8
 30
97.99999999999966
  0
VERTEX
  5
7B
  8
DEFAULT
 10
286.0
 20
-231.8
 30
97.99999999999966
  0
VERTEX
  5
7C
  8
DEFAULT
 10
286.0
 20
-243.0
 30
97.99999999999966
  0
VERTEX
  5
7D
  8
DEFAULT
 10
285.7
 20
-243.0
 30
97.99999999999966
  0
VERTEX
  5
7E
  8
DEFAULT
 10
285.7
 20
-246.0
 30
97.99999999999966
  0
VERTEX
  5
7F
  8
DEFAULT
 10
286.0
 20
-246.0
 30
97.99999999999966
  0
VERTEX
  5
80
  8
DEFAULT
 10
286.0
 20
-258.0
 30
97.99999999999966
  0
VERTEX
  5
81
  8
DEFAULT
 10
233.0
 20
-258.0
 30
97.99999999999966
  0
VERTEX
  5
82
  8
DEFAULT
 10
233.0
 20
-246.0
 30
97.99999999999966
  0
VERTEX
  5
83
  8
DEFAULT
 10
233.3
 20
-246.0
 30
97.99999999999966
  0
VERTEX
  5
84
  8
DEFAULT
 10
233.3
 20
-243.0
 30
97.99999999999966
  0
VERTEX
  5
85
  8
DEFAULT
 10
233.0
 20
-243.0
 30
97.99999999999966
  0
VERTEX
  5
86
  8
DEFAULT
 10
233.0
 20
-230.0
 30
97.99999999999966
  0
VERTEX
  5
87
  8
DEFAULT
 10
283.0
 20
-230.0
 30
97.99999999999966
  0
VERTEX
  5
88
  8
DEFAULT
 10
283.0
 20
-231.7999999045479
 30
97.99999999999966
 42
1.000000156479042
  0
SEQEND
  5
89
  8
DEFAULT
  0
POLYLINE
  5
8A
  8
DEFAULT
 66
     1
 10
0.0
 20
0.0
 30
0.0
 70
     1
  0
VERTEX
  5
8B
  8
DEFAULT
 10
217.3667362590081
 20
-158.2
 30
0.0
 42
-0.9999999999999999
  0
VERTEX
  5
8C
  8
DEFAULT
 10
216.7567362590081
 20
-158.2
 30
0.0
  0
VERTEX
  5
8D
  8
DEFAULT
 10
216.7567362590034
 20
-157.0
 30
0.0
  0
VERTEX
  5
8E
  8
DEFAULT
 10
213.5134725180068
 20
-157.0
 30
0.0
  0
VERTEX
  5
8F
  8
DEFAULT
 10
213.5134725180068
 20
-158.1999969906734
 30
0.0
 42
-1.000004933334472
  0
VERTEX
  5
90
  8
DEFAULT
 10
212.9034725180216
 20
-158.2
 30
0.0
  0
VERTEX
  5
91
  8
DEFAULT
 10
209.0965274820394
 20
-158.2
 30
0.0
 42
-0.9999999999999999
  0
VERTEX
  5
92
  8
DEFAULT
 10
208.4865274820394
 20
-158.2
 30
0.0
  0
VERTEX
  5
93
  8
DEFAULT
 10
208.4865274819933
 20
-157.0
 30
0.0
  0
VERTEX
  5
94
  8
DEFAULT
 10
206.2
 20
-157.0
 30
0.0
  0
VERTEX
  5
95
  8
DEFAULT
 10
206.2
 20
-160.89
 30
0.0
 42
-0.9999999999999999
  0
VERTEX
  5
96
  8
DEFAULT
 10
206.2
 20
-161.5
 30
0.0
  0
VERTEX
  5
97
  8
DEFAULT
 10
205.0
 20
-161.5
 30
0.0
  0
VERTEX
  5
98
  8
DEFAULT
 10
205.0
 20
-167.5
 30
0.0
  0
VERTEX
  5
99
  8
DEFAULT
 10
206.1999997794721
 20
-167.5000000000001
 30
0.0
 42
-1.000000361563534
  0
VERTEX
  5
9A
  8
DEFAULT
 10
206.2000000000258
 20
-168.11
 30
0.0
  0
VERTEX
  5
9B
  8
DEFAULT
 10
206.2
 20
-171.89
 30
0.0
 42
-1.000000308602549
  0
VERTEX
  5
9C
  8
DEFAULT
 10
206.199999811727
 20
-172.5
 30
0.0
  0
VERTEX
  5
9D
  8
DEFAULT
 10
205.0
 20
-172.5
 30
0.0
  0
VERTEX
  5
9E
  8
DEFAULT
 10
205.0
 20
-179.5
 30
0.0
  0
VERTEX
  5
9F
  8
DEFAULT
 10
206.1999999563262
 20
-179.5
 30
0.0
 42
-1.000000071634964
  0
VERTEX
  5
A0
  8
DEFAULT
 10
206.2000000000235
 20
-180.11
 30
0.0
  0
VERTEX
  5
A1
  8
DEFAULT
 10
206.2
 20
-183.89
 30
0.0
 42
-0.9999999999879324
  0
VERTEX
  5
A2
  8
DEFAULT
 10
206.1999999999927
 20
-184.5
 30
0.0
  0
VERTEX
  5
A3
  8
DEFAULT
 10
205.0
 20
-184.5
 30
0.0
  0
VERTEX
  5
A4
  8
DEFAULT
 10
205.0
 20
-191.5
 30
0.0
  0
VERTEX
  5
A5
  8
DEFAULT
 10
206.1999997314038
 20
-191.5000000000001
 30
0.0
 42
-1.000000440360192
  0
VERTEX
  5
A6
  8
DEFAULT
 10
206.2000000000235
 20
-192.11
 30
0.0
  0
VERTEX
  5
A7
  8
DEFAULT
 10
206.2
 20
-195.89
 30
0.0
 42
-0.9999999999999999
  0
VERTEX
  5
A8
  8
DEFAULT
 10
206.2
 20
-196.5
 30
0.0
  0
VERTEX
  5
A9
  8
DEFAULT
 10
205.0
 20
-196.5
 30
0.0
  0
VERTEX
  5
AA
  8
DEFAULT
 10
205.0
 20
-202.5
 30
0.0
  0
VERTEX
  5
AB
  8
DEFAULT
 10
206.1999999999765
 20
-202.5
 30
0.0
 42
-1.000000000076972
  0
VERTEX
  5
AC
  8
DEFAULT
 10
206.2000000000235
 20
-203.11
 30
0.0
  0
VERTEX
  5
AD
  8
DEFAULT
 10
206.2
 20
-207.0
 30
0.0
  0
VERTEX
  5
AE
  8
DEFAULT
 10
208.4865274819933
 20
-207.0
 30
0.0
  0
VERTEX
  5
AF
  8
DEFAULT
 10
208.4865274819934
 20
-205.8000001843673
 30
0.0
 42
-1.000000302241582
  0
VERTEX
  5
B0
  8
DEFAULT
 10
209.0965274819933
 20
-205.8
 30
0.0
  0
VERTEX
  5
B1
  8
DEFAULT
 10
212.9034725180068
 20
-205.8
 30
0.0
 42
-1.000000314302688
  0
VERTEX
  5
B2
  8
DEFAULT
 10
213.5134725180067
 20
-205.8000001917246
 30
0.0
  0
VERTEX
  5
B3
  8
DEFAULT
 10
213.5134725180068
 20
-207.0
 30
0.0
  0
VERTEX
  5
B4
  8
DEFAULT
 10
216.7567362590034
 20
-207.0
 30
0.0
  0
VERTEX
  5
B5
  8
DEFAULT
 10
216.7567362590035
 20
-205.8000001999392
 30
0.0
 42
-1.000000327769131
  0
VERTEX
  5
B6
  8
DEFAULT
 10
217.3667362590034
 20
-205.8
 30
0.0
  0
VERTEX
  5
B7
  8
DEFAULT
 10
220.0000000000001
 20
-205.8
 30
0.0
  0
VERTEX
  5
B8
  8
DEFAULT
 10
220.0000000000001
 20
-158.2
 30
0.0
  0
SEQEND
  5
B9
  8
DEFAULT
  0
POLYLINE
  5
BA
  8
DEFAULT
 66
     1
 10
0.0
 20
0.0
 30
0.0
 70
     1
  0
VERTEX
  5
BB
  8
DEFAULT
 10
320.1467362590033
 20
-202.0
 30
0.0
 42
1.000000000000093
  0
VERTEX
  5
BC
  8
DEFAULT
 10
320.7567362590033
 20
-202.0
 30
0.0
  0
VERTEX
  5
BD
  8
DEFAULT
 10
320.7567362590033
 20
-200.8
 30
0.0
 42
1.000000000000093
  0
VERTEX
  5
BE
  8
DEFAULT
 10
320.1467362590033
 20
-200.8
 30
0.0
  0
VERTEX
  5
BF
  8
DEFAULT
 10
318.1234725180068
 20
-200.8
 30
0.0
 42
1.000000281489488
  0
VERTEX
  5
C0
  8
DEFAULT
 10
317.5134725180068
 20
-200.8000001717086
 30
0.0
  0
VERTEX
  5
C1
  8
DEFAULT
 10
317.5134725180068
 20
-202.0
 30
0.0
 42
0.9999999999999533
  0
VERTEX
  5
C2
  8
DEFAULT
 10
318.1234725180068
 20
-202.0
 30
0.0
  0
SEQEND
  5
C3
  8
DEFAULT
  0
POLYLINE
  5
C4
  8
DEFAULT
 66
     1
 10
0.0
 20
0.0
 30
0.0
 70
     1
  0
VERTEX
  5
C5
  8
DEFAULT
 10
312.4865274819932
 20
-201.9999998130261
 30
0.0
  0
VERTEX
  5
C6
  8
DEFAULT
 10
312.4865274819933
 20
-200.8000000912982
 30
0.0
 42
1.000000149669013
  0
VERTEX
  5
C7
  8
DEFAULT
 10
311.8765274819933
 20
-200.8
 30
0.0
  0
VERTEX
  5
C8
  8
DEFAULT
 10
310.8099999999999
 20
-200.8
 30
0.0
 42
0.9999999999999999
  0
VERTEX
  5
C9
  8
DEFAULT
 10
310.2
 20
-200.8
 30
0.0
  0
VERTEX
  5
CA
  8
DEFAULT
 10
310.2
 20
-201.9999998676336
 30
0.0
 42
1.000000216994044
  0
VERTEX
  5
CB
  8
DEFAULT
 10
310.81
 20
-202.0
 30
0.0
  0
VERTEX
  5
CC
  8
DEFAULT
 10
311.8765274819933
 20
-202.0
 30
0.0
 42
1.000000306514625
  0
SEQEND
  5
CD
  8
DEFAULT
  0
POLYLINE
  5
CE
  8
DEFAULT
 66
     1
 10
0.0
 20
0.0
 30
0.0
 70
     1
  0
VERTEX
  5
CF
  8
DEFAULT
 10
317.5134725180068
 20
-158.000000167343
 30
0.0
  0
VERTEX
  5
D0
  8
DEFAULT
 10
317.5134725180069
 20
-159.1999997494213
 30
0.0
 42
1.000000410784968
  0
VERTEX
  5
D1
  8
DEFAULT
 10
318.1234725180068
 20
-159.2
 30
0.0
  0
VERTEX
  5
D2
  8
DEFAULT
 10
320.1467362590034
 20
-159.2
 30
0.0
 42
0.9999999999999999
  0
VERTEX
  5
D3
  8
DEFAULT
 10
320.7567362590033
 20
-159.2
 30
0.0
  0
VERTEX
  5
D4
  8
DEFAULT
 10
320.7567362590033
 20
-158.0000000802807
 30
0.0
 42
1.000000131607619
  0
VERTEX
  5
D5
  8
DEFAULT
 10
320.1467362590033
 20
-158.0
 30
0.0
  0
VERTEX
  5
D6
  8
DEFAULT
 10
318.1234725180068
 20
-158.0
 30
0.0
 42
1.0000002743329
  0
SEQEND
  5
D7
  8
DEFAULT
  0
POLYLINE
  5
D8
  8
DEFAULT
 66
     1
 10
0.0
 20
0.0
 30
0.0
 70
     1
  0
VERTEX
  5
D9
  8
DEFAULT
 10
310.2
 20
-158.0000001588468
 30
0.0
  0
VERTEX
  5
DA
  8
DEFAULT
 10
310.2000000000001
 20
-159.1999997521249
 30
0.0
 42
1.00000040635267
  0
VERTEX
  5
DB
  8
DEFAULT
 10
310.81
 20
-159.2
 30
0.0
  0
VERTEX
  5
DC
  8
DEFAULT
 10
311.8765274819933
 20
-159.2
 30
0.0
 42
1.000000210715687
  0
VERTEX
  5
DD
  8
DEFAULT
 10
312.4865274819932
 20
-159.1999998714634
 30
0.0
  0
VERTEX
  5
DE
  8
DEFAULT
 10
312.4865274819932
 20
-158.000000132804
 30
0.0
 42
1.00000021771139
  0
VERTEX
  5
DF
  8
DEFAULT
 10
311.8765274819933
 20
-158.0
 30
0.0
  0
VERTEX
  5
E0
  8
DEFAULT
 10
310.81
 20
-158.0
 30
0.0
 42
1.000000260404581
  0
SEQEND
  5
E1
  8
DEFAULT
  0
POLYLINE
  5
E2
  8
DEFAULT
 66
     1
 10
0.0
 20
0.0
 30
0.0
 70
     1
  0
VERTEX
  5
E3
  8
DEFAULT
 10
281.61
 20
-205.8
 30
0.0
 42
1.000000000000093
  0
VERTEX
  5
E4
  8
DEFAULT
 10
281.0
 20
-205.8
 30
0.0
  0
VERTEX
  5
E5
  8
DEFAULT
 10
281.0
 20
-207.0
 30
0.0
  0
VERTEX
  5
E6
  8
DEFAULT
 10
273.0
 20
-207.0
 30
0.0
  0
VERTEX
  5
E7
  8
DEFAULT
 10
272.9999999999999
 20
-205.8000001583278
 30
0.0
 42
1.00000025955384
  0
VERTEX
  5
E8
  8
DEFAULT
 10
272.39
 20
-205.8
 30
0.0
  0
VERTEX
  5
E9
  8
DEFAULT
 10
258.61
 20
-205.8
 30
0.0
 42
1.000000440191293
  0
VERTEX
  5
EA
  8
DEFAULT
 10
258.0000000000001
 20
-205.8000002685166
 30
0.0
  0
VERTEX
  5
EB
  8
DEFAULT
 10
258.0
 20
-207.0
 30
0.0
  0
VERTEX
  5
EC
  8
DEFAULT
 10
250.0
 20
-207.0
 30
0.0
  0
VERTEX
  5
ED
  8
DEFAULT
 10
250.0
 20
-205.8
 30
0.0
 42
0.9999999999999999
  0
VERTEX
  5
EE
  8
DEFAULT
 10
249.39
 20
-205.8
 30
0.0
  0
VERTEX
  5
EF
  8
DEFAULT
 10
243.5
 20
-205.8
 30
0.0
  0
VERTEX
  5
F0
  8
DEFAULT
 10
243.5
 20
-202.5
 30
0.0
  0
VERTEX
  5
F1
  8
DEFAULT
 10
244.7000000000002
 20
-202.5
 30
0.0
 42
1.000000000000186
  0
VERTEX
  5
F2
  8
DEFAULT
 10
244.7
 20
-201.89
 30
0.0
  0
VERTEX
  5
F3
  8
DEFAULT
 10
244.7000000000236
 20
-197.11
 30
0.0
 42
1.000000261999179
  0
VERTEX
  5
F4
  8
DEFAULT
 10
244.6999998402041
 20
-196.5000000000001
 30
0.0
  0
VERTEX
  5
F5
  8
DEFAULT
 10
243.5
 20
-196.5
 30
0.0
  0
VERTEX
  5
F6
  8
DEFAULT
 10
243.5
 20
-191.5
 30
0.0
  0
VERTEX
  5
F7
  8
DEFAULT
 10
244.6999999663499
 20
-191.5
 30
0.0
 42
1.000000055164256
  0
VERTEX
  5
F8
  8
DEFAULT
 10
244.7000000000001
 20
-190.89
 30
0.0
  0
VERTEX
  5
F9
  8
DEFAULT
 10
244.7
 20
-185.1099999999999
 30
0.0
 42
1.000000269268896
  0
VERTEX
  5
FA
  8
DEFAULT
 10
244.6999998357932
 20
-184.5000000000001
 30
0.0
  0
VERTEX
  5
FB
  8
DEFAULT
 10
243.5
 20
-184.5
 30
0.0
  0
VERTEX
  5
FC
  8
DEFAULT
 10
243.5
 20
-179.5
 30
0.0
  0
VERTEX
  5
FD
  8
DEFAULT
 10
244.6999998645726
 20
-179.5
 30
0.0
 42
1.000000222012201
  0
VERTEX
  5
FE
  8
DEFAULT
 10
244.7
 20
-178.89
 30
0.0
  0
VERTEX
  5
FF
  8
DEFAULT
 10
244.7000000000235
 20
-173.11
 30
0.0
 42
1.000000000076785
  0
VERTEX
  5
100
  8
DEFAULT
 10
244.6999999999767
 20
-172.5
 30
0.0
  0
VERTEX
  5
101
  8
DEFAULT
 10
243.5
 20
-172.5
 30
0.0
  0
VERTEX
  5
102
  8
DEFAULT
 10
243.5
 20
-167.5
 30
0.0
  0
VERTEX
  5
103
  8
DEFAULT
 10
244.7000000000103
 20
-167.5
 30
0.0
 42
1.000000000033733
  0
VERTEX
  5
104
  8
DEFAULT
 10
244.6999999999897
 20
-166.89
 30
0.0
  0
VERTEX
  5
105
  8
DEFAULT
 10
244.7000000000235
 20
-162.11
 30
0.0
 42
1.000000170355827
  0
VERTEX
  5
106
  8
DEFAULT
 10
244.6999998961064
 20
-161.5
 30
0.0
  0
VERTEX
  5
107
  8
DEFAULT
 10
243.5
 20
-161.5
 30
0.0
  0
VERTEX
  5
108
  8
DEFAULT
 10
243.5
 20
-158.2
 30
0.0
  0
VERTEX
  5
109
  8
DEFAULT
 10
249.39
 20
-158.2
 30
0.0
 42
0.9999999999999999
  0
VERTEX
  5
10A
  8
DEFAULT
 10
250.0
 20
-158.2
 30
0.0
  0
VERTEX
  5
10B
  8
DEFAULT
 10
250.0
 20
-157.0
 30
0.0
  0
VERTEX
  5
10C
  8
DEFAULT
 10
258.0
 20
-157.0
 30
0.0
  0
VERTEX
  5
10D
  8
DEFAULT
 10
258.0
 20
-158.2
 30
0.0
 42
1.000000000000093
  0
VERTEX
  5
10E
  8
DEFAULT
 10
258.61
 20
-158.2
 30
0.0
  0
VERTEX
  5
10F
  8
DEFAULT
 10
272.39
 20
-158.2
 30
0.0
 42
1.000000000000093
  0
VERTEX
  5
110
  8
DEFAULT
 10
273.0
 20
-158.2
 30
0.0
  0
VERTEX
  5
111
  8
DEFAULT
 10
273.0
 20
-157.0
 30
0.0
  0
VERTEX
  5
112
  8
DEFAULT
 10
281.0
 20
-157.0
 30
0.0
  0
VERTEX
  5
113
  8
DEFAULT
 10
281.0
 20
-158.2
 30
0.0
 42
1.000000000000093
  0
VERTEX
  5
114
  8
DEFAULT
 10
281.61
 20
-158.2
 30
0.0
  0
VERTEX
  5
115
  8
DEFAULT
 10
287.5
 20
-158.2
 30
0.0
  0
VERTEX
  5
116
  8
DEFAULT
 10
287.5
 20
-161.5
 30
0.0
  0
VERTEX
  5
117
  8
DEFAULT
 10
286.3000001530991
 20
-161.5000000000001
 30
0.0
 42
1.000000250905298
  0
VERTEX
  5
118
  8
DEFAULT
 10
286.3000000000001
 20
-162.11
 30
0.0
  0
VERTEX
  5
119
  8
DEFAULT
 10
286.3000000000001
 20
-166.89
 30
0.0
 42
1.000000268506821
  0
VERTEX
  5
11A
  8
DEFAULT
 10
286.300000163773
 20
-167.4999999999999
 30
0.0
  0
VERTEX
  5
11B
  8
DEFAULT
 10
287.5
 20
-167.5
 30
0.0
  0
VERTEX
  5
11C
  8
DEFAULT
 10
287.5
 20
-172.5
 30
0.0
  0
VERTEX
  5
11D
  8
DEFAULT
 10
286.3000000181843
 20
-172.5
 30
0.0
 42
1.000000029733348
  0
VERTEX
  5
11E
  8
DEFAULT
 10
286.3000000000001
 20
-173.11
 30
0.0
  0
VERTEX
  5
11F
  8
DEFAULT
 10
286.3000000000001
 20
-178.89
 30
0.0
 42
1.000000042127916
  0
VERTEX
  5
120
  8
DEFAULT
 10
286.3000000256571
 20
-179.5
 30
0.0
  0
VERTEX
  5
121
  8
DEFAULT
 10
287.5
 20
-179.5
 30
0.0
  0
VERTEX
  5
122
  8
DEFAULT
 10
287.5
 20
-184.5
 30
0.0
  0
VERTEX
  5
123
  8
DEFAULT
 10
286.3000000000001
 20
-184.5
 30
0.0
 42
0.9999999999232613
  0
VERTEX
  5
124
  8
DEFAULT
 10
286.3000000000002
 20
-185.11
 30
0.0
  0
VERTEX
  5
125
  8
DEFAULT
 10
286.3000000000001
 20
-190.89
 30
0.0
 42
0.9999999999999533
  0
VERTEX
  5
126
  8
DEFAULT
 10
286.3000000000001
 20
-191.5
 30
0.0
  0
VERTEX
  5
127
  8
DEFAULT
 10
287.5
 20
-191.5
 30
0.0
  0
VERTEX
  5
128
  8
DEFAULT
 10
287.5
 20
-196.5
 30
0.0
  0
VERTEX
  5
129
  8
DEFAULT
 10
286.3000000000236
 20
-196.5
 30
0.0
 42
0.999999999961514
  0
VERTEX
  5
12A
  8
DEFAULT
 10
286.3000000000002
 20
-197.11
 30
0.0
  0
VERTEX
  5
12B
  8
DEFAULT
 10
286.3000000000001
 20
-201.89
 30
0.0
 42
0.9999999999999533
  0
VERTEX
  5
12C
  8
DEFAULT
 10
286.3000000000002
 20
-202.5
 30
0.0
  0
VERTEX
  5
12D
  8
DEFAULT
 10
287.5
 20
-202.5
 30
0.0
  0
VERTEX
  5
12E
  8
DEFAULT
 10
287.5
 20
-205.8
 30
0.0
  0
SEQEND
  5
12F
  8
DEFAULT
  0
POLYLINE
  5
130
  8
DEFAULT
 66
     1
 10
0.0
 20
0.0
 30
0.0
 70
     1
  0
VERTEX
  5
131
  8
DEFAULT
 10
302.1467362590033
 20
-160.2
 30
0.0
 42
1.00000000000014
  0
VERTEX
  5
132
  8
DEFAULT
 10
302.7567362590033
 20
-160.2
 30
0.0
  0
VERTEX
  5
133
  8
DEFAULT
 10
302.7567362590033
 20
-159.0000000000002
 30
0.0
  0
VERTEX
  5
134
  8
DEFAULT
 10
306.0
 20
-159.0000000000002
 30
0.0
  0
VERTEX
  5
135
  8
DEFAULT
 10
306.0
 20
-202.9999999999999
 30
0.0
  0
VERTEX
  5
136
  8
DEFAULT
 10
302.7567362590033
 20
-202.9999999999999
 30
0.0
  0
VERTEX
  5
137
  8
DEFAULT
 10
302.7567362590033
 20
-201.800000218405
 30
0.0
 42
1.000000358040965
  0
VERTEX
  5
138
  8
DEFAULT
 10
302.1467362590033
 20
-201.8
 30
0.0
  0
VERTEX
  5
139
  8
DEFAULT
 10
300.1234725180067
 20
-201.8
 30
0.0
 42
1.000000000000093
  0
VERTEX
  5
13A
  8
DEFAULT
 10
299.5134725180067
 20
-201.8
 30
0.0
  0
VERTEX
  5
13B
  8
DEFAULT
 10
299.5134725180067
 20
-203.0
 30
0.0
  0
VERTEX
  5
13C
  8
DEFAULT
 10
294.4865274819932
 20
-203.0
 30
0.0
  0
VERTEX
  5
13D
  8
DEFAULT
 10
294.4865274819932
 20
-201.8
 30
0.0
 42
1.000000000000093
  0
VERTEX
  5
13E
  8
DEFAULT
 10
293.8765274819932
 20
-201.8
 30
0.0
  0
VERTEX
  5
13F
  8
DEFAULT
 10
292.8099999999999
 20
-201.8
 30
0.0
 42
1.000000267821438
  0
VERTEX
  5
140
  8
DEFAULT
 10
292.2
 20
-201.8000001633711
 30
0.0
  0
VERTEX
  5
141
  8
DEFAULT
 10
292.1999999999999
 20
-203.0
 30
0.0
  0
VERTEX
  5
142
  8
DEFAULT
 10
290.9999999999999
 20
-203.0
 30
0.0
  0
VERTEX
  5
143
  8
DEFAULT
 10
290.9999999999999
 20
-196.5
 30
0.0
  0
VERTEX
  5
144
  8
DEFAULT
 10
292.1999999999835
 20
-196.5000000000001
 30
0.0
 42
0.9999999999733952
  0
VERTEX
  5
145
  8
DEFAULT
 10
292.1999999999998
 20
-195.89
 30
0.0
  0
VERTEX
  5
146
  8
DEFAULT
 10
292.2000000000234
 20
-189.11
 30
0.0
 42
1.000000232729005
  0
VERTEX
  5
147
  8
DEFAULT
 10
292.1999998580588
 20
-188.5000000000001
 30
0.0
  0
VERTEX
  5
148
  8
DEFAULT
 10
290.9999999999999
 20
-188.5
 30
0.0
  0
VERTEX
  5
149
  8
DEFAULT
 10
290.9999999999999
 20
-173.5
 30
0.0
  0
VERTEX
  5
14A
  8
DEFAULT
 10
292.2000000000114
 20
-173.5
 30
0.0
 42
1.000000000037694
  0
VERTEX
  5
14B
  8
DEFAULT
 10
292.1999999999884
 20
-172.89
 30
0.0
  0
VERTEX
  5
14C
  8
DEFAULT
 10
292.2000000000234
 20
-166.11
 30
0.0
 42
1.000000000077065
  0
VERTEX
  5
14D
  8
DEFAULT
 10
292.1999999999765
 20
-165.5
 30
0.0
  0
VERTEX
  5
14E
  8
DEFAULT
 10
290.9999999999999
 20
-165.5
 30
0.0
  0
VERTEX
  5
14F
  8
DEFAULT
 10
290.9999999999999
 20
-159.0
 30
0.0
  0
VERTEX
  5
150
  8
DEFAULT
 10
292.1999999999999
 20
-159.0
 30
0.0
  0
VERTEX
  5
151
  8
DEFAULT
 10
292.1999999999999
 20
-160.1999999331433
 30
0.0
 42
1.00000010960106
  0
VERTEX
  5
152
  8
DEFAULT
 10
292.8099999999999
 20
-160.2
 30
0.0
  0
VERTEX
  5
153
  8
DEFAULT
 10
293.8765274819932
 20
-160.2
 30
0.0
 42
1.00000000000014
  0
VERTEX
  5
154
  8
DEFAULT
 10
294.4865274819932
 20
-160.2
 30
0.0
  0
VERTEX
  5
155
  8
DEFAULT
 10
294.4865274819932
 20
-159.0
 30
0.0
  0
VERTEX
  5
156
  8
DEFAULT
 10
299.5134725180067
 20
-159.0
 30
0.0
  0
VERTEX
  5
157
  8
DEFAULT
 10
299.5134725180068
 20
-160.1999998226366
 30
0.0
 42
1.000000290759767
  0
VERTEX
  5
158
  8
DEFAULT
 10
300.1234725180067
 20
-160.2
 30
0.0
  0
SEQEND
  5
159
  8
DEFAULT
  0
POLYLINE
  5
15A
  8
DEFAULT
 66
     1
 10
0.0
 20
0.0
 30
0.0
 70
     1
  0
VERTEX
  5
15B
  8
DEFAULT
 10
236.3667362590034
 20
-205.8
 30
0.0
 42
0.9999999999999999
  0
VERTEX
  5
15C
  8
DEFAULT
 10
235.7567362590034
 20
-205.8
 30
0.0
  0
VERTEX
  5
15D
  8
DEFAULT
 10
235.7567362590034
 20
-207.0
 30
0.0
  0
VERTEX
  5
15E
  8
DEFAULT
 10
232.5134725180068
 20
-207.0
 30
0.0
  0
VERTEX
  5
15F
  8
DEFAULT
 10
232.5134725180068
 20
-205.8
 30
0.0
 42
0.9999999999999999
  0
VERTEX
  5
160
  8
DEFAULT
 10
231.9034725180068
 20
-205.8
 30
0.0
  0
VERTEX
  5
161
  8
DEFAULT
 10
228.0965274819933
 20
-205.8
 30
0.0
 42
1.000000223862501
  0
VERTEX
  5
162
  8
DEFAULT
 10
227.4865274819933
 20
-205.8000001365561
 30
0.0
  0
VERTEX
  5
163
  8
DEFAULT
 10
227.4865274819933
 20
-207.0
 30
0.0
  0
VERTEX
  5
164
  8
DEFAULT
 10
225.2
 20
-207.0
 30
0.0
  0
VERTEX
  5
165
  8
DEFAULT
 10
225.2000000000235
 20
-203.11
 30
0.0
 42
1.000000000076645
  0
VERTEX
  5
166
  8
DEFAULT
 10
225.1999999999767
 20
-202.5
 30
0.0
  0
VERTEX
  5
167
  8
DEFAULT
 10
224.0
 20
-202.5
 30
0.0
  0
VERTEX
  5
168
  8
DEFAULT
 10
224.0
 20
-196.5
 30
0.0
  0
VERTEX
  5
169
  8
DEFAULT
 10
225.1999998918511
 20
-196.4999999999999
 30
0.0
 42
1.000000177246322
  0
VERTEX
  5
16A
  8
DEFAULT
 10
225.2
 20
-195.89
 30
0.0
  0
VERTEX
  5
16B
  8
DEFAULT
 10
225.2000000000235
 20
-192.11
 30
0.0
 42
1.000000252373769
  0
VERTEX
  5
16C
  8
DEFAULT
 10
225.1999998460755
 20
-191.5000000000001
 30
0.0
  0
VERTEX
  5
16D
  8
DEFAULT
 10
224.0
 20
-191.5
 30
0.0
  0
VERTEX
  5
16E
  8
DEFAULT
 10
224.0
 20
-184.5
 30
0.0
  0
VERTEX
  5
16F
  8
DEFAULT
 10
225.1999999999879
 20
-184.5
 30
0.0
 42
0.9999999999601162
  0
VERTEX
  5
170
  8
DEFAULT
 10
225.2000000000122
 20
-183.89
 30
0.0
  0
VERTEX
  5
171
  8
DEFAULT
 10
225.2000000000235
 20
-180.11
 30
0.0
 42
1.0000001901502
  0
VERTEX
  5
172
  8
DEFAULT
 10
225.1999998840319
 20
-179.5
 30
0.0
  0
VERTEX
  5
173
  8
DEFAULT
 10
224.0
 20
-179.5
 30
0.0
  0
VERTEX
  5
174
  8
DEFAULT
 10
224.0
 20
-172.5
 30
0.0
  0
VERTEX
  5
175
  8
DEFAULT
 10
225.1999998642425
 20
-172.5
 30
0.0
 42
1.000000222503431
  0
VERTEX
  5
176
  8
DEFAULT
 10
225.2
 20
-171.89
 30
0.0
  0
VERTEX
  5
177
  8
DEFAULT
 10
225.2000000000235
 20
-168.11
 30
0.0
 42
1.000000099480647
  0
VERTEX
  5
178
  8
DEFAULT
 10
225.1999999393403
 20
-167.5
 30
0.0
  0
VERTEX
  5
179
  8
DEFAULT
 10
224.0
 20
-167.5
 30
0.0
  0
VERTEX
  5
17A
  8
DEFAULT
 10
224.0
 20
-161.5
 30
0.0
  0
VERTEX
  5
17B
  8
DEFAULT
 10
225.1999998384151
 20
-161.5
 30
0.0
 42
1.00000026484219
  0
VERTEX
  5
17C
  8
DEFAULT
 10
225.2
 20
-160.89
 30
0.0
  0
VERTEX
  5
17D
  8
DEFAULT
 10
225.2
 20
-157.0
 30
0.0
  0
VERTEX
  5
17E
  8
DEFAULT
 10
227.4865274819933
 20
-157.0
 30
0.0
  0
VERTEX
  5
17F
  8
DEFAULT
 10
227.4865274819933
 20
-158.2
 30
0.0
 42
0.9999999999999999
  0
VERTEX
  5
180
  8
DEFAULT
 10
228.0965274819933
 20
-158.2
 30
0.0
  0
VERTEX
  5
181
  8
DEFAULT
 10
231.9034725180067
 20
-158.2
 30
0.0
 42
0.9999999999998602
  0
VERTEX
  5
182
  8
DEFAULT
 10
232.5134725180068
 20
-158.1999999999999
 30
0.0
  0
VERTEX
  5
183
  8
DEFAULT
 10
232.5134725180068
 20
-157.0
 30
0.0
  0
VERTEX
  5
184
  8
DEFAULT
 10
235.7567362590034
 20
-157.0
 30
0.0
  0
VERTEX
  5
185
  8
DEFAULT
 10
235.7567362590034
 20
-158.2
 30
0.0
 42
0.9999999999999999
  0
VERTEX
  5
186
  8
DEFAULT
 10
236.3667362590034
 20
-158.2
 30
0.0
  0
VERTEX
  5
187
  8
DEFAULT
 10
239.0000000000001
 20
-158.2
 30
0.0
  0
VERTEX
  5
188
  8
DEFAULT
 10
239.0000000000001
 20
-205.8
 30
0.0
  0
SEQEND
  5
189
  8
DEFAULT
  0
CIRCLE
  5
18A
  8
DEFAULT
 10
317.1000000000058
 20
-180.0000000000001
 30
0.0
 40
0.305
  0
CIRCLE
  5
18B
  8
DEFAULT
 10
305.328065451304
 20
-121.1094766762839
 30
0.0
 40
0.305
  0
POLYLINE
  5
18C
  8
DEFAULT
 66
     1
 10
0.0
 20
0.0
 30
0.0
 70
     1
  0
VERTEX
  5
18D
  8
DEFAULT
 10
300.5380654513061
 20
-141.9094766762839
 30
0.0
 42
1.000000000000093
  0
VERTEX
  5
18E
  8
DEFAULT
 10
299.9280654513061
 20
-141.9094766762839
 30
0.0
  0
VERTEX
  5
18F
  8
DEFAULT
 10
299.9280654513061
 20
-143.1094765840484
 30
0.0
 42
1.000000151205276
  0
VERTEX
  5
190
  8
DEFAULT
 10
300.5380654513061
 20
-143.1094766762837
 30
0.0
  0
VERTEX
  5
191
  8
DEFAULT
 10
301.6045929332994
 20
-143.1094766762837
 30
0.0
 42
1.000000195238898
  0
VERTEX
  5
192
  8
DEFAULT
 10
302.2145929332993
 20
-143.109476557188
 30
0.0
  0
VERTEX
  5
193
  8
DEFAULT
 10
302.2145929332994
 20
-141.9094767487852
 30
0.0
 42
1.000000118854564
  0
VERTEX
  5
194
  8
DEFAULT
 10
301.6045929332994
 20
-141.9094766762839
 30
0.0
  0
SEQEND
  5
195
  8
DEFAULT
  0
POLYLINE
  5
196
  8
DEFAULT
 66
     1
 10
0.0
 20
0.0
 30
0.0
 70
     1
  0
VERTEX
  5
197
  8
DEFAULT
 10
301.6045929332995
 20
-100.3094766762839
 30
0.0
 42
1.000000272632326
  0
VERTEX
  5
198
  8
DEFAULT
 10
302.2145929332995
 20
-100.3094765099782
 30
0.0
  0
VERTEX
  5
199
  8
DEFAULT
 10
302.2145929332995
 20
-99.10947679140844
 30
0.0
 42
1.000000188728998
  0
VERTEX
  5
19A
  8
DEFAULT
 10
301.6045929332995
 20
-99.10947667628375
 30
0.0
  0
VERTEX
  5
19B
  8
DEFAULT
 10
300.5380654513062
 20
-99.10947667628372
 30
0.0
 42
0.9999999999999069
  0
VERTEX
  5
19C
  8
DEFAULT
 10
299.9280654513062
 20
-99.1094766762837
 30
0.0
  0
VERTEX
  5
19D
  8
DEFAULT
 10
299.9280654513062
 20
-100.3094766762839
 30
0.0
 42
1.000000000000093
  0
VERTEX
  5
19E
  8
DEFAULT
 10
300.5380654513062
 20
-100.3094766762839
 30
0.0
  0
SEQEND
  5
19F
  8
DEFAULT
  0
POLYLINE
  5
1A0
  8
DEFAULT
 66
     1
 10
0.0
 20
0.0
 30
0.0
 70
     1
  0
VERTEX
  5
1A1
  8
DEFAULT
 10
287.3359821406978
 20
-142.8000000000001
 30
0.0
 42
-0.9999999999999999
  0
VERTEX
  5
1A2
  8
DEFAULT
 10
287.9459821406978
 20
-142.8000000000001
 30
0.0
  0
VERTEX
  5
1A3
  8
DEFAULT
 10
287.9459821406978
 20
-144.0000000000001
 30
0.0
  0
VERTEX
  5
1A4
  8
DEFAULT
 10
292.9729271767113
 20
-144.0000000000001
 30
0.0
  0
VERTEX
  5
1A5
  8
DEFAULT
 10
292.9729271767113
 20
-142.8000000000001
 30
0.0
 42
-0.9999999999999069
  0
VERTEX
  5
1A6
  8
DEFAULT
 10
293.5829271767113
 20
-142.8000000000001
 30
0.0
  0
VERTEX
  5
1A7
  8
DEFAULT
 10
296.4594546587045
 20
-142.8000000000001
 30
0.0
  0
VERTEX
  5
1A8
  8
DEFAULT
 10
296.4594546587045
 20
-101.2
 30
0.0
  0
VERTEX
  5
1A9
  8
DEFAULT
 10
293.5829271767113
 20
-101.2
 30
0.0
 42
-0.9999999999999069
  0
VERTEX
  5
1AA
  8
DEFAULT
 10
292.9729271767113
 20
-101.2
 30
0.0
  0
VERTEX
  5
1AB
  8
DEFAULT
 10
292.9729271767113
 20
-100.0000000000001
 30
0.0
  0
VERTEX
  5
1AC
  8
DEFAULT
 10
287.9459821406978
 20
-100.0000000000001
 30
0.0
  0
VERTEX
  5
1AD
  8
DEFAULT
 10
287.9459821406978
 20
-101.2
 30
0.0
 42
-0.9999999999999069
  0
VERTEX
  5
1AE
  8
DEFAULT
 10
287.3359821406978
 20
-101.2
 30
0.0
  0
VERTEX
  5
1AF
  8
DEFAULT
 10
286.2694546587045
 20
-101.2
 30
0.0
 42
-0.9999999999999069
  0
VERTEX
  5
1B0
  8
DEFAULT
 10
285.6594546587045
 20
-101.2
 30
0.0
  0
VERTEX
  5
1B1
  8
DEFAULT
 10
285.6594546587045
 20
-100.0000000000001
 30
0.0
  0
VERTEX
  5
1B2
  8
DEFAULT
 10
284.4594546587045
 20
-100.0000000000001
 30
0.0
  0
VERTEX
  5
1B3
  8
DEFAULT
 10
284.4594546587045
 20
-106.5000000000001
 30
0.0
  0
VERTEX
  5
1B4
  8
DEFAULT
 10
285.6594546587046
 20
-106.5000000000001
 30
0.0
 42
-0.9999999999861152
  0
VERTEX
  5
1B5
  8
DEFAULT
 10
285.6594546586962
 20
-107.1100000000001
 30
0.0
  0
VERTEX
  5
1B6
  8
DEFAULT
 10
285.6594546587045
 20
-113.89
 30
0.0
 42
-1.000000000000093
  0
VERTEX
  5
1B7
  8
DEFAULT
 10
285.6594546587045
 20
-114.5000000000001
 30
0.0
  0
VERTEX
  5
1B8
  8
DEFAULT
 10
284.4594546587045
 20
-114.5000000000001
 30
0.0
  0
VERTEX
  5
1B9
  8
DEFAULT
 10
284.4594546587045
 20
-129.5000000000001
 30
0.0
  0
VERTEX
  5
1BA
  8
DEFAULT
 10
285.6594546587045
 20
-129.5
 30
0.0
 42
-0.9999999999742338
  0
VERTEX
  5
1BB
  8
DEFAULT
 10
285.6594546586889
 20
-130.1100000000001
 30
0.0
  0
VERTEX
  5
1BC
  8
DEFAULT
 10
285.6594546587052
 20
-136.89
 30
0.0
 42
-0.9999999999978567
  0
VERTEX
  5
1BD
  8
DEFAULT
 10
285.6594546587039
 20
-137.5000000000001
 30
0.0
  0
VERTEX
  5
1BE
  8
DEFAULT
 10
284.4594546587045
 20
-137.5000000000001
 30
0.0
  0
VERTEX
  5
1BF
  8
DEFAULT
 10
284.4594546587045
 20
-144.0000000000001
 30
0.0
  0
VERTEX
  5
1C0
  8
DEFAULT
 10
285.6594546587045
 20
-144.0000000000001
 30
0.0
  0
VERTEX
  5
1C1
  8
DEFAULT
 10
285.6594546587045
 20
-142.8000000000001
 30
0.0
 42
-0.9999999999999069
  0
VERTEX
  5
1C2
  8
DEFAULT
 10
286.2694546587045
 20
-142.8000000000001
 30
0.0
  0
SEQEND
  5
1C3
  8
DEFAULT
  0
POLYLINE
  5
1C4
  8
DEFAULT
 66
     1
 10
0.0
 20
0.0
 30
0.0
 70
     1
  0
VERTEX
  5
1C5
  8
DEFAULT
 10
239.9522492295653
 20
-136.11
 30
0.0
 42
1.000000243590853
  0
VERTEX
  5
1C6
  8
DEFAULT
 10
239.9522490809748
 20
-135.5000000000001
 30
0.0
  0
VERTEX
  5
1C7
  8
DEFAULT
 10
238.7522492295547
 20
-135.5
 30
0.0
  0
VERTEX
  5
1C8
  8
DEFAULT
 10
238.7522492295547
 20
-130.5
 30
0.0
  0
VERTEX
  5
1C9
  8
DEFAULT
 10
239.9522490631794
 20
-130.4999999999999
 30
0.0
 42
1.000000272800876
  0
VERTEX
  5
1CA
  8
DEFAULT
 10
239.9522492295549
 20
-129.89
 30
0.0
  0
VERTEX
  5
1CB
  8
DEFAULT
 10
239.9522492295714
 20
-124.11
 30
0.0
 42
1.000000000054327
  0
VERTEX
  5
1CC
  8
DEFAULT
 10
239.9522492295383
 20
-123.5
 30
0.0
  0
VERTEX
  5
1CD
  8
DEFAULT
 10
238.7522492295547
 20
-123.5
 30
0.0
  0
VERTEX
  5
1CE
  8
DEFAULT
 10
238.7522492295547
 20
-118.5
 30
0.0
  0
VERTEX
  5
1CF
  8
DEFAULT
 10
239.952249204291
 20
-118.5
 30
0.0
 42
1.000000041470373
  0
VERTEX
  5
1D0
  8
DEFAULT
 10
239.9522492295548
 20
-117.89
 30
0.0
  0
VERTEX
  5
1D1
  8
DEFAULT
 10
239.9522492295548
 20
-112.11
 30
0.0
 42
1.000000278320933
  0
VERTEX
  5
1D2
  8
DEFAULT
 10
239.9522490598417
 20
-111.5
 30
0.0
  0
VERTEX
  5
1D3
  8
DEFAULT
 10
238.7522492295547
 20
-111.5
 30
0.0
  0
VERTEX
  5
1D4
  8
DEFAULT
 10
238.7522492295547
 20
-106.5
 30
0.0
  0
VERTEX
  5
1D5
  8
DEFAULT
 10
239.9522492133219
 20
-106.5
 30
0.0
 42
1.000000026665481
  0
VERTEX
  5
1D6
  8
DEFAULT
 10
239.9522492295547
 20
-105.89
 30
0.0
  0
VERTEX
  5
1D7
  8
DEFAULT
 10
239.9522492295762
 20
-101.11
 30
0.0
 42
1.000000000070379
  0
VERTEX
  5
1D8
  8
DEFAULT
 10
239.9522492295332
 20
-100.5
 30
0.0
  0
VERTEX
  5
1D9
  8
DEFAULT
 10
238.7522492295547
 20
-100.5
 30
0.0
  0
VERTEX
  5
1DA
  8
DEFAULT
 10
238.7522492295547
 20
-97.19999999999999
 30
0.0
  0
VERTEX
  5
1DB
  8
DEFAULT
 10
244.6422492295547
 20
-97.19999999999999
 30
0.0
 42
0.9999999999999999
  0
VERTEX
  5
1DC
  8
DEFAULT
 10
245.2522492295547
 20
-97.19999999999999
 30
0.0
  0
VERTEX
  5
1DD
  8
DEFAULT
 10
245.2522492295547
 20
-96.0
 30
0.0
  0
VERTEX
  5
1DE
  8
DEFAULT
 10
253.2522492295547
 20
-96.0
 30
0.0
  0
VERTEX
  5
1DF
  8
DEFAULT
 10
253.2522492295548
 20
-97.19999988054596
 30
0.0
 42
1.000000195826226
  0
VERTEX
  5
1E0
  8
DEFAULT
 10
253.8622492295547
 20
-97.19999999999999
 30
0.0
  0
VERTEX
  5
1E1
  8
DEFAULT
 10
267.6422492295547
 20
-97.19999999999999
 30
0.0
 42
0.9999999999999069
  0
VERTEX
  5
1E2
  8
DEFAULT
 10
268.2522492295547
 20
-97.19999999999999
 30
0.0
  0
VERTEX
  5
1E3
  8
DEFAULT
 10
268.2522492295547
 20
-96.0
 30
0.0
  0
VERTEX
  5
1E4
  8
DEFAULT
 10
276.2522492295547
 20
-96.0
 30
0.0
  0
VERTEX
  5
1E5
  8
DEFAULT
 10
276.2522492295547
 20
-97.19999998452307
 30
0.0
 42
1.00000002537199
  0
VERTEX
  5
1E6
  8
DEFAULT
 10
276.8622492295547
 20
-97.19999999999999
 30
0.0
  0
VERTEX
  5
1E7
  8
DEFAULT
 10
282.7522492295547
 20
-97.19999999999996
 30
0.0
  0
VERTEX
  5
1E8
  8
DEFAULT
 10
282.7522492295547
 20
-100.5
 30
0.0
  0
VERTEX
  5
1E9
  8
DEFAULT
 10
281.5522493184425
 20
-100.5
 30
0.0
 42
1.000000145734958
  0
VERTEX
  5
1EA
  8
DEFAULT
 10
281.5522492295547
 20
-101.11
 30
0.0
  0
VERTEX
  5
1EB
  8
DEFAULT
 10
281.5522492295548
 20
-105.89
 30
0.0
 42
0.9999999999456725
  0
VERTEX
  5
1EC
  8
DEFAULT
 10
281.5522492295548
 20
-106.5
 30
0.0
  0
VERTEX
  5
1ED
  8
DEFAULT
 10
282.7522492295547
 20
-106.5
 30
0.0
  0
VERTEX
  5
1EE
  8
DEFAULT
 10
282.7522492295547
 20
-111.5
 30
0.0
  0
VERTEX
  5
1EF
  8
DEFAULT
 10
281.5522492295548
 20
-111.5
 30
0.0
 42
1.000000000021899
  0
VERTEX
  5
1F0
  8
DEFAULT
 10
281.5522492295548
 20
-112.11
 30
0.0
  0
VERTEX
  5
1F1
  8
DEFAULT
 10
281.5522492295548
 20
-117.89
 30
0.0
 42
0.9999999999457659
  0
VERTEX
  5
1F2
  8
DEFAULT
 10
281.5522492295548
 20
-118.5
 30
0.0
  0
VERTEX
  5
1F3
  8
DEFAULT
 10
282.7522492295547
 20
-118.5
 30
0.0
  0
VERTEX
  5
1F4
  8
DEFAULT
 10
282.7522492295547
 20
-123.5
 30
0.0
  0
VERTEX
  5
1F5
  8
DEFAULT
 10
281.5522492538307
 20
-123.5
 30
0.0
 42
1.000000039746573
  0
VERTEX
  5
1F6
  8
DEFAULT
 10
281.5522492295549
 20
-124.11
 30
0.0
  0
VERTEX
  5
1F7
  8
DEFAULT
 10
281.5522492295547
 20
-129.89
 30
0.0
 42
0.9999999999452532
  0
VERTEX
  5
1F8
  8
DEFAULT
 10
281.5522492295548
 20
-130.5
 30
0.0
  0
VERTEX
  5
1F9
  8
DEFAULT
 10
282.7522492295547
 20
-130.5
 30
0.0
  0
VERTEX
  5
1FA
  8
DEFAULT
 10
282.7522492295547
 20
-135.5
 30
0.0
  0
VERTEX
  5
1FB
  8
DEFAULT
 10
281.5522494066783
 20
-135.5
 30
0.0
 42
1.000000290404729
  0
VERTEX
  5
1FC
  8
DEFAULT
 10
281.5522492295548
 20
-136.11
 30
0.0
  0
VERTEX
  5
1FD
  8
DEFAULT
 10
281.5522492295549
 20
-140.89
 30
0.0
 42
0.999999999945626
  0
VERTEX
  5
1FE
  8
DEFAULT
 10
281.5522492295549
 20
-141.5
 30
0.0
  0
VERTEX
  5
1FF
  8
DEFAULT
 10
282.7522492295547
 20
-141.5
 30
0.0
  0
VERTEX
  5
200
  8
DEFAULT
 10
282.7522492295547
 20
-144.8
 30
0.0
  0
VERTEX
  5
201
  8
DEFAULT
 10
276.8622492295547
 20
-144.8
 30
0.0
 42
0.9999999999999069
  0
VERTEX
  5
202
  8
DEFAULT
 10
276.2522492295547
 20
-144.8
 30
0.0
  0
VERTEX
  5
203
  8
DEFAULT
 10
276.2522492295547
 20
-146.0
 30
0.0
  0
VERTEX
  5
204
  8
DEFAULT
 10
268.2522492295547
 20
-146.0
 30
0.0
  0
VERTEX
  5
205
  8
DEFAULT
 10
268.2522492295547
 20
-144.8
 30
0.0
 42
0.9999999999999069
  0
VERTEX
  5
206
  8
DEFAULT
 10
267.6422492295547
 20
-144.8
 30
0.0
  0
VERTEX
  5
207
  8
DEFAULT
 10
253.8622492295547
 20
-144.8
 30
0.0
 42
1.000000233398872
  0
VERTEX
  5
208
  8
DEFAULT
 10
253.2522492295547
 20
-144.8000001423733
 30
0.0
  0
VERTEX
  5
209
  8
DEFAULT
 10
253.2522492295547
 20
-146.0
 30
0.0
  0
VERTEX
  5
20A
  8
DEFAULT
 10
245.2522492295547
 20
-146.0
 30
0.0
  0
VERTEX
  5
20B
  8
DEFAULT
 10
245.2522492295547
 20
-144.8000001215401
 30
0.0
 42
1.000000199245987
  0
VERTEX
  5
20C
  8
DEFAULT
 10
244.6422492295547
 20
-144.8
 30
0.0
  0
VERTEX
  5
20D
  8
DEFAULT
 10
238.7522492295547
 20
-144.8
 30
0.0
  0
VERTEX
  5
20E
  8
DEFAULT
 10
238.7522492295547
 20
-141.5
 30
0.0
  0
VERTEX
  5
20F
  8
DEFAULT
 10
239.9522489806033
 20
-141.4999999999998
 30
0.0
 42
1.000000408171707
  0
VERTEX
  5
210
  8
DEFAULT
 10
239.9522492295548
 20
-140.89
 30
0.0
  0
SEQEND
  5
211
  8
DEFAULT
  0
POLYLINE
  5
212
  8
DEFAULT
 66
     1
 10
0.0
 20
0.0
 30
0.0
 70
     1
  0
VERTEX
  5
213
  8
DEFAULT
 10
229.021685221111
 20
-97.19999999999999
 30
0.0
 42
-0.9999999999999999
  0
VERTEX
  5
214
  8
DEFAULT
 10
228.411685221111
 20
-97.19999999999999
 30
0.0
  0
VERTEX
  5
215
  8
DEFAULT
 10
228.411685221111
 20
-96.00000000000003
 30
0.0
  0
VERTEX
  5
216
  8
DEFAULT
 10
226.1251577391177
 20
-96.0
 30
0.0
  0
VERTEX
  5
217
  8
DEFAULT
 10
226.1251577391177
 20
-99.89
 30
0.0
 42
-1.000000075958466
  0
VERTEX
  5
218
  8
DEFAULT
 10
226.1251576928271
 20
-100.5
 30
0.0
  0
VERTEX
  5
219
  8
DEFAULT
 10
224.9251577391177
 20
-100.5
 30
0.0
  0
VERTEX
  5
21A
  8
DEFAULT
 10
224.9251577391178
 20
-106.5
 30
0.0
  0
VERTEX
  5
21B
  8
DEFAULT
 10
226.1251577391253
 20
-106.5
 30
0.0
 42
-0.9999999999753756
  0
VERTEX
  5
21C
  8
DEFAULT
 10
226.1251577391102
 20
-107.11
 30
0.0
  0
VERTEX
  5
21D
  8
DEFAULT
 10
226.1251577391178
 20
-110.89
 30
0.0
 42
-1.000000062795765
  0
VERTEX
  5
21E
  8
DEFAULT
 10
226.1251577007973
 20
-111.5
 30
0.0
  0
VERTEX
  5
21F
  8
DEFAULT
 10
224.9251577391177
 20
-111.5
 30
0.0
  0
VERTEX
  5
220
  8
DEFAULT
 10
224.9251577391177
 20
-118.5
 30
0.0
  0
VERTEX
  5
221
  8
DEFAULT
 10
226.1251576276683
 20
-118.5
 30
0.0
 42
-1.000000182692622
  0
VERTEX
  5
222
  8
DEFAULT
 10
226.1251577391108
 20
-119.11
 30
0.0
  0
VERTEX
  5
223
  8
DEFAULT
 10
226.1251577391178
 20
-122.89
 30
0.0
 42
-0.9999999999876062
  0
VERTEX
  5
224
  8
DEFAULT
 10
226.1251577391102
 20
-123.5
 30
0.0
  0
VERTEX
  5
225
  8
DEFAULT
 10
224.9251577391177
 20
-123.5
 30
0.0
  0
VERTEX
  5
226
  8
DEFAULT
 10
224.9251577391177
 20
-130.5
 30
0.0
  0
VERTEX
  5
227
  8
DEFAULT
 10
226.1251575861916
 20
-130.5000000000001
 30
0.0
 42
-1.000000250687103
  0
VERTEX
  5
228
  8
DEFAULT
 10
226.1251577391108
 20
-131.11
 30
0.0
  0
VERTEX
  5
229
  8
DEFAULT
 10
226.1251577391177
 20
-134.89
 30
0.0
 42
-1.000000386194728
  0
VERTEX
  5
22A
  8
DEFAULT
 10
226.125157503524
 20
-135.4999999999999
 30
0.0
  0
VERTEX
  5
22B
  8
DEFAULT
 10
224.9251577391177
 20
-135.5
 30
0.0
  0
VERTEX
  5
22C
  8
DEFAULT
 10
224.9251577391177
 20
-141.5
 30
0.0
  0
VERTEX
  5
22D
  8
DEFAULT
 10
226.1251576066914
 20
-141.5
 30
0.0
 42
-1.000000217081033
  0
VERTEX
  5
22E
  8
DEFAULT
 10
226.1251577391108
 20
-142.11
 30
0.0
  0
VERTEX
  5
22F
  8
DEFAULT
 10
226.1251577391177
 20
-146.0
 30
0.0
  0
VERTEX
  5
230
  8
DEFAULT
 10
228.411685221111
 20
-146.0
 30
0.0
  0
VERTEX
  5
231
  8
DEFAULT
 10
228.411685221111
 20
-144.8
 30
0.0
 42
-1.00000000000014
  0
VERTEX
  5
232
  8
DEFAULT
 10
229.021685221111
 20
-144.8
 30
0.0
  0
VERTEX
  5
233
  8
DEFAULT
 10
232.8286302571245
 20
-144.8
 30
0.0
 42
-0.9999999999999999
  0
VERTEX
  5
234
  8
DEFAULT
 10
233.4386302571245
 20
-144.8
 30
0.0
  0
VERTEX
  5
235
  8
DEFAULT
 10
233.4386302571245
 20
-146.0
 30
0.0
  0
VERTEX
  5
236
  8
DEFAULT
 10
236.9251577391178
 20
-146.0
 30
0.0
  0
VERTEX
  5
237
  8
DEFAULT
 10
236.9251577391178
 20
-96.0
 30
0.0
  0
VERTEX
  5
238
  8
DEFAULT
 10
233.4386302571245
 20
-96.00000000000003
 30
0.0
  0
VERTEX
  5
239
  8
DEFAULT
 10
233.4386302571245
 20
-97.1999999442449
 30
0.0
 42
-1.000000091401659
  0
VERTEX
  5
23A
  8
DEFAULT
 10
232.8286302571245
 20
-97.19999999999993
 30
0.0
  0
SEQEND
  5
23B
  8
DEFAULT
  0
POLYLINE
  5
23C
  8
DEFAULT
 66
     1
 10
0.0
 20
0.0
 30
0.0
 70
     1
  0
VERTEX
  5
23D
  8
DEFAULT
 10
215.0965274819934
 20
-97.19999999999999
 30
0.0
 42
-0.9999999999999999
  0
VERTEX
  5
23E
  8
DEFAULT
 10
214.4865274819934
 20
-97.19999999999999
 30
0.0
  0
VERTEX
  5
23F
  8
DEFAULT
 10
214.4865274819934
 20
-96.00000000000003
 30
0.0
  0
VERTEX
  5
240
  8
DEFAULT
 10
212.2000000000001
 20
-96.0
 30
0.0
  0
VERTEX
  5
241
  8
DEFAULT
 10
212.2000000000001
 20
-99.89
 30
0.0
 42
-1.000000075958373
  0
VERTEX
  5
242
  8
DEFAULT
 10
212.1999999537095
 20
-100.5
 30
0.0
  0
VERTEX
  5
243
  8
DEFAULT
 10
211.0000000000001
 20
-100.5
 30
0.0
  0
VERTEX
  5
244
  8
DEFAULT
 10
211.0000000000001
 20
-106.5
 30
0.0
  0
VERTEX
  5
245
  8
DEFAULT
 10
212.2000000000076
 20
-106.5
 30
0.0
 42
-0.9999999999752823
  0
VERTEX
  5
246
  8
DEFAULT
 10
212.1999999999926
 20
-107.11
 30
0.0
  0
VERTEX
  5
247
  8
DEFAULT
 10
212.2000000000002
 20
-110.89
 30
0.0
 42
-1.000000062795672
  0
VERTEX
  5
248
  8
DEFAULT
 10
212.1999999616797
 20
-111.5
 30
0.0
  0
VERTEX
  5
249
  8
DEFAULT
 10
211.0000000000001
 20
-111.5
 30
0.0
  0
VERTEX
  5
24A
  8
DEFAULT
 10
211.0000000000001
 20
-118.5
 30
0.0
  0
VERTEX
  5
24B
  8
DEFAULT
 10
212.1999998885507
 20
-118.5
 30
0.0
 42
-1.000000182692622
  0
VERTEX
  5
24C
  8
DEFAULT
 10
212.1999999999932
 20
-119.11
 30
0.0
  0
VERTEX
  5
24D
  8
DEFAULT
 10
212.2000000000002
 20
-122.89
 30
0.0
 42
-0.9999999999876062
  0
VERTEX
  5
24E
  8
DEFAULT
 10
212.1999999999926
 20
-123.5
 30
0.0
  0
VERTEX
  5
24F
  8
DEFAULT
 10
211.0000000000001
 20
-123.5
 30
0.0
  0
VERTEX
  5
250
  8
DEFAULT
 10
211.0000000000001
 20
-130.5
 30
0.0
  0
VERTEX
  5
251
  8
DEFAULT
 10
212.199999847074
 20
-130.5000000000001
 30
0.0
 42
-1.000000250687103
  0
VERTEX
  5
252
  8
DEFAULT
 10
212.1999999999932
 20
-131.11
 30
0.0
  0
VERTEX
  5
253
  8
DEFAULT
 10
212.2000000000001
 20
-134.89
 30
0.0
 42
-1.000000386194728
  0
VERTEX
  5
254
  8
DEFAULT
 10
212.1999997644064
 20
-135.4999999999999
 30
0.0
  0
VERTEX
  5
255
  8
DEFAULT
 10
211.0000000000001
 20
-135.5
 30
0.0
  0
VERTEX
  5
256
  8
DEFAULT
 10
211.0000000000001
 20
-141.5
 30
0.0
  0
VERTEX
  5
257
  8
DEFAULT
 10
212.1999998675738
 20
-141.5
 30
0.0
 42
-1.000000217081033
  0
VERTEX
  5
258
  8
DEFAULT
 10
212.1999999999932
 20
-142.11
 30
0.0
  0
VERTEX
  5
259
  8
DEFAULT
 10
212.2000000000001
 20
-146.0
 30
0.0
  0
VERTEX
  5
25A
  8
DEFAULT
 10
214.4865274819934
 20
-146.0
 30
0.0
  0
VERTEX
  5
25B
  8
DEFAULT
 10
214.4865274819934
 20
-144.8
 30
0.0
 42
-1.000000000000046
  0
VERTEX
  5
25C
  8
DEFAULT
 10
215.0965274819934
 20
-144.8
 30
0.0
  0
VERTEX
  5
25D
  8
DEFAULT
 10
218.9034725180069
 20
-144.8
 30
0.0
 42
-0.9999999999999999
  0
VERTEX
  5
25E
  8
DEFAULT
 10
219.5134725180069
 20
-144.8
 30
0.0
  0
VERTEX
  5
25F
  8
DEFAULT
 10
219.5134725180069
 20
-146.0
 30
0.0
  0
VERTEX
  5
260
  8
DEFAULT
 10
223.0000000000002
 20
-146.0
 30
0.0
  0
VERTEX
  5
261
  8
DEFAULT
 10
223.0000000000002
 20
-96.0
 30
0.0
  0
VERTEX
  5
262
  8
DEFAULT
 10
219.5134725180069
 20
-96.00000000000003
 30
0.0
  0
VERTEX
  5
263
  8
DEFAULT
 10
219.5134725180069
 20
-97.1999999442449
 30
0.0
 42
-1.000000091401752
  0
VERTEX
  5
264
  8
DEFAULT
 10
218.9034725180069
 20
-97.19999999999993
 30
0.0
  0
SEQEND
  5
265
  8
DEFAULT
  0
POLYLINE
  5
266
  8
DEFAULT
 66
     1
 10
0.0
 20
0.0
 30
0.0
 70
     1
  0
VERTEX
  5
267
  8
DEFAULT
 10
310.199999999991
 20
-195.5
 30
0.0
 42
0.9999999999706463
  0
VERTEX
  5
268
  8
DEFAULT
 10
310.2000000000089
 20
-194.8900000000001
 30
0.0
  0
VERTEX
  5
269
  8
DEFAULT
 10
310.2000000000235
 20
-188.11
 30
0.0
 42
1.000000090979014
  0
VERTEX
  5
26A
  8
DEFAULT
 10
310.1999999445262
 20
-187.5
 30
0.0
  0
VERTEX
  5
26B
  8
DEFAULT
 10
309.0
 20
-187.5
 30
0.0
  0
VERTEX
  5
26C
  8
DEFAULT
 10
309.0
 20
-172.5
 30
0.0
  0
VERTEX
  5
26D
  8
DEFAULT
 10
310.1999999999731
 20
-172.5
 30
0.0
 42
0.9999999999560162
  0
VERTEX
  5
26E
  8
DEFAULT
 10
310.1999999999999
 20
-171.8899999999999
 30
0.0
  0
VERTEX
  5
26F
  8
DEFAULT
 10
310.2000000000235
 20
-165.11
 30
0.0
 42
1.000000110162179
  0
VERTEX
  5
270
  8
DEFAULT
 10
310.1999999328246
 20
-164.5000000000001
 30
0.0
  0
VERTEX
  5
271
  8
DEFAULT
 10
309.0
 20
-164.5
 30
0.0
  0
VERTEX
  5
272
  8
DEFAULT
 10
309.0
 20
-155.0000000000001
 30
0.0
  0
VERTEX
  5
273
  8
DEFAULT
 10
324.5
 20
-155.0
 30
0.0
  0
VERTEX
  5
274
  8
DEFAULT
 10
324.4999999999999
 20
-205.0
 30
0.0
  0
VERTEX
  5
275
  8
DEFAULT
 10
309.0
 20
-205.0
 30
0.0
  0
VERTEX
  5
276
  8
DEFAULT
 10
309.0
 20
-195.5
 30
0.0
  0
SEQEND
  5
277
  8
DEFAULT
  0
POLYLINE
  5
278
  8
DEFAULT
 66
     1
 10
0.0
 20
0.0
 30
0.0
 70
     1
  0
VERTEX
  5
279
  8
DEFAULT
 10
299.9280654512977
 20
-106.2194766762839
 30
0.0
  0
VERTEX
  5
27A
  8
DEFAULT
 10
299.9280654513062
 20
-112.9994766762839
 30
0.0
 42
-1.000000429297875
  0
VERTEX
  5
27B
  8
DEFAULT
 10
299.928065189476
 20
-113.6094766762838
 30
0.0
  0
VERTEX
  5
27C
  8
DEFAULT
 10
298.7280654513062
 20
-113.6094766762839
 30
0.0
  0
VERTEX
  5
27D
  8
DEFAULT
 10
298.7280654513062
 20
-128.6094766762839
 30
0.0
  0
VERTEX
  5
27E
  8
DEFAULT
 10
299.9280654513178
 20
-128.6094766762839
 30
0.0
 42
-0.999999999961887
  0
VERTEX
  5
27F
  8
DEFAULT
 10
299.9280654512945
 20
-129.2194766762839
 30
0.0
  0
VERTEX
  5
280
  8
DEFAULT
 10
299.9280654513062
 20
-135.9994766762838
 30
0.0
 42
-1.000000167115239
  0
VERTEX
  5
281
  8
DEFAULT
 10
299.9280653493396
 20
-136.6094766762838
 30
0.0
  0
VERTEX
  5
282
  8
DEFAULT
 10
298.7280654513061
 20
-136.6094766762839
 30
0.0
  0
VERTEX
  5
283
  8
DEFAULT
 10
298.7280654513061
 20
-146.109476676284
 30
0.0
  0
VERTEX
  5
284
  8
DEFAULT
 10
311.2280654513063
 20
-146.109476676284
 30
0.0
  0
VERTEX
  5
285
  8
DEFAULT
 10
311.2280654513063
 20
-143.1094766762837
 30
0.0
  0
VERTEX
  5
286
  8
DEFAULT
 10
307.8515379693129
 20
-143.1094766762837
 30
0.0
 42
-1.00000000000014
  0
VERTEX
  5
287
  8
DEFAULT
 10
307.2415379693128
 20
-143.1094766762837
 30
0.0
  0
VERTEX
  5
288
  8
DEFAULT
 10
307.2415379693128
 20
-141.9094766762839
 30
0.0
 42
-0.9999999999998602
  0
VERTEX
  5
289
  8
DEFAULT
 10
307.851537969313
 20
-141.9094766762839
 30
0.0
  0
VERTEX
  5
28A
  8
DEFAULT
 10
311.2280654513063
 20
-141.9094766762839
 30
0.0
  0
VERTEX
  5
28B
  8
DEFAULT
 10
311.2280654513063
 20
-100.3094766762839
 30
0.0
  0
VERTEX
  5
28C
  8
DEFAULT
 10
307.851537969313
 20
-100.3094766762839
 30
0.0
 42
-1.000000350585062
  0
VERTEX
  5
28D
  8
DEFAULT
 10
307.241537969313
 20
-100.3094764624269
 30
0.0
  0
VERTEX
  5
28E
  8
DEFAULT
 10
307.241537969313
 20
-99.10947676937707
 30
0.0
 42
-1.000000152611662
  0
VERTEX
  5
28F
  8
DEFAULT
 10
307.851537969313
 20
-99.10947667628373
 30
0.0
  0
VERTEX
  5
290
  8
DEFAULT
 10
311.2280654513063
 20
-99.10947667628373
 30
0.0
  0
VERTEX
  5
291
  8
DEFAULT
 10
311.2280654513063
 20
-96.10947667628373
 30
0.0
  0
VERTEX
  5
292
  8
DEFAULT
 10
298.7280654513062
 20
-96.10947667628373
 30
0.0
  0
VERTEX
  5
293
  8
DEFAULT
 10
298.7280654513062
 20
-105.6094766762839
 30
0.0
  0
VERTEX
  5
294
  8
DEFAULT
 10
299.9280654513146
 20
-105.6094766762839
 30
0.0
 42
-0.9999999999722305
  0
SEQEND
  5
295
  8
DEFAULT
  0
TEXT
  5
297
  8
DEFAULT
 10
153.24
 20
-87.02
 30
0.0
 40
5.0
  1
18mm
  7
DEFAULT
1001
ACADANNOTATIVE
1000
AnnotativeData
1002
{
1070
     1
1070
     0
1002
}
  0
POLYLINE
  5
298
  8
DEFAULT
 66
     1
 10
0.0
 20
0.0
 30
0.0
 70
     1
  0
VERTEX
  5
299
  8
DEFAULT
 10
166.9777957288949
 20
-250.6165360048495
 30
0.0
 42
1.000000407540792
  0
VERTEX
  5
29A
  8
DEFAULT
 10
166.367795728895
 20
-250.6165362534493
 30
0.0
  0
VERTEX
  5
29B
  8
DEFAULT
 10
166.3677957288949
 20
-252.4165360048643
 30
0.0
 42
0.9999999999848573
  0
VERTEX
  5
29C
  8
DEFAULT
 10
166.977795728895
 20
-252.416536004855
 30
0.0
  0
VERTEX
  5
29D
  8
DEFAULT
 10
169.3014977890286
 20
-252.416536004864
 30
0.0
  0
VERTEX
  5
29E
  8
DEFAULT
 10
169.3014977890286
 20
-264.4165360048643
 30
0.0
  0
VERTEX
  5
29F
  8
DEFAULT
 10
149.3825858007379
 20
-264.4165360048643
 30
0.0
  0
VERTEX
  5
2A0
  8
DEFAULT
 10
149.3768034158213
 20
-252.4165360048643
 30
0.0
  0
VERTEX
  5
2A1
  8
DEFAULT
 10
151.7577957288947
 20
-252.4165360048643
 30
0.0
 42
0.9999999999998136
  0
VERTEX
  5
2A2
  8
DEFAULT
 10
152.3677957288949
 20
-252.4165360048643
 30
0.0
  0
VERTEX
  5
2A3
  8
DEFAULT
 10
152.3677957288948
 20
-250.6165361793487
 30
0.0
 42
1.000000286040132
  0
VERTEX
  5
2A4
  8
DEFAULT
 10
151.757795728895
 20
-250.6165360048643
 30
0.0
  0
VERTEX
  5
2A5
  8
DEFAULT
 10
149.3759360580838
 20
-250.6165360048643
 30
0.0
  0
VERTEX
  5
2A6
  8
DEFAULT
 10
149.3701024442678
 20
-238.5102222948954
 30
0.0
  0
VERTEX
  5
2A7
  8
DEFAULT
 10
151.7577957288948
 20
-238.5102222948954
 30
0.0
 42
1.000000116691299
  0
VERTEX
  5
2A8
  8
DEFAULT
 10
152.3677957288949
 20
-238.5102222237136
 30
0.0
  0
VERTEX
  5
2A9
  8
DEFAULT
 10
152.3677957288949
 20
-236.7102222948954
 30
0.0
 42
0.9999999999999999
  0
VERTEX
  5
2AA
  8
DEFAULT
 10
151.7577957288947
 20
-236.7102222948954
 30
0.0
  0
VERTEX
  5
2AB
  8
DEFAULT
 10
149.3692350865303
 20
-236.7102222948954
 30
0.0
  0
VERTEX
  5
2AC
  8
DEFAULT
 10
149.3634198064566
 20
-224.6419560189472
 30
0.0
  0
VERTEX
  5
2AD
  8
DEFAULT
 10
151.7577957288949
 20
-224.6419560189471
 30
0.0
 42
1.000000238303296
  0
VERTEX
  5
2AE
  8
DEFAULT
 10
152.3677957288949
 20
-224.641955873582
 30
0.0
  0
VERTEX
  5
2AF
  8
DEFAULT
 10
152.3677957288949
 20
-222.8419561386794
 30
0.0
 42
1.000000196282628
  0
VERTEX
  5
2B0
  8
DEFAULT
 10
151.7577957288949
 20
-222.8419560189471
 30
0.0
  0
VERTEX
  5
2B1
  8
DEFAULT
 10
149.3625524487192
 20
-222.8419560189471
 30
0.0
  0
VERTEX
  5
2B2
  8
DEFAULT
 10
149.3523265313448
 20
-201.62043405823
 30
0.0
  0
VERTEX
  5
2B3
  8
DEFAULT
 10
151.7577957288949
 20
-201.62043405823
 30
0.0
 42
1.0
  0
VERTEX
  5
2B4
  8
DEFAULT
 10
152.3677957288949
 20
-201.62043405823
 30
0.0
  0
VERTEX
  5
2B5
  8
DEFAULT
 10
152.3677957288949
 20
-199.8204340582301
 30
0.0
 42
0.9999999999999999
  0
VERTEX
  5
2B6
  8
DEFAULT
 10
151.757795728895
 20
-199.8204340582301
 30
0.0
  0
VERTEX
  5
2B7
  8
DEFAULT
 10
149.3514591736073
 20
-199.8204340582301
 30
0.0
  0
VERTEX
  5
2B8
  8
DEFAULT
 10
149.3412436269214
 20
-178.6204340582302
 30
0.0
  0
VERTEX
  5
2B9
  8
DEFAULT
 10
151.7577957288949
 20
-178.6204340582302
 30
0.0
 42
1.00000043288076
  0
VERTEX
  5
2BA
  8
DEFAULT
 10
152.3677957288947
 20
-178.6204337941729
 30
0.0
  0
VERTEX
  5
2BB
  8
DEFAULT
 10
152.3677957288949
 20
-176.8204341533164
 30
0.0
 42
1.000000134324083
  0
VERTEX
  5
2BC
  8
DEFAULT
 10
151.757795728895
 20
-176.8204340582302
 30
0.0
  0
VERTEX
  5
2BD
  8
DEFAULT
 10
149.3403762691839
 20
-176.8204340582302
 30
0.0
  0
VERTEX
  5
2BE
  8
DEFAULT
 10
149.3301607224979
 20
-155.6204340582305
 30
0.0
  0
VERTEX
  5
2BF
  8
DEFAULT
 10
151.7577957288949
 20
-155.6204340582304
 30
0.0
 42
1.000000076974891
  0
VERTEX
  5
2C0
  8
DEFAULT
 10
152.3677957288949
 20
-155.6204340112757
 30
0.0
  0
VERTEX
  5
2C1
  8
DEFAULT
 10
152.3677957288949
 20
-153.8204340582305
 30
0.0
 42
0.99999999999986
  0
VERTEX
  5
2C2
  8
DEFAULT
 10
151.757795728895
 20
-153.8204340582305
 30
0.0
  0
VERTEX
  5
2C3
  8
DEFAULT
 10
149.3292933647604
 20
-153.8204340582304
 30
0.0
  0
VERTEX
  5
2C4
  8
DEFAULT
 10
149.3072239289954
 20
-95.02177954625995
 30
0.0
  0
VERTEX
  5
2C5
  8
DEFAULT
 10
169.3014977890287
 20
-95.02964275116771
 30
0.0
  0
VERTEX
  5
2C6
  8
DEFAULT
 10
169.3014977890287
 20
-153.8204340582304
 30
0.0
  0
VERTEX
  5
2C7
  8
DEFAULT
 10
166.9777957288949
 20
-153.8204340582305
 30
0.0
 42
1.000000069012619
  0
VERTEX
  5
2C8
  8
DEFAULT
 10
166.3677957288949
 20
-153.8204341003282
 30
0.0
  0
VERTEX
  5
2C9
  8
DEFAULT
 10
166.3677957288949
 20
-155.6204340582304
 30
0.0
 42
0.9999999999999999
  0
VERTEX
  5
2CA
  8
DEFAULT
 10
166.9777957288949
 20
-155.6204340582304
 30
0.0
  0
VERTEX
  5
2CB
  8
DEFAULT
 10
169.3014977890288
 20
-155.6204340582304
 30
0.0
  0
VERTEX
  5
2CC
  8
DEFAULT
 10
169.3014977890287
 20
-176.8204340582303
 30
0.0
  0
VERTEX
  5
2CD
  8
DEFAULT
 10
166.9777957288949
 20
-176.8204340582303
 30
0.0
 42
0.9999999999998602
  0
VERTEX
  5
2CE
  8
DEFAULT
 10
166.3677957288949
 20
-176.8204340582303
 30
0.0
  0
VERTEX
  5
2CF
  8
DEFAULT
 10
166.3677957288949
 20
-178.6204340582302
 30
0.0
 42
0.9999999999999999
  0
VERTEX
  5
2D0
  8
DEFAULT
 10
166.9777957288949
 20
-178.6204340582302
 30
0.0
  0
VERTEX
  5
2D1
  8
DEFAULT
 10
169.3014977890287
 20
-178.6204340582302
 30
0.0
  0
VERTEX
  5
2D2
  8
DEFAULT
 10
169.3014977890287
 20
-199.8204340582292
 30
0.0
  0
VERTEX
  5
2D3
  8
DEFAULT
 10
166.9777957288949
 20
-199.8204340581852
 30
0.0
 42
1.000000357336525
  0
VERTEX
  5
2D4
  8
DEFAULT
 10
166.367795728895
 20
-199.8204342761605
 30
0.0
  0
VERTEX
  5
2D5
  8
DEFAULT
 10
166.3677957288949
 20
-201.6204340582245
 30
0.0
 42
1.000000000000093
  0
VERTEX
  5
2D6
  8
DEFAULT
 10
166.977795728895
 20
-201.6204340582245
 30
0.0
  0
VERTEX
  5
2D7
  8
DEFAULT
 10
169.3014977890288
 20
-201.6204340582299
 30
0.0
  0
VERTEX
  5
2D8
  8
DEFAULT
 10
169.3014977890286
 20
-222.8419560189471
 30
0.0
  0
VERTEX
  5
2D9
  8
DEFAULT
 10
166.9777957288949
 20
-222.8419560189471
 30
0.0
 42
0.9999999999999999
  0
VERTEX
  5
2DA
  8
DEFAULT
 10
166.3677957288949
 20
-222.8419560189471
 30
0.0
  0
VERTEX
  5
2DB
  8
DEFAULT
 10
166.3677957288949
 20
-224.6419559577119
 30
0.0
 42
1.000000100385343
  0
VERTEX
  5
2DC
  8
DEFAULT
 10
166.9777957288949
 20
-224.6419560189471
 30
0.0
  0
VERTEX
  5
2DD
  8
DEFAULT
 10
169.3014977890287
 20
-224.6419560189471
 30
0.0
  0
VERTEX
  5
2DE
  8
DEFAULT
 10
169.3014977890286
 20
-236.7102222948947
 30
0.0
  0
VERTEX
  5
2DF
  8
DEFAULT
 10
166.9777957288951
 20
-236.7102222948744
 30
0.0
 42
1.000000076913109
  0
VERTEX
  5
2E0
  8
DEFAULT
 10
166.367795728895
 20
-236.7102223417915
 30
0.0
  0
VERTEX
  5
2E1
  8
DEFAULT
 10
166.367795728895
 20
-238.5102220340862
 30
0.0
 42
1.00000042755602
  0
VERTEX
  5
2E2
  8
DEFAULT
 10
166.9777957288949
 20
-238.5102222948954
 30
0.0
  0
VERTEX
  5
2E3
  8
DEFAULT
 10
169.3014977890288
 20
-238.5102222948953
 30
0.0
  0
VERTEX
  5
2E4
  8
DEFAULT
 10
169.3014977890286
 20
-250.6165360048639
 30
0.0
  0
SEQEND
  5
2E5
  8
DEFAULT
  0
POLYLINE
  5
2E6
  8
DEFAULT
 66
     1
 10
0.0
 20
0.0
 30
0.0
 70
     1
  0
VERTEX
  5
2E7
  8
DEFAULT
 10
132.7288128499409
 20
-96.82177954625996
 30
0.0
  0
VERTEX
  5
2E8
  8
DEFAULT
 10
129.9488128499409
 20
-96.82177954625996
 30
0.0
 42
-1.000000398126073
  0
VERTEX
  5
2E9
  8
DEFAULT
 10
129.338812849941
 20
-96.82177930340315
 30
0.0
  0
VERTEX
  5
2EA
  8
DEFAULT
 10
129.3388128499409
 20
-95.02177954625995
 30
0.0
  0
VERTEX
  5
2EB
  8
DEFAULT
 10
126.3388128499409
 20
-95.02177954625995
 30
0.0
  0
VERTEX
  5
2EC
  8
DEFAULT
 10
126.3388128499409
 20
-176.5217795462599
 30
0.0
  0
VERTEX
  5
2ED
  8
DEFAULT
 10
129.3388128499409
 20
-176.5217795462599
 30
0.0
  0
VERTEX
  5
2EE
  8
DEFAULT
 10
129.3388128499409
 20
-174.7217795462599
 30
0.0
 42
-1.000000000013838
  0
VERTEX
  5
2EF
  8
DEFAULT
 10
129.9488128499409
 20
-174.7217795462514
 30
0.0
  0
VERTEX
  5
2F0
  8
DEFAULT
 10
132.7288128499409
 20
-174.7217795462599
 30
0.0
 42
-1.000000455773152
  0
VERTEX
  5
2F1
  8
DEFAULT
 10
133.3388128499408
 20
-174.7217798242815
 30
0.0
  0
VERTEX
  5
2F2
  8
DEFAULT
 10
133.3388128499409
 20
-176.5217795462599
 30
0.0
  0
VERTEX
  5
2F3
  8
DEFAULT
 10
139.3388128499409
 20
-176.5217795462599
 30
0.0
  0
VERTEX
  5
2F4
  8
DEFAULT
 10
139.338812849941
 20
-174.7217798148202
 30
0.0
 42
-1.000000440262859
  0
VERTEX
  5
2F5
  8
DEFAULT
 10
139.9488128499409
 20
-174.7217795462599
 30
0.0
  0
VERTEX
  5
2F6
  8
DEFAULT
 10
142.7288128499409
 20
-174.7217795462599
 30
0.0
 42
-1.000000000000047
  0
VERTEX
  5
2F7
  8
DEFAULT
 10
143.3388128499409
 20
-174.7217795462599
 30
0.0
  0
VERTEX
  5
2F8
  8
DEFAULT
 10
143.3388128499409
 20
-176.5217795462599
 30
0.0
  0
VERTEX
  5
2F9
  8
DEFAULT
 10
146.3388128499409
 20
-176.5217795462599
 30
0.0
  0
VERTEX
  5
2FA
  8
DEFAULT
 10
146.3388128499409
 20
-124.5217795462599
 30
0.0
  0
VERTEX
  5
2FB
  8
DEFAULT
 10
137.9488128499409
 20
-124.5217795462599
 30
0.0
 42
-1.000000101409503
  0
VERTEX
  5
2FC
  8
DEFAULT
 10
137.3388128499408
 20
-124.5217794844002
 30
0.0
  0
VERTEX
  5
2FD
  8
DEFAULT
 10
137.338812849941
 20
-115.0217795462599
 30
0.0
 42
-1.000000000026814
  0
VERTEX
  5
2FE
  8
DEFAULT
 10
137.948812849941
 20
-115.0217795462436
 30
0.0
  0
VERTEX
  5
2FF
  8
DEFAULT
 10
146.3388128499409
 20
-115.02177954626
 30
0.0
  0
VERTEX
  5
300
  8
DEFAULT
 10
146.3388128499409
 20
-95.02177954625995
 30
0.0
  0
VERTEX
  5
301
  8
DEFAULT
 10
143.3388128499409
 20
-95.02177954625995
 30
0.0
  0
VERTEX
  5
302
  8
DEFAULT
 10
143.3388128499409
 20
-96.82177948738058
 30
0.0
 42
-1.000000096523601
  0
VERTEX
  5
303
  8
DEFAULT
 10
142.7288128499409
 20
-96.82177954625996
 30
0.0
  0
VERTEX
  5
304
  8
DEFAULT
 10
139.9488128499409
 20
-96.82177954625996
 30
0.0
 42
-1.000000000739989
  0
VERTEX
  5
305
  8
DEFAULT
 10
139.3388128499409
 20
-96.82177954580848
 30
0.0
  0
VERTEX
  5
306
  8
DEFAULT
 10
139.3388128499409
 20
-95.02177954625995
 30
0.0
  0
VERTEX
  5
307
  8
DEFAULT
 10
133.3388128499409
 20
-95.02177954625995
 30
0.0
  0
VERTEX
  5
308
  8
DEFAULT
 10
133.3388128499409
 20
-96.82177954625996
 30
0.0
 42
-1.000000000000023
  0
SEQEND
  5
309
  8
DEFAULT
  0
POLYLINE
  5
30A
  8
DEFAULT
 66
     1
 10
0.0
 20
0.0
 30
0.0
 70
     1
  0
VERTEX
  5
30B
  8
DEFAULT
 10
176.1582679991007
 20
-250.6165361793487
 30
0.0
 42
1.000000286039992
  0
VERTEX
  5
30C
  8
DEFAULT
 10
175.5482679991009
 20
-250.6165360048643
 30
0.0
  0
VERTEX
  5
30D
  8
DEFAULT
 10
173.1664083282897
 20
-250.6165360048643
 30
0.0
  0
VERTEX
  5
30E
  8
DEFAULT
 10
173.1605747144736
 20
-238.5102222948954
 30
0.0
  0
VERTEX
  5
30F
  8
DEFAULT
 10
175.5482679991006
 20
-238.5102222948954
 30
0.0
 42
1.000000116691159
  0
VERTEX
  5
310
  8
DEFAULT
 10
176.1582679991006
 20
-238.5102222237135
 30
0.0
  0
VERTEX
  5
311
  8
DEFAULT
 10
176.1582679991007
 20
-236.7102222948954
 30
0.0
 42
0.9999999999998134
  0
VERTEX
  5
312
  8
DEFAULT
 10
175.5482679991006
 20
-236.7102222948954
 30
0.0
  0
VERTEX
  5
313
  8
DEFAULT
 10
173.1597073567361
 20
-236.7102222948954
 30
0.0
  0
VERTEX
  5
314
  8
DEFAULT
 10
173.1538920766625
 20
-224.6419560189472
 30
0.0
  0
VERTEX
  5
315
  8
DEFAULT
 10
175.5482679991007
 20
-224.6419560189471
 30
0.0
 42
1.000000238303435
  0
VERTEX
  5
316
  8
DEFAULT
 10
176.1582679991008
 20
-224.641955873582
 30
0.0
  0
VERTEX
  5
317
  8
DEFAULT
 10
176.1582679991007
 20
-222.8419561386794
 30
0.0
 42
1.000000196282488
  0
VERTEX
  5
318
  8
DEFAULT
 10
175.5482679991007
 20
-222.8419560189471
 30
0.0
  0
VERTEX
  5
319
  8
DEFAULT
 10
173.153024718925
 20
-222.8419560189471
 30
0.0
  0
VERTEX
  5
31A
  8
DEFAULT
 10
173.1427988015506
 20
-201.62043405823
 30
0.0
  0
VERTEX
  5
31B
  8
DEFAULT
 10
175.5482679991007
 20
-201.62043405823
 30
0.0
 42
1.0
  0
VERTEX
  5
31C
  8
DEFAULT
 10
176.1582679991007
 20
-201.62043405823
 30
0.0
  0
VERTEX
  5
31D
  8
DEFAULT
 10
176.1582679991008
 20
-199.8204340582301
 30
0.0
 42
0.9999999999999535
  0
VERTEX
  5
31E
  8
DEFAULT
 10
175.5482679991007
 20
-199.8204340582301
 30
0.0
  0
VERTEX
  5
31F
  8
DEFAULT
 10
173.1419314438132
 20
-199.8204340582301
 30
0.0
  0
VERTEX
  5
320
  8
DEFAULT
 10
173.1317158971273
 20
-178.6204340582302
 30
0.0
  0
VERTEX
  5
321
  8
DEFAULT
 10
175.5482679991007
 20
-178.6204340582302
 30
0.0
 42
1.0000004328809
  0
VERTEX
  5
322
  8
DEFAULT
 10
176.1582679991006
 20
-178.6204337941729
 30
0.0
  0
VERTEX
  5
323
  8
DEFAULT
 10
176.1582679991008
 20
-176.8204341533164
 30
0.0
 42
1.000000134324083
  0
VERTEX
  5
324
  8
DEFAULT
 10
175.5482679991008
 20
-176.8204340582302
 30
0.0
  0
VERTEX
  5
325
  8
DEFAULT
 10
173.1308485393897
 20
-176.8204340582302
 30
0.0
  0
VERTEX
  5
326
  8
DEFAULT
 10
173.1206329927037
 20
-155.6204340582305
 30
0.0
  0
VERTEX
  5
327
  8
DEFAULT
 10
175.5482679991007
 20
-155.6204340582304
 30
0.0
 42
1.000000076974798
  0
VERTEX
  5
328
  8
DEFAULT
 10
176.1582679991007
 20
-155.6204340112757
 30
0.0
  0
VERTEX
  5
329
  8
DEFAULT
 10
176.1582679991008
 20
-153.8204340582305
 30
0.0
 42
0.9999999999998602
  0
VERTEX
  5
32A
  8
DEFAULT
 10
175.5482679991007
 20
-153.8204340582305
 30
0.0
  0
VERTEX
  5
32B
  8
DEFAULT
 10
173.1197656349663
 20
-153.8204340582304
 30
0.0
  0
VERTEX
  5
32C
  8
DEFAULT
 10
173.0976961992013
 20
-108.0204340582301
 30
0.0
  0
VERTEX
  5
32D
  8
DEFAULT
 10
175.0482679991009
 20
-108.0204340582303
 30
0.0
 42
1.00000041156151
  0
VERTEX
  5
32E
  8
DEFAULT
 10
175.6582679991009
 20
-108.0204338071778
 30
0.0
  0
VERTEX
  5
32F
  8
DEFAULT
 10
175.6582679991009
 20
-95.02043405823021
 30
0.0
  0
VERTEX
  5
330
  8
DEFAULT
 10
193.0919700592345
 20
-95.02964275116771
 30
0.0
  0
VERTEX
  5
331
  8
DEFAULT
 10
193.1201387173193
 20
-153.8204340582304
 30
0.0
  0
VERTEX
  5
332
  8
DEFAULT
 10
190.7682679991008
 20
-153.8204340582305
 30
0.0
 42
1.000000069012386
  0
VERTEX
  5
333
  8
DEFAULT
 10
190.1582679991008
 20
-153.8204341003282
 30
0.0
  0
VERTEX
  5
334
  8
DEFAULT
 10
190.1582679991008
 20
-155.6204340582304
 30
0.0
 42
0.9999999999999999
  0
VERTEX
  5
335
  8
DEFAULT
 10
190.7682679991008
 20
-155.6204340582304
 30
0.0
  0
VERTEX
  5
336
  8
DEFAULT
 10
193.1210011582463
 20
-155.6204340582304
 30
0.0
  0
VERTEX
  5
337
  8
DEFAULT
 10
193.1311587958306
 20
-176.8204340582303
 30
0.0
  0
VERTEX
  5
338
  8
DEFAULT
 10
190.7682679991008
 20
-176.8204340582303
 30
0.0
 42
1.000000000000093
  0
VERTEX
  5
339
  8
DEFAULT
 10
190.1582679991007
 20
-176.8204340582303
 30
0.0
  0
VERTEX
  5
33A
  8
DEFAULT
 10
190.1582679991008
 20
-178.6204340582302
 30
0.0
 42
0.9999999999999999
  0
VERTEX
  5
33B
  8
DEFAULT
 10
190.7682679991008
 20
-178.6204340582302
 30
0.0
  0
VERTEX
  5
33C
  8
DEFAULT
 10
193.1320212367576
 20
-178.6204340582302
 30
0.0
  0
VERTEX
  5
33D
  8
DEFAULT
 10
193.142178874342
 20
-199.8204340582301
 30
0.0
  0
VERTEX
  5
33E
  8
DEFAULT
 10
190.7682679991008
 20
-199.8204340581852
 30
0.0
 42
1.000000357336525
  0
VERTEX
  5
33F
  8
DEFAULT
 10
190.1582679991008
 20
-199.8204342761605
 30
0.0
  0
VERTEX
  5
340
  8
DEFAULT
 10
190.1582679991008
 20
-201.6204340582245
 30
0.0
 42
0.9999999999998602
  0
VERTEX
  5
341
  8
DEFAULT
 10
190.7682679991008
 20
-201.6204340582245
 30
0.0
  0
VERTEX
  5
342
  8
DEFAULT
 10
193.143041315269
 20
-201.62043405823
 30
0.0
  0
VERTEX
  5
343
  8
DEFAULT
 10
193.1532092647532
 20
-222.8419560189471
 30
0.0
  0
VERTEX
  5
344
  8
DEFAULT
 10
190.7682679991008
 20
-222.8419560189471
 30
0.0
 42
1.000000000000047
  0
VERTEX
  5
345
  8
DEFAULT
 10
190.1582679991008
 20
-222.8419560189471
 30
0.0
  0
VERTEX
  5
346
  8
DEFAULT
 10
190.1582679991008
 20
-224.6419559577119
 30
0.0
 42
1.000000100385436
  0
VERTEX
  5
347
  8
DEFAULT
 10
190.7682679991008
 20
-224.6419560189471
 30
0.0
  0
VERTEX
  5
348
  8
DEFAULT
 10
193.1540717056802
 20
-224.6419560189471
 30
0.0
  0
VERTEX
  5
349
  8
DEFAULT
 10
193.1598540205437
 20
-236.7102222948953
 30
0.0
  0
VERTEX
  5
34A
  8
DEFAULT
 10
190.7682679991009
 20
-236.7102222948744
 30
0.0
 42
1.000000076913389
  0
VERTEX
  5
34B
  8
DEFAULT
 10
190.1582679991008
 20
-236.7102223417915
 30
0.0
  0
VERTEX
  5
34C
  8
DEFAULT
 10
190.1582679991009
 20
-238.5102220340862
 30
0.0
 42
1.000000427555927
  0
VERTEX
  5
34D
  8
DEFAULT
 10
190.7682679991009
 20
-238.5102222948954
 30
0.0
  0
VERTEX
  5
34E
  8
DEFAULT
 10
193.1607164614705
 20
-238.5102222948953
 30
0.0
  0
VERTEX
  5
34F
  8
DEFAULT
 10
193.1665170061474
 20
-250.6165360048644
 30
0.0
  0
VERTEX
  5
350
  8
DEFAULT
 10
190.7682679991007
 20
-250.6165360048495
 30
0.0
 42
1.000000407540652
  0
VERTEX
  5
351
  8
DEFAULT
 10
190.1582679991009
 20
-250.6165362534493
 30
0.0
  0
VERTEX
  5
352
  8
DEFAULT
 10
190.1582679991007
 20
-252.4165360048643
 30
0.0
 42
0.9999999999847641
  0
VERTEX
  5
353
  8
DEFAULT
 10
190.7682679991007
 20
-252.416536004855
 30
0.0
  0
VERTEX
  5
354
  8
DEFAULT
 10
193.1673794470744
 20
-252.4165360048643
 30
0.0
  0
VERTEX
  5
355
  8
DEFAULT
 10
193.1731290532542
 20
-264.4165360048643
 30
0.0
  0
VERTEX
  5
356
  8
DEFAULT
 10
173.1730580709437
 20
-264.4165360048643
 30
0.0
  0
VERTEX
  5
357
  8
DEFAULT
 10
173.1672756860271
 20
-252.4165360048643
 30
0.0
  0
VERTEX
  5
358
  8
DEFAULT
 10
175.5482679991006
 20
-252.4165360048643
 30
0.0
 42
0.9999999999999535
  0
VERTEX
  5
359
  8
DEFAULT
 10
176.1582679991006
 20
-252.4165360048643
 30
0.0
  0
SEQEND
  5
35A
  8
DEFAULT
  0
POLYLINE
  5
35B
  8
DEFAULT
 66
     1
 10
0.0
 20
0.0
 30
0.0
 70
     1
  0
VERTEX
  5
35C
  8
DEFAULT
 10
156.9777957288949
 20
-236.7102222948953
 30
0.0
 42
1.000000207927284
  0
VERTEX
  5
35D
  8
DEFAULT
 10
156.3677957288951
 20
-236.710222421731
 30
0.0
  0
VERTEX
  5
35E
  8
DEFAULT
 10
156.3677957288949
 20
-238.5102222305074
 30
0.0
 42
1.000000105551711
  0
VERTEX
  5
35F
  8
DEFAULT
 10
156.9777957288949
 20
-238.5102222948939
 30
0.0
  0
VERTEX
  5
360
  8
DEFAULT
 10
161.7577957288949
 20
-238.5102222948954
 30
0.0
 42
0.9999999999997203
  0
VERTEX
  5
361
  8
DEFAULT
 10
162.3677957288949
 20
-238.5102222948954
 30
0.0
  0
VERTEX
  5
362
  8
DEFAULT
 10
162.3677957288949
 20
-236.7102223305774
 30
0.0
 42
1.000000058495281
  0
VERTEX
  5
363
  8
DEFAULT
 10
161.7577957288948
 20
-236.7102222948953
 30
0.0
  0
SEQEND
  5
364
  8
DEFAULT
  0
POLYLINE
  5
365
  8
DEFAULT
 66
     1
 10
0.0
 20
0.0
 30
0.0
 70
     1
  0
VERTEX
  5
366
  8
DEFAULT
 10
156.9777957288948
 20
-252.4165360048643
 30
0.0
  0
VERTEX
  5
367
  8
DEFAULT
 10
161.7577957288948
 20
-252.4165360048643
 30
0.0
 42
0.9999999999999999
  0
VERTEX
  5
368
  8
DEFAULT
 10
162.3677957288949
 20
-252.4165360048643
 30
0.0
  0
VERTEX
  5
369
  8
DEFAULT
 10
162.3677957288949
 20
-250.6165361783872
 30
0.0
 42
1.000000284463472
  0
VERTEX
  5
36A
  8
DEFAULT
 10
161.7577957288949
 20
-250.6165360048644
 30
0.0
  0
VERTEX
  5
36B
  8
DEFAULT
 10
156.9777957288952
 20
-250.6165360048643
 30
0.0
 42
0.9999999999996739
  0
VERTEX
  5
36C
  8
DEFAULT
 10
156.3677957288949
 20
-250.6165360048643
 30
0.0
  0
VERTEX
  5
36D
  8
DEFAULT
 10
156.3677957288949
 20
-252.416535917988
 30
0.0
 42
1.000000142420358
  0
SEQEND
  5
36E
  8
DEFAULT
  0
POLYLINE
  5
36F
  8
DEFAULT
 66
     1
 10
0.0
 20
0.0
 30
0.0
 70
     1
  0
VERTEX
  5
370
  8
DEFAULT
 10
156.9777957288949
 20
-153.8204340582342
 30
0.0
 42
1.000000450833084
  0
VERTEX
  5
371
  8
DEFAULT
 10
156.367795728895
 20
-153.8204343332423
 30
0.0
  0
VERTEX
  5
372
  8
DEFAULT
 10
156.3677957288949
 20
-155.6204340582304
 30
0.0
 42
0.9999999999999999
  0
VERTEX
  5
373
  8
DEFAULT
 10
156.9777957288949
 20
-155.6204340582304
 30
0.0
  0
VERTEX
  5
374
  8
DEFAULT
 10
161.7577957288949
 20
-155.6204340582304
 30
0.0
 42
1.000000287906693
  0
VERTEX
  5
375
  8
DEFAULT
 10
162.3677957288949
 20
-155.6204338826074
 30
0.0
  0
VERTEX
  5
376
  8
DEFAULT
 10
162.3677957288949
 20
-153.8204340582305
 30
0.0
 42
0.9999999999998602
  0
VERTEX
  5
377
  8
DEFAULT
 10
161.7577957288949
 20
-153.8204340582305
 30
0.0
  0
SEQEND
  5
378
  8
DEFAULT
  0
POLYLINE
  5
379
  8
DEFAULT
 66
     1
 10
0.0
 20
0.0
 30
0.0
 70
     1
  0
VERTEX
  5
37A
  8
DEFAULT
 10
156.3677957288949
 20
-201.6204340582301
 30
0.0
 42
0.9999999999999533
  0
VERTEX
  5
37B
  8
DEFAULT
 10
156.9777957288949
 20
-201.62043405823
 30
0.0
  0
VERTEX
  5
37C
  8
DEFAULT
 10
161.7577957288949
 20
-201.62043405823
 30
0.0
 42
0.9999999999999069
  0
VERTEX
  5
37D
  8
DEFAULT
 10
162.3677957288949
 20
-201.6204340582301
 30
0.0
  0
VERTEX
  5
37E
  8
DEFAULT
 10
162.3677957288948
 20
-199.8204343143974
 30
0.0
 42
1.00000041994636
  0
VERTEX
  5
37F
  8
DEFAULT
 10
161.7577957288948
 20
-199.8204340582301
 30
0.0
  0
VERTEX
  5
380
  8
DEFAULT
 10
156.9777957288949
 20
-199.8204340582301
 30
0.0
 42
1.00000027913016
  0
VERTEX
  5
381
  8
DEFAULT
 10
156.367795728895
 20
-199.8204342284996
 30
0.0
  0
SEQEND
  5
382
  8
DEFAULT
  0
POLYLINE
  5
383
  8
DEFAULT
 66
     1
 10
0.0
 20
0.0
 30
0.0
 70
     1
  0
VERTEX
  5
384
  8
DEFAULT
 10
156.3677957288949
 20
-224.6419560189471
 30
0.0
 42
0.9999999999999535
  0
VERTEX
  5
385
  8
DEFAULT
 10
156.977795728895
 20
-224.6419560189471
 30
0.0
  0
VERTEX
  5
386
  8
DEFAULT
 10
161.7577957288949
 20
-224.6419560189471
 30
0.0
 42
0.99999999999986
  0
VERTEX
  5
387
  8
DEFAULT
 10
162.3677957288949
 20
-224.6419560189471
 30
0.0
  0
VERTEX
  5
388
  8
DEFAULT
 10
162.3677957288949
 20
-222.8419561623014
 30
0.0
 42
1.000000235007029
  0
VERTEX
  5
389
  8
DEFAULT
 10
161.7577957288949
 20
-222.8419560189471
 30
0.0
  0
VERTEX
  5
38A
  8
DEFAULT
 10
156.9777957288949
 20
-222.8419560189471
 30
0.0
 42
1.000000118682822
  0
VERTEX
  5
38B
  8
DEFAULT
 10
156.3677957288949
 20
-222.8419560913437
 30
0.0
  0
SEQEND
  5
38C
  8
DEFAULT
  0
POLYLINE
  5
38D
  8
DEFAULT
 66
     1
 10
0.0
 20
0.0
 30
0.0
 70
     1
  0
VERTEX
  5
38E
  8
DEFAULT
 10
156.9777957288949
 20
-176.8204340582303
 30
0.0
 42
1.000000191662235
  0
VERTEX
  5
38F
  8
DEFAULT
 10
156.3677957288949
 20
-176.8204341751441
 30
0.0
  0
VERTEX
  5
390
  8
DEFAULT
 10
156.3677957288949
 20
-178.620433949448
 30
0.0
 42
1.000000178331379
  0
VERTEX
  5
391
  8
DEFAULT
 10
156.9777957288949
 20
-178.6204340582302
 30
0.0
  0
VERTEX
  5
392
  8
DEFAULT
 10
161.7577957288949
 20
-178.6204340582302
 30
0.0
 42
1.000000131429681
  0
VERTEX
  5
393
  8
DEFAULT
 10
162.3677957288949
 20
-178.6204339780581
 30
0.0
  0
VERTEX
  5
394
  8
DEFAULT
 10
162.3677957288949
 20
-176.8204341927408
 30
0.0
 42
1.000000220509158
  0
VERTEX
  5
395
  8
DEFAULT
 10
161.7577957288949
 20
-176.8204340582302
 30
0.0
  0
SEQEND
  5
396
  8
DEFAULT
  0
POLYLINE
  5
397
  8
DEFAULT
 66
     1
 10
0.0
 20
0.0
 30
0.0
  0
VERTEX
  5
398
  8
DEFAULT
 10
180.7682679991006
 20
-252.4165360048643
 30
0.0
  0
VERTEX
  5
399
  8
DEFAULT
 10
185.5482679991006
 20
-252.4165360048643
 30
0.0
 42
0.9999999999999535
  0
VERTEX
  5
39A
  8
DEFAULT
 10
186.1582679991007
 20
-252.4165360048643
 30
0.0
  0
SEQEND
  5
39B
  8
DEFAULT
  0
POLYLINE
  5
39C
  8
DEFAULT
 66
     1
 10
0.0
 20
0.0
 30
0.0
  0
VERTEX
  5
39D
  8
DEFAULT
 10
185.5482679991007
 20
-250.6165360048644
 30
0.0
  0
VERTEX
  5
39E
  8
DEFAULT
 10
180.768267999101
 20
-250.6165360048643
 30
0.0
 42
1.00000000000014
  0
VERTEX
  5
39F
  8
DEFAULT
 10
180.158267999101
 20
-250.6165360048643
 30
0.0
  0
SEQEND
  5
3A0
  8
DEFAULT
  0
POLYLINE
  5
3A1
  8
DEFAULT
 66
     1
 10
0.0
 20
0.0
 30
0.0
  0
VERTEX
  5
3A2
  8
DEFAULT
 10
180.1582679991008
 20
-238.5102221661195
 30
0.0
 42
1.000000211105671
  0
VERTEX
  5
3A3
  8
DEFAULT
 10
180.7682679991009
 20
-238.5102222948939
 30
0.0
  0
VERTEX
  5
3A4
  8
DEFAULT
 10
185.5482679991007
 20
-238.5102222948954
 30
0.0
 42
0.9999999999997203
  0
VERTEX
  5
3A5
  8
DEFAULT
 10
186.1582679991007
 20
-238.5102222948954
 30
0.0
  0
SEQEND
  5
3A6
  8
DEFAULT
  0
POLYLINE
  5
3A7
  8
DEFAULT
 66
     1
 10
0.0
 20
0.0
 30
0.0
  0
VERTEX
  5
3A8
  8
DEFAULT
 10
186.1582679991008
 20
-236.7102223662596
 30
0.0
 42
1.000000116990472
  0
VERTEX
  5
3A9
  8
DEFAULT
 10
185.5482679991007
 20
-236.7102222948953
 30
0.0
  0
VERTEX
  5
3AA
  8
DEFAULT
 10
180.7682679991008
 20
-236.7102222948953
 30
0.0
 42
1.000000415854658
  0
VERTEX
  5
3AB
  8
DEFAULT
 10
180.1582679991009
 20
-236.7102225485667
 30
0.0
  0
SEQEND
  5
3AC
  8
DEFAULT
  0
POLYLINE
  5
3AD
  8
DEFAULT
 66
     1
 10
0.0
 20
0.0
 30
0.0
  0
VERTEX
  5
3AE
  8
DEFAULT
 10
185.5482679991007
 20
-250.6165360048644
 30
0.0
 42
-1.000000284463658
  0
VERTEX
  5
3AF
  8
DEFAULT
 10
186.1582679991007
 20
-250.6165361783872
 30
0.0
  0
VERTEX
  5
3B0
  8
DEFAULT
 10
186.1582679991008
 20
-252.4165360048643
 30
0.0
  0
SEQEND
  5
3B1
  8
DEFAULT
  0
POLYLINE
  5
3B2
  8
DEFAULT
 66
     1
 10
0.0
 20
0.0
 30
0.0
  0
VERTEX
  5
3B3
  8
DEFAULT
 10
180.1582679991008
 20
-250.6165360048643
 30
0.0
  0
VERTEX
  5
3B4
  8
DEFAULT
 10
180.1582679991008
 20
-252.416535917988
 30
0.0
 42
1.000000142420171
  0
VERTEX
  5
3B5
  8
DEFAULT
 10
180.7682679991007
 20
-252.4165360048643
 30
0.0
  0
SEQEND
  5
3B6
  8
DEFAULT
  0
POLYLINE
  5
3B7
  8
DEFAULT
 66
     1
 10
0.0
 20
0.0
 30
0.0
 70
     1
  0
VERTEX
  5
3B8
  8
DEFAULT
 10
180.7682679991008
 20
-176.8204340582303
 30
0.0
 42
1.000000191662096
  0
VERTEX
  5
3B9
  8
DEFAULT
 10
180.1582679991008
 20
-176.8204341751441
 30
0.0
  0
VERTEX
  5
3BA
  8
DEFAULT
 10
180.1582679991008
 20
-178.620433949448
 30
0.0
 42
1.000000178331519
  0
VERTEX
  5
3BB
  8
DEFAULT
 10
180.7682679991007
 20
-178.6204340582302
 30
0.0
  0
VERTEX
  5
3BC
  8
DEFAULT
 10
185.5482679991007
 20
-178.6204340582302
 30
0.0
 42
1.000000131429821
  0
VERTEX
  5
3BD
  8
DEFAULT
 10
186.1582679991008
 20
-178.6204339780581
 30
0.0
  0
VERTEX
  5
3BE
  8
DEFAULT
 10
186.1582679991007
 20
-176.8204341927408
 30
0.0
 42
1.000000220509158
  0
VERTEX
  5
3BF
  8
DEFAULT
 10
185.5482679991008
 20
-176.8204340582302
 30
0.0
  0
SEQEND
  5
3C0
  8
DEFAULT
  0
POLYLINE
  5
3C1
  8
DEFAULT
 66
     1
 10
0.0
 20
0.0
 30
0.0
 70
     1
  0
VERTEX
  5
3C2
  8
DEFAULT
 10
180.1582679991008
 20
-224.6419560189471
 30
0.0
 42
0.9999999999998136
  0
VERTEX
  5
3C3
  8
DEFAULT
 10
180.7682679991008
 20
-224.6419560189471
 30
0.0
  0
VERTEX
  5
3C4
  8
DEFAULT
 10
185.5482679991007
 20
-224.6419560189471
 30
0.0
 42
0.9999999999999999
  0
VERTEX
  5
3C5
  8
DEFAULT
 10
186.1582679991008
 20
-224.6419560189471
 30
0.0
  0
VERTEX
  5
3C6
  8
DEFAULT
 10
186.1582679991007
 20
-222.8419561623014
 30
0.0
 42
1.000000235006842
  0
VERTEX
  5
3C7
  8
DEFAULT
 10
185.5482679991008
 20
-222.8419560189471
 30
0.0
  0
VERTEX
  5
3C8
  8
DEFAULT
 10
180.7682679991008
 20
-222.8419560189471
 30
0.0
 42
1.000000118683055
  0
VERTEX
  5
3C9
  8
DEFAULT
 10
180.1582679991006
 20
-222.8419560913437
 30
0.0
  0
SEQEND
  5
3CA
  8
DEFAULT
  0
POLYLINE
  5
3CB
  8
DEFAULT
 66
     1
 10
0.0
 20
0.0
 30
0.0
 70
     1
  0
VERTEX
  5
3CC
  8
DEFAULT
 10
180.1582679991008
 20
-201.6204340582301
 30
0.0
 42
0.9999999999999533
  0
VERTEX
  5
3CD
  8
DEFAULT
 10
180.7682679991007
 20
-201.62043405823
 30
0.0
  0
VERTEX
  5
3CE
  8
DEFAULT
 10
185.5482679991007
 20
-201.62043405823
 30
0.0
 42
0.9999999999999533
  0
VERTEX
  5
3CF
  8
DEFAULT
 10
186.1582679991007
 20
-201.6204340582301
 30
0.0
  0
VERTEX
  5
3D0
  8
DEFAULT
 10
186.1582679991006
 20
-199.8204343143974
 30
0.0
 42
1.000000419946174
  0
VERTEX
  5
3D1
  8
DEFAULT
 10
185.5482679991007
 20
-199.8204340582301
 30
0.0
  0
VERTEX
  5
3D2
  8
DEFAULT
 10
180.7682679991008
 20
-199.8204340582301
 30
0.0
 42
1.000000279130113
  0
VERTEX
  5
3D3
  8
DEFAULT
 10
180.1582679991009
 20
-199.8204342284996
 30
0.0
  0
SEQEND
  5
3D4
  8
DEFAULT
  0
POLYLINE
  5
3D5
  8
DEFAULT
 66
     1
 10
0.0
 20
0.0
 30
0.0
 70
     1
  0
VERTEX
  5
3D6
  8
DEFAULT
 10
180.7682679991007
 20
-153.8204340582342
 30
0.0
 42
1.000000450833084
  0
VERTEX
  5
3D7
  8
DEFAULT
 10
180.1582679991008
 20
-153.8204343332423
 30
0.0
  0
VERTEX
  5
3D8
  8
DEFAULT
 10
180.1582679991008
 20
-155.6204340582304
 30
0.0
 42
0.9999999999999999
  0
VERTEX
  5
3D9
  8
DEFAULT
 10
180.7682679991008
 20
-155.6204340582304
 30
0.0
  0
VERTEX
  5
3DA
  8
DEFAULT
 10
185.5482679991007
 20
-155.6204340582304
 30
0.0
 42
1.000000287906693
  0
VERTEX
  5
3DB
  8
DEFAULT
 10
186.1582679991007
 20
-155.6204338826074
 30
0.0
  0
VERTEX
  5
3DC
  8
DEFAULT
 10
186.1582679991008
 20
-153.8204340582305
 30
0.0
 42
0.9999999999998602
  0
VERTEX
  5
3DD
  8
DEFAULT
 10
185.5482679991007
 20
-153.8204340582305
 30
0.0
  0
SEQEND
  5
3DE
  8
DEFAULT
  0
LINE
  5
3DF
  8
DEFAULT
 10
186.1582679991008
 20
-236.7102222948953
 30
0.0
 11
186.1582679991008
 21
-238.5102222948954
 31
0.0
  0
LINE
  5
3E0
  8
DEFAULT
 10
180.1582679991008
 20
-236.7102222948954
 30
0.0
 11
180.1582679991008
 21
-238.5102222948953
 31
0.0
  0
ENDSEC
  0
EOF
