  0
SECTION
  2
HEADER
  9
$ACADVER
  1
AC1009
  9
$DWGCODEPAGE
  3
ansi_1252
  9
$INSBASE
 10
0.0
 20
0.0
 30
0.0
  9
$EXTMIN
 10
-404.874998168202
 20
-1387.612879117618
 30
265.0000000000005
  9
$EXTMAX
 10
-217.6250018317987
 20
-1343.112879117617
 30
265.0000000000006
  9
$LIMMIN
 10
0.0
 20
0.0
  9
$LIMMAX
 10
12.0
 20
9.0
  9
$ORTHOMODE
 70
     0
  9
$REGENMODE
 70
     1
  9
$FILLMODE
 70
     1
  9
$QTEXTMODE
 70
     0
  9
$MIRRTEXT
 70
     1
  9
$DRAGMODE
 70
     2
  9
$LTSCALE
 40
1.0
  9
$OSMODE
 70
    37
  9
$ATTMODE
 70
     1
  9
$TEXTSIZE
 40
0.2
  9
$TRACEWID
 40
0.05
  9
$TEXTSTYLE
  7
STANDARD
  9
$CLAYER
  8
DEFAULT
  9
$CELTYPE
  6
BYLAYER
  9
$CECOLOR
 62
   256
  9
$DIMSCALE
 40
1.0
  9
$DIMASZ
 40
0.18
  9
$DIMEXO
 40
0.0625
  9
$DIMDLI
 40
0.38
  9
$DIMRND
 40
0.0
  9
$DIMDLE
 40
0.0
  9
$DIMEXE
 40
0.18
  9
$DIMTP
 40
0.0
  9
$DIMTM
 40
0.0
  9
$DIMTXT
 40
0.18
  9
$DIMCEN
 40
0.09
  9
$DIMTSZ
 40
0.0
  9
$DIMTOL
 70
     0
  9
$DIMLIM
 70
     0
  9
$DIMTIH
 70
     1
  9
$DIMTOH
 70
     1
  9
$DIMSE1
 70
     0
  9
$DIMSE2
 70
     0
  9
$DIMTAD
 70
     0
  9
$DIMZIN
 70
     0
  9
$DIMBLK
  1

  9
$DIMASO
 70
     1
  9
$DIMSHO
 70
     1
  9
$DIMPOST
  1

  9
$DIMAPOST
  1

  9
$DIMALT
 70
     0
  9
$DIMALTD
 70
     2
  9
$DIMALTF
 40
25.4
  9
$DIMLFAC
 40
1.0
  9
$DIMTOFL
 70
     0
  9
$DIMTVP
 40
0.0
  9
$DIMTIX
 70
     0
  9
$DIMSOXD
 70
     0
  9
$DIMSAH
 70
     0
  9
$DIMBLK1
  1

  9
$DIMBLK2
  1

  9
$DIMSTYLE
  2
STANDARD_ACAD
  9
$DIMCLRD
 70
     0
  9
$DIMCLRE
 70
     0
  9
$DIMCLRT
 70
     0
  9
$DIMTFAC
 40
1.0
  9
$DIMGAP
 40
0.09
  9
$LUNITS
 70
     2
  9
$LUPREC
 70
     3
  9
$SKETCHINC
 40
0.1
  9
$FILLETRAD
 40
0.0
  9
$AUNITS
 70
     0
  9
$AUPREC
 70
     0
  9
$MENU
  1
.
  9
$ELEVATION
 40
0.0
  9
$PELEVATION
 40
0.0
  9
$THICKNESS
 40
0.0
  9
$LIMCHECK
 70
     0
  9
$CHAMFERA
 40
0.0
  9
$CHAMFERB
 40
0.0
  9
$SKPOLY
 70
     0
  9
$TDCREATE
 40
2460710.796105011
  9
$TDUPDATE
 40
2460710.796117315
  9
$TDINDWG
 40
0.0000000116
  9
$TDUSRTIMER
 40
0.0000000116
  9
$USRTIMER
 70
     1
  9
$ANGBASE
 50
0.0
  9
$ANGDIR
 70
     0
  9
$PDMODE
 70
     0
  9
$PDSIZE
 40
0.0
  9
$PLINEWID
 40
0.0
  9
$COORDS
 70
     1
  9
$SPLFRAME
 70
     0
  9
$SPLINETYPE
 70
     6
  9
$SPLINESEGS
 70
     8
  9
$ATTDIA
 70
     0
  9
$ATTREQ
 70
     1
  9
$HANDLING
 70
     1
  9
$HANDSEED
  5
9D
  9
$SURFTAB1
 70
     6
  9
$SURFTAB2
 70
     6
  9
$SURFTYPE
 70
     6
  9
$SURFU
 70
     6
  9
$SURFV
 70
     6
  9
$UCSNAME
  2

  9
$UCSORG
 10
0.0
 20
0.0
 30
0.0
  9
$UCSXDIR
 10
1.0
 20
0.0
 30
0.0
  9
$UCSYDIR
 10
0.0
 20
1.0
 30
0.0
  9
$PUCSNAME
  2

  9
$PUCSORG
 10
0.0
 20
0.0
 30
0.0
  9
$PUCSXDIR
 10
1.0
 20
0.0
 30
0.0
  9
$PUCSYDIR
 10
0.0
 20
1.0
 30
0.0
  9
$USERI1
 70
     0
  9
$USERI2
 70
     0
  9
$USERI3
 70
     0
  9
$USERI4
 70
     0
  9
$USERI5
 70
     0
  9
$USERR1
 40
0.0
  9
$USERR2
 40
0.0
  9
$USERR3
 40
0.0
  9
$USERR4
 40
0.0
  9
$USERR5
 40
0.0
  9
$WORLDVIEW
 70
     1
  9
$SHADEDGE
 70
     3
  9
$SHADEDIF
 70
    70
  9
$TILEMODE
 70
     1
  9
$MAXACTVP
 70
    64
  9
$PLIMCHECK
 70
     0
  9
$PEXTMIN
 10
1.000000000000000E+20
 20
1.000000000000000E+20
 30
1.000000000000000E+20
  9
$PEXTMAX
 10
-1.000000000000000E+20
 20
-1.000000000000000E+20
 30
-1.000000000000000E+20
  9
$PLIMMIN
 10
0.0
 20
0.0
  9
$PLIMMAX
 10
12.0
 20
9.0
  9
$UNITMODE
 70
     0
  9
$VISRETAIN
 70
     1
  9
$PLINEGEN
 70
     0
  9
$PSLTSCALE
 70
     1
  0
ENDSEC
  0
SECTION
  2
TABLES
  0
TABLE
  2
VPORT
 70
     1
  0
VPORT
  2
*ACTIVE
 70
     0
 10
0.0
 20
0.0
 11
1.0
 21
1.0
 12
10.42990654205607
 22
4.5
 13
0.0
 23
0.0
 14
0.5
 24
0.5
 15
0.5
 25
0.5
 16
0.0
 26
0.0
 36
1.0
 17
0.0
 27
0.0
 37
0.0
 40
9.0
 41
1.972972972850329
 42
50.0
 43
0.0
 44
0.0
 50
0.0
 51
0.0
 71
     0
 72
   100
 73
     1
 74
     3
 75
     0
 76
     0
 77
     0
 78
     0
  0
ENDTAB
  0
TABLE
  2
LTYPE
 70
     1
  0
LTYPE
  2
CONTINUOUS
 70
     0
  3
Solid line
 72
    65
 73
     0
 40
0.0
  0
ENDTAB
  0
TABLE
  2
LAYER
 70
     2
  0
LAYER
  2
0
 70
     0
 62
     7
  6
CONTINUOUS
  0
LAYER
  2
DEFAULT
 70
     0
 62
     7
  6
CONTINUOUS
  0
ENDTAB
  0
TABLE
  2
STYLE
 70
     1
  0
STYLE
  2
STANDARD
 70
     0
 40
0.0
 41
1.0
 50
0.0
 71
     0
 42
0.2
  3
txt
  4

  0
ENDTAB
  0
TABLE
  2
VIEW
 70
     0
  0
ENDTAB
  0
TABLE
  2
UCS
 70
     0
  0
ENDTAB
  0
TABLE
  2
APPID
 70
     2
  0
APPID
  2
ACAD
 70
     0
  0
APPID
  2
RHINO
 70
     0
  0
ENDTAB
  0
TABLE
  2
DIMSTYLE
 70
     1
  0
DIMSTYLE
  2
STANDARD_ACAD
 70
     0
  3

  4

  5

  6

  7

 40
1.0
 41
0.18
 42
0.0625
 43
0.38
 44
0.18
 45
0.0
 46
0.0
 47
0.0
 48
0.0
140
0.18
141
0.09
142
0.0
143
25.4
144
1.0
145
0.0
146
1.0
147
0.09
 71
     0
 72
     0
 73
     1
 74
     1
 75
     0
 76
     0
 77
     0
 78
     0
170
     0
171
     2
172
     0
173
     0
174
     0
175
     0
176
     0
177
     0
178
     0
  0
ENDTAB
  0
ENDSEC
  0
SECTION
  2
BLOCKS
  0
BLOCK
  8
0
  2
$MODEL_SPACE
 70
     0
 10
0.0
 20
0.0
 30
0.0
  3
$MODEL_SPACE
  1

  0
ENDBLK
  5
21
  8
0
  0
BLOCK
 67
     1
  8
0
  2
$PAPER_SPACE
 70
     0
 10
0.0
 20
0.0
 30
0.0
  3
$PAPER_SPACE
  1

  0
ENDBLK
  5
1D
 67
     1
  8
0
  0
ENDSEC
  0
SECTION
  2
ENTITIES
  0
CIRCLE
  5
60
  8
DEFAULT
 10
335.6250018317991
 20
-1371.080621002361
 30
-265.0000000000005
 40
0.1999999999998181
210
0.0
220
0.0
230
-1.0
  0
CIRCLE
  5
61
  8
DEFAULT
 10
219.6250018317993
 20
-1370.112879117618
 30
-265.0000000000005
 40
0.2499999999999147
210
0.0
220
0.0
230
-1.0
  0
POLYLINE
  5
62
  8
DEFAULT
 66
     1
 10
0.0
 20
0.0
 30
265.0000000000006
 70
     1
  0
VERTEX
  5
63
  8
DEFAULT
 10
-321.116920443093
 20
-1378.112879117558
 30
265.0000000000006
  0
VERTEX
  5
64
  8
DEFAULT
 10
-333.6330832205049
 20
-1378.112879117558
 30
265.0000000000006
 42
-0.4147621725940162
  0
VERTEX
  5
65
  8
DEFAULT
 10
-334.07844499192
 20
-1377.840151844831
 30
265.0000000000006
 42
1.375480780621272
  0
VERTEX
  5
66
  8
DEFAULT
 10
-334.8856063903455
 20
-1378.647313243257
 30
265.0000000000006
 42
-0.4147621725936704
  0
VERTEX
  5
67
  8
DEFAULT
 10
-334.6128791176181
 20
-1379.092675014671
 30
265.0000000000006
  0
VERTEX
  5
68
  8
DEFAULT
 10
-334.6128791176181
 20
-1387.612879117618
 30
265.0000000000006
  0
VERTEX
  5
69
  8
DEFAULT
 10
-396.8750018317987
 20
-1387.612879117617
 30
265.0000000000006
  0
VERTEX
  5
6A
  8
DEFAULT
 10
-396.8750018317987
 20
-1383.769734662326
 30
265.0000000000006
 42
0.5176378849118837
  0
VERTEX
  5
6B
  8
DEFAULT
 10
-399.5416672772662
 20
-1381.884116147403
 30
265.0000000000006
 42
-1.41421259091588
  0
VERTEX
  5
6C
  8
DEFAULT
 10
-399.5416672772665
 20
-1374.341642087712
 30
265.0000000000006
 42
0.5176378849118269
  0
VERTEX
  5
6D
  8
DEFAULT
 10
-396.8750018317983
 20
-1372.456023572789
 30
265.0000000000006
  0
VERTEX
  5
6E
  8
DEFAULT
 10
-396.8750018317987
 20
-1368.112879117617
 30
265.0000000000006
  0
VERTEX
  5
6F
  8
DEFAULT
 10
-217.6250018317987
 20
-1368.112879117619
 30
265.0000000000006
  0
VERTEX
  5
70
  8
DEFAULT
 10
-217.6250018317987
 20
-1378.112879117559
 30
265.0000000000006
  0
VERTEX
  5
71
  8
DEFAULT
 10
-230.1330832205047
 20
-1378.112879117559
 30
265.0000000000006
 42
-0.4147621725960577
  0
VERTEX
  5
72
  8
DEFAULT
 10
-230.57844499192
 20
-1377.840151844832
 30
265.0000000000006
 42
1.375480780623086
  0
VERTEX
  5
73
  8
DEFAULT
 10
-231.3856063903457
 20
-1378.647313243257
 30
265.0000000000006
 42
-0.4147621725935336
  0
VERTEX
  5
74
  8
DEFAULT
 10
-231.1128791176179
 20
-1379.092675014672
 30
265.0000000000006
  0
VERTEX
  5
75
  8
DEFAULT
 10
-231.1128791176179
 20
-1387.612879117618
 30
265.0000000000006
  0
VERTEX
  5
76
  8
DEFAULT
 10
-320.1371245459795
 20
-1387.612879117618
 30
265.0000000000006
  0
VERTEX
  5
77
  8
DEFAULT
 10
-320.1371245459795
 20
-1379.092675014671
 30
265.0000000000006
 42
-0.4147621725947567
  0
VERTEX
  5
78
  8
DEFAULT
 10
-319.8643972732523
 20
-1378.647313243256
 30
265.0000000000006
 42
1.375480780622392
  0
VERTEX
  5
79
  8
DEFAULT
 10
-320.6715586716775
 20
-1377.840151844831
 30
265.0000000000006
 42
-0.4147621725904986
  0
SEQEND
  5
7A
  8
DEFAULT
  0
CIRCLE
  5
7B
  8
DEFAULT
 10
-282.1250018317984
 20
-1346.080621002362
 30
265.0000000000005
 40
0.2000000000002728
  0
CIRCLE
  5
7C
  8
DEFAULT
 10
398.1248689914761
 20
-1345.11287911762
 30
-265.0000000000005
 40
0.2500000000000568
210
0.0
220
0.0
230
-1.0
  0
POLYLINE
  5
7D
  8
DEFAULT
 66
     1
 10
0.0
 20
0.0
 30
265.0000000000006
 70
     1
  0
VERTEX
  5
7E
  8
DEFAULT
 10
-284.1169131158983
 20
-1353.112879117558
 30
265.0000000000006
  0
VERTEX
  5
7F
  8
DEFAULT
 10
-296.6330832205047
 20
-1353.112879117558
 30
265.0000000000006
 42
-0.4147621725943307
  0
VERTEX
  5
80
  8
DEFAULT
 10
-297.0784449919197
 20
-1352.840151844831
 30
265.0000000000006
 42
1.375480780625729
  0
VERTEX
  5
81
  8
DEFAULT
 10
-297.8856063903453
 20
-1353.647313243257
 30
265.0000000000006
 42
-0.4147621725937623
  0
VERTEX
  5
82
  8
DEFAULT
 10
-297.6128791176172
 20
-1354.092675014672
 30
265.0000000000006
  0
VERTEX
  5
83
  8
DEFAULT
 10
-297.6128791176179
 20
-1362.612879117618
 30
265.0000000000006
  0
VERTEX
  5
84
  8
DEFAULT
 10
-386.6371245459798
 20
-1362.612879117617
 30
265.0000000000006
  0
VERTEX
  5
85
  8
DEFAULT
 10
-386.6371245459795
 20
-1354.092675014671
 30
265.0000000000006
 42
-0.4147621725946842
  0
VERTEX
  5
86
  8
DEFAULT
 10
-386.3643972732523
 20
-1353.647313243255
 30
265.0000000000006
 42
1.375480780623206
  0
VERTEX
  5
87
  8
DEFAULT
 10
-387.1715586716774
 20
-1352.84015184483
 30
265.0000000000006
 42
-0.4147621725938423
  0
VERTEX
  5
88
  8
DEFAULT
 10
-387.6169204430926
 20
-1353.112879117557
 30
265.0000000000006
  0
VERTEX
  5
89
  8
DEFAULT
 10
-400.1250018317987
 20
-1353.112879117557
 30
265.0000000000006
  0
VERTEX
  5
8A
  8
DEFAULT
 10
-400.1250018317987
 20
-1343.112879117617
 30
265.0000000000006
  0
VERTEX
  5
8B
  8
DEFAULT
 10
-220.8750018317985
 20
-1343.112879117619
 30
265.0000000000006
  0
VERTEX
  5
8C
  8
DEFAULT
 10
-220.8750018317985
 20
-1347.45602357279
 30
265.0000000000006
 42
-0.5176378849119803
  0
VERTEX
  5
8D
  8
DEFAULT
 10
-223.5416672772662
 20
-1349.341642087713
 30
265.0000000000006
 42
1.414212590915835
  0
VERTEX
  5
8E
  8
DEFAULT
 10
-223.5416672772661
 20
-1356.884116147404
 30
265.0000000000006
 42
-0.5176378849118131
  0
VERTEX
  5
8F
  8
DEFAULT
 10
-220.8750018317988
 20
-1358.769734662327
 30
265.0000000000006
  0
VERTEX
  5
90
  8
DEFAULT
 10
-220.8750018317987
 20
-1362.612879117618
 30
265.0000000000006
  0
VERTEX
  5
91
  8
DEFAULT
 10
-283.1371172187855
 20
-1362.612879117618
 30
265.0000000000006
  0
VERTEX
  5
92
  8
DEFAULT
 10
-283.1371172187853
 20
-1354.092675014672
 30
265.0000000000006
 42
-0.4147621725945434
  0
VERTEX
  5
93
  8
DEFAULT
 10
-282.864389946058
 20
-1353.647313243256
 30
265.0000000000006
 42
1.375480780623061
  0
VERTEX
  5
94
  8
DEFAULT
 10
-283.671551344483
 20
-1352.840151844831
 30
265.0000000000006
 42
-0.4147621725942795
  0
SEQEND
  5
95
  8
DEFAULT
  0
ENDSEC
  0
EOF
