  0
SECTION
  2
HEADER
  9
$ACADVER
  1
AC1009
  9
$DWGCODEPAGE
  3
ansi_1252
  9
$INSBASE
 10
0.0
 20
0.0
 30
0.0
  9
$EXTMIN
 10
19.55280596664897
 20
222.6694092836136
 30
197.3789672851562
  9
$EXTMAX
 10
34.80150992325297
 20
253.2676529969926
 30
197.3789672851562
  9
$LIMMIN
 10
0.0
 20
0.0
  9
$LIMMAX
 10
12.0
 20
9.0
  9
$ORTHOMODE
 70
     0
  9
$REGENMODE
 70
     1
  9
$FILLMODE
 70
     1
  9
$QTEXTMODE
 70
     0
  9
$MIRRTEXT
 70
     1
  9
$DRAGMODE
 70
     2
  9
$LTSCALE
 40
1.0
  9
$OSMODE
 70
    37
  9
$ATTMODE
 70
     1
  9
$TEXTSIZE
 40
0.2
  9
$TRACEWID
 40
0.05
  9
$TEXTSTYLE
  7
STANDARD
  9
$CLAYER
  8
DEFAULT
  9
$CELTYPE
  6
BYLAYER
  9
$CECOLOR
 62
   256
  9
$DIMSCALE
 40
1.0
  9
$DIMASZ
 40
0.18
  9
$DIMEXO
 40
0.0625
  9
$DIMDLI
 40
0.38
  9
$DIMRND
 40
0.0
  9
$DIMDLE
 40
0.0
  9
$DIMEXE
 40
0.18
  9
$DIMTP
 40
0.0
  9
$DIMTM
 40
0.0
  9
$DIMTXT
 40
0.18
  9
$DIMCEN
 40
0.09
  9
$DIMTSZ
 40
0.0
  9
$DIMTOL
 70
     0
  9
$DIMLIM
 70
     0
  9
$DIMTIH
 70
     1
  9
$DIMTOH
 70
     1
  9
$DIMSE1
 70
     0
  9
$DIMSE2
 70
     0
  9
$DIMTAD
 70
     0
  9
$DIMZIN
 70
     0
  9
$DIMBLK
  1

  9
$DIMASO
 70
     1
  9
$DIMSHO
 70
     1
  9
$DIMPOST
  1

  9
$DIMAPOST
  1

  9
$DIMALT
 70
     0
  9
$DIMALTD
 70
     2
  9
$DIMALTF
 40
25.4
  9
$DIMLFAC
 40
1.0
  9
$DIMTOFL
 70
     0
  9
$DIMTVP
 40
0.0
  9
$DIMTIX
 70
     0
  9
$DIMSOXD
 70
     0
  9
$DIMSAH
 70
     0
  9
$DIMBLK1
  1

  9
$DIMBLK2
  1

  9
$DIMSTYLE
  2
STANDARD_ACAD
  9
$DIMCLRD
 70
     0
  9
$DIMCLRE
 70
     0
  9
$DIMCLRT
 70
     0
  9
$DIMTFAC
 40
1.0
  9
$DIMGAP
 40
0.09
  9
$LUNITS
 70
     2
  9
$LUPREC
 70
     3
  9
$SKETCHINC
 40
0.1
  9
$FILLETRAD
 40
0.0
  9
$AUNITS
 70
     0
  9
$AUPREC
 70
     0
  9
$MENU
  1
.
  9
$ELEVATION
 40
0.0
  9
$PELEVATION
 40
0.0
  9
$THICKNESS
 40
0.0
  9
$LIMCHECK
 70
     0
  9
$CHAMFERA
 40
0.0
  9
$CHAMFERB
 40
0.0
  9
$SKPOLY
 70
     0
  9
$TDCREATE
 40
2460714.596747384
  9
$TDUPDATE
 40
2460714.596757164
  9
$TDINDWG
 40
0.0000000116
  9
$TDUSRTIMER
 40
0.0000000116
  9
$USRTIMER
 70
     1
  9
$ANGBASE
 50
0.0
  9
$ANGDIR
 70
     0
  9
$PDMODE
 70
     0
  9
$PDSIZE
 40
0.0
  9
$PLINEWID
 40
0.0
  9
$COORDS
 70
     1
  9
$SPLFRAME
 70
     0
  9
$SPLINETYPE
 70
     6
  9
$SPLINESEGS
 70
     8
  9
$ATTDIA
 70
     0
  9
$ATTREQ
 70
     1
  9
$HANDLING
 70
     1
  9
$HANDSEED
  5
2A7
  9
$SURFTAB1
 70
     6
  9
$SURFTAB2
 70
     6
  9
$SURFTYPE
 70
     6
  9
$SURFU
 70
     6
  9
$SURFV
 70
     6
  9
$UCSNAME
  2

  9
$UCSORG
 10
0.0
 20
0.0
 30
0.0
  9
$UCSXDIR
 10
1.0
 20
0.0
 30
0.0
  9
$UCSYDIR
 10
0.0
 20
1.0
 30
0.0
  9
$PUCSNAME
  2

  9
$PUCSORG
 10
0.0
 20
0.0
 30
0.0
  9
$PUCSXDIR
 10
1.0
 20
0.0
 30
0.0
  9
$PUCSYDIR
 10
0.0
 20
1.0
 30
0.0
  9
$USERI1
 70
     0
  9
$USERI2
 70
     0
  9
$USERI3
 70
     0
  9
$USERI4
 70
     0
  9
$USERI5
 70
     0
  9
$USERR1
 40
0.0
  9
$USERR2
 40
0.0
  9
$USERR3
 40
0.0
  9
$USERR4
 40
0.0
  9
$USERR5
 40
0.0
  9
$WORLDVIEW
 70
     1
  9
$SHADEDGE
 70
     3
  9
$SHADEDIF
 70
    70
  9
$TILEMODE
 70
     1
  9
$MAXACTVP
 70
    64
  9
$PLIMCHECK
 70
     0
  9
$PEXTMIN
 10
1.000000000000000E+20
 20
1.000000000000000E+20
 30
1.000000000000000E+20
  9
$PEXTMAX
 10
-1.000000000000000E+20
 20
-1.000000000000000E+20
 30
-1.000000000000000E+20
  9
$PLIMMIN
 10
0.0
 20
0.0
  9
$PLIMMAX
 10
12.0
 20
9.0
  9
$UNITMODE
 70
     0
  9
$VISRETAIN
 70
     1
  9
$PLINEGEN
 70
     0
  9
$PSLTSCALE
 70
     1
  0
ENDSEC
  0
SECTION
  2
TABLES
  0
TABLE
  2
VPORT
 70
     1
  0
VPORT
  2
*ACTIVE
 70
     0
 10
0.0
 20
0.0
 11
1.0
 21
1.0
 12
10.42990654205607
 22
4.5
 13
0.0
 23
0.0
 14
0.5
 24
0.5
 15
0.5
 25
0.5
 16
0.0
 26
0.0
 36
1.0
 17
0.0
 27
0.0
 37
0.0
 40
9.0
 41
1.972972972850329
 42
50.0
 43
0.0
 44
0.0
 50
0.0
 51
0.0
 71
     0
 72
   100
 73
     1
 74
     3
 75
     0
 76
     0
 77
     0
 78
     0
  0
ENDTAB
  0
TABLE
  2
LTYPE
 70
     1
  0
LTYPE
  2
CONTINUOUS
 70
     0
  3
Solid line
 72
    65
 73
     0
 40
0.0
  0
ENDTAB
  0
TABLE
  2
LAYER
 70
     2
  0
LAYER
  2
0
 70
     0
 62
     7
  6
CONTINUOUS
  0
LAYER
  2
DEFAULT
 70
     0
 62
     7
  6
CONTINUOUS
  0
ENDTAB
  0
TABLE
  2
STYLE
 70
     1
  0
STYLE
  2
STANDARD
 70
     0
 40
0.0
 41
1.0
 50
0.0
 71
     0
 42
0.2
  3
txt
  4

  0
ENDTAB
  0
TABLE
  2
VIEW
 70
     0
  0
ENDTAB
  0
TABLE
  2
UCS
 70
     0
  0
ENDTAB
  0
TABLE
  2
APPID
 70
     2
  0
APPID
  2
ACAD
 70
     0
  0
APPID
  2
RHINO
 70
     0
  0
ENDTAB
  0
TABLE
  2
DIMSTYLE
 70
     1
  0
DIMSTYLE
  2
STANDARD_ACAD
 70
     0
  3

  4

  5

  6

  7

 40
1.0
 41
0.18
 42
0.0625
 43
0.38
 44
0.18
 45
0.0
 46
0.0
 47
0.0
 48
0.0
140
0.18
141
0.09
142
0.0
143
25.4
144
1.0
145
0.0
146
1.0
147
0.09
 71
     0
 72
     0
 73
     1
 74
     1
 75
     0
 76
     0
 77
     0
 78
     0
170
     0
171
     2
172
     0
173
     0
174
     0
175
     0
176
     0
177
     0
178
     0
  0
ENDTAB
  0
ENDSEC
  0
SECTION
  2
BLOCKS
  0
BLOCK
  8
0
  2
$MODEL_SPACE
 70
     0
 10
0.0
 20
0.0
 30
0.0
  3
$MODEL_SPACE
  1

  0
ENDBLK
  5
21
  8
0
  0
BLOCK
 67
     1
  8
0
  2
$PAPER_SPACE
 70
     0
 10
0.0
 20
0.0
 30
0.0
  3
$PAPER_SPACE
  1

  0
ENDBLK
  5
1D
 67
     1
  8
0
  0
ENDSEC
  0
SECTION
  2
ENTITIES
  0
POLYLINE
  5
60
  8
DEFAULT
 66
     1
 10
0.0
 20
0.0
 30
197.3789672851562
 70
     1
  0
VERTEX
  5
61
  8
DEFAULT
 10
31.02656251839152
 20
239.0631089296097
 30
197.3789672851562
  0
VERTEX
  5
62
  8
DEFAULT
 10
31.15216333321086
 20
239.0687546815629
 30
197.3789672851562
  0
VERTEX
  5
63
  8
DEFAULT
 10
31.27776367119304
 20
239.0631089296097
 30
197.3789672851562
  0
VERTEX
  5
64
  8
DEFAULT
 10
31.39930660179606
 20
239.0464158143754
 30
197.3789672851562
  0
VERTEX
  5
65
  8
DEFAULT
 10
31.40651542595378
 20
239.0454239930863
 30
197.3789672851562
  0
VERTEX
  5
66
  8
DEFAULT
 10
31.5367859070634
 20
239.0147996034379
 30
197.3789672851562
  0
VERTEX
  5
67
  8
DEFAULT
 10
31.6666949456071
 20
238.9706101503129
 30
197.3789672851562
  0
VERTEX
  5
68
  8
DEFAULT
 10
31.79417592934123
 20
238.9125962342972
 30
197.3789672851562
  0
VERTEX
  5
69
  8
DEFAULT
 10
31.91706592491618
 20
238.8409104432816
 30
197.3789672851562
  0
VERTEX
  5
6A
  8
DEFAULT
 10
32.03320915153972
 20
238.7561326112504
 30
197.3789672851562
  0
VERTEX
  5
6B
  8
DEFAULT
 10
32.14057404449931
 20
238.6593461122269
 30
197.3789672851562
  0
VERTEX
  5
6C
  8
DEFAULT
 10
32.23736817291728
 20
238.5519852723832
 30
197.3789672851562
  0
VERTEX
  5
6D
  8
DEFAULT
 10
32.32213551453105
 20
238.4358353700394
 30
197.3789672851562
  0
VERTEX
  5
6E
  8
DEFAULT
 10
32.39382750442973
 20
238.3129410829301
 30
197.3789672851562
  0
VERTEX
  5
6F
  8
DEFAULT
 10
32.45184332779399
 20
238.1854691591019
 30
197.3789672851562
  0
VERTEX
  5
70
  8
DEFAULT
 10
32.49602944305888
 20
238.0555558290238
 30
197.3789672851562
  0
VERTEX
  5
71
  8
DEFAULT
 10
32.52665097168437
 20
237.9252915467972
 30
197.3789672851562
  0
VERTEX
  5
72
  8
DEFAULT
 10
32.5443325703477
 20
237.7965378846879
 30
197.3789672851562
  0
VERTEX
  5
73
  8
DEFAULT
 10
32.54998690536967
 20
237.6709275331254
 30
197.3789672851562
  0
VERTEX
  5
74
  8
DEFAULT
 10
32.5443325703477
 20
237.5453324403519
 30
197.3789672851562
  0
VERTEX
  5
75
  8
DEFAULT
 10
32.52665097168437
 20
237.4165787782426
 30
197.3789672851562
  0
VERTEX
  5
76
  8
DEFAULT
 10
32.49602944305888
 20
237.286314496016
 30
197.3789672851562
  0
VERTEX
  5
77
  8
DEFAULT
 10
32.45184332779399
 20
237.1564011659379
 30
197.3789672851562
  0
VERTEX
  5
78
  8
DEFAULT
 10
32.39382750442973
 20
237.0289292421097
 30
197.3789672851562
  0
VERTEX
  5
79
  8
DEFAULT
 10
32.32213551453105
 20
236.9060349550004
 30
197.3789672851562
  0
VERTEX
  5
7A
  8
DEFAULT
 10
32.23736817291728
 20
236.7898850526566
 30
197.3789672851562
  0
VERTEX
  5
7B
  8
DEFAULT
 10
32.14057404449931
 20
236.6825242128129
 30
197.3789672851562
  0
VERTEX
  5
7C
  8
DEFAULT
 10
32.03320915153972
 20
236.5857224550004
 30
197.3789672851562
  0
VERTEX
  5
7D
  8
DEFAULT
 10
31.91706592491618
 20
236.5009598817582
 30
197.3789672851562
  0
VERTEX
  5
7E
  8
DEFAULT
 10
31.91624409607402
 20
236.5004792299027
 30
197.3789672851562
  0
VERTEX
  5
7F
  8
DEFAULT
 10
31.79417592934123
 20
236.4292740907426
 30
197.3789672851562
  0
VERTEX
  5
80
  8
DEFAULT
 10
31.6666949456071
 20
236.3712601747269
 30
197.3789672851562
  0
VERTEX
  5
81
  8
DEFAULT
 10
31.5367859070634
 20
236.3270707216019
 30
197.3789672851562
  0
VERTEX
  5
82
  8
DEFAULT
 10
31.40651542595378
 20
236.2964463319535
 30
197.3789672851562
  0
VERTEX
  5
83
  8
DEFAULT
 10
31.27776367119304
 20
236.2787613954301
 30
197.3789672851562
  0
VERTEX
  5
84
  8
DEFAULT
 10
31.21925384453288
 20
236.2761292543168
 30
197.3789672851562
  0
VERTEX
  5
85
  8
DEFAULT
 10
31.15216333321086
 20
236.2731156434769
 30
197.3789672851562
  0
VERTEX
  5
86
  8
DEFAULT
 10
31.02656251839152
 20
236.2787613954301
 30
197.3789672851562
  0
VERTEX
  5
87
  8
DEFAULT
 10
30.89781076363078
 20
236.2964463319535
 30
197.3789672851562
  0
VERTEX
  5
88
  8
DEFAULT
 10
30.76754028252116
 20
236.3270707216019
 30
197.3789672851562
  0
VERTEX
  5
89
  8
DEFAULT
 10
30.63763172081462
 20
236.3712601747269
 30
197.3789672851562
  0
VERTEX
  5
8A
  8
DEFAULT
 10
30.51015026024333
 20
236.4292740907426
 30
197.3789672851562
  0
VERTEX
  5
8B
  8
DEFAULT
 10
30.41814572266093
 20
236.4829392518754
 30
197.3789672851562
  0
VERTEX
  5
8C
  8
DEFAULT
 10
30.41377789429179
 20
236.4854874696488
 30
197.3789672851562
  0
VERTEX
  5
8D
  8
DEFAULT
 10
30.40996200493327
 20
236.4877152528519
 30
197.3789672851562
  0
VERTEX
  5
8E
  8
DEFAULT
 10
30.38726026466838
 20
236.5009598817582
 30
197.3789672851562
  0
VERTEX
  5
8F
  8
DEFAULT
 10
30.271117514882
 20
236.5857224550004
 30
197.3789672851562
  0
VERTEX
  5
90
  8
DEFAULT
 10
30.16375238350383
 20
236.6825242128129
 30
197.3789672851562
  0
VERTEX
  5
91
  8
DEFAULT
 10
30.06695825508586
 20
236.7898850526566
 30
197.3789672851562
  0
VERTEX
  5
92
  8
DEFAULT
 10
29.98219091347209
 20
236.9060349550004
 30
197.3789672851562
  0
VERTEX
  5
93
  8
DEFAULT
 10
29.91049844673625
 20
237.0289292421097
 30
197.3789672851562
  0
VERTEX
  5
94
  8
DEFAULT
 10
29.85248310020915
 20
237.1564011659379
 30
197.3789672851562
  0
VERTEX
  5
95
  8
DEFAULT
 10
29.80829698494426
 20
237.286314496016
 30
197.3789672851562
  0
VERTEX
  5
96
  8
DEFAULT
 10
29.77767545631877
 20
237.4165787782426
 30
197.3789672851562
  0
VERTEX
  5
97
  8
DEFAULT
 10
29.75999385765544
 20
237.5453324403519
 30
197.3789672851562
  0
VERTEX
  5
98
  8
DEFAULT
 10
29.75433952263347
 20
237.6709275331254
 30
197.3789672851562
  0
VERTEX
  5
99
  8
DEFAULT
 10
29.75999385765544
 20
237.7965378846879
 30
197.3789672851562
  0
VERTEX
  5
9A
  8
DEFAULT
 10
29.77767545631877
 20
237.9252915467972
 30
197.3789672851562
  0
VERTEX
  5
9B
  8
DEFAULT
 10
29.80829698494426
 20
238.0555558290238
 30
197.3789672851562
  0
VERTEX
  5
9C
  8
DEFAULT
 10
29.85248310020915
 20
238.1854691591019
 30
197.3789672851562
  0
VERTEX
  5
9D
  8
DEFAULT
 10
29.85589129379741
 20
238.1929535951371
 30
197.3789672851562
  0
VERTEX
  5
9E
  8
DEFAULT
 10
29.85748714855662
 20
238.1964631166215
 30
197.3789672851562
  0
VERTEX
  5
9F
  8
DEFAULT
 10
29.86017448357097
 20
238.2023682679886
 30
197.3789672851562
  0
VERTEX
  5
A0
  8
DEFAULT
 10
29.91049844673625
 20
238.3129410829301
 30
197.3789672851562
  0
VERTEX
  5
A1
  8
DEFAULT
 10
29.98219091347209
 20
238.4358353700394
 30
197.3789672851562
  0
VERTEX
  5
A2
  8
DEFAULT
 10
30.06695825508586
 20
238.5519852723832
 30
197.3789672851562
  0
VERTEX
  5
A3
  8
DEFAULT
 10
30.16375238350383
 20
238.6593461122269
 30
197.3789672851562
  0
VERTEX
  5
A4
  8
DEFAULT
 10
30.271117514882
 20
238.7561326112504
 30
197.3789672851562
  0
VERTEX
  5
A5
  8
DEFAULT
 10
30.28840667656413
 20
238.7687516298051
 30
197.3789672851562
  0
VERTEX
  5
A6
  8
DEFAULT
 10
30.38726026466838
 20
238.8409104432816
 30
197.3789672851562
  0
VERTEX
  5
A7
  8
DEFAULT
 10
30.51015026024333
 20
238.9125962342972
 30
197.3789672851562
  0
VERTEX
  5
A8
  8
DEFAULT
 10
30.63763172081462
 20
238.9706101503129
 30
197.3789672851562
  0
VERTEX
  5
A9
  8
DEFAULT
 10
30.76754028252116
 20
239.0147996034379
 30
197.3789672851562
  0
VERTEX
  5
AA
  8
DEFAULT
 10
30.89781076363078
 20
239.0454239930863
 30
197.3789672851562
  0
SEQEND
  5
AB
  8
DEFAULT
  0
POLYLINE
  5
AC
  8
DEFAULT
 66
     1
 10
0.0
 20
0.0
 30
197.3789672851562
 70
     1
  0
VERTEX
  5
AD
  8
DEFAULT
 10
22.81231553009501
 20
230.7438492860551
 30
197.3789672851562
  0
VERTEX
  5
AE
  8
DEFAULT
 10
22.93791634491435
 20
230.7495102967972
 30
197.3789672851562
  0
VERTEX
  5
AF
  8
DEFAULT
 10
23.06351668289653
 20
230.7438492860551
 30
197.3789672851562
  0
VERTEX
  5
B0
  8
DEFAULT
 10
23.19226843765727
 20
230.7261643495316
 30
197.3789672851562
  0
VERTEX
  5
B1
  8
DEFAULT
 10
23.32253891876689
 20
230.6955552186722
 30
197.3789672851562
  0
VERTEX
  5
B2
  8
DEFAULT
 10
23.45244795731059
 20
230.6513657655472
 30
197.3789672851562
  0
VERTEX
  5
B3
  8
DEFAULT
 10
23.57992894104472
 20
230.5933518495316
 30
197.3789672851562
  0
VERTEX
  5
B4
  8
DEFAULT
 10
23.70281893661967
 20
230.5216507997269
 30
197.3789672851562
  0
VERTEX
  5
B5
  8
DEFAULT
 10
23.81896216324321
 20
230.4368882264847
 30
197.3789672851562
  0
VERTEX
  5
B6
  8
DEFAULT
 10
23.92632681778422
 20
230.3400864686722
 30
197.3789672851562
  0
VERTEX
  5
B7
  8
DEFAULT
 10
24.02312094620219
 20
230.2327256288285
 30
197.3789672851562
  0
VERTEX
  5
B8
  8
DEFAULT
 10
24.10788828781596
 20
230.1165909852738
 30
197.3789672851562
  0
VERTEX
  5
B9
  8
DEFAULT
 10
24.1795807545518
 20
229.9936966981644
 30
197.3789672851562
  0
VERTEX
  5
BA
  8
DEFAULT
 10
24.23759657791606
 20
229.8662095155472
 30
197.3789672851562
  0
VERTEX
  5
BB
  8
DEFAULT
 10
24.28178269318095
 20
229.7363114442582
 30
197.3789672851562
  0
VERTEX
  5
BC
  8
DEFAULT
 10
24.31240398338786
 20
229.6060319032426
 30
197.3789672851562
  0
VERTEX
  5
BD
  8
DEFAULT
 10
24.33008582046977
 20
229.4772782411332
 30
197.3789672851562
  0
VERTEX
  5
BE
  8
DEFAULT
 10
24.33574015549174
 20
229.3516831483597
 30
197.3789672851562
  0
VERTEX
  5
BF
  8
DEFAULT
 10
24.33008582046977
 20
229.2260880555863
 30
197.3789672851562
  0
VERTEX
  5
C0
  8
DEFAULT
 10
24.31240398338786
 20
229.0973343934769
 30
197.3789672851562
  0
VERTEX
  5
C1
  8
DEFAULT
 10
24.28178269318095
 20
228.9670548524613
 30
197.3789672851562
  0
VERTEX
  5
C2
  8
DEFAULT
 10
24.23759657791606
 20
228.8371567811722
 30
197.3789672851562
  0
VERTEX
  5
C3
  8
DEFAULT
 10
24.1795807545518
 20
228.7096695985551
 30
197.3789672851562
  0
VERTEX
  5
C4
  8
DEFAULT
 10
24.10788828781596
 20
228.5867753114457
 30
197.3789672851562
  0
VERTEX
  5
C5
  8
DEFAULT
 10
24.02312094620219
 20
228.470640667891
 30
197.3789672851562
  0
VERTEX
  5
C6
  8
DEFAULT
 10
23.92632681778422
 20
228.3632645692582
 30
197.3789672851562
  0
VERTEX
  5
C7
  8
DEFAULT
 10
23.81896216324321
 20
228.2664780702347
 30
197.3789672851562
  0
VERTEX
  5
C8
  8
DEFAULT
 10
23.70281893661967
 20
228.1817154969926
 30
197.3789672851562
  0
VERTEX
  5
C9
  8
DEFAULT
 10
23.57992894104472
 20
228.1100144471879
 30
197.3789672851562
  0
VERTEX
  5
CA
  8
DEFAULT
 10
23.45244795731059
 20
228.0520005311722
 30
197.3789672851562
  0
VERTEX
  5
CB
  8
DEFAULT
 10
23.32253891876689
 20
228.0078110780472
 30
197.3789672851562
  0
VERTEX
  5
CC
  8
DEFAULT
 10
23.19226843765727
 20
227.9772019471879
 30
197.3789672851562
  0
VERTEX
  5
CD
  8
DEFAULT
 10
23.06351668289653
 20
227.9595170106644
 30
197.3789672851562
  0
VERTEX
  5
CE
  8
DEFAULT
 10
22.93791634491435
 20
227.9538559999222
 30
197.3789672851562
  0
VERTEX
  5
CF
  8
DEFAULT
 10
22.81231553009501
 20
227.9595170106644
 30
197.3789672851562
  0
VERTEX
  5
D0
  8
DEFAULT
 10
22.68356377533427
 20
227.9772019471879
 30
197.3789672851562
  0
VERTEX
  5
D1
  8
DEFAULT
 10
22.55329329422465
 20
228.0078110780472
 30
197.3789672851562
  0
VERTEX
  5
D2
  8
DEFAULT
 10
22.42338473251811
 20
228.0520005311722
 30
197.3789672851562
  0
VERTEX
  5
D3
  8
DEFAULT
 10
22.29590327194682
 20
228.1100144471879
 30
197.3789672851562
  0
VERTEX
  5
D4
  8
DEFAULT
 10
22.17301327637187
 20
228.1817154969926
 30
197.3789672851562
  0
VERTEX
  5
D5
  8
DEFAULT
 10
22.05687052658549
 20
228.2664780702347
 30
197.3789672851562
  0
VERTEX
  5
D6
  8
DEFAULT
 10
21.94950539520732
 20
228.3632645692582
 30
197.3789672851562
  0
VERTEX
  5
D7
  8
DEFAULT
 10
21.85271126678935
 20
228.470640667891
 30
197.3789672851562
  0
VERTEX
  5
D8
  8
DEFAULT
 10
21.76794392517558
 20
228.5867753114457
 30
197.3789672851562
  0
VERTEX
  5
D9
  8
DEFAULT
 10
21.69625145843974
 20
228.7096695985551
 30
197.3789672851562
  0
VERTEX
  5
DA
  8
DEFAULT
 10
21.63823611191264
 20
228.8371567811722
 30
197.3789672851562
  0
VERTEX
  5
DB
  8
DEFAULT
 10
21.59404999664775
 20
228.9670548524613
 30
197.3789672851562
  0
VERTEX
  5
DC
  8
DEFAULT
 10
21.56342846802226
 20
229.0973343934769
 30
197.3789672851562
  0
VERTEX
  5
DD
  8
DEFAULT
 10
21.54574686935893
 20
229.2260880555863
 30
197.3789672851562
  0
VERTEX
  5
DE
  8
DEFAULT
 10
21.54009253433696
 20
229.3516831483597
 30
197.3789672851562
  0
VERTEX
  5
DF
  8
DEFAULT
 10
21.54574686935893
 20
229.4772782411332
 30
197.3789672851562
  0
VERTEX
  5
E0
  8
DEFAULT
 10
21.56342846802226
 20
229.6060319032426
 30
197.3789672851562
  0
VERTEX
  5
E1
  8
DEFAULT
 10
21.59404999664775
 20
229.7363114442582
 30
197.3789672851562
  0
VERTEX
  5
E2
  8
DEFAULT
 10
21.63823611191264
 20
229.8662095155472
 30
197.3789672851562
  0
VERTEX
  5
E3
  8
DEFAULT
 10
21.69625145843974
 20
229.9936966981644
 30
197.3789672851562
  0
VERTEX
  5
E4
  8
DEFAULT
 10
21.76794392517558
 20
230.1165909852738
 30
197.3789672851562
  0
VERTEX
  5
E5
  8
DEFAULT
 10
21.85271126678935
 20
230.2327256288285
 30
197.3789672851562
  0
VERTEX
  5
E6
  8
DEFAULT
 10
21.94950539520732
 20
230.3400864686722
 30
197.3789672851562
  0
VERTEX
  5
E7
  8
DEFAULT
 10
22.05687052658549
 20
230.4368882264847
 30
197.3789672851562
  0
VERTEX
  5
E8
  8
DEFAULT
 10
22.17301327637187
 20
230.5216507997269
 30
197.3789672851562
  0
VERTEX
  5
E9
  8
DEFAULT
 10
22.29590327194682
 20
230.5933518495316
 30
197.3789672851562
  0
VERTEX
  5
EA
  8
DEFAULT
 10
22.42338473251811
 20
230.6513657655472
 30
197.3789672851562
  0
VERTEX
  5
EB
  8
DEFAULT
 10
22.55329329422465
 20
230.6955552186722
 30
197.3789672851562
  0
VERTEX
  5
EC
  8
DEFAULT
 10
22.68356377533427
 20
230.7261643495316
 30
197.3789672851562
  0
SEQEND
  5
ED
  8
DEFAULT
  0
POLYLINE
  5
EE
  8
DEFAULT
 66
     1
 10
0.0
 20
0.0
 30
197.3789672851562
 70
     1
  0
VERTEX
  5
EF
  8
DEFAULT
 10
23.17399889877787
 20
249.0530686464066
 30
197.3789672851562
  0
VERTEX
  5
F0
  8
DEFAULT
 10
23.29959971359721
 20
249.0587296571488
 30
197.3789672851562
  0
VERTEX
  5
F1
  8
DEFAULT
 10
23.42520005157939
 20
249.0530686464066
 30
197.3789672851562
  0
VERTEX
  5
F2
  8
DEFAULT
 10
23.55395180634013
 20
249.0353837098832
 30
197.3789672851562
  0
VERTEX
  5
F3
  8
DEFAULT
 10
23.68422228744975
 20
249.0047745790238
 30
197.3789672851562
  0
VERTEX
  5
F4
  8
DEFAULT
 10
23.81413132599345
 20
248.9605851258988
 30
197.3789672851562
  0
VERTEX
  5
F5
  8
DEFAULT
 10
23.94161230972758
 20
248.9025712098832
 30
197.3789672851562
  0
VERTEX
  5
F6
  8
DEFAULT
 10
24.06450230530253
 20
248.8308701600785
 30
197.3789672851562
  0
VERTEX
  5
F7
  8
DEFAULT
 10
24.18064553192607
 20
248.7461075868363
 30
197.3789672851562
  0
VERTEX
  5
F8
  8
DEFAULT
 10
24.28801042488566
 20
248.6493058290238
 30
197.3789672851562
  0
VERTEX
  5
F9
  8
DEFAULT
 10
24.30847627571574
 20
248.6266160096879
 30
197.3789672851562
  0
VERTEX
  5
FA
  8
DEFAULT
 10
24.38480455330363
 20
248.5419449891801
 30
197.3789672851562
  0
VERTEX
  5
FB
  8
DEFAULT
 10
24.4695718949174
 20
248.4258103456254
 30
197.3789672851562
  0
VERTEX
  5
FC
  8
DEFAULT
 10
24.54126412323466
 20
248.302916058516
 30
197.3789672851562
  0
VERTEX
  5
FD
  8
DEFAULT
 10
24.59927994659892
 20
248.1754288758988
 30
197.3789672851562
  0
VERTEX
  5
FE
  8
DEFAULT
 10
24.64346606186381
 20
248.0455308046097
 30
197.3789672851562
  0
VERTEX
  5
FF
  8
DEFAULT
 10
24.67408735207072
 20
247.9152512635941
 30
197.3789672851562
  0
VERTEX
  5
100
  8
DEFAULT
 10
24.69176918915263
 20
247.7864976014847
 30
197.3789672851562
  0
VERTEX
  5
101
  8
DEFAULT
 10
24.6974235241746
 20
247.6609025087113
 30
197.3789672851562
  0
VERTEX
  5
102
  8
DEFAULT
 10
24.6966534321641
 20
247.6437974061722
 30
197.3789672851562
  0
VERTEX
  5
103
  8
DEFAULT
 10
24.69176918915263
 20
247.5353074159379
 30
197.3789672851562
  0
VERTEX
  5
104
  8
DEFAULT
 10
24.67408735207072
 20
247.4065537538285
 30
197.3789672851562
  0
VERTEX
  5
105
  8
DEFAULT
 10
24.64346606186381
 20
247.2762742128129
 30
197.3789672851562
  0
VERTEX
  5
106
  8
DEFAULT
 10
24.59927994659892
 20
247.1463761415238
 30
197.3789672851562
  0
VERTEX
  5
107
  8
DEFAULT
 10
24.54126412323466
 20
247.0188889589066
 30
197.3789672851562
  0
VERTEX
  5
108
  8
DEFAULT
 10
24.4695718949174
 20
246.8959946717972
 30
197.3789672851562
  0
VERTEX
  5
109
  8
DEFAULT
 10
24.38480455330363
 20
246.7798600282426
 30
197.3789672851562
  0
VERTEX
  5
10A
  8
DEFAULT
 10
24.28801042488566
 20
246.6724839296097
 30
197.3789672851562
  0
VERTEX
  5
10B
  8
DEFAULT
 10
24.18064553192607
 20
246.5756974305863
 30
197.3789672851562
  0
VERTEX
  5
10C
  8
DEFAULT
 10
24.06450230530253
 20
246.4909348573441
 30
197.3789672851562
  0
VERTEX
  5
10D
  8
DEFAULT
 10
23.94161230972758
 20
246.4192338075394
 30
197.3789672851562
  0
VERTEX
  5
10E
  8
DEFAULT
 10
23.81413132599345
 20
246.3612198915238
 30
197.3789672851562
  0
VERTEX
  5
10F
  8
DEFAULT
 10
23.68422228744975
 20
246.3170304383988
 30
197.3789672851562
  0
VERTEX
  5
110
  8
DEFAULT
 10
23.55395180634013
 20
246.2864213075394
 30
197.3789672851562
  0
VERTEX
  5
111
  8
DEFAULT
 10
23.42520005157939
 20
246.268736371016
 30
197.3789672851562
  0
VERTEX
  5
112
  8
DEFAULT
 10
23.29959971359721
 20
246.2630753602738
 30
197.3789672851562
  0
VERTEX
  5
113
  8
DEFAULT
 10
23.17399889877787
 20
246.268736371016
 30
197.3789672851562
  0
VERTEX
  5
114
  8
DEFAULT
 10
23.04524714401713
 20
246.2864213075394
 30
197.3789672851562
  0
VERTEX
  5
115
  8
DEFAULT
 10
22.91497666290751
 20
246.3170304383988
 30
197.3789672851562
  0
VERTEX
  5
116
  8
DEFAULT
 10
22.78506810120097
 20
246.3612198915238
 30
197.3789672851562
  0
VERTEX
  5
117
  8
DEFAULT
 10
22.65758664062968
 20
246.4192338075394
 30
197.3789672851562
  0
VERTEX
  5
118
  8
DEFAULT
 10
22.53469664505473
 20
246.4909348573441
 30
197.3789672851562
  0
VERTEX
  5
119
  8
DEFAULT
 10
22.41855389526835
 20
246.5756974305863
 30
197.3789672851562
  0
VERTEX
  5
11A
  8
DEFAULT
 10
22.31118876389018
 20
246.6724839296097
 30
197.3789672851562
  0
VERTEX
  5
11B
  8
DEFAULT
 10
22.21439463547221
 20
246.7798600282426
 30
197.3789672851562
  0
VERTEX
  5
11C
  8
DEFAULT
 10
22.12962729385844
 20
246.8959946717972
 30
197.3789672851562
  0
VERTEX
  5
11D
  8
DEFAULT
 10
22.0579348271226
 20
247.0188889589066
 30
197.3789672851562
  0
VERTEX
  5
11E
  8
DEFAULT
 10
21.9999194805955
 20
247.1463761415238
 30
197.3789672851562
  0
VERTEX
  5
11F
  8
DEFAULT
 10
21.95573336533061
 20
247.2762742128129
 30
197.3789672851562
  0
VERTEX
  5
120
  8
DEFAULT
 10
21.92511183670512
 20
247.4065537538285
 30
197.3789672851562
  0
VERTEX
  5
121
  8
DEFAULT
 10
21.90743023804179
 20
247.5353074159379
 30
197.3789672851562
  0
VERTEX
  5
122
  8
DEFAULT
 10
21.90177590301982
 20
247.6609025087113
 30
197.3789672851562
  0
VERTEX
  5
123
  8
DEFAULT
 10
21.90743023804179
 20
247.7864976014847
 30
197.3789672851562
  0
VERTEX
  5
124
  8
DEFAULT
 10
21.92511183670512
 20
247.9152512635941
 30
197.3789672851562
  0
VERTEX
  5
125
  8
DEFAULT
 10
21.95573336533061
 20
248.0455308046097
 30
197.3789672851562
  0
VERTEX
  5
126
  8
DEFAULT
 10
21.9999194805955
 20
248.1754288758988
 30
197.3789672851562
  0
VERTEX
  5
127
  8
DEFAULT
 10
22.0579348271226
 20
248.302916058516
 30
197.3789672851562
  0
VERTEX
  5
128
  8
DEFAULT
 10
22.12962729385844
 20
248.4258103456254
 30
197.3789672851562
  0
VERTEX
  5
129
  8
DEFAULT
 10
22.21439463547221
 20
248.5419449891801
 30
197.3789672851562
  0
VERTEX
  5
12A
  8
DEFAULT
 10
22.31118876389018
 20
248.6493058290238
 30
197.3789672851562
  0
VERTEX
  5
12B
  8
DEFAULT
 10
22.41855389526835
 20
248.7461075868363
 30
197.3789672851562
  0
VERTEX
  5
12C
  8
DEFAULT
 10
22.53469664505473
 20
248.8308701600785
 30
197.3789672851562
  0
VERTEX
  5
12D
  8
DEFAULT
 10
22.65758664062968
 20
248.9025712098832
 30
197.3789672851562
  0
VERTEX
  5
12E
  8
DEFAULT
 10
22.78506810120097
 20
248.9605851258988
 30
197.3789672851562
  0
VERTEX
  5
12F
  8
DEFAULT
 10
22.91497666290751
 20
249.0047745790238
 30
197.3789672851562
  0
VERTEX
  5
130
  8
DEFAULT
 10
23.04524714401713
 20
249.0353837098832
 30
197.3789672851562
  0
SEQEND
  5
131
  8
DEFAULT
  0
POLYLINE
  5
132
  8
DEFAULT
 66
     1
 10
0.0
 20
0.0
 30
197.3789672851562
 70
     1
  0
VERTEX
  5
133
  8
DEFAULT
 10
19.55309492996684
 20
222.6694092836136
 30
197.3789672851562
  0
VERTEX
  5
134
  8
DEFAULT
 10
19.5658808415269
 20
222.6784424867386
 30
197.3789672851562
  0
VERTEX
  5
135
  8
DEFAULT
 10
19.67470747879496
 20
222.7553238954301
 30
197.3789672851562
  0
VERTEX
  5
136
  8
DEFAULT
 10
19.68566519669047
 20
222.7570633973832
 30
197.3789672851562
  0
VERTEX
  5
137
  8
DEFAULT
 10
19.71597868851176
 20
222.7618546571488
 30
197.3789672851562
  0
VERTEX
  5
138
  8
DEFAULT
 10
19.77536208084575
 20
222.7712693300004
 30
197.3789672851562
  0
VERTEX
  5
139
  8
DEFAULT
 10
20.28155238083354
 20
222.8514618959183
 30
197.3789672851562
  0
VERTEX
  5
13A
  8
DEFAULT
 10
20.61633164337626
 20
222.9437165345902
 30
197.3789672851562
  0
VERTEX
  5
13B
  8
DEFAULT
 10
20.62082583359233
 20
222.9449524965043
 30
197.3789672851562
  0
VERTEX
  5
13C
  8
DEFAULT
 10
20.62132412842265
 20
222.945982464766
 30
197.3789672851562
  0
VERTEX
  5
13D
  8
DEFAULT
 10
20.73746449402324
 20
223.1341309633011
 30
197.3789672851562
  0
VERTEX
  5
13E
  8
DEFAULT
 10
20.73902422836772
 20
223.136656292891
 30
197.3789672851562
  0
VERTEX
  5
13F
  8
DEFAULT
 10
20.7410517399644
 20
223.1381058778519
 30
197.3789672851562
  0
VERTEX
  5
140
  8
DEFAULT
 10
21.18960434845439
 20
223.4587617006058
 30
197.3789672851562
  0
VERTEX
  5
141
  8
DEFAULT
 10
21.19562823227397
 20
223.463072308516
 30
197.3789672851562
  0
VERTEX
  5
142
  8
DEFAULT
 10
21.21253592422953
 20
223.4657502259965
 30
197.3789672851562
  0
VERTEX
  5
143
  8
DEFAULT
 10
22.47161204269877
 20
223.6651749696488
 30
197.3789672851562
  0
VERTEX
  5
144
  8
DEFAULT
 10
22.47309500626078
 20
223.6654038514847
 30
197.3789672851562
  0
VERTEX
  5
145
  8
DEFAULT
 10
22.47730547836772
 20
223.6660752382035
 30
197.3789672851562
  0
VERTEX
  5
146
  8
DEFAULT
 10
22.48436505249492
 20
223.6638398256058
 30
197.3789672851562
  0
VERTEX
  5
147
  8
DEFAULT
 10
23.01002413681498
 20
223.4973969545121
 30
197.3789672851562
  0
VERTEX
  5
148
  8
DEFAULT
 10
23.01240069321147
 20
223.4966416444535
 30
197.3789672851562
  0
VERTEX
  5
149
  8
DEFAULT
 10
23.01319081238261
 20
223.4958252992386
 30
197.3789672851562
  0
VERTEX
  5
14A
  8
DEFAULT
 10
23.18785101822368
 20
223.3146271791215
 30
197.3789672851562
  0
VERTEX
  5
14B
  8
DEFAULT
 10
23.19019610336772
 20
223.312193402266
 30
197.3789672851562
  0
VERTEX
  5
14C
  8
DEFAULT
 10
23.19262654236308
 20
223.3123765077347
 30
197.3789672851562
  0
VERTEX
  5
14D
  8
DEFAULT
 10
23.37360197952739
 20
223.3259339418168
 30
197.3789672851562
  0
VERTEX
  5
14E
  8
DEFAULT
 10
24.08482272079936
 20
223.4522843446488
 30
197.3789672851562
  0
VERTEX
  5
14F
  8
DEFAULT
 10
24.16677147797099
 20
223.4668336000199
 30
197.3789672851562
  0
VERTEX
  5
150
  8
DEFAULT
 10
24.18573576858989
 20
223.4697022523636
 30
197.3789672851562
  0
VERTEX
  5
151
  8
DEFAULT
 10
24.20220763138285
 20
223.4720521058793
 30
197.3789672851562
  0
VERTEX
  5
152
  8
DEFAULT
 10
24.20783812454692
 20
223.4734101381058
 30
197.3789672851562
  0
VERTEX
  5
153
  8
DEFAULT
 10
24.32974678925029
 20
223.4676117982621
 30
197.3789672851562
  0
VERTEX
  5
154
  8
DEFAULT
 10
24.34388572624675
 20
223.4669327821488
 30
197.3789672851562
  0
VERTEX
  5
155
  8
DEFAULT
 10
24.34860999039164
 20
223.4693513002152
 30
197.3789672851562
  0
VERTEX
  5
156
  8
DEFAULT
 10
24.35353428772441
 20
223.4718537416215
 30
197.3789672851562
  0
VERTEX
  5
157
  8
DEFAULT
 10
24.3730986779069
 20
223.4818177308793
 30
197.3789672851562
  0
VERTEX
  5
158
  8
DEFAULT
 10
24.38027674606791
 20
223.4855561341996
 30
197.3789672851562
  0
VERTEX
  5
159
  8
DEFAULT
 10
25.2045355503892
 20
224.0039277162308
 30
197.3789672851562
  0
VERTEX
  5
15A
  8
DEFAULT
 10
25.21560437134257
 20
224.0108933534379
 30
197.3789672851562
  0
VERTEX
  5
15B
  8
DEFAULT
 10
25.2157614891862
 20
224.012014874434
 30
197.3789672851562
  0
VERTEX
  5
15C
  8
DEFAULT
 10
25.26810557297221
 20
224.2269120301957
 30
197.3789672851562
  0
VERTEX
  5
15D
  8
DEFAULT
 10
25.26880938461772
 20
224.2297959413285
 30
197.3789672851562
  0
VERTEX
  5
15E
  8
DEFAULT
 10
25.2702892487382
 20
224.2318024720902
 30
197.3789672851562
  0
VERTEX
  5
15F
  8
DEFAULT
 10
25.59772450378886
 20
224.6754975404496
 30
197.3789672851562
  0
VERTEX
  5
160
  8
DEFAULT
 10
25.60212237289897
 20
224.6814560975785
 30
197.3789672851562
  0
VERTEX
  5
161
  8
DEFAULT
 10
25.61737448624125
 20
224.6892228212113
 30
197.3789672851562
  0
VERTEX
  5
162
  8
DEFAULT
 10
26.75317520550242
 20
225.2679505433793
 30
197.3789672851562
  0
VERTEX
  5
163
  8
DEFAULT
 10
26.75831133774272
 20
225.2705674257035
 30
197.3789672851562
  0
VERTEX
  5
164
  8
DEFAULT
 10
26.76571626118174
 20
225.2706208314652
 30
197.3789672851562
  0
VERTEX
  5
165
  8
DEFAULT
 10
27.31709790876857
 20
225.2747025575394
 30
197.3789672851562
  0
VERTEX
  5
166
  8
DEFAULT
 10
27.31959063461772
 20
225.2747178163285
 30
197.3789672851562
  0
VERTEX
  5
167
  8
DEFAULT
 10
27.3205959265565
 20
225.2741837587113
 30
197.3789672851562
  0
VERTEX
  5
168
  8
DEFAULT
 10
27.54280341318599
 20
225.1558213319535
 30
197.3789672851562
  0
VERTEX
  5
169
  8
DEFAULT
 10
27.54578692368022
 20
225.154234417891
 30
197.3789672851562
  0
VERTEX
  5
16A
  8
DEFAULT
 10
27.54802132299891
 20
225.155096539473
 30
197.3789672851562
  0
VERTEX
  5
16B
  8
DEFAULT
 10
27.71442133835307
 20
225.2195115175004
 30
197.3789672851562
  0
VERTEX
  5
16C
  8
DEFAULT
 10
27.73002124479762
 20
225.2292313661332
 30
197.3789672851562
  0
VERTEX
  5
16D
  8
DEFAULT
 10
27.85908696702472
 20
225.3097367372269
 30
197.3789672851562
  0
VERTEX
  5
16E
  8
DEFAULT
 10
27.87001279643527
 20
225.3157639589066
 30
197.3789672851562
  0
VERTEX
  5
16F
  8
DEFAULT
 10
27.96038142493716
 20
225.3655228700394
 30
197.3789672851562
  0
VERTEX
  5
170
  8
DEFAULT
 10
27.97896934202662
 20
225.372381695723
 30
197.3789672851562
  0
VERTEX
  5
171
  8
DEFAULT
 10
28.03532048216811
 20
225.4010834779496
 30
197.3789672851562
  0
VERTEX
  5
172
  8
DEFAULT
 10
28.49509743503085
 20
225.6353745546097
 30
197.3789672851562
  0
VERTEX
  5
173
  8
DEFAULT
 10
28.5096820359563
 20
225.6449723329301
 30
197.3789672851562
  0
VERTEX
  5
174
  8
DEFAULT
 10
28.51490531018725
 20
225.6481843080277
 30
197.3789672851562
  0
VERTEX
  5
175
  8
DEFAULT
 10
28.52941051772586
 20
225.6583314027543
 30
197.3789672851562
  0
VERTEX
  5
176
  8
DEFAULT
 10
28.6469383304452
 20
225.7405152406449
 30
197.3789672851562
  0
VERTEX
  5
177
  8
DEFAULT
 10
28.65120113543025
 20
225.7442002382035
 30
197.3789672851562
  0
VERTEX
  5
178
  8
DEFAULT
 10
28.7270373468732
 20
225.8307938661332
 30
197.3789672851562
  0
VERTEX
  5
179
  8
DEFAULT
 10
28.73638225248805
 20
225.8414521302933
 30
197.3789672851562
  0
VERTEX
  5
17A
  8
DEFAULT
 10
28.75674552372447
 20
225.8624100770707
 30
197.3789672851562
  0
VERTEX
  5
17B
  8
DEFAULT
 10
29.01700276783458
 20
226.1228242006058
 30
197.3789672851562
  0
VERTEX
  5
17C
  8
DEFAULT
 10
29.04891610792628
 20
226.1547532167191
 30
197.3789672851562
  0
VERTEX
  5
17D
  8
DEFAULT
 10
29.05431980541697
 20
226.1601929750199
 30
197.3789672851562
  0
VERTEX
  5
17E
  8
DEFAULT
 10
29.28072244575969
 20
226.4136490907426
 30
197.3789672851562
  0
VERTEX
  5
17F
  8
DEFAULT
 10
29.28376299789897
 20
226.4170518007035
 30
197.3789672851562
  0
VERTEX
  5
180
  8
DEFAULT
 10
29.28339595249644
 20
226.417418011641
 30
197.3789672851562
  0
VERTEX
  5
181
  8
DEFAULT
 10
29.25605470589152
 20
226.444761761641
 30
197.3789672851562
  0
VERTEX
  5
182
  8
DEFAULT
 10
29.25585562637797
 20
226.4458756532426
 30
197.3789672851562
  0
VERTEX
  5
183
  8
DEFAULT
 10
29.23924703052989
 20
226.6662888612504
 30
197.3789672851562
  0
VERTEX
  5
184
  8
DEFAULT
 10
29.23902422836772
 20
226.6692490663285
 30
197.3789672851562
  0
VERTEX
  5
185
  8
DEFAULT
 10
29.23981208256236
 20
226.6716141786332
 30
197.3789672851562
  0
VERTEX
  5
186
  8
DEFAULT
 10
29.4141724770402
 20
227.1946930970902
 30
197.3789672851562
  0
VERTEX
  5
187
  8
DEFAULT
 10
29.41651446274272
 20
227.2017197694535
 30
197.3789672851562
  0
VERTEX
  5
188
  8
DEFAULT
 10
29.42007274082652
 20
227.2052826966996
 30
197.3789672851562
  0
VERTEX
  5
189
  8
DEFAULT
 10
29.42058927467814
 20
227.2057938661332
 30
197.3789672851562
  0
VERTEX
  5
18A
  8
DEFAULT
 10
30.32195074013224
 20
228.1072144593949
 30
197.3789672851562
  0
VERTEX
  5
18B
  8
DEFAULT
 10
30.33405596664897
 20
228.119322308516
 30
197.3789672851562
  0
VERTEX
  5
18C
  8
DEFAULT
 10
30.3410809700822
 20
228.1216645326371
 30
197.3789672851562
  0
VERTEX
  5
18D
  8
DEFAULT
 10
30.86416203430644
 20
228.2960267152543
 30
197.3789672851562
  0
VERTEX
  5
18E
  8
DEFAULT
 10
30.86652666977397
 20
228.296812542891
 30
197.3789672851562
  0
VERTEX
  5
18F
  8
DEFAULT
 10
30.86764699867717
 20
228.2966141786332
 30
197.3789672851562
  0
VERTEX
  5
190
  8
DEFAULT
 10
31.08817583969584
 20
228.2799439515824
 30
197.3789672851562
  0
VERTEX
  5
191
  8
DEFAULT
 10
31.09113771370402
 20
228.279722699141
 30
197.3789672851562
  0
VERTEX
  5
192
  8
DEFAULT
 10
31.11847907951823
 20
228.252378949141
 30
197.3789672851562
  0
VERTEX
  5
193
  8
DEFAULT
 10
31.11884600571147
 20
228.2520127382035
 30
197.3789672851562
  0
VERTEX
  5
194
  8
DEFAULT
 10
31.12094695023051
 20
228.2541108216996
 30
197.3789672851562
  0
VERTEX
  5
195
  8
DEFAULT
 10
31.27735812118998
 20
228.4105744447465
 30
197.3789672851562
  0
VERTEX
  5
196
  8
DEFAULT
 10
31.29572231224528
 20
228.4289460267777
 30
197.3789672851562
  0
VERTEX
  5
197
  8
DEFAULT
 10
31.44794995239726
 20
228.5810761537308
 30
197.3789672851562
  0
VERTEX
  5
198
  8
DEFAULT
 10
31.46997482231608
 20
228.603094586348
 30
197.3789672851562
  0
VERTEX
  5
199
  8
DEFAULT
 10
31.6519039337968
 20
228.7851319398636
 30
197.3789672851562
  0
VERTEX
  5
19A
  8
DEFAULT
 10
31.67409068993083
 20
228.8073258485551
 30
197.3789672851562
  0
VERTEX
  5
19B
  8
DEFAULT
 10
31.85683233192912
 20
228.9900651063676
 30
197.3789672851562
  0
VERTEX
  5
19C
  8
DEFAULT
 10
31.88366348198405
 20
229.0168900575394
 30
197.3789672851562
  0
VERTEX
  5
19D
  8
DEFAULT
 10
31.88782793930522
 20
229.0210557069535
 30
197.3789672851562
  0
VERTEX
  5
19E
  8
DEFAULT
 10
31.89317471436015
 20
229.0315384950394
 30
197.3789672851562
  0
VERTEX
  5
19F
  8
DEFAULT
 10
31.95646507194987
 20
229.1557145204301
 30
197.3789672851562
  0
VERTEX
  5
1A0
  8
DEFAULT
 10
31.96426875046244
 20
229.1710267152543
 30
197.3789672851562
  0
VERTEX
  5
1A1
  8
DEFAULT
 10
31.98029548576823
 20
229.2024903383011
 30
197.3789672851562
  0
VERTEX
  5
1A2
  8
DEFAULT
 10
32.01838690689555
 20
229.2772736634965
 30
197.3789672851562
  0
VERTEX
  5
1A3
  8
DEFAULT
 10
32.02503497055522
 20
229.2903428163285
 30
197.3789672851562
  0
VERTEX
  5
1A4
  8
DEFAULT
 10
32.37531477859965
 20
229.9777131166215
 30
197.3789672851562
  0
VERTEX
  5
1A5
  8
DEFAULT
 10
32.38007313660136
 20
229.9870514955277
 30
197.3789672851562
  0
VERTEX
  5
1A6
  8
DEFAULT
 10
32.38160235336772
 20
229.9900498475785
 30
197.3789672851562
  0
VERTEX
  5
1A7
  8
DEFAULT
 10
32.3811393444871
 20
229.990286358809
 30
197.3789672851562
  0
VERTEX
  5
1A8
  8
DEFAULT
 10
32.3466630642747
 20
230.0077958192582
 30
197.3789672851562
  0
VERTEX
  5
1A9
  8
DEFAULT
 10
32.34612709930888
 20
230.0087952699418
 30
197.3789672851562
  0
VERTEX
  5
1AA
  8
DEFAULT
 10
32.2621846859788
 20
230.2133774842972
 30
197.3789672851562
  0
VERTEX
  5
1AB
  8
DEFAULT
 10
32.26105791977397
 20
230.2161240663285
 30
197.3789672851562
  0
VERTEX
  5
1AC
  8
DEFAULT
 10
32.26107603958598
 20
230.2186188783402
 30
197.3789672851562
  0
VERTEX
  5
1AD
  8
DEFAULT
 10
32.26527316025248
 20
230.7701172914261
 30
197.3789672851562
  0
VERTEX
  5
1AE
  8
DEFAULT
 10
32.26533038071147
 20
230.777525433516
 30
197.3789672851562
  0
VERTEX
  5
1AF
  8
DEFAULT
 10
32.26794678619853
 20
230.7826600160355
 30
197.3789672851562
  0
VERTEX
  5
1B0
  8
DEFAULT
 10
32.84660965851298
 20
231.9184022035355
 30
197.3789672851562
  0
VERTEX
  5
1B1
  8
DEFAULT
 10
32.85438067368022
 20
231.9336533632035
 30
197.3789672851562
  0
VERTEX
  5
1B2
  8
DEFAULT
 10
32.86033923080912
 20
231.938055523848
 30
197.3789672851562
  0
VERTEX
  5
1B3
  8
DEFAULT
 10
33.30403477600566
 20
232.2655472841019
 30
197.3789672851562
  0
VERTEX
  5
1B4
  8
DEFAULT
 10
33.30604082993022
 20
232.267027386641
 30
197.3789672851562
  0
VERTEX
  5
1B5
  8
DEFAULT
 10
33.30716759613505
 20
232.2671876039261
 30
197.3789672851562
  0
VERTEX
  5
1B6
  8
DEFAULT
 10
33.52200037888041
 20
232.3195862855668
 30
197.3789672851562
  0
VERTEX
  5
1B7
  8
DEFAULT
 10
33.5248857205247
 20
232.3202881898636
 30
197.3789672851562
  0
VERTEX
  5
1B8
  8
DEFAULT
 10
33.5593620007371
 20
232.3026642884965
 30
197.3789672851562
  0
VERTEX
  5
1B9
  8
DEFAULT
 10
33.55982500961772
 20
232.302427777266
 30
197.3789672851562
  0
VERTEX
  5
1BA
  8
DEFAULT
 10
33.56117350510112
 20
232.3050751771683
 30
197.3789672851562
  0
VERTEX
  5
1BB
  8
DEFAULT
 10
33.66155630997172
 20
232.5022416200394
 30
197.3789672851562
  0
VERTEX
  5
1BC
  8
DEFAULT
 10
33.67334992340556
 20
232.5253968324418
 30
197.3789672851562
  0
VERTEX
  5
1BD
  8
DEFAULT
 10
33.77110583237162
 20
232.7171464051957
 30
197.3789672851562
  0
VERTEX
  5
1BE
  8
DEFAULT
 10
33.78523976257792
 20
232.7448868837113
 30
197.3789672851562
  0
VERTEX
  5
1BF
  8
DEFAULT
 10
33.90201527527324
 20
232.9740433778519
 30
197.3789672851562
  0
VERTEX
  5
1C0
  8
DEFAULT
 10
33.918986863408
 20
233.0073609437699
 30
197.3789672851562
  0
VERTEX
  5
1C1
  8
DEFAULT
 10
33.93342644623271
 20
233.0356888856644
 30
197.3789672851562
  0
VERTEX
  5
1C2
  8
DEFAULT
 10
34.05085617950908
 20
233.266165265059
 30
197.3789672851562
  0
VERTEX
  5
1C3
  8
DEFAULT
 10
34.05342347076884
 20
233.2711930360551
 30
197.3789672851562
  0
VERTEX
  5
1C4
  8
DEFAULT
 10
34.0544381802415
 20
233.2772584047074
 30
197.3789672851562
  0
VERTEX
  5
1C5
  8
DEFAULT
 10
34.09487015655986
 20
233.5327057924027
 30
197.3789672851562
  0
VERTEX
  5
1C6
  8
DEFAULT
 10
34.09984738281718
 20
233.5641160096879
 30
197.3789672851562
  0
VERTEX
  5
1C7
  8
DEFAULT
 10
34.14014822891703
 20
233.8183579530472
 30
197.3789672851562
  0
VERTEX
  5
1C8
  8
DEFAULT
 10
34.14508444717875
 20
233.8495011415238
 30
197.3789672851562
  0
VERTEX
  5
1C9
  8
DEFAULT
 10
34.18514544418803
 20
234.1026291932816
 30
197.3789672851562
  0
VERTEX
  5
1CA
  8
DEFAULT
 10
34.19004303863993
 20
234.1335892762894
 30
197.3789672851562
  0
VERTEX
  5
1CB
  8
DEFAULT
 10
34.22257143906108
 20
234.3387665834183
 30
197.3789672851562
  0
VERTEX
  5
1CC
  8
DEFAULT
 10
34.22301394394389
 20
234.3415513124222
 30
197.3789672851562
  0
VERTEX
  5
1CD
  8
DEFAULT
 10
34.22364336899272
 20
234.3455185975785
 30
197.3789672851562
  0
VERTEX
  5
1CE
  8
DEFAULT
 10
34.22313124588481
 20
234.3456025209183
 30
197.3789672851562
  0
VERTEX
  5
1CF
  8
DEFAULT
 10
34.1849370663499
 20
234.3517136659379
 30
197.3789672851562
  0
VERTEX
  5
1D0
  8
DEFAULT
 10
34.18411690643779
 20
234.3525071229691
 30
197.3789672851562
  0
VERTEX
  5
1D1
  8
DEFAULT
 10
34.04105526855937
 20
234.5211091127152
 30
197.3789672851562
  0
VERTEX
  5
1D2
  8
DEFAULT
 10
34.03913409164897
 20
234.523375042891
 30
197.3789672851562
  0
VERTEX
  5
1D3
  8
DEFAULT
 10
34.03838164261332
 20
234.5257554139847
 30
197.3789672851562
  0
VERTEX
  5
1D4
  8
DEFAULT
 10
33.87199599197856
 20
235.0514741029496
 30
197.3789672851562
  0
VERTEX
  5
1D5
  8
DEFAULT
 10
33.86976153305522
 20
235.058531292891
 30
197.3789672851562
  0
VERTEX
  5
1D6
  8
DEFAULT
 10
33.87066370895854
 20
235.0642228212113
 30
197.3789672851562
  0
VERTEX
  5
1D7
  8
DEFAULT
 10
34.07008654526225
 20
236.3232407655472
 30
197.3789672851562
  0
VERTEX
  5
1D8
  8
DEFAULT
 10
34.07210356644145
 20
236.3359742250199
 30
197.3789672851562
  0
VERTEX
  5
1D9
  8
DEFAULT
 10
34.07276446274272
 20
236.3401475038285
 30
197.3789672851562
  0
VERTEX
  5
1DA
  8
DEFAULT
 10
34.07421404770366
 20
236.3421769227738
 30
197.3789672851562
  0
VERTEX
  5
1DB
  8
DEFAULT
 10
34.0756874745225
 20
236.3442368592972
 30
197.3789672851562
  0
VERTEX
  5
1DC
  8
DEFAULT
 10
34.39634758881083
 20
236.7928528871293
 30
197.3789672851562
  0
VERTEX
  5
1DD
  8
DEFAULT
 10
34.39918047836772
 20
236.796812542891
 30
197.3789672851562
  0
VERTEX
  5
1DE
  8
DEFAULT
 10
34.4002052014207
 20
236.7973084535355
 30
197.3789672851562
  0
VERTEX
  5
1DF
  8
DEFAULT
 10
34.58841616562358
 20
236.913511761641
 30
197.3789672851562
  0
VERTEX
  5
1E0
  8
DEFAULT
 10
34.5909429257249
 20
236.9150681581254
 30
197.3789672851562
  0
VERTEX
  5
1E1
  8
DEFAULT
 10
34.62913710525981
 20
236.9089570131058
 30
197.3789672851562
  0
VERTEX
  5
1E2
  8
DEFAULT
 10
34.62964922836772
 20
236.908873089766
 30
197.3789672851562
  0
VERTEX
  5
1E3
  8
DEFAULT
 10
34.6306133931016
 20
236.9149613466019
 30
197.3789672851562
  0
VERTEX
  5
1E4
  8
DEFAULT
 10
34.70242125442973
 20
237.3685669984574
 30
197.3789672851562
  0
VERTEX
  5
1E5
  8
DEFAULT
 10
34.70622641495219
 20
237.3761429872269
 30
197.3789672851562
  0
VERTEX
  5
1E6
  8
DEFAULT
 10
34.70727879456035
 20
237.399221905684
 30
197.3789672851562
  0
VERTEX
  5
1E7
  8
DEFAULT
 10
34.70819050720683
 20
237.4049897279496
 30
197.3789672851562
  0
VERTEX
  5
1E8
  8
DEFAULT
 10
34.70910221985331
 20
237.4107804383988
 30
197.3789672851562
  0
VERTEX
  5
1E9
  8
DEFAULT
 10
34.71404749802104
 20
237.4419388856644
 30
197.3789672851562
  0
VERTEX
  5
1EA
  8
DEFAULT
 10
34.75435072830668
 20
237.696096905684
 30
197.3789672851562
  0
VERTEX
  5
1EB
  8
DEFAULT
 10
34.75931937149516
 20
237.7275071229691
 30
197.3789672851562
  0
VERTEX
  5
1EC
  8
DEFAULT
 10
34.79975420883647
 20
237.9829697694535
 30
197.3789672851562
  0
VERTEX
  5
1ED
  8
DEFAULT
 10
34.80150992325297
 20
237.9888444032426
 30
197.3789672851562
  0
VERTEX
  5
1EE
  8
DEFAULT
 10
34.7996922200059
 20
237.9946503724808
 30
197.3789672851562
  0
VERTEX
  5
1EF
  8
DEFAULT
 10
34.75925785950175
 20
238.2501740541215
 30
197.3789672851562
  0
VERTEX
  5
1F0
  8
DEFAULT
 10
34.75428063324443
 20
238.2815919008011
 30
197.3789672851562
  0
VERTEX
  5
1F1
  8
DEFAULT
 10
34.71397740295878
 20
238.535711773848
 30
197.3789672851562
  0
VERTEX
  5
1F2
  8
DEFAULT
 10
34.70903212479106
 20
238.5668549623246
 30
197.3789672851562
  0
VERTEX
  5
1F3
  8
DEFAULT
 10
34.70563036850444
 20
238.577200421309
 30
197.3789672851562
  0
VERTEX
  5
1F4
  8
DEFAULT
 10
34.66557604721537
 20
238.830389508223
 30
197.3789672851562
  0
VERTEX
  5
1F5
  8
DEFAULT
 10
34.66067845276347
 20
238.8613114442582
 30
197.3789672851562
  0
VERTEX
  5
1F6
  8
DEFAULT
 10
34.63040501526347
 20
239.0524125184769
 30
197.3789672851562
  0
VERTEX
  5
1F7
  8
DEFAULT
 10
34.62999350479594
 20
239.0550065126176
 30
197.3789672851562
  0
VERTEX
  5
1F8
  8
DEFAULT
 10
34.62947613647929
 20
239.0571580018754
 30
197.3789672851562
  0
VERTEX
  5
1F9
  8
DEFAULT
 10
34.59128195694438
 20
239.0511612977738
 30
197.3789672851562
  0
VERTEX
  5
1FA
  8
DEFAULT
 10
34.59076983383647
 20
239.0510850038285
 30
197.3789672851562
  0
VERTEX
  5
1FB
  8
DEFAULT
 10
34.58991867950908
 20
239.0516114320511
 30
197.3789672851562
  0
VERTEX
  5
1FC
  8
DEFAULT
 10
34.40170771530619
 20
239.1676926698441
 30
197.3789672851562
  0
VERTEX
  5
1FD
  8
DEFAULT
 10
34.39918047836772
 20
239.1692490663285
 30
197.3789672851562
  0
VERTEX
  5
1FE
  8
DEFAULT
 10
34.39773089340678
 20
239.1712784852738
 30
197.3789672851562
  0
VERTEX
  5
1FF
  8
DEFAULT
 10
34.39634758881083
 20
239.1732087220902
 30
197.3789672851562
  0
VERTEX
  5
200
  8
DEFAULT
 10
34.0756874745225
 20
239.6217026796097
 30
197.3789672851562
  0
VERTEX
  5
201
  8
DEFAULT
 10
34.07276446274272
 20
239.6257920350785
 30
197.3789672851562
  0
VERTEX
  5
202
  8
DEFAULT
 10
34.0718622868394
 20
239.6314835633988
 30
197.3789672851562
  0
VERTEX
  5
203
  8
DEFAULT
 10
33.87243945053569
 20
240.8906235780472
 30
197.3789672851562
  0
VERTEX
  5
204
  8
DEFAULT
 10
33.86976153305522
 20
240.9075303163285
 30
197.3789672851562
  0
VERTEX
  5
205
  8
DEFAULT
 10
33.87199599197856
 20
240.9145875062699
 30
197.3789672851562
  0
VERTEX
  5
206
  8
DEFAULT
 10
34.03838164261332
 20
241.4403061952347
 30
197.3789672851562
  0
VERTEX
  5
207
  8
DEFAULT
 10
34.03913409164897
 20
241.4426865663285
 30
197.3789672851562
  0
VERTEX
  5
208
  8
DEFAULT
 10
34.03978115967265
 20
241.4434495057816
 30
197.3789672851562
  0
VERTEX
  5
209
  8
DEFAULT
 10
34.18284279755107
 20
241.6120591249222
 30
197.3789672851562
  0
VERTEX
  5
20A
  8
DEFAULT
 10
34.18476397446147
 20
241.6143174257035
 30
197.3789672851562
  0
VERTEX
  5
20B
  8
DEFAULT
 10
34.18527752808085
 20
241.6143937196488
 30
197.3789672851562
  0
VERTEX
  5
20C
  8
DEFAULT
 10
34.22347123077861
 20
241.6203904237504
 30
197.3789672851562
  0
VERTEX
  5
20D
  8
DEFAULT
 10
34.22248751572123
 20
241.6264786805863
 30
197.3789672851562
  0
VERTEX
  5
20E
  8
DEFAULT
 10
34.14931065491191
 20
242.0797867860551
 30
197.3789672851562
  0
VERTEX
  5
20F
  8
DEFAULT
 10
34.147662228856
 20
242.1003098573441
 30
197.3789672851562
  0
VERTEX
  5
210
  8
DEFAULT
 10
34.14422518661967
 20
242.1219773378129
 30
197.3789672851562
  0
VERTEX
  5
211
  8
DEFAULT
 10
34.13928896835795
 20
242.1531357850785
 30
197.3789672851562
  0
VERTEX
  5
212
  8
DEFAULT
 10
34.09903771332255
 20
242.4073929872269
 30
197.3789672851562
  0
VERTEX
  5
213
  8
DEFAULT
 10
34.09406954697123
 20
242.4388260926957
 30
197.3789672851562
  0
VERTEX
  5
214
  8
DEFAULT
 10
34.05358273437968
 20
242.6943955507035
 30
197.3789672851562
  0
VERTEX
  5
215
  8
DEFAULT
 10
34.05278832367411
 20
242.7005753602738
 30
197.3789672851562
  0
VERTEX
  5
216
  8
DEFAULT
 10
34.05103260925761
 20
242.7061143007035
 30
197.3789672851562
  0
VERTEX
  5
217
  8
DEFAULT
 10
33.93360239914409
 20
242.936460980391
 30
197.3789672851562
  0
VERTEX
  5
218
  8
DEFAULT
 10
33.91916281631938
 20
242.9647965516801
 30
197.3789672851562
  0
VERTEX
  5
219
  8
DEFAULT
 10
33.80233723572245
 20
243.1941361512894
 30
197.3789672851562
  0
VERTEX
  5
21A
  8
DEFAULT
 10
33.78801924637309
 20
243.2222428407426
 30
197.3789672851562
  0
VERTEX
  5
21B
  8
DEFAULT
 10
33.77432400635234
 20
243.2425980653519
 30
197.3789672851562
  0
VERTEX
  5
21C
  8
DEFAULT
 10
33.65794093063823
 20
243.4708695497269
 30
197.3789672851562
  0
VERTEX
  5
21D
  8
DEFAULT
 10
33.64372116974345
 20
243.4987778749222
 30
197.3789672851562
  0
VERTEX
  5
21E
  8
DEFAULT
 10
33.56126934936992
 20
243.6607956971879
 30
197.3789672851562
  0
VERTEX
  5
21F
  8
DEFAULT
 10
33.56014782837382
 20
243.6629929628129
 30
197.3789672851562
  0
VERTEX
  5
220
  8
DEFAULT
 10
33.55966765335551
 20
243.6635575380082
 30
197.3789672851562
  0
VERTEX
  5
221
  8
DEFAULT
 10
33.52519137314311
 20
243.6459183778519
 30
197.3789672851562
  0
VERTEX
  5
222
  8
DEFAULT
 10
33.52472979477397
 20
243.645689496016
 30
197.3789672851562
  0
VERTEX
  5
223
  8
DEFAULT
 10
33.52375800064555
 20
243.6459183778519
 30
197.3789672851562
  0
VERTEX
  5
224
  8
DEFAULT
 10
33.30886513641826
 20
243.6983323182816
 30
197.3789672851562
  0
VERTEX
  5
225
  8
DEFAULT
 10
33.30597979477397
 20
243.6990342225785
 30
197.3789672851562
  0
VERTEX
  5
226
  8
DEFAULT
 10
33.30397469452372
 20
243.7005143251176
 30
197.3789672851562
  0
VERTEX
  5
227
  8
DEFAULT
 10
32.86033923080912
 20
244.0278916444535
 30
197.3789672851562
  0
VERTEX
  5
228
  8
DEFAULT
 10
32.85438067368022
 20
244.0322861757035
 30
197.3789672851562
  0
VERTEX
  5
229
  8
DEFAULT
 10
32.85176426819316
 20
244.0374283876176
 30
197.3789672851562
  0
VERTEX
  5
22A
  8
DEFAULT
 10
32.84745127609721
 20
244.0458817567582
 30
197.3789672851562
  0
VERTEX
  5
22B
  8
DEFAULT
 10
32.26872879913798
 20
245.1817460145707
 30
197.3789672851562
  0
VERTEX
  5
22C
  8
DEFAULT
 10
32.26526934555522
 20
245.1885361757035
 30
197.3789672851562
  0
VERTEX
  5
22D
  8
DEFAULT
 10
32.26525122574321
 20
245.1910233583207
 30
197.3789672851562
  0
VERTEX
  5
22E
  8
DEFAULT
 10
32.26111370972148
 20
245.7424149598832
 30
197.3789672851562
  0
VERTEX
  5
22F
  8
DEFAULT
 10
32.26105791977397
 20
245.7498154725785
 30
197.3789672851562
  0
VERTEX
  5
230
  8
DEFAULT
 10
32.26159293106547
 20
245.7508225526566
 30
197.3789672851562
  0
VERTEX
  5
231
  8
DEFAULT
 10
32.34553534439555
 20
245.9553971376176
 30
197.3789672851562
  0
VERTEX
  5
232
  8
DEFAULT
 10
32.3466630642747
 20
245.9581437196488
 30
197.3789672851562
  0
VERTEX
  5
233
  8
DEFAULT
 10
32.3811393444871
 20
245.9756608094926
 30
197.3789672851562
  0
VERTEX
  5
234
  8
DEFAULT
 10
32.38160235336772
 20
245.9758896913285
 30
197.3789672851562
  0
VERTEX
  5
235
  8
DEFAULT
 10
32.37880188873759
 20
245.981382855391
 30
197.3789672851562
  0
VERTEX
  5
236
  8
DEFAULT
 10
32.17031247070781
 20
246.3906083192582
 30
197.3789672851562
  0
VERTEX
  5
237
  8
DEFAULT
 10
32.16150957993022
 20
246.407896527266
 30
197.3789672851562
  0
VERTEX
  5
238
  8
DEFAULT
 10
32.15358335426799
 20
246.4234452333207
 30
197.3789672851562
  0
VERTEX
  5
239
  8
DEFAULT
 10
32.15103203705302
 20
246.4284653749222
 30
197.3789672851562
  0
VERTEX
  5
23A
  8
DEFAULT
 10
32.13671404770366
 20
246.4565568055863
 30
197.3789672851562
  0
VERTEX
  5
23B
  8
DEFAULT
 10
32.01982910088054
 20
246.6859421815629
 30
197.3789672851562
  0
VERTEX
  5
23C
  8
DEFAULT
 10
32.00538951805583
 20
246.714293011641
 30
197.3789672851562
  0
VERTEX
  5
23D
  8
DEFAULT
 10
31.88795144012919
 20
246.9446702089066
 30
197.3789672851562
  0
VERTEX
  5
23E
  8
DEFAULT
 10
31.8836458390092
 20
246.9490494813676
 30
197.3789672851562
  0
VERTEX
  5
23F
  8
DEFAULT
 10
31.70081502846232
 20
247.1319871034379
 30
197.3789672851562
  0
VERTEX
  5
240
  8
DEFAULT
 10
31.6783292954301
 20
247.154478558516
 30
197.3789672851562
  0
VERTEX
  5
241
  8
DEFAULT
 10
31.4963224594926
 20
247.3364853944535
 30
197.3789672851562
  0
VERTEX
  5
242
  8
DEFAULT
 10
31.47400814941874
 20
247.3587937440629
 30
197.3789672851562
  0
VERTEX
  5
243
  8
DEFAULT
 10
31.2927399342393
 20
247.5400528993363
 30
197.3789672851562
  0
VERTEX
  5
244
  8
DEFAULT
 10
31.27059680870524
 20
247.5622239198441
 30
197.3789672851562
  0
VERTEX
  5
245
  8
DEFAULT
 10
31.24488551071635
 20
247.5879349794144
 30
197.3789672851562
  0
VERTEX
  5
246
  8
DEFAULT
 10
31.12051541260234
 20
247.7122483339066
 30
197.3789672851562
  0
VERTEX
  5
247
  8
DEFAULT
 10
31.11884600571147
 20
247.7139268007035
 30
197.3789672851562
  0
VERTEX
  5
248
  8
DEFAULT
 10
31.11847907951823
 20
247.713560589766
 30
197.3789672851562
  0
VERTEX
  5
249
  8
DEFAULT
 10
31.09113771370402
 20
247.686216839766
 30
197.3789672851562
  0
VERTEX
  5
24A
  8
DEFAULT
 10
31.09001619270793
 20
247.6860184755082
 30
197.3789672851562
  0
VERTEX
  5
24B
  8
DEFAULT
 10
30.86948759010783
 20
247.6694779481644
 30
197.3789672851562
  0
VERTEX
  5
24C
  8
DEFAULT
 10
30.86652666977397
 20
247.6692490663285
 30
197.3789672851562
  0
VERTEX
  5
24D
  8
DEFAULT
 10
30.86416203430644
 20
247.6700425233597
 30
197.3789672851562
  0
VERTEX
  5
24E
  8
DEFAULT
 10
30.34102112701884
 20
247.8443894471879
 30
197.3789672851562
  0
VERTEX
  5
24F
  8
DEFAULT
 10
30.33399493149272
 20
247.8467393007035
 30
197.3789672851562
  0
VERTEX
  5
250
  8
DEFAULT
 10
30.32992011955729
 20
247.8508133973832
 30
197.3789672851562
  0
VERTEX
  5
251
  8
DEFAULT
 10
29.42861849716655
 20
248.7521195497269
 30
197.3789672851562
  0
VERTEX
  5
252
  8
DEFAULT
 10
29.41651446274272
 20
248.7642197694535
 30
197.3789672851562
  0
VERTEX
  5
253
  8
DEFAULT
 10
29.41572553566447
 20
248.7665848817582
 30
197.3789672851562
  0
VERTEX
  5
254
  8
DEFAULT
 10
29.24130517891398
 20
249.2896714296097
 30
197.3789672851562
  0
VERTEX
  5
255
  8
DEFAULT
 10
29.23896319321147
 20
249.2966904725785
 30
197.3789672851562
  0
VERTEX
  5
256
  8
DEFAULT
 10
29.23903853348246
 20
249.2976822938676
 30
197.3789672851562
  0
VERTEX
  5
257
  8
DEFAULT
 10
29.25564712933055
 20
249.5183396425004
 30
197.3789672851562
  0
VERTEX
  5
258
  8
DEFAULT
 10
29.25586993149272
 20
249.5212998475785
 30
197.3789672851562
  0
VERTEX
  5
259
  8
DEFAULT
 10
29.25623804977885
 20
249.521666058516
 30
197.3789672851562
  0
VERTEX
  5
25A
  8
DEFAULT
 10
29.28357929638377
 20
249.549009808516
 30
197.3789672851562
  0
VERTEX
  5
25B
  8
DEFAULT
 10
29.28189594200602
 20
249.5506577577347
 30
197.3789672851562
  0
VERTEX
  5
25C
  8
DEFAULT
 10
29.15660417726985
 20
249.6739029969926
 30
197.3789672851562
  0
VERTEX
  5
25D
  8
DEFAULT
 10
29.13474077633372
 20
249.6957688417191
 30
197.3789672851562
  0
VERTEX
  5
25E
  8
DEFAULT
 10
28.9535367553567
 20
249.8770737733597
 30
197.3789672851562
  0
VERTEX
  5
25F
  8
DEFAULT
 10
28.92170936516276
 20
249.9096818055863
 30
197.3789672851562
  0
VERTEX
  5
260
  8
DEFAULT
 10
28.65871895006648
 20
250.1792435731644
 30
197.3789672851562
  0
VERTEX
  5
261
  8
DEFAULT
 10
28.63374803117267
 20
250.2074418153519
 30
197.3789672851562
  0
VERTEX
  5
262
  8
DEFAULT
 10
28.63062889030925
 20
250.2133317079301
 30
197.3789672851562
  0
VERTEX
  5
263
  8
DEFAULT
 10
28.61808175495616
 20
250.2250657167191
 30
197.3789672851562
  0
VERTEX
  5
264
  8
DEFAULT
 10
28.5163515870904
 20
250.3202195253129
 30
197.3789672851562
  0
VERTEX
  5
265
  8
DEFAULT
 10
28.51018423489085
 20
250.3222336854691
 30
197.3789672851562
  0
VERTEX
  5
266
  8
DEFAULT
 10
28.50428155711642
 20
250.3233933534379
 30
197.3789672851562
  0
VERTEX
  5
267
  8
DEFAULT
 10
28.48345903209201
 20
250.3339982118363
 30
197.3789672851562
  0
VERTEX
  5
268
  8
DEFAULT
 10
28.47498883954039
 20
250.3365464296097
 30
197.3789672851562
  0
VERTEX
  5
269
  8
DEFAULT
 10
27.54039222649089
 20
250.7708420839066
 30
197.3789672851562
  0
VERTEX
  5
26A
  8
DEFAULT
 10
27.52784258774272
 20
250.7766709413285
 30
197.3789672851562
  0
VERTEX
  5
26B
  8
DEFAULT
 10
27.52691806009761
 20
250.7762894716019
 30
197.3789672851562
  0
VERTEX
  5
26C
  8
DEFAULT
 10
27.32233840874186
 20
250.6923508729691
 30
197.3789672851562
  0
VERTEX
  5
26D
  8
DEFAULT
 10
27.31959063461772
 20
250.6912217225785
 30
197.3789672851562
  0
VERTEX
  5
26E
  8
DEFAULT
 10
27.31709790876857
 20
250.6912369813676
 30
197.3789672851562
  0
VERTEX
  5
26F
  8
DEFAULT
 10
26.76571626118174
 20
250.6954331483597
 30
197.3789672851562
  0
VERTEX
  5
270
  8
DEFAULT
 10
26.75831133774272
 20
250.695494183516
 30
197.3789672851562
  0
VERTEX
  5
271
  8
DEFAULT
 10
26.75317520550242
 20
250.6981186952347
 30
197.3789672851562
  0
VERTEX
  5
272
  8
DEFAULT
 10
25.61737448624125
 20
251.2768387880082
 30
197.3789672851562
  0
VERTEX
  5
273
  8
DEFAULT
 10
25.60212237289897
 20
251.284605511641
 30
197.3789672851562
  0
VERTEX
  5
274
  8
DEFAULT
 10
25.60064250877848
 20
251.2866044130082
 30
197.3789672851562
  0
VERTEX
  5
275
  8
DEFAULT
 10
25.27320725372783
 20
251.7301926698441
 30
197.3789672851562
  0
VERTEX
  5
276
  8
DEFAULT
 10
25.26880938461772
 20
251.7361435975785
 30
197.3789672851562
  0
VERTEX
  5
277
  8
DEFAULT
 10
25.26857263496867
 20
251.7371201600785
 30
197.3789672851562
  0
VERTEX
  5
278
  8
DEFAULT
 10
25.21616846970073
 20
251.9520096864457
 30
197.3789672851562
  0
VERTEX
  5
279
  8
DEFAULT
 10
25.21546465805522
 20
251.9548935975785
 30
197.3789672851562
  0
VERTEX
  5
27A
  8
DEFAULT
 10
25.21090537956706
 20
251.9577775087113
 30
197.3789672851562
  0
VERTEX
  5
27B
  8
DEFAULT
 10
24.8713384335374
 20
252.1726975526566
 30
197.3789672851562
  0
VERTEX
  5
27C
  8
DEFAULT
 10
24.83554036072245
 20
252.1926407899613
 30
197.3789672851562
  0
VERTEX
  5
27D
  8
DEFAULT
 10
24.39498335770121
 20
252.4637894716019
 30
197.3789672851562
  0
VERTEX
  5
27E
  8
DEFAULT
 10
24.34388572624675
 20
252.4952378358597
 30
197.3789672851562
  0
VERTEX
  5
27F
  8
DEFAULT
 10
24.33297688415995
 20
252.4978623475785
 30
197.3789672851562
  0
VERTEX
  5
280
  8
DEFAULT
 10
23.20282561233989
 20
252.613218792891
 30
197.3789672851562
  0
VERTEX
  5
281
  8
DEFAULT
 10
23.18747336319438
 20
252.6147751893754
 30
197.3789672851562
  0
VERTEX
  5
282
  8
DEFAULT
 10
23.18411929062358
 20
252.6152176942582
 30
197.3789672851562
  0
VERTEX
  5
283
  8
DEFAULT
 10
23.18332964828959
 20
252.6144089784379
 30
197.3789672851562
  0
VERTEX
  5
284
  8
DEFAULT
 10
23.01466519287577
 20
252.4712205018754
 30
197.3789672851562
  0
VERTEX
  5
285
  8
DEFAULT
 10
23.01240069321147
 20
252.4692978944535
 30
197.3789672851562
  0
VERTEX
  5
286
  8
DEFAULT
 10
23.01002413681498
 20
252.4685502137894
 30
197.3789672851562
  0
VERTEX
  5
287
  8
DEFAULT
 10
22.81537777832499
 20
252.4069504823441
 30
197.3789672851562
  0
VERTEX
  5
288
  8
DEFAULT
 10
22.48436505249492
 20
252.3022141542191
 30
197.3789672851562
  0
VERTEX
  5
289
  8
DEFAULT
 10
22.47730547836772
 20
252.299986371016
 30
197.3789672851562
  0
VERTEX
  5
28A
  8
DEFAULT
 10
22.47309500626078
 20
252.3006577577347
 30
197.3789672851562
  0
VERTEX
  5
28B
  8
DEFAULT
 10
22.47161204269877
 20
252.3008866395707
 30
197.3789672851562
  0
VERTEX
  5
28C
  8
DEFAULT
 10
21.21253592422953
 20
252.5003037538285
 30
197.3789672851562
  0
VERTEX
  5
28D
  8
DEFAULT
 10
21.19562823227397
 20
252.5029893007035
 30
197.3789672851562
  0
VERTEX
  5
28E
  8
DEFAULT
 10
21.19360072067729
 20
252.5044388856644
 30
197.3789672851562
  0
VERTEX
  5
28F
  8
DEFAULT
 10
20.7450481121873
 20
252.8251023378129
 30
197.3789672851562
  0
VERTEX
  5
290
  8
DEFAULT
 10
20.73902422836772
 20
252.8294053163285
 30
197.3789672851562
  0
VERTEX
  5
291
  8
DEFAULT
 10
20.73849923065654
 20
252.830259808516
 30
197.3789672851562
  0
VERTEX
  5
292
  8
DEFAULT
 10
20.62235886505595
 20
253.0184006776566
 30
197.3789672851562
  0
VERTEX
  5
293
  8
DEFAULT
 10
20.62079913071147
 20
253.020933636641
 30
197.3789672851562
  0
VERTEX
  5
294
  8
DEFAULT
 10
20.61854416779033
 20
253.0218033876176
 30
197.3789672851562
  0
VERTEX
  5
295
  8
DEFAULT
 10
20.45068032196513
 20
253.0861954774613
 30
197.3789672851562
  0
VERTEX
  5
296
  8
DEFAULT
 10
19.84601694992534
 20
253.1818833436722
 30
197.3789672851562
  0
VERTEX
  5
297
  8
DEFAULT
 10
19.77443606308452
 20
253.1932358827347
 30
197.3789672851562
  0
VERTEX
  5
298
  8
DEFAULT
 10
19.74517638138285
 20
253.1994309510941
 30
197.3789672851562
  0
VERTEX
  5
299
  8
DEFAULT
 10
19.73285490921489
 20
253.2013840760941
 30
197.3789672851562
  0
VERTEX
  5
29A
  8
DEFAULT
 10
19.585481709752
 20
253.260679730391
 30
197.3789672851562
  0
VERTEX
  5
29B
  8
DEFAULT
 10
19.56814486435405
 20
253.2676529969926
 30
197.3789672851562
  0
VERTEX
  5
29C
  8
DEFAULT
 10
19.56653029373637
 20
253.2674393739457
 30
197.3789672851562
  0
VERTEX
  5
29D
  8
DEFAULT
 10
19.55280596664897
 20
253.2657609071488
 30
197.3789672851562
  0
VERTEX
  5
29E
  8
DEFAULT
 10
19.55280596664897
 20
222.6694092836136
 30
197.3789672851562
  0
SEQEND
  5
29F
  8
DEFAULT
  0
ENDSEC
  0
EOF
