  0
SECTION
  2
HEADER
  9
$ACADVER
  1
AC1009
  9
$DWGCODEPAGE
  3
ansi_1252
  9
$INSBASE
 10
0.0
 20
0.0
 30
0.0
  9
$EXTMIN
 10
88.63280596663732
 20
223.823671885812
 30
197.3789672851562
  9
$EXTMAX
 10
103.7103203511959
 20
254.1554061558217
 30
232.3789672851562
  9
$LIMMIN
 10
0.0
 20
0.0
  9
$LIMMAX
 10
12.0
 20
9.0
  9
$ORTHOMODE
 70
     0
  9
$REGENMODE
 70
     1
  9
$FILLMODE
 70
     1
  9
$QTEXTMODE
 70
     0
  9
$MIRRTEXT
 70
     1
  9
$DRAGMODE
 70
     2
  9
$LTSCALE
 40
1.0
  9
$OSMODE
 70
    37
  9
$ATTMODE
 70
     1
  9
$TEXTSIZE
 40
0.2
  9
$TRACEWID
 40
0.05
  9
$TEXTSTYLE
  7
STANDARD
  9
$CLAYER
  8
DEFAULT
  9
$CELTYPE
  6
BYLAYER
  9
$CECOLOR
 62
   256
  9
$DIMSCALE
 40
1.0
  9
$DIMASZ
 40
0.18
  9
$DIMEXO
 40
0.0625
  9
$DIMDLI
 40
0.38
  9
$DIMRND
 40
0.0
  9
$DIMDLE
 40
0.0
  9
$DIMEXE
 40
0.18
  9
$DIMTP
 40
0.0
  9
$DIMTM
 40
0.0
  9
$DIMTXT
 40
0.18
  9
$DIMCEN
 40
0.09
  9
$DIMTSZ
 40
0.0
  9
$DIMTOL
 70
     0
  9
$DIMLIM
 70
     0
  9
$DIMTIH
 70
     1
  9
$DIMTOH
 70
     1
  9
$DIMSE1
 70
     0
  9
$DIMSE2
 70
     0
  9
$DIMTAD
 70
     0
  9
$DIMZIN
 70
     0
  9
$DIMBLK
  1

  9
$DIMASO
 70
     1
  9
$DIMSHO
 70
     1
  9
$DIMPOST
  1

  9
$DIMAPOST
  1

  9
$DIMALT
 70
     0
  9
$DIMALTD
 70
     2
  9
$DIMALTF
 40
25.4
  9
$DIMLFAC
 40
1.0
  9
$DIMTOFL
 70
     0
  9
$DIMTVP
 40
0.0
  9
$DIMTIX
 70
     0
  9
$DIMSOXD
 70
     0
  9
$DIMSAH
 70
     0
  9
$DIMBLK1
  1

  9
$DIMBLK2
  1

  9
$DIMSTYLE
  2
STANDARD_ACAD
  9
$DIMCLRD
 70
     0
  9
$DIMCLRE
 70
     0
  9
$DIMCLRT
 70
     0
  9
$DIMTFAC
 40
1.0
  9
$DIMGAP
 40
0.09
  9
$LUNITS
 70
     2
  9
$LUPREC
 70
     3
  9
$SKETCHINC
 40
0.1
  9
$FILLETRAD
 40
0.0
  9
$AUNITS
 70
     0
  9
$AUPREC
 70
     0
  9
$MENU
  1
.
  9
$ELEVATION
 40
0.0
  9
$PELEVATION
 40
0.0
  9
$THICKNESS
 40
0.0
  9
$LIMCHECK
 70
     0
  9
$CHAMFERA
 40
0.0
  9
$CHAMFERB
 40
0.0
  9
$SKPOLY
 70
     0
  9
$TDCREATE
 40
2460731.552619317
  9
$TDUPDATE
 40
2460731.552627975
  9
$TDINDWG
 40
0.0000000116
  9
$TDUSRTIMER
 40
0.0000000116
  9
$USRTIMER
 70
     1
  9
$ANGBASE
 50
0.0
  9
$ANGDIR
 70
     0
  9
$PDMODE
 70
     0
  9
$PDSIZE
 40
0.0
  9
$PLINEWID
 40
0.0
  9
$COORDS
 70
     1
  9
$SPLFRAME
 70
     0
  9
$SPLINETYPE
 70
     6
  9
$SPLINESEGS
 70
     8
  9
$ATTDIA
 70
     0
  9
$ATTREQ
 70
     1
  9
$HANDLING
 70
     1
  9
$HANDSEED
  5
393
  9
$SURFTAB1
 70
     6
  9
$SURFTAB2
 70
     6
  9
$SURFTYPE
 70
     6
  9
$SURFU
 70
     6
  9
$SURFV
 70
     6
  9
$UCSNAME
  2

  9
$UCSORG
 10
0.0
 20
0.0
 30
0.0
  9
$UCSXDIR
 10
1.0
 20
0.0
 30
0.0
  9
$UCSYDIR
 10
0.0
 20
1.0
 30
0.0
  9
$PUCSNAME
  2

  9
$PUCSORG
 10
0.0
 20
0.0
 30
0.0
  9
$PUCSXDIR
 10
1.0
 20
0.0
 30
0.0
  9
$PUCSYDIR
 10
0.0
 20
1.0
 30
0.0
  9
$USERI1
 70
     0
  9
$USERI2
 70
     0
  9
$USERI3
 70
     0
  9
$USERI4
 70
     0
  9
$USERI5
 70
     0
  9
$USERR1
 40
0.0
  9
$USERR2
 40
0.0
  9
$USERR3
 40
0.0
  9
$USERR4
 40
0.0
  9
$USERR5
 40
0.0
  9
$WORLDVIEW
 70
     1
  9
$SHADEDGE
 70
     3
  9
$SHADEDIF
 70
    70
  9
$TILEMODE
 70
     1
  9
$MAXACTVP
 70
    64
  9
$PLIMCHECK
 70
     0
  9
$PEXTMIN
 10
1.000000000000000E+20
 20
1.000000000000000E+20
 30
1.000000000000000E+20
  9
$PEXTMAX
 10
-1.000000000000000E+20
 20
-1.000000000000000E+20
 30
-1.000000000000000E+20
  9
$PLIMMIN
 10
0.0
 20
0.0
  9
$PLIMMAX
 10
12.0
 20
9.0
  9
$UNITMODE
 70
     0
  9
$VISRETAIN
 70
     1
  9
$PLINEGEN
 70
     0
  9
$PSLTSCALE
 70
     1
  0
ENDSEC
  0
SECTION
  2
TABLES
  0
TABLE
  2
VPORT
 70
     1
  0
VPORT
  2
*ACTIVE
 70
     0
 10
0.0
 20
0.0
 11
1.0
 21
1.0
 12
10.42990654205607
 22
4.5
 13
0.0
 23
0.0
 14
0.5
 24
0.5
 15
0.5
 25
0.5
 16
0.0
 26
0.0
 36
1.0
 17
0.0
 27
0.0
 37
0.0
 40
9.0
 41
1.972972972850329
 42
50.0
 43
0.0
 44
0.0
 50
0.0
 51
0.0
 71
     0
 72
   100
 73
     1
 74
     3
 75
     0
 76
     0
 77
     0
 78
     0
  0
ENDTAB
  0
TABLE
  2
LTYPE
 70
     1
  0
LTYPE
  2
CONTINUOUS
 70
     0
  3
Solid line
 72
    65
 73
     0
 40
0.0
  0
ENDTAB
  0
TABLE
  2
LAYER
 70
     2
  0
LAYER
  2
0
 70
     0
 62
     7
  6
CONTINUOUS
  0
LAYER
  2
DEFAULT
 70
     0
 62
     7
  6
CONTINUOUS
  0
ENDTAB
  0
TABLE
  2
STYLE
 70
     1
  0
STYLE
  2
STANDARD
 70
     0
 40
0.0
 41
1.0
 50
0.0
 71
     0
 42
0.2
  3
txt
  4

  0
ENDTAB
  0
TABLE
  2
VIEW
 70
     0
  0
ENDTAB
  0
TABLE
  2
UCS
 70
     0
  0
ENDTAB
  0
TABLE
  2
APPID
 70
     2
  0
APPID
  2
ACAD
 70
     0
  0
APPID
  2
RHINO
 70
     0
  0
ENDTAB
  0
TABLE
  2
DIMSTYLE
 70
     1
  0
DIMSTYLE
  2
STANDARD_ACAD
 70
     0
  3

  4

  5

  6

  7

 40
1.0
 41
0.18
 42
0.0625
 43
0.38
 44
0.18
 45
0.0
 46
0.0
 47
0.0
 48
0.0
140
0.18
141
0.09
142
0.0
143
25.4
144
1.0
145
0.0
146
1.0
147
0.09
 71
     0
 72
     0
 73
     1
 74
     1
 75
     0
 76
     0
 77
     0
 78
     0
170
     0
171
     2
172
     0
173
     0
174
     0
175
     0
176
     0
177
     0
178
     0
  0
ENDTAB
  0
ENDSEC
  0
SECTION
  2
BLOCKS
  0
BLOCK
  8
0
  2
$MODEL_SPACE
 70
     0
 10
0.0
 20
0.0
 30
0.0
  3
$MODEL_SPACE
  1

  0
ENDBLK
  5
21
  8
0
  0
BLOCK
 67
     1
  8
0
  2
$PAPER_SPACE
 70
     0
 10
0.0
 20
0.0
 30
0.0
  3
$PAPER_SPACE
  1

  0
ENDBLK
  5
1D
 67
     1
  8
0
  0
ENDSEC
  0
SECTION
  2
ENTITIES
  0
POLYLINE
  5
60
  8
DEFAULT
 66
     1
 10
0.0
 20
0.0
 30
197.3789672851562
 70
     1
  0
VERTEX
  5
61
  8
DEFAULT
 10
99.19505499474174
 20
224.2958904990732
 30
197.3789672851562
  0
VERTEX
  5
62
  8
DEFAULT
 10
100.1990091795454
 20
224.2958904990733
 30
197.3789672851562
 42
0.4581431960892878
  0
VERTEX
  5
63
  8
DEFAULT
 10
100.6935708386189
 20
224.8694348079931
 30
197.3789672851562
  0
VERTEX
  5
64
  8
DEFAULT
 10
100.4862685450313
 20
226.2634755944545
 30
197.3789672851562
  0
VERTEX
  5
65
  8
DEFAULT
 10
100.6935708386189
 20
227.6575163809159
 30
197.3789672851562
 42
0.4581431960892785
  0
VERTEX
  5
66
  8
DEFAULT
 10
100.1990091795454
 20
228.2310606898357
 30
197.3789672851562
  0
VERTEX
  5
67
  8
DEFAULT
 10
99.19505499474174
 20
228.2310606898358
 30
197.3789672851562
 42
0.4581431960892878
  0
VERTEX
  5
68
  8
DEFAULT
 10
98.70049333566827
 20
227.6575163809159
 30
197.3789672851562
  0
VERTEX
  5
69
  8
DEFAULT
 10
98.90779562925582
 20
226.2634755944545
 30
197.3789672851562
  0
VERTEX
  5
6A
  8
DEFAULT
 10
98.70049333566827
 20
224.8694348079931
 30
197.3789672851562
 42
0.458143196089302
  0
SEQEND
  5
6B
  8
DEFAULT
  0
POLYLINE
  5
6C
  8
DEFAULT
 66
     1
 10
0.0
 20
0.0
 30
197.3789672851562
 70
     1
  0
VERTEX
  5
6D
  8
DEFAULT
 10
101.2635695061719
 20
224.3758904990733
 30
197.3789672851562
  0
VERTEX
  5
6E
  8
DEFAULT
 10
102.2675236909755
 20
224.3758904990733
 30
197.3789672851562
 42
0.4581431960893676
  0
VERTEX
  5
6F
  8
DEFAULT
 10
102.6829554845972
 20
224.8576677185659
 30
197.3789672851562
  0
VERTEX
  5
70
  8
DEFAULT
 10
102.4739033536658
 20
226.2634755944545
 30
197.3789672851562
  0
VERTEX
  5
71
  8
DEFAULT
 10
102.6829554845972
 20
227.6692834703431
 30
197.3789672851562
 42
0.4581431960893177
  0
VERTEX
  5
72
  8
DEFAULT
 10
102.2675236909755
 20
228.1510606898358
 30
197.3789672851562
  0
VERTEX
  5
73
  8
DEFAULT
 10
101.2635695061719
 20
228.1510606898358
 30
197.3789672851562
 42
0.4581431960893238
  0
VERTEX
  5
74
  8
DEFAULT
 10
100.8481377125501
 20
227.6692834703431
 30
197.3789672851562
  0
VERTEX
  5
75
  8
DEFAULT
 10
101.0571898434816
 20
226.2634755944545
 30
197.3789672851562
  0
VERTEX
  5
76
  8
DEFAULT
 10
100.8481377125502
 20
224.8576677185659
 30
197.3789672851562
 42
0.4581431960893414
  0
SEQEND
  5
77
  8
DEFAULT
  0
POLYLINE
  5
78
  8
DEFAULT
 66
     1
 10
0.0
 20
0.0
 30
197.3789672851562
 70
     1
  0
VERTEX
  5
79
  8
DEFAULT
 10
101.2635695061719
 20
249.528062644935
 30
197.3789672851562
  0
VERTEX
  5
7A
  8
DEFAULT
 10
102.2675236909755
 20
249.528062644935
 30
197.3789672851562
 42
0.4581431960893676
  0
VERTEX
  5
7B
  8
DEFAULT
 10
102.6829554845972
 20
250.0098398644277
 30
197.3789672851562
  0
VERTEX
  5
7C
  8
DEFAULT
 10
102.4739033536658
 20
251.4156477403163
 30
197.3789672851562
  0
VERTEX
  5
7D
  8
DEFAULT
 10
102.6829554845972
 20
252.8214556162048
 30
197.3789672851562
 42
0.4581431960893177
  0
VERTEX
  5
7E
  8
DEFAULT
 10
102.2675236909755
 20
253.3032328356975
 30
197.3789672851562
  0
VERTEX
  5
7F
  8
DEFAULT
 10
101.2635695061719
 20
253.3032328356975
 30
197.3789672851562
 42
0.4581431960893238
  0
VERTEX
  5
80
  8
DEFAULT
 10
100.8481377125501
 20
252.8214556162048
 30
197.3789672851562
  0
VERTEX
  5
81
  8
DEFAULT
 10
101.0571898434816
 20
251.4156477403163
 30
197.3789672851562
  0
VERTEX
  5
82
  8
DEFAULT
 10
100.8481377125502
 20
250.0098398644277
 30
197.3789672851562
 42
0.4581431960893414
  0
SEQEND
  5
83
  8
DEFAULT
  0
POLYLINE
  5
84
  8
DEFAULT
 66
     1
 10
0.0
 20
0.0
 30
197.3789672851562
 70
     1
  0
VERTEX
  5
85
  8
DEFAULT
 10
99.19505499474174
 20
249.448062644935
 30
197.3789672851562
  0
VERTEX
  5
86
  8
DEFAULT
 10
100.1990091795454
 20
249.448062644935
 30
197.3789672851562
 42
0.4581431960892878
  0
VERTEX
  5
87
  8
DEFAULT
 10
100.6935708386189
 20
250.0216069538549
 30
197.3789672851562
  0
VERTEX
  5
88
  8
DEFAULT
 10
100.4862685450313
 20
251.4156477403163
 30
197.3789672851562
  0
VERTEX
  5
89
  8
DEFAULT
 10
100.6935708386189
 20
252.8096885267777
 30
197.3789672851562
 42
0.4581431960892785
  0
VERTEX
  5
8A
  8
DEFAULT
 10
100.1990091795454
 20
253.3832328356975
 30
197.3789672851562
  0
VERTEX
  5
8B
  8
DEFAULT
 10
99.19505499474174
 20
253.3832328356975
 30
197.3789672851562
 42
0.4581431960892878
  0
VERTEX
  5
8C
  8
DEFAULT
 10
98.70049333566827
 20
252.8096885267777
 30
197.3789672851562
  0
VERTEX
  5
8D
  8
DEFAULT
 10
98.90779562925582
 20
251.4156477403163
 30
197.3789672851562
  0
VERTEX
  5
8E
  8
DEFAULT
 10
98.70049333566827
 20
250.0216069538549
 30
197.3789672851562
 42
0.458143196089302
  0
SEQEND
  5
8F
  8
DEFAULT
  0
CIRCLE
  5
90
  8
DEFAULT
 10
-98.29959971359722
 20
233.2742676820507
 30
-197.3789672851562
 40
1.397823810577393
210
0.0
220
0.0
230
-1.0
  0
CIRCLE
  5
91
  8
DEFAULT
 10
98.29959971359722
 20
244.6609025087113
 30
197.3789672851562
 40
1.397823810577393
  0
POLYLINE
  5
92
  8
DEFAULT
 66
     1
 10
0.0
 20
0.0
 30
197.3789672851562
 70
     1
  0
VERTEX
  5
93
  8
DEFAULT
 10
88.63280596664902
 20
237.6409012200188
 30
197.3789672851562
 42
-0.9423725638961814
  0
VERTEX
  5
94
  8
DEFAULT
 10
88.632805966649
 20
234.946819413296
 30
197.3789672851562
  0
VERTEX
  5
95
  8
DEFAULT
 10
88.632805966649
 20
233.1409012200188
 30
197.3789672851562
 42
-0.942372563896128
  0
VERTEX
  5
96
  8
DEFAULT
 10
88.632805966649
 20
230.446819413296
 30
197.3789672851562
  0
VERTEX
  5
97
  8
DEFAULT
 10
88.632805966649
 20
228.6409012200189
 30
197.3789672851562
 42
-0.9423725638961002
  0
VERTEX
  5
98
  8
DEFAULT
 10
88.632805966649
 20
225.9468194132962
 30
197.3789672851562
  0
VERTEX
  5
99
  8
DEFAULT
 10
88.63280596664897
 20
223.823671885812
 30
197.3789672851562
  0
VERTEX
  5
9A
  8
DEFAULT
 10
88.64376427624356
 20
223.8314135121824
 30
197.3789672851562
  0
VERTEX
  5
9B
  8
DEFAULT
 10
88.66216479764658
 20
223.8343345349012
 30
197.3789672851562
  0
VERTEX
  5
9C
  8
DEFAULT
 10
88.67314909801605
 20
223.8360782475675
 30
197.3789672851562
  0
VERTEX
  5
9D
  8
DEFAULT
 10
88.70347053728563
 20
223.840870768145
 30
197.3789672851562
  0
VERTEX
  5
9E
  8
DEFAULT
 10
88.76283979408007
 20
223.8502832041835
 30
197.3789672851562
  0
VERTEX
  5
9F
  8
DEFAULT
 10
89.26461399421298
 20
223.9297761552592
 30
197.3789672851562
  0
VERTEX
  5
A0
  8
DEFAULT
 10
89.5691003988879
 20
224.0136830297397
 30
197.3789672851562
  0
VERTEX
  5
A1
  8
DEFAULT
 10
89.66939490550722
 20
224.1761610836104
 30
197.3789672851562
  0
VERTEX
  5
A2
  8
DEFAULT
 10
89.67096005058251
 20
224.1786951761116
 30
197.3789672851562
  0
VERTEX
  5
A3
  8
DEFAULT
 10
89.67941209203263
 20
224.1923796868633
 30
197.3789672851562
  0
VERTEX
  5
A4
  8
DEFAULT
 10
89.69249622156255
 20
224.2017342813569
 30
197.3789672851562
  0
VERTEX
  5
A5
  8
DEFAULT
 10
89.69452566802988
 20
224.2031852495815
 30
197.3789672851562
  0
VERTEX
  5
A6
  8
DEFAULT
 10
90.14306474952373
 20
224.5238313968556
 30
197.3789672851562
  0
VERTEX
  5
A7
  8
DEFAULT
 10
90.14907317147649
 20
224.5281309460222
 30
197.3789672851562
  0
VERTEX
  5
A8
  8
DEFAULT
 10
90.16444457224438
 20
224.5391305152017
 30
197.3789672851562
  0
VERTEX
  5
A9
  8
DEFAULT
 10
90.18311346525574
 20
224.5420873742092
 30
197.3789672851562
  0
VERTEX
  5
AA
  8
DEFAULT
 10
90.20002095772475
 20
224.5447652600936
 30
197.3789672851562
  0
VERTEX
  5
AB
  8
DEFAULT
 10
91.45925306946084
 20
224.7442143951773
 30
197.3789672851562
  0
VERTEX
  5
AC
  8
DEFAULT
 10
91.46069493366085
 20
224.7444367453782
 30
197.3789672851562
  0
VERTEX
  5
AD
  8
DEFAULT
 10
91.46470811365232
 20
224.7450771774345
 30
197.3789672851562
  0
VERTEX
  5
AE
  8
DEFAULT
 10
91.48340524985636
 20
224.7480597938068
 30
197.3789672851562
  0
VERTEX
  5
AF
  8
DEFAULT
 10
91.50145564424376
 20
224.74234298688
 30
197.3789672851562
  0
VERTEX
  5
B0
  8
DEFAULT
 10
91.50851475929952
 20
224.7401077196442
 30
197.3789672851562
  0
VERTEX
  5
B1
  8
DEFAULT
 10
92.03421427808378
 20
224.573652021392
 30
197.3789672851562
  0
VERTEX
  5
B2
  8
DEFAULT
 10
92.0366317280159
 20
224.5728837388131
 30
197.3789672851562
  0
VERTEX
  5
B3
  8
DEFAULT
 10
92.05585613059507
 20
224.5667739983084
 30
197.3789672851562
  0
VERTEX
  5
B4
  8
DEFAULT
 10
92.06988507546812
 20
224.5522792737757
 30
197.3789672851562
  0
VERTEX
  5
B5
  8
DEFAULT
 10
92.0707320601598
 20
224.5514040551126
 30
197.3789672851562
  0
VERTEX
  5
B6
  8
DEFAULT
 10
92.22170584775382
 20
224.3947790911885
 30
197.3789672851562
  0
VERTEX
  5
B7
  8
DEFAULT
 10
92.36359173277951
 20
224.4054082078935
 30
197.3789672851562
  0
VERTEX
  5
B8
  8
DEFAULT
 10
93.07083386674209
 20
224.5310517994975
 30
197.3789672851562
  0
VERTEX
  5
B9
  8
DEFAULT
 10
93.15379448335005
 20
224.5457807015354
 30
197.3789672851562
  0
VERTEX
  5
BA
  8
DEFAULT
 10
93.15480631378507
 20
224.5459337570743
 30
197.3789672851562
  0
VERTEX
  5
BB
  8
DEFAULT
 10
93.17410403574188
 20
224.548851410372
 30
197.3789672851562
  0
VERTEX
  5
BC
  8
DEFAULT
 10
93.18714252856418
 20
224.5507125766533
 30
197.3789672851562
  0
VERTEX
  5
BD
  8
DEFAULT
 10
93.2002066796857
 20
224.553863550772
 30
197.3789672851562
  0
VERTEX
  5
BE
  8
DEFAULT
 10
93.32649020278771
 20
224.5478571256093
 30
197.3789672851562
  0
VERTEX
  5
BF
  8
DEFAULT
 10
93.33646896064634
 20
224.5529382711593
 30
197.3789672851562
  0
VERTEX
  5
C0
  8
DEFAULT
 10
93.34043236704717
 20
224.5550035296475
 30
197.3789672851562
  0
VERTEX
  5
C1
  8
DEFAULT
 10
94.14541575785563
 20
225.0612529139268
 30
197.3789672851562
  0
VERTEX
  5
C2
  8
DEFAULT
 10
94.19038233849521
 20
225.2458619248449
 30
197.3789672851562
  0
VERTEX
  5
C3
  8
DEFAULT
 10
94.19109035573638
 20
225.2487630852819
 30
197.3789672851562
  0
VERTEX
  5
C4
  8
DEFAULT
 10
94.19489668256875
 20
225.2643597879737
 30
197.3789672851562
  0
VERTEX
  5
C5
  8
DEFAULT
 10
94.20442588279715
 20
225.2772803039475
 30
197.3789672851562
  0
VERTEX
  5
C6
  8
DEFAULT
 10
94.20591266449384
 20
225.2792962113121
 30
197.3789672851562
  0
VERTEX
  5
C7
  8
DEFAULT
 10
94.53335641428289
 20
225.7230027932783
 30
197.3789672851562
  0
VERTEX
  5
C8
  8
DEFAULT
 10
94.5489789603785
 20
225.7441693702293
 30
197.3789672851562
  0
VERTEX
  5
C9
  8
DEFAULT
 10
94.56582026357252
 20
225.7527453454247
 30
197.3789672851562
  0
VERTEX
  5
CA
  8
DEFAULT
 10
94.58106360357431
 20
225.7605076001128
 30
197.3789672851562
  0
VERTEX
  5
CB
  8
DEFAULT
 10
95.71685635118091
 20
226.3392312618099
 30
197.3789672851562
  0
VERTEX
  5
CC
  8
DEFAULT
 10
95.73883411911591
 20
226.3504290327985
 30
197.3789672851562
  0
VERTEX
  5
CD
  8
DEFAULT
 10
95.75773437704093
 20
226.3505653451538
 30
197.3789672851562
  0
VERTEX
  5
CE
  8
DEFAULT
 10
95.76513167998986
 20
226.3506186952291
 30
197.3789672851562
  0
VERTEX
  5
CF
  8
DEFAULT
 10
96.31655695945061
 20
226.3547007121865
 30
197.3789672851562
  0
VERTEX
  5
D0
  8
DEFAULT
 10
96.31910093766376
 20
226.3547163175452
 30
197.3789672851562
  0
VERTEX
  5
D1
  8
DEFAULT
 10
96.3392917050898
 20
226.3548400499403
 30
197.3789672851562
  0
VERTEX
  5
D2
  8
DEFAULT
 10
96.35712284851535
 20
226.3453671823552
 30
197.3789672851562
  0
VERTEX
  5
D3
  8
DEFAULT
 10
96.35816722487436
 20
226.3448123335438
 30
197.3789672851562
  0
VERTEX
  5
D4
  8
DEFAULT
 10
96.55106770149536
 20
226.2420607786482
 30
197.3789672851562
  0
VERTEX
  5
D5
  8
DEFAULT
 10
96.67851242287958
 20
226.2913958237303
 30
197.3789672851562
  0
VERTEX
  5
D6
  8
DEFAULT
 10
96.68769884063079
 20
226.2971196104578
 30
197.3789672851562
  0
VERTEX
  5
D7
  8
DEFAULT
 10
96.81856724235585
 20
226.3787494174015
 30
197.3789672851562
  0
VERTEX
  5
D8
  8
DEFAULT
 10
96.8204448205323
 20
226.3797851812816
 30
197.3789672851562
  0
VERTEX
  5
D9
  8
DEFAULT
 10
96.83139825559519
 20
226.3858276174051
 30
197.3789672851562
  0
VERTEX
  5
DA
  8
DEFAULT
 10
96.92179448974943
 20
226.4356017429816
 30
197.3789672851562
  0
VERTEX
  5
DB
  8
DEFAULT
 10
96.92705413986837
 20
226.4384978199132
 30
197.3789672851562
  0
VERTEX
  5
DC
  8
DEFAULT
 10
96.93268715218474
 20
226.4405763660056
 30
197.3789672851562
  0
VERTEX
  5
DD
  8
DEFAULT
 10
96.94685699759215
 20
226.445804950744
 30
197.3789672851562
  0
VERTEX
  5
DE
  8
DEFAULT
 10
96.99900512749002
 20
226.4723659790125
 30
197.3789672851562
  0
VERTEX
  5
DF
  8
DEFAULT
 10
97.45482413317171
 20
226.7046401834978
 30
197.3789672851562
  0
VERTEX
  5
E0
  8
DEFAULT
 10
97.46673023488867
 20
226.7124753053172
 30
197.3789672851562
  0
VERTEX
  5
E1
  8
DEFAULT
 10
97.47098563253533
 20
226.7150920990499
 30
197.3789672851562
  0
VERTEX
  5
E2
  8
DEFAULT
 10
97.48355949751824
 20
226.7238881254499
 30
197.3789672851562
  0
VERTEX
  5
E3
  8
DEFAULT
 10
97.59581692116839
 20
226.8023865318152
 30
197.3789672851562
  0
VERTEX
  5
E4
  8
DEFAULT
 10
97.66686919623619
 20
226.8835176096704
 30
197.3789672851562
  0
VERTEX
  5
E5
  8
DEFAULT
 10
97.6762290777394
 20
226.8941929642617
 30
197.3789672851562
  0
VERTEX
  5
E6
  8
DEFAULT
 10
97.67757882213837
 20
226.8957324061295
 30
197.3789672851562
  0
VERTEX
  5
E7
  8
DEFAULT
 10
97.6790055436407
 20
226.8972007919981
 30
197.3789672851562
  0
VERTEX
  5
E8
  8
DEFAULT
 10
97.69976437722462
 20
226.9185601557742
 30
197.3789672851562
  0
VERTEX
  5
E9
  8
DEFAULT
 10
97.96041876036878
 20
227.1793772738571
 30
197.3789672851562
  0
VERTEX
  5
EA
  8
DEFAULT
 10
97.99224671652698
 20
227.2112205957972
 30
197.3789672851562
  0
VERTEX
  5
EB
  8
DEFAULT
 10
97.99606856271727
 20
227.2150681400593
 30
197.3789672851562
  0
VERTEX
  5
EC
  8
DEFAULT
 10
98.17919820204035
 20
227.4200804439216
 30
197.3789672851562
  0
VERTEX
  5
ED
  8
DEFAULT
 10
98.17638755120173
 20
227.4358066446003
 30
197.3789672851562
  0
VERTEX
  5
EE
  8
DEFAULT
 10
98.15947292763035
 20
227.6602811582962
 30
197.3789672851562
  0
VERTEX
  5
EF
  8
DEFAULT
 10
98.15804311855482
 20
227.6792779506925
 30
197.3789672851562
  0
VERTEX
  5
F0
  8
DEFAULT
 10
98.16312459272777
 20
227.6945323673339
 30
197.3789672851562
  0
VERTEX
  5
F1
  8
DEFAULT
 10
98.16391494925192
 20
227.6969049890712
 30
197.3789672851562
  0
VERTEX
  5
F2
  8
DEFAULT
 10
98.33827744336978
 20
228.2199902088335
 30
197.3789672851562
  0
VERTEX
  5
F3
  8
DEFAULT
 10
98.34061902638281
 20
228.2270156730694
 30
197.3789672851562
  0
VERTEX
  5
F4
  8
DEFAULT
 10
98.34658227000818
 20
228.24490722524
 30
197.3789672851562
  0
VERTEX
  5
F5
  8
DEFAULT
 10
98.35990900087582
 20
228.2582513684655
 30
197.3789672851562
  0
VERTEX
  5
F6
  8
DEFAULT
 10
98.3636337605302
 20
228.2619800187078
 30
197.3789672851562
  0
VERTEX
  5
F7
  8
DEFAULT
 10
98.36416782641298
 20
228.2625087321977
 30
197.3789672851562
  0
VERTEX
  5
F8
  8
DEFAULT
 10
99.26537820657836
 20
229.1637790104688
 30
197.3789672851562
  0
VERTEX
  5
F9
  8
DEFAULT
 10
99.29083497826139
 20
229.1892412976312
 30
197.3789672851562
  0
VERTEX
  5
FA
  8
DEFAULT
 10
99.31577992500891
 20
229.1975582551101
 30
197.3789672851562
  0
VERTEX
  5
FB
  8
DEFAULT
 10
99.83889814426246
 20
229.3719328054738
 30
197.3789672851562
  0
VERTEX
  5
FC
  8
DEFAULT
 10
99.84129734965543
 20
229.3727301390489
 30
197.3789672851562
  0
VERTEX
  5
FD
  8
DEFAULT
 10
99.86052407731363
 20
229.3791197368639
 30
197.3789672851562
  0
VERTEX
  5
FE
  8
DEFAULT
 10
99.87766096697236
 20
229.376085442693
 30
197.3789672851562
  0
VERTEX
  5
FF
  8
DEFAULT
 10
100.0941706237628
 20
229.3597190185238
 30
197.3789672851562
  0
VERTEX
  5
100
  8
DEFAULT
 10
100.0970971219848
 20
229.3595004244343
 30
197.3789672851562
  0
VERTEX
  5
101
  8
DEFAULT
 10
100.1120654013305
 20
229.3583823369069
 30
197.3789672851562
  0
VERTEX
  5
102
  8
DEFAULT
 10
100.2207791473371
 20
229.4671325539438
 30
197.3789672851562
  0
VERTEX
  5
103
  8
DEFAULT
 10
100.2391571431791
 20
229.4855179386533
 30
197.3789672851562
  0
VERTEX
  5
104
  8
DEFAULT
 10
100.3913946076403
 20
229.6376578904564
 30
197.3789672851562
  0
VERTEX
  5
105
  8
DEFAULT
 10
100.4134020037416
 20
229.6596588496578
 30
197.3789672851562
  0
VERTEX
  5
106
  8
DEFAULT
 10
100.5953224229007
 20
229.8416875107214
 30
197.3789672851562
  0
VERTEX
  5
107
  8
DEFAULT
 10
100.617517773913
 20
229.8638900167914
 30
197.3789672851562
  0
VERTEX
  5
108
  8
DEFAULT
 10
100.8002672418123
 20
230.046637100862
 30
197.3789672851562
  0
VERTEX
  5
109
  8
DEFAULT
 10
100.8223112635488
 20
230.0686760284221
 30
197.3789672851562
  0
VERTEX
  5
10A
  8
DEFAULT
 10
100.8851884402598
 20
230.192041394407
 30
197.3789672851562
  0
VERTEX
  5
10B
  8
DEFAULT
 10
100.8929876625301
 20
230.2073448434076
 30
197.3789672851562
  0
VERTEX
  5
10C
  8
DEFAULT
 10
100.9090103468748
 20
230.2388005155617
 30
197.3789672851562
  0
VERTEX
  5
10D
  8
DEFAULT
 10
100.9470918257352
 20
230.3135643089093
 30
197.3789672851562
  0
VERTEX
  5
10E
  8
DEFAULT
 10
100.9537433045053
 20
230.326640164929
 30
197.3789672851562
  0
VERTEX
  5
10F
  8
DEFAULT
 10
101.2789443616635
 20
230.9647972914615
 30
197.3789672851562
  0
VERTEX
  5
110
  8
DEFAULT
 10
101.2736783796844
 20
230.974617145811
 30
197.3789672851562
  0
VERTEX
  5
111
  8
DEFAULT
 10
101.1881717374946
 20
231.1830116572676
 30
197.3789672851562
  0
VERTEX
  5
112
  8
DEFAULT
 10
101.1809432876733
 20
231.2006315765854
 30
197.3789672851562
  0
VERTEX
  5
113
  8
DEFAULT
 10
101.1810600297355
 20
231.2167050907594
 30
197.3789672851562
  0
VERTEX
  5
114
  8
DEFAULT
 10
101.1810782528786
 20
231.2192137975334
 30
197.3789672851562
  0
VERTEX
  5
115
  8
DEFAULT
 10
101.1852755117132
 20
231.7707306490233
 30
197.3789672851562
  0
VERTEX
  5
116
  8
DEFAULT
 10
101.1853327670092
 20
231.7781433347549
 30
197.3789672851562
  0
VERTEX
  5
117
  8
DEFAULT
 10
101.185478600464
 20
231.7970239508309
 30
197.3789672851562
  0
VERTEX
  5
118
  8
DEFAULT
 10
101.1966665013077
 20
231.8189797211809
 30
197.3789672851562
  0
VERTEX
  5
119
  8
DEFAULT
 10
101.7753289503244
 20
232.9547210779534
 30
197.3789672851562
  0
VERTEX
  5
11A
  8
DEFAULT
 10
101.791666916253
 20
232.9867854764986
 30
197.3789672851562
  0
VERTEX
  5
11B
  8
DEFAULT
 10
101.8068432889577
 20
232.9979977262337
 30
197.3789672851562
  0
VERTEX
  5
11C
  8
DEFAULT
 10
101.8128163436899
 20
233.0024105926079
 30
197.3789672851562
  0
VERTEX
  5
11D
  8
DEFAULT
 10
102.2565322679219
 20
233.3299173988474
 30
197.3789672851562
  0
VERTEX
  5
11E
  8
DEFAULT
 10
102.2585442032785
 20
233.3314018416424
 30
197.3789672851562
  0
VERTEX
  5
11F
  8
DEFAULT
 10
102.2747903004266
 20
233.3433885068407
 30
197.3789672851562
  0
VERTEX
  5
120
  8
DEFAULT
 10
102.2920219071361
 20
233.3458387034715
 30
197.3789672851562
  0
VERTEX
  5
121
  8
DEFAULT
 10
102.5030671735487
 20
233.3973135854933
 30
197.3789672851562
  0
VERTEX
  5
122
  8
DEFAULT
 10
102.5059759551854
 20
233.398021199421
 30
197.3789672851562
  0
VERTEX
  5
123
  8
DEFAULT
 10
102.5205251958766
 20
233.4015605498327
 30
197.3789672851562
  0
VERTEX
  5
124
  8
DEFAULT
 10
102.5902672110617
 20
233.5385440212778
 30
197.3789672851562
  0
VERTEX
  5
125
  8
DEFAULT
 10
102.6020706718868
 20
233.5617185624257
 30
197.3789672851562
  0
VERTEX
  5
126
  8
DEFAULT
 10
102.6998291320208
 20
233.753473143193
 30
197.3789672851562
  0
VERTEX
  5
127
  8
DEFAULT
 10
102.7139598639458
 20
233.7812073468702
 30
197.3789672851562
  0
VERTEX
  5
128
  8
DEFAULT
 10
102.8307336893736
 20
234.0103605290529
 30
197.3789672851562
  0
VERTEX
  5
129
  8
DEFAULT
 10
102.847707308108
 20
234.0436820792033
 30
197.3789672851562
  0
VERTEX
  5
12A
  8
DEFAULT
 10
102.8621486231454
 20
234.072013421269
 30
197.3789672851562
  0
VERTEX
  5
12B
  8
DEFAULT
 10
102.9764726069293
 20
234.2963941922074
 30
197.3789672851562
  0
VERTEX
  5
12C
  8
DEFAULT
 10
103.0158549005236
 20
234.5452193556172
 30
197.3789672851562
  0
VERTEX
  5
12D
  8
DEFAULT
 10
103.0208335594481
 20
234.5766386177232
 30
197.3789672851562
  0
VERTEX
  5
12E
  8
DEFAULT
 10
103.0611346614934
 20
234.8308821760864
 30
197.3789672851562
  0
VERTEX
  5
12F
  8
DEFAULT
 10
103.0660693536558
 20
234.8620157294137
 30
197.3789672851562
  0
VERTEX
  5
130
  8
DEFAULT
 10
103.1061284580214
 20
235.1151318285639
 30
197.3789672851562
  0
VERTEX
  5
131
  8
DEFAULT
 10
103.1110277266841
 20
235.1461024810255
 30
197.3789672851562
  0
VERTEX
  5
132
  8
DEFAULT
 10
103.1338183543598
 20
235.2898574618065
 30
197.3789672851562
  0
VERTEX
  5
133
  8
DEFAULT
 10
103.125663491275
 20
235.2977468470353
 30
197.3789672851562
  0
VERTEX
  5
134
  8
DEFAULT
 10
102.9800455199751
 20
235.4693615491059
 30
197.3789672851562
  0
VERTEX
  5
135
  8
DEFAULT
 10
102.9677056003773
 20
235.4839158373795
 30
197.3789672851562
  0
VERTEX
  5
136
  8
DEFAULT
 10
102.9628544097272
 20
235.4992625953606
 30
197.3789672851562
  0
VERTEX
  5
137
  8
DEFAULT
 10
102.9621061937692
 20
235.5016295832926
 30
197.3789672851562
  0
VERTEX
  5
138
  8
DEFAULT
 10
102.7957262007325
 20
236.0273303890472
 30
197.3789672851562
  0
VERTEX
  5
139
  8
DEFAULT
 10
102.7877900997284
 20
236.0523953239011
 30
197.3789672851562
  0
VERTEX
  5
13A
  8
DEFAULT
 10
102.790748024487
 20
236.0710558872453
 30
197.3789672851562
  0
VERTEX
  5
13B
  8
DEFAULT
 10
102.7916494888523
 20
236.0767429250583
 30
197.3789672851562
  0
VERTEX
  5
13C
  8
DEFAULT
 10
102.9910716605529
 20
237.335756675194
 30
197.3789672851562
  0
VERTEX
  5
13D
  8
DEFAULT
 10
102.99308848796
 20
237.3484889112005
 30
197.3789672851562
  0
VERTEX
  5
13E
  8
DEFAULT
 10
102.9967000788206
 20
237.3712945707182
 30
197.3789672851562
  0
VERTEX
  5
13F
  8
DEFAULT
 10
103.0076657850462
 20
237.3866465593262
 30
197.3789672851562
  0
VERTEX
  5
140
  8
DEFAULT
 10
103.0091306426326
 20
237.3886973451127
 30
197.3789672851562
  0
VERTEX
  5
141
  8
DEFAULT
 10
103.010611622298
 20
237.3907678519915
 30
197.3789672851562
  0
VERTEX
  5
142
  8
DEFAULT
 10
103.3312742084267
 20
237.8393873352126
 30
197.3789672851562
  0
VERTEX
  5
143
  8
DEFAULT
 10
103.3341172896031
 20
237.8433612428491
 30
197.3789672851562
  0
VERTEX
  5
144
  8
DEFAULT
 10
103.3459798625799
 20
237.8599421034321
 30
197.3789672851562
  0
VERTEX
  5
145
  8
DEFAULT
 10
103.3616657743188
 20
237.8675332308719
 30
197.3789672851562
  0
VERTEX
  5
146
  8
DEFAULT
 10
103.5464240551038
 20
237.9816047928674
 30
197.3789672851562
  0
VERTEX
  5
147
  8
DEFAULT
 10
103.548986447651
 20
237.9831831634301
 30
197.3789672851562
  0
VERTEX
  5
148
  8
DEFAULT
 10
103.5616520448675
 20
237.9909848028066
 30
197.3789672851562
  0
VERTEX
  5
149
  8
DEFAULT
 10
103.6253498382354
 20
238.3933596761917
 30
197.3789672851562
  0
VERTEX
  5
14A
  8
DEFAULT
 10
103.6270859717713
 20
238.3968162789002
 30
197.3789672851562
  0
VERTEX
  5
14B
  8
DEFAULT
 10
103.6275646675482
 20
238.4073141835681
 30
197.3789672851562
  0
VERTEX
  5
14C
  8
DEFAULT
 10
103.6282598771702
 20
238.4117123297954
 30
197.3789672851562
  0
VERTEX
  5
14D
  8
DEFAULT
 10
103.6291677900365
 20
238.417456065681
 30
197.3789672851562
  0
VERTEX
  5
14E
  8
DEFAULT
 10
103.630083440695
 20
238.4232716386798
 30
197.3789672851562
  0
VERTEX
  5
14F
  8
DEFAULT
 10
103.635035610526
 20
238.4544737013914
 30
197.3789672851562
  0
VERTEX
  5
150
  8
DEFAULT
 10
103.6753356146354
 20
238.7086113605273
 30
197.3789672851562
  0
VERTEX
  5
151
  8
DEFAULT
 10
103.6803024586836
 20
238.7400102216219
 30
197.3789672851562
  0
VERTEX
  5
152
  8
DEFAULT
 10
103.7036607307081
 20
238.8875850953814
 30
197.3789672851562
  0
VERTEX
  5
153
  8
DEFAULT
 10
100.9638409023506
 20
238.8875850953813
 30
197.3789672851562
  0
VERTEX
  5
154
  8
DEFAULT
 10
101.2564327024346
 20
236.9199999999999
 30
197.3789672851562
  0
VERTEX
  5
155
  8
DEFAULT
 10
98.90722381350882
 20
236.9199999999999
 30
197.3789672851562
  0
VERTEX
  5
156
  8
DEFAULT
 10
99.19981561359276
 20
238.8875850953813
 30
197.3789672851562
  0
VERTEX
  5
157
  8
DEFAULT
 10
96.96384090235065
 20
238.8875850953813
 30
197.3789672851562
  0
VERTEX
  5
158
  8
DEFAULT
 10
97.2564327024346
 20
236.9199999999999
 30
197.3789672851562
  0
VERTEX
  5
159
  8
DEFAULT
 10
94.9072238135088
 20
236.9199999999999
 30
197.3789672851562
  0
VERTEX
  5
15A
  8
DEFAULT
 10
95.19981561359272
 20
238.8875850953813
 30
197.3789672851562
  0
VERTEX
  5
15B
  8
DEFAULT
 10
92.96384090235067
 20
238.8875850953812
 30
197.3789672851562
  0
VERTEX
  5
15C
  8
DEFAULT
 10
93.25643270243462
 20
236.9199999999999
 30
197.3789672851562
  0
VERTEX
  5
15D
  8
DEFAULT
 10
90.90722381350882
 20
236.9199999999999
 30
197.3789672851562
  0
VERTEX
  5
15E
  8
DEFAULT
 10
91.19981561359273
 20
238.8875850953813
 30
197.3789672851562
  0
VERTEX
  5
15F
  8
DEFAULT
 10
88.63280596664897
 20
238.8875850953814
 30
197.3789672851562
  0
SEQEND
  5
160
  8
DEFAULT
  0
POLYLINE
  5
161
  8
DEFAULT
 66
     1
 10
0.0
 20
0.0
 30
197.3789672851562
 70
     1
  0
VERTEX
  5
162
  8
DEFAULT
 10
91.81231553009502
 20
231.7438492860551
 30
197.3789672851562
  0
VERTEX
  5
163
  8
DEFAULT
 10
91.93791634491436
 20
231.7495102967972
 30
197.3789672851562
  0
VERTEX
  5
164
  8
DEFAULT
 10
92.06351668289653
 20
231.7438492860551
 30
197.3789672851562
  0
VERTEX
  5
165
  8
DEFAULT
 10
92.19226843765728
 20
231.7261643495316
 30
197.3789672851562
  0
VERTEX
  5
166
  8
DEFAULT
 10
92.3225389187669
 20
231.6955552186722
 30
197.3789672851562
  0
VERTEX
  5
167
  8
DEFAULT
 10
92.4524479573106
 20
231.6513657655472
 30
197.3789672851562
  0
VERTEX
  5
168
  8
DEFAULT
 10
92.57992894104473
 20
231.5933518495316
 30
197.3789672851562
  0
VERTEX
  5
169
  8
DEFAULT
 10
92.70281893661968
 20
231.5216507997269
 30
197.3789672851562
  0
VERTEX
  5
16A
  8
DEFAULT
 10
92.81896216324321
 20
231.4368882264847
 30
197.3789672851562
  0
VERTEX
  5
16B
  8
DEFAULT
 10
92.92632681778423
 20
231.3400864686722
 30
197.3789672851562
  0
VERTEX
  5
16C
  8
DEFAULT
 10
93.0231209462022
 20
231.2327256288285
 30
197.3789672851562
  0
VERTEX
  5
16D
  8
DEFAULT
 10
93.10788828781597
 20
231.1165909852738
 30
197.3789672851562
  0
VERTEX
  5
16E
  8
DEFAULT
 10
93.17958075455181
 20
230.9936966981644
 30
197.3789672851562
  0
VERTEX
  5
16F
  8
DEFAULT
 10
93.23759657791607
 20
230.8662095155472
 30
197.3789672851562
  0
VERTEX
  5
170
  8
DEFAULT
 10
93.28178269318096
 20
230.7363114442582
 30
197.3789672851562
  0
VERTEX
  5
171
  8
DEFAULT
 10
93.31240398338787
 20
230.6060319032426
 30
197.3789672851562
  0
VERTEX
  5
172
  8
DEFAULT
 10
93.33008582046978
 20
230.4772782411332
 30
197.3789672851562
  0
VERTEX
  5
173
  8
DEFAULT
 10
93.33574015549175
 20
230.3516831483597
 30
197.3789672851562
  0
VERTEX
  5
174
  8
DEFAULT
 10
93.33008582046978
 20
230.2260880555863
 30
197.3789672851562
  0
VERTEX
  5
175
  8
DEFAULT
 10
93.31240398338787
 20
230.0973343934769
 30
197.3789672851562
  0
VERTEX
  5
176
  8
DEFAULT
 10
93.28178269318096
 20
229.9670548524613
 30
197.3789672851562
  0
VERTEX
  5
177
  8
DEFAULT
 10
93.23759657791607
 20
229.8371567811722
 30
197.3789672851562
  0
VERTEX
  5
178
  8
DEFAULT
 10
93.17958075455181
 20
229.7096695985551
 30
197.3789672851562
  0
VERTEX
  5
179
  8
DEFAULT
 10
93.10788828781597
 20
229.5867753114457
 30
197.3789672851562
  0
VERTEX
  5
17A
  8
DEFAULT
 10
93.0231209462022
 20
229.470640667891
 30
197.3789672851562
  0
VERTEX
  5
17B
  8
DEFAULT
 10
92.92632681778423
 20
229.3632645692582
 30
197.3789672851562
  0
VERTEX
  5
17C
  8
DEFAULT
 10
92.81896216324321
 20
229.2664780702347
 30
197.3789672851562
  0
VERTEX
  5
17D
  8
DEFAULT
 10
92.70281893661968
 20
229.1817154969926
 30
197.3789672851562
  0
VERTEX
  5
17E
  8
DEFAULT
 10
92.57992894104473
 20
229.1100144471879
 30
197.3789672851562
  0
VERTEX
  5
17F
  8
DEFAULT
 10
92.4524479573106
 20
229.0520005311722
 30
197.3789672851562
  0
VERTEX
  5
180
  8
DEFAULT
 10
92.3225389187669
 20
229.0078110780472
 30
197.3789672851562
  0
VERTEX
  5
181
  8
DEFAULT
 10
92.19226843765728
 20
228.9772019471879
 30
197.3789672851562
  0
VERTEX
  5
182
  8
DEFAULT
 10
92.06351668289653
 20
228.9595170106644
 30
197.3789672851562
  0
VERTEX
  5
183
  8
DEFAULT
 10
91.93791634491436
 20
228.9538559999222
 30
197.3789672851562
  0
VERTEX
  5
184
  8
DEFAULT
 10
91.81231553009502
 20
228.9595170106644
 30
197.3789672851562
  0
VERTEX
  5
185
  8
DEFAULT
 10
91.68356377533428
 20
228.9772019471879
 30
197.3789672851562
  0
VERTEX
  5
186
  8
DEFAULT
 10
91.55329329422466
 20
229.0078110780472
 30
197.3789672851562
  0
VERTEX
  5
187
  8
DEFAULT
 10
91.42338473251812
 20
229.0520005311722
 30
197.3789672851562
  0
VERTEX
  5
188
  8
DEFAULT
 10
91.29590327194683
 20
229.1100144471879
 30
197.3789672851562
  0
VERTEX
  5
189
  8
DEFAULT
 10
91.17301327637188
 20
229.1817154969926
 30
197.3789672851562
  0
VERTEX
  5
18A
  8
DEFAULT
 10
91.0568705265855
 20
229.2664780702347
 30
197.3789672851562
  0
VERTEX
  5
18B
  8
DEFAULT
 10
90.94950539520732
 20
229.3632645692582
 30
197.3789672851562
  0
VERTEX
  5
18C
  8
DEFAULT
 10
90.85271126678936
 20
229.470640667891
 30
197.3789672851562
  0
VERTEX
  5
18D
  8
DEFAULT
 10
90.76794392517559
 20
229.5867753114457
 30
197.3789672851562
  0
VERTEX
  5
18E
  8
DEFAULT
 10
90.69625145843975
 20
229.7096695985551
 30
197.3789672851562
  0
VERTEX
  5
18F
  8
DEFAULT
 10
90.63823611191265
 20
229.8371567811722
 30
197.3789672851562
  0
VERTEX
  5
190
  8
DEFAULT
 10
90.59404999664775
 20
229.9670548524613
 30
197.3789672851562
  0
VERTEX
  5
191
  8
DEFAULT
 10
90.56342846802227
 20
230.0973343934769
 30
197.3789672851562
  0
VERTEX
  5
192
  8
DEFAULT
 10
90.54574686935894
 20
230.2260880555863
 30
197.3789672851562
  0
VERTEX
  5
193
  8
DEFAULT
 10
90.54009253433696
 20
230.3516831483597
 30
197.3789672851562
  0
VERTEX
  5
194
  8
DEFAULT
 10
90.54574686935894
 20
230.4772782411332
 30
197.3789672851562
  0
VERTEX
  5
195
  8
DEFAULT
 10
90.56342846802227
 20
230.6060319032426
 30
197.3789672851562
  0
VERTEX
  5
196
  8
DEFAULT
 10
90.59404999664775
 20
230.7363114442582
 30
197.3789672851562
  0
VERTEX
  5
197
  8
DEFAULT
 10
90.63823611191265
 20
230.8662095155472
 30
197.3789672851562
  0
VERTEX
  5
198
  8
DEFAULT
 10
90.69625145843975
 20
230.9936966981644
 30
197.3789672851562
  0
VERTEX
  5
199
  8
DEFAULT
 10
90.76794392517559
 20
231.1165909852738
 30
197.3789672851562
  0
VERTEX
  5
19A
  8
DEFAULT
 10
90.85271126678936
 20
231.2327256288285
 30
197.3789672851562
  0
VERTEX
  5
19B
  8
DEFAULT
 10
90.94950539520732
 20
231.3400864686722
 30
197.3789672851562
  0
VERTEX
  5
19C
  8
DEFAULT
 10
91.0568705265855
 20
231.4368882264847
 30
197.3789672851562
  0
VERTEX
  5
19D
  8
DEFAULT
 10
91.17301327637188
 20
231.5216507997269
 30
197.3789672851562
  0
VERTEX
  5
19E
  8
DEFAULT
 10
91.29590327194683
 20
231.5933518495316
 30
197.3789672851562
  0
VERTEX
  5
19F
  8
DEFAULT
 10
91.42338473251812
 20
231.6513657655472
 30
197.3789672851562
  0
VERTEX
  5
1A0
  8
DEFAULT
 10
91.55329329422466
 20
231.6955552186722
 30
197.3789672851562
  0
VERTEX
  5
1A1
  8
DEFAULT
 10
91.68356377533428
 20
231.7261643495316
 30
197.3789672851562
  0
SEQEND
  5
1A2
  8
DEFAULT
  0
POLYLINE
  5
1A3
  8
DEFAULT
 66
     1
 10
0.0
 20
0.0
 30
197.3789672851562
 70
     1
  0
VERTEX
  5
1A4
  8
DEFAULT
 10
92.17399889877788
 20
250.0530686464066
 30
197.3789672851562
  0
VERTEX
  5
1A5
  8
DEFAULT
 10
92.29959971359722
 20
250.0587296571488
 30
197.3789672851562
  0
VERTEX
  5
1A6
  8
DEFAULT
 10
92.4252000515794
 20
250.0530686464066
 30
197.3789672851562
  0
VERTEX
  5
1A7
  8
DEFAULT
 10
92.55395180634014
 20
250.0353837098832
 30
197.3789672851562
  0
VERTEX
  5
1A8
  8
DEFAULT
 10
92.68422228744976
 20
250.0047745790238
 30
197.3789672851562
  0
VERTEX
  5
1A9
  8
DEFAULT
 10
92.81413132599346
 20
249.9605851258988
 30
197.3789672851562
  0
VERTEX
  5
1AA
  8
DEFAULT
 10
92.94161230972759
 20
249.9025712098832
 30
197.3789672851562
  0
VERTEX
  5
1AB
  8
DEFAULT
 10
93.06450230530254
 20
249.8308701600785
 30
197.3789672851562
  0
VERTEX
  5
1AC
  8
DEFAULT
 10
93.18064553192607
 20
249.7461075868363
 30
197.3789672851562
  0
VERTEX
  5
1AD
  8
DEFAULT
 10
93.28801042488567
 20
249.6493058290238
 30
197.3789672851562
  0
VERTEX
  5
1AE
  8
DEFAULT
 10
93.30847627571575
 20
249.6266160096879
 30
197.3789672851562
  0
VERTEX
  5
1AF
  8
DEFAULT
 10
93.38480455330364
 20
249.5419449891801
 30
197.3789672851562
  0
VERTEX
  5
1B0
  8
DEFAULT
 10
93.46957189491741
 20
249.4258103456254
 30
197.3789672851562
  0
VERTEX
  5
1B1
  8
DEFAULT
 10
93.54126412323467
 20
249.302916058516
 30
197.3789672851562
  0
VERTEX
  5
1B2
  8
DEFAULT
 10
93.59927994659893
 20
249.1754288758988
 30
197.3789672851562
  0
VERTEX
  5
1B3
  8
DEFAULT
 10
93.64346606186382
 20
249.0455308046097
 30
197.3789672851562
  0
VERTEX
  5
1B4
  8
DEFAULT
 10
93.67408735207073
 20
248.9152512635941
 30
197.3789672851562
  0
VERTEX
  5
1B5
  8
DEFAULT
 10
93.69176918915264
 20
248.7864976014847
 30
197.3789672851562
  0
VERTEX
  5
1B6
  8
DEFAULT
 10
93.69742352417461
 20
248.6609025087113
 30
197.3789672851562
  0
VERTEX
  5
1B7
  8
DEFAULT
 10
93.69665343216411
 20
248.6437974061722
 30
197.3789672851562
  0
VERTEX
  5
1B8
  8
DEFAULT
 10
93.69176918915264
 20
248.5353074159379
 30
197.3789672851562
  0
VERTEX
  5
1B9
  8
DEFAULT
 10
93.67408735207073
 20
248.4065537538285
 30
197.3789672851562
  0
VERTEX
  5
1BA
  8
DEFAULT
 10
93.64346606186382
 20
248.2762742128129
 30
197.3789672851562
  0
VERTEX
  5
1BB
  8
DEFAULT
 10
93.59927994659893
 20
248.1463761415238
 30
197.3789672851562
  0
VERTEX
  5
1BC
  8
DEFAULT
 10
93.54126412323467
 20
248.0188889589066
 30
197.3789672851562
  0
VERTEX
  5
1BD
  8
DEFAULT
 10
93.46957189491741
 20
247.8959946717972
 30
197.3789672851562
  0
VERTEX
  5
1BE
  8
DEFAULT
 10
93.38480455330364
 20
247.7798600282426
 30
197.3789672851562
  0
VERTEX
  5
1BF
  8
DEFAULT
 10
93.28801042488567
 20
247.6724839296097
 30
197.3789672851562
  0
VERTEX
  5
1C0
  8
DEFAULT
 10
93.18064553192607
 20
247.5756974305863
 30
197.3789672851562
  0
VERTEX
  5
1C1
  8
DEFAULT
 10
93.06450230530254
 20
247.4909348573441
 30
197.3789672851562
  0
VERTEX
  5
1C2
  8
DEFAULT
 10
92.94161230972759
 20
247.4192338075394
 30
197.3789672851562
  0
VERTEX
  5
1C3
  8
DEFAULT
 10
92.81413132599346
 20
247.3612198915238
 30
197.3789672851562
  0
VERTEX
  5
1C4
  8
DEFAULT
 10
92.68422228744976
 20
247.3170304383988
 30
197.3789672851562
  0
VERTEX
  5
1C5
  8
DEFAULT
 10
92.55395180634014
 20
247.2864213075394
 30
197.3789672851562
  0
VERTEX
  5
1C6
  8
DEFAULT
 10
92.4252000515794
 20
247.268736371016
 30
197.3789672851562
  0
VERTEX
  5
1C7
  8
DEFAULT
 10
92.29959971359722
 20
247.2630753602738
 30
197.3789672851562
  0
VERTEX
  5
1C8
  8
DEFAULT
 10
92.17399889877788
 20
247.268736371016
 30
197.3789672851562
  0
VERTEX
  5
1C9
  8
DEFAULT
 10
92.04524714401714
 20
247.2864213075394
 30
197.3789672851562
  0
VERTEX
  5
1CA
  8
DEFAULT
 10
91.91497666290752
 20
247.3170304383988
 30
197.3789672851562
  0
VERTEX
  5
1CB
  8
DEFAULT
 10
91.78506810120098
 20
247.3612198915238
 30
197.3789672851562
  0
VERTEX
  5
1CC
  8
DEFAULT
 10
91.65758664062969
 20
247.4192338075394
 30
197.3789672851562
  0
VERTEX
  5
1CD
  8
DEFAULT
 10
91.53469664505474
 20
247.4909348573441
 30
197.3789672851562
  0
VERTEX
  5
1CE
  8
DEFAULT
 10
91.41855389526836
 20
247.5756974305863
 30
197.3789672851562
  0
VERTEX
  5
1CF
  8
DEFAULT
 10
91.31118876389019
 20
247.6724839296097
 30
197.3789672851562
  0
VERTEX
  5
1D0
  8
DEFAULT
 10
91.21439463547222
 20
247.7798600282426
 30
197.3789672851562
  0
VERTEX
  5
1D1
  8
DEFAULT
 10
91.12962729385845
 20
247.8959946717972
 30
197.3789672851562
  0
VERTEX
  5
1D2
  8
DEFAULT
 10
91.05793482712261
 20
248.0188889589066
 30
197.3789672851562
  0
VERTEX
  5
1D3
  8
DEFAULT
 10
90.99991948059551
 20
248.1463761415238
 30
197.3789672851562
  0
VERTEX
  5
1D4
  8
DEFAULT
 10
90.95573336533062
 20
248.2762742128129
 30
197.3789672851562
  0
VERTEX
  5
1D5
  8
DEFAULT
 10
90.92511183670513
 20
248.4065537538285
 30
197.3789672851562
  0
VERTEX
  5
1D6
  8
DEFAULT
 10
90.9074302380418
 20
248.5353074159379
 30
197.3789672851562
  0
VERTEX
  5
1D7
  8
DEFAULT
 10
90.90177590301982
 20
248.6609025087113
 30
197.3789672851562
  0
VERTEX
  5
1D8
  8
DEFAULT
 10
90.9074302380418
 20
248.7864976014847
 30
197.3789672851562
  0
VERTEX
  5
1D9
  8
DEFAULT
 10
90.92511183670513
 20
248.9152512635941
 30
197.3789672851562
  0
VERTEX
  5
1DA
  8
DEFAULT
 10
90.95573336533062
 20
249.0455308046097
 30
197.3789672851562
  0
VERTEX
  5
1DB
  8
DEFAULT
 10
90.99991948059551
 20
249.1754288758988
 30
197.3789672851562
  0
VERTEX
  5
1DC
  8
DEFAULT
 10
91.05793482712261
 20
249.302916058516
 30
197.3789672851562
  0
VERTEX
  5
1DD
  8
DEFAULT
 10
91.12962729385845
 20
249.4258103456254
 30
197.3789672851562
  0
VERTEX
  5
1DE
  8
DEFAULT
 10
91.21439463547222
 20
249.5419449891801
 30
197.3789672851562
  0
VERTEX
  5
1DF
  8
DEFAULT
 10
91.31118876389019
 20
249.6493058290238
 30
197.3789672851562
  0
VERTEX
  5
1E0
  8
DEFAULT
 10
91.41855389526836
 20
249.7461075868363
 30
197.3789672851562
  0
VERTEX
  5
1E1
  8
DEFAULT
 10
91.53469664505474
 20
249.8308701600785
 30
197.3789672851562
  0
VERTEX
  5
1E2
  8
DEFAULT
 10
91.65758664062969
 20
249.9025712098832
 30
197.3789672851562
  0
VERTEX
  5
1E3
  8
DEFAULT
 10
91.78506810120098
 20
249.9605851258988
 30
197.3789672851562
  0
VERTEX
  5
1E4
  8
DEFAULT
 10
91.91497666290752
 20
250.0047745790238
 30
197.3789672851562
  0
VERTEX
  5
1E5
  8
DEFAULT
 10
92.04524714401714
 20
250.0353837098832
 30
197.3789672851562
  0
SEQEND
  5
1E6
  8
DEFAULT
  0
POLYLINE
  5
1E7
  8
DEFAULT
 66
     1
 10
0.0
 20
0.0
 30
232.3789672851562
 70
     1
  0
VERTEX
  5
1E8
  8
DEFAULT
 10
88.63280596664868
 20
251.9883507774661
 30
232.3789672851562
  0
VERTEX
  5
1E9
  8
DEFAULT
 10
88.67955333585944
 20
251.9847585332379
 30
232.3789672851562
  0
VERTEX
  5
1EA
  8
DEFAULT
 10
88.72614769515228
 20
251.9795444725545
 30
232.3789672851562
  0
VERTEX
  5
1EB
  8
DEFAULT
 10
88.77253279563516
 20
251.9727148898502
 30
232.3789672851562
  0
VERTEX
  5
1EC
  8
DEFAULT
 10
88.81865264103405
 20
251.9642780298238
 30
232.3789672851562
  0
VERTEX
  5
1ED
  8
DEFAULT
 10
88.8644515552919
 20
251.9542440774858
 30
232.3789672851562
  0
VERTEX
  5
1EE
  8
DEFAULT
 10
88.90987424978098
 20
251.9426251458623
 30
232.3789672851562
  0
VERTEX
  5
1EF
  8
DEFAULT
 10
88.9548658900476
 20
251.929435261373
 30
232.3789672851562
  0
VERTEX
  5
1F0
  8
DEFAULT
 10
88.99937216200829
 20
251.9146903468978
 30
232.3789672851562
  0
VERTEX
  5
1F1
  8
DEFAULT
 10
89.04333933751816
 20
251.8984082025548
 30
232.3789672851562
  0
VERTEX
  5
1F2
  8
DEFAULT
 10
89.08671433923168
 20
251.8806084842122
 30
232.3789672851562
  0
VERTEX
  5
1F3
  8
DEFAULT
 10
89.12944480467775
 20
251.8613126797593
 30
232.3789672851562
  0
VERTEX
  5
1F4
  8
DEFAULT
 10
89.17147914947196
 20
251.8405440831664
 30
232.3789672851562
  0
VERTEX
  5
1F5
  8
DEFAULT
 10
89.21276662958967
 20
251.8183277663643
 30
232.3789672851562
  0
VERTEX
  5
1F6
  8
DEFAULT
 10
89.25325740262387
 20
251.794690548977
 30
232.3789672851562
  0
VERTEX
  5
1F7
  8
DEFAULT
 10
89.29290258795571
 20
251.7696609659456
 30
232.3789672851562
  0
VERTEX
  5
1F8
  8
DEFAULT
 10
89.33165432576295
 20
251.7432692330801
 30
232.3789672851562
  0
VERTEX
  5
1F9
  8
DEFAULT
 10
89.36946583479674
 20
251.7155472105835
 30
232.3789672851562
  0
VERTEX
  5
1FA
  8
DEFAULT
 10
89.40629146885611
 20
251.686528364589
 30
232.3789672851562
  0
VERTEX
  5
1FB
  8
DEFAULT
 10
89.44208677189208
 20
251.6562477267608
 30
232.3789672851562
  0
VERTEX
  5
1FC
  8
DEFAULT
 10
89.47680853167543
 20
251.6247418520028
 30
232.3789672851562
  0
VERTEX
  5
1FD
  8
DEFAULT
 10
89.51041483196244
 20
251.5920487743297
 30
232.3789672851562
  0
VERTEX
  5
1FE
  8
DEFAULT
 10
89.54286510309653
 20
251.5582079609522
 30
232.3789672851562
  0
VERTEX
  5
1FF
  8
DEFAULT
 10
89.5741201709839
 20
251.5232602646322
 30
232.3789672851562
  0
VERTEX
  5
200
  8
DEFAULT
 10
89.60414230438485
 20
251.4872478743648
 30
232.3789672851562
  0
VERTEX
  5
201
  8
DEFAULT
 10
89.63289526046302
 20
251.4502142644477
 30
232.3789672851562
  0
VERTEX
  5
202
  8
DEFAULT
 10
89.66034432853775
 20
251.4122041419992
 30
232.3789672851562
  0
VERTEX
  5
203
  8
DEFAULT
 10
89.68645637198715
 20
251.3732633929871
 30
232.3789672851562
  0
VERTEX
  5
204
  8
DEFAULT
 10
89.71119986825062
 20
251.3334390268355
 30
232.3789672851562
  0
VERTEX
  5
205
  8
DEFAULT
 10
89.73454494688313
 20
251.2927791196742
 30
232.3789672851562
  0
VERTEX
  5
206
  8
DEFAULT
 10
89.75646342561473
 20
251.2513327563016
 30
232.3789672851562
  0
VERTEX
  5
207
  8
DEFAULT
 10
89.77692884437253
 20
251.209149970929
 30
232.3789672851562
  0
VERTEX
  5
208
  8
DEFAULT
 10
89.79591649722329
 20
251.1662816867794
 30
232.3789672851562
  0
VERTEX
  5
209
  8
DEFAULT
 10
89.81340346219851
 20
251.1227796546121
 30
232.3789672851562
  0
VERTEX
  5
20A
  8
DEFAULT
 10
89.82936862896595
 20
251.0786963902501
 30
232.3789672851562
  0
VERTEX
  5
20B
  8
DEFAULT
 10
89.84379272431407
 20
251.0340851111818
 30
232.3789672851562
  0
VERTEX
  5
20C
  8
DEFAULT
 10
89.85665833541879
 20
250.9889996723171
 30
232.3789672851562
  0
VERTEX
  5
20D
  8
DEFAULT
 10
89.86794993086421
 20
250.9434945009735
 30
232.3789672851562
  0
VERTEX
  5
20E
  8
DEFAULT
 10
89.8776538793924
 20
250.8976245311709
 30
232.3789672851562
  0
VERTEX
  5
20F
  8
DEFAULT
 10
89.88575846635884
 20
250.8514451373158
 30
232.3789672851562
  0
VERTEX
  5
210
  8
DEFAULT
 10
89.89225390787458
 20
250.8050120673523
 30
232.3789672851562
  0
VERTEX
  5
211
  8
DEFAULT
 10
89.8971323626173
 20
250.7583813754633
 30
232.3789672851562
  0
VERTEX
  5
212
  8
DEFAULT
 10
89.90038794129745
 20
250.7116093544018
 30
232.3789672851562
  0
VERTEX
  5
213
  8
DEFAULT
 10
89.90201671376776
 20
250.6647524675338
 30
232.3789672851562
  0
VERTEX
  5
214
  8
DEFAULT
 10
89.90201671376776
 20
250.6178672806757
 30
232.3789672851562
  0
VERTEX
  5
215
  8
DEFAULT
 10
89.90038794129747
 20
250.5710103938077
 30
232.3789672851562
  0
VERTEX
  5
216
  8
DEFAULT
 10
89.89713236261728
 20
250.5242383727461
 30
232.3789672851562
  0
VERTEX
  5
217
  8
DEFAULT
 10
89.89225390787456
 20
250.4776076808572
 30
232.3789672851562
  0
VERTEX
  5
218
  8
DEFAULT
 10
89.88575846635884
 20
250.4311746108937
 30
232.3789672851562
  0
VERTEX
  5
219
  8
DEFAULT
 10
89.87765387939238
 20
250.3849952170386
 30
232.3789672851562
  0
VERTEX
  5
21A
  8
DEFAULT
 10
89.86794993086421
 20
250.3391252472361
 30
232.3789672851562
  0
VERTEX
  5
21B
  8
DEFAULT
 10
89.85665833541877
 20
250.2936200758924
 30
232.3789672851562
  0
VERTEX
  5
21C
  8
DEFAULT
 10
89.84379272431407
 20
250.2485346370277
 30
232.3789672851562
  0
VERTEX
  5
21D
  8
DEFAULT
 10
89.82936862896594
 20
250.2039233579594
 30
232.3789672851562
  0
VERTEX
  5
21E
  8
DEFAULT
 10
89.81340346219851
 20
250.1598400935974
 30
232.3789672851562
  0
VERTEX
  5
21F
  8
DEFAULT
 10
89.7959164972233
 20
250.1163380614302
 30
232.3789672851562
  0
VERTEX
  5
220
  8
DEFAULT
 10
89.77692884437252
 20
250.0734697772805
 30
232.3789672851562
  0
VERTEX
  5
221
  8
DEFAULT
 10
89.75646342561471
 20
250.0312869919079
 30
232.3789672851562
  0
VERTEX
  5
222
  8
DEFAULT
 10
89.7345449468831
 20
249.9898406285353
 30
232.3789672851562
  0
VERTEX
  5
223
  8
DEFAULT
 10
89.71119986825062
 20
249.949180721374
 30
232.3789672851562
  0
VERTEX
  5
224
  8
DEFAULT
 10
89.68645637198712
 20
249.9093563552224
 30
232.3789672851562
  0
VERTEX
  5
225
  8
DEFAULT
 10
89.66034432853773
 20
249.8704156062103
 30
232.3789672851562
  0
VERTEX
  5
226
  8
DEFAULT
 10
89.632895260463
 20
249.8324054837618
 30
232.3789672851562
  0
VERTEX
  5
227
  8
DEFAULT
 10
89.60414230438485
 20
249.7953718738448
 30
232.3789672851562
  0
VERTEX
  5
228
  8
DEFAULT
 10
89.57412017098387
 20
249.7593594835773
 30
232.3789672851562
  0
VERTEX
  5
229
  8
DEFAULT
 10
89.5428651030965
 20
249.7244117872573
 30
232.3789672851562
  0
VERTEX
  5
22A
  8
DEFAULT
 10
89.51041483196245
 20
249.6905709738799
 30
232.3789672851562
  0
VERTEX
  5
22B
  8
DEFAULT
 10
89.47680853167542
 20
249.6578778962067
 30
232.3789672851562
  0
VERTEX
  5
22C
  8
DEFAULT
 10
89.44208677189206
 20
249.6263720214487
 30
232.3789672851562
  0
VERTEX
  5
22D
  8
DEFAULT
 10
89.4062914688561
 20
249.5960913836205
 30
232.3789672851562
  0
VERTEX
  5
22E
  8
DEFAULT
 10
89.36946583479673
 20
249.5670725376261
 30
232.3789672851562
  0
VERTEX
  5
22F
  8
DEFAULT
 10
89.33165432576294
 20
249.5393505151294
 30
232.3789672851562
  0
VERTEX
  5
230
  8
DEFAULT
 10
89.2929025879557
 20
249.5129587822639
 30
232.3789672851562
  0
VERTEX
  5
231
  8
DEFAULT
 10
89.25325740262386
 20
249.4879291992325
 30
232.3789672851562
  0
VERTEX
  5
232
  8
DEFAULT
 10
89.21276662958965
 20
249.4642919818453
 30
232.3789672851562
  0
VERTEX
  5
233
  8
DEFAULT
 10
89.17147914947196
 20
249.4420756650431
 30
232.3789672851562
  0
VERTEX
  5
234
  8
DEFAULT
 10
89.12944480467772
 20
249.4213070684502
 30
232.3789672851562
  0
VERTEX
  5
235
  8
DEFAULT
 10
89.08671433923165
 20
249.4020112639973
 30
232.3789672851562
  0
VERTEX
  5
236
  8
DEFAULT
 10
89.04333933751815
 20
249.3842115456547
 30
232.3789672851562
  0
VERTEX
  5
237
  8
DEFAULT
 10
88.99937216200827
 20
249.3679294013118
 30
232.3789672851562
  0
VERTEX
  5
238
  8
DEFAULT
 10
88.95486589004759
 20
249.3531844868365
 30
232.3789672851562
  0
VERTEX
  5
239
  8
DEFAULT
 10
88.909874249781
 20
249.3399946023472
 30
232.3789672851562
  0
VERTEX
  5
23A
  8
DEFAULT
 10
88.86445155529188
 20
249.3283756707237
 30
232.3789672851562
  0
VERTEX
  5
23B
  8
DEFAULT
 10
88.81865264103402
 20
249.3183417183857
 30
232.3789672851562
  0
VERTEX
  5
23C
  8
DEFAULT
 10
88.77253279563512
 20
249.3099048583593
 30
232.3789672851562
  0
VERTEX
  5
23D
  8
DEFAULT
 10
88.72614769515225
 20
249.303075275655
 30
232.3789672851562
  0
VERTEX
  5
23E
  8
DEFAULT
 10
88.6795533358594
 20
249.2978612149716
 30
232.3789672851562
  0
VERTEX
  5
23F
  8
DEFAULT
 10
88.63280596664866
 20
249.2942689707434
 30
232.3789672851562
  0
VERTEX
  5
240
  8
DEFAULT
 10
88.63280596664865
 20
247.4883507774663
 30
232.3789672851562
  0
VERTEX
  5
241
  8
DEFAULT
 10
88.67955333585941
 20
247.4847585332381
 30
232.3789672851562
  0
VERTEX
  5
242
  8
DEFAULT
 10
88.72614769515226
 20
247.4795444725546
 30
232.3789672851562
  0
VERTEX
  5
243
  8
DEFAULT
 10
88.77253279563514
 20
247.4727148898503
 30
232.3789672851562
  0
VERTEX
  5
244
  8
DEFAULT
 10
88.81865264103399
 20
247.464278029824
 30
232.3789672851562
  0
VERTEX
  5
245
  8
DEFAULT
 10
88.86445155529186
 20
247.4542440774859
 30
232.3789672851562
  0
VERTEX
  5
246
  8
DEFAULT
 10
88.90987424978098
 20
247.4426251458625
 30
232.3789672851562
  0
VERTEX
  5
247
  8
DEFAULT
 10
88.95486589004759
 20
247.4294352613731
 30
232.3789672851562
  0
VERTEX
  5
248
  8
DEFAULT
 10
88.99937216200826
 20
247.4146903468979
 30
232.3789672851562
  0
VERTEX
  5
249
  8
DEFAULT
 10
89.04333933751815
 20
247.3984082025549
 30
232.3789672851562
  0
VERTEX
  5
24A
  8
DEFAULT
 10
89.08671433923165
 20
247.3806084842124
 30
232.3789672851562
  0
VERTEX
  5
24B
  8
DEFAULT
 10
89.12944480467772
 20
247.3613126797594
 30
232.3789672851562
  0
VERTEX
  5
24C
  8
DEFAULT
 10
89.17147914947193
 20
247.3405440831665
 30
232.3789672851562
  0
VERTEX
  5
24D
  8
DEFAULT
 10
89.21276662958967
 20
247.3183277663644
 30
232.3789672851562
  0
VERTEX
  5
24E
  8
DEFAULT
 10
89.25325740262384
 20
247.2946905489771
 30
232.3789672851562
  0
VERTEX
  5
24F
  8
DEFAULT
 10
89.29290258795568
 20
247.2696609659457
 30
232.3789672851562
  0
VERTEX
  5
250
  8
DEFAULT
 10
89.33165432576293
 20
247.2432692330803
 30
232.3789672851562
  0
VERTEX
  5
251
  8
DEFAULT
 10
89.36946583479674
 20
247.2155472105836
 30
232.3789672851562
  0
VERTEX
  5
252
  8
DEFAULT
 10
89.4062914688561
 20
247.1865283645891
 30
232.3789672851562
  0
VERTEX
  5
253
  8
DEFAULT
 10
89.44208677189205
 20
247.1562477267609
 30
232.3789672851562
  0
VERTEX
  5
254
  8
DEFAULT
 10
89.47680853167542
 20
247.1247418520029
 30
232.3789672851562
  0
VERTEX
  5
255
  8
DEFAULT
 10
89.51041483196245
 20
247.0920487743298
 30
232.3789672851562
  0
VERTEX
  5
256
  8
DEFAULT
 10
89.54286510309653
 20
247.0582079609523
 30
232.3789672851562
  0
VERTEX
  5
257
  8
DEFAULT
 10
89.57412017098387
 20
247.0232602646323
 30
232.3789672851562
  0
VERTEX
  5
258
  8
DEFAULT
 10
89.60414230438487
 20
246.9872478743648
 30
232.3789672851562
  0
VERTEX
  5
259
  8
DEFAULT
 10
89.632895260463
 20
246.9502142644478
 30
232.3789672851562
  0
VERTEX
  5
25A
  8
DEFAULT
 10
89.66034432853773
 20
246.9122041419993
 30
232.3789672851562
  0
VERTEX
  5
25B
  8
DEFAULT
 10
89.68645637198715
 20
246.8732633929872
 30
232.3789672851562
  0
VERTEX
  5
25C
  8
DEFAULT
 10
89.7111998682506
 20
246.8334390268356
 30
232.3789672851562
  0
VERTEX
  5
25D
  8
DEFAULT
 10
89.73454494688313
 20
246.7927791196743
 30
232.3789672851562
  0
VERTEX
  5
25E
  8
DEFAULT
 10
89.75646342561473
 20
246.7513327563017
 30
232.3789672851562
  0
VERTEX
  5
25F
  8
DEFAULT
 10
89.77692884437253
 20
246.7091499709292
 30
232.3789672851562
  0
VERTEX
  5
260
  8
DEFAULT
 10
89.7959164972233
 20
246.6662816867794
 30
232.3789672851562
  0
VERTEX
  5
261
  8
DEFAULT
 10
89.81340346219851
 20
246.6227796546123
 30
232.3789672851562
  0
VERTEX
  5
262
  8
DEFAULT
 10
89.82936862896595
 20
246.5786963902503
 30
232.3789672851562
  0
VERTEX
  5
263
  8
DEFAULT
 10
89.84379272431407
 20
246.534085111182
 30
232.3789672851562
  0
VERTEX
  5
264
  8
DEFAULT
 10
89.85665833541877
 20
246.4889996723172
 30
232.3789672851562
  0
VERTEX
  5
265
  8
DEFAULT
 10
89.86794993086423
 20
246.4434945009735
 30
232.3789672851562
  0
VERTEX
  5
266
  8
DEFAULT
 10
89.8776538793924
 20
246.397624531171
 30
232.3789672851562
  0
VERTEX
  5
267
  8
DEFAULT
 10
89.88575846635884
 20
246.3514451373159
 30
232.3789672851562
  0
VERTEX
  5
268
  8
DEFAULT
 10
89.89225390787456
 20
246.3050120673524
 30
232.3789672851562
  0
VERTEX
  5
269
  8
DEFAULT
 10
89.89713236261731
 20
246.2583813754634
 30
232.3789672851562
  0
VERTEX
  5
26A
  8
DEFAULT
 10
89.90038794129747
 20
246.2116093544019
 30
232.3789672851562
  0
VERTEX
  5
26B
  8
DEFAULT
 10
89.90201671376776
 20
246.1647524675339
 30
232.3789672851562
  0
VERTEX
  5
26C
  8
DEFAULT
 10
89.90201671376778
 20
246.1178672806757
 30
232.3789672851562
  0
VERTEX
  5
26D
  8
DEFAULT
 10
89.90038794129745
 20
246.0710103938078
 30
232.3789672851562
  0
VERTEX
  5
26E
  8
DEFAULT
 10
89.89713236261731
 20
246.0242383727463
 30
232.3789672851562
  0
VERTEX
  5
26F
  8
DEFAULT
 10
89.89225390787456
 20
245.9776076808573
 30
232.3789672851562
  0
VERTEX
  5
270
  8
DEFAULT
 10
89.88575846635882
 20
245.9311746108937
 30
232.3789672851562
  0
VERTEX
  5
271
  8
DEFAULT
 10
89.87765387939238
 20
245.8849952170386
 30
232.3789672851562
  0
VERTEX
  5
272
  8
DEFAULT
 10
89.86794993086423
 20
245.8391252472362
 30
232.3789672851562
  0
VERTEX
  5
273
  8
DEFAULT
 10
89.85665833541877
 20
245.7936200758925
 30
232.3789672851562
  0
VERTEX
  5
274
  8
DEFAULT
 10
89.84379272431406
 20
245.7485346370277
 30
232.3789672851562
  0
VERTEX
  5
275
  8
DEFAULT
 10
89.82936862896595
 20
245.7039233579594
 30
232.3789672851562
  0
VERTEX
  5
276
  8
DEFAULT
 10
89.81340346219852
 20
245.6598400935975
 30
232.3789672851562
  0
VERTEX
  5
277
  8
DEFAULT
 10
89.7959164972233
 20
245.6163380614303
 30
232.3789672851562
  0
VERTEX
  5
278
  8
DEFAULT
 10
89.77692884437253
 20
245.5734697772805
 30
232.3789672851562
  0
VERTEX
  5
279
  8
DEFAULT
 10
89.75646342561471
 20
245.531286991908
 30
232.3789672851562
  0
VERTEX
  5
27A
  8
DEFAULT
 10
89.73454494688312
 20
245.4898406285354
 30
232.3789672851562
  0
VERTEX
  5
27B
  8
DEFAULT
 10
89.71119986825062
 20
245.4491807213741
 30
232.3789672851562
  0
VERTEX
  5
27C
  8
DEFAULT
 10
89.68645637198713
 20
245.4093563552224
 30
232.3789672851562
  0
VERTEX
  5
27D
  8
DEFAULT
 10
89.66034432853773
 20
245.3704156062104
 30
232.3789672851562
  0
VERTEX
  5
27E
  8
DEFAULT
 10
89.632895260463
 20
245.3324054837619
 30
232.3789672851562
  0
VERTEX
  5
27F
  8
DEFAULT
 10
89.60414230438485
 20
245.2953718738448
 30
232.3789672851562
  0
VERTEX
  5
280
  8
DEFAULT
 10
89.57412017098387
 20
245.2593594835774
 30
232.3789672851562
  0
VERTEX
  5
281
  8
DEFAULT
 10
89.54286510309652
 20
245.2244117872574
 30
232.3789672851562
  0
VERTEX
  5
282
  8
DEFAULT
 10
89.51041483196244
 20
245.1905709738799
 30
232.3789672851562
  0
VERTEX
  5
283
  8
DEFAULT
 10
89.47680853167542
 20
245.1578778962068
 30
232.3789672851562
  0
VERTEX
  5
284
  8
DEFAULT
 10
89.44208677189206
 20
245.1263720214488
 30
232.3789672851562
  0
VERTEX
  5
285
  8
DEFAULT
 10
89.40629146885605
 20
245.0960913836205
 30
232.3789672851562
  0
VERTEX
  5
286
  8
DEFAULT
 10
89.36946583479674
 20
245.0670725376262
 30
232.3789672851562
  0
VERTEX
  5
287
  8
DEFAULT
 10
89.33165432576294
 20
245.0393505151294
 30
232.3789672851562
  0
VERTEX
  5
288
  8
DEFAULT
 10
89.29290258795568
 20
245.012958782264
 30
232.3789672851562
  0
VERTEX
  5
289
  8
DEFAULT
 10
89.25325740262386
 20
244.9879291992326
 30
232.3789672851562
  0
VERTEX
  5
28A
  8
DEFAULT
 10
89.21276662958967
 20
244.9642919818453
 30
232.3789672851562
  0
VERTEX
  5
28B
  8
DEFAULT
 10
89.17147914947199
 20
244.9420756650431
 30
232.3789672851562
  0
VERTEX
  5
28C
  8
DEFAULT
 10
89.12944480467772
 20
244.9213070684503
 30
232.3789672851562
  0
VERTEX
  5
28D
  8
DEFAULT
 10
89.08671433923165
 20
244.9020112639973
 30
232.3789672851562
  0
VERTEX
  5
28E
  8
DEFAULT
 10
89.04333933751815
 20
244.8842115456548
 30
232.3789672851562
  0
VERTEX
  5
28F
  8
DEFAULT
 10
88.99937216200826
 20
244.8679294013118
 30
232.3789672851562
  0
VERTEX
  5
290
  8
DEFAULT
 10
88.9548658900476
 20
244.8531844868366
 30
232.3789672851562
  0
VERTEX
  5
291
  8
DEFAULT
 10
88.90987424978098
 20
244.8399946023472
 30
232.3789672851562
  0
VERTEX
  5
292
  8
DEFAULT
 10
88.86445155529186
 20
244.8283756707238
 30
232.3789672851562
  0
VERTEX
  5
293
  8
DEFAULT
 10
88.81865264103399
 20
244.8183417183857
 30
232.3789672851562
  0
VERTEX
  5
294
  8
DEFAULT
 10
88.7725327956351
 20
244.8099048583594
 30
232.3789672851562
  0
VERTEX
  5
295
  8
DEFAULT
 10
88.72614769515222
 20
244.8030752756551
 30
232.3789672851562
  0
VERTEX
  5
296
  8
DEFAULT
 10
88.67955333585935
 20
244.7978612149716
 30
232.3789672851562
  0
VERTEX
  5
297
  8
DEFAULT
 10
88.63280596664865
 20
244.7942689707434
 30
232.3789672851562
  0
VERTEX
  5
298
  8
DEFAULT
 10
88.63280596664866
 20
242.9883507774663
 30
232.3789672851562
  0
VERTEX
  5
299
  8
DEFAULT
 10
88.67955333585942
 20
242.9847585332381
 30
232.3789672851562
  0
VERTEX
  5
29A
  8
DEFAULT
 10
88.72614769515228
 20
242.9795444725546
 30
232.3789672851562
  0
VERTEX
  5
29B
  8
DEFAULT
 10
88.77253279563516
 20
242.9727148898503
 30
232.3789672851562
  0
VERTEX
  5
29C
  8
DEFAULT
 10
88.818652641034
 20
242.964278029824
 30
232.3789672851562
  0
VERTEX
  5
29D
  8
DEFAULT
 10
88.86445155529188
 20
242.9542440774859
 30
232.3789672851562
  0
VERTEX
  5
29E
  8
DEFAULT
 10
88.909874249781
 20
242.9426251458625
 30
232.3789672851562
  0
VERTEX
  5
29F
  8
DEFAULT
 10
88.95486589004763
 20
242.9294352613731
 30
232.3789672851562
  0
VERTEX
  5
2A0
  8
DEFAULT
 10
88.99937216200827
 20
242.9146903468979
 30
232.3789672851562
  0
VERTEX
  5
2A1
  8
DEFAULT
 10
89.04333933751816
 20
242.8984082025549
 30
232.3789672851562
  0
VERTEX
  5
2A2
  8
DEFAULT
 10
89.08671433923168
 20
242.8806084842123
 30
232.3789672851562
  0
VERTEX
  5
2A3
  8
DEFAULT
 10
89.12944480467773
 20
242.8613126797594
 30
232.3789672851562
  0
VERTEX
  5
2A4
  8
DEFAULT
 10
89.17147914947195
 20
242.8405440831666
 30
232.3789672851562
  0
VERTEX
  5
2A5
  8
DEFAULT
 10
89.21276662958968
 20
242.8183277663643
 30
232.3789672851562
  0
VERTEX
  5
2A6
  8
DEFAULT
 10
89.25325740262387
 20
242.7946905489771
 30
232.3789672851562
  0
VERTEX
  5
2A7
  8
DEFAULT
 10
89.29290258795571
 20
242.7696609659457
 30
232.3789672851562
  0
VERTEX
  5
2A8
  8
DEFAULT
 10
89.33165432576297
 20
242.7432692330803
 30
232.3789672851562
  0
VERTEX
  5
2A9
  8
DEFAULT
 10
89.36946583479677
 20
242.7155472105835
 30
232.3789672851562
  0
VERTEX
  5
2AA
  8
DEFAULT
 10
89.40629146885612
 20
242.6865283645891
 30
232.3789672851562
  0
VERTEX
  5
2AB
  8
DEFAULT
 10
89.44208677189208
 20
242.6562477267609
 30
232.3789672851562
  0
VERTEX
  5
2AC
  8
DEFAULT
 10
89.47680853167543
 20
242.6247418520029
 30
232.3789672851562
  0
VERTEX
  5
2AD
  8
DEFAULT
 10
89.51041483196246
 20
242.5920487743298
 30
232.3789672851562
  0
VERTEX
  5
2AE
  8
DEFAULT
 10
89.5428651030965
 20
242.5582079609523
 30
232.3789672851562
  0
VERTEX
  5
2AF
  8
DEFAULT
 10
89.57412017098392
 20
242.5232602646323
 30
232.3789672851562
  0
VERTEX
  5
2B0
  8
DEFAULT
 10
89.60414230438487
 20
242.4872478743648
 30
232.3789672851562
  0
VERTEX
  5
2B1
  8
DEFAULT
 10
89.63289526046302
 20
242.4502142644478
 30
232.3789672851562
  0
VERTEX
  5
2B2
  8
DEFAULT
 10
89.66034432853775
 20
242.4122041419993
 30
232.3789672851562
  0
VERTEX
  5
2B3
  8
DEFAULT
 10
89.68645637198716
 20
242.3732633929872
 30
232.3789672851562
  0
VERTEX
  5
2B4
  8
DEFAULT
 10
89.71119986825063
 20
242.3334390268356
 30
232.3789672851562
  0
VERTEX
  5
2B5
  8
DEFAULT
 10
89.73454494688312
 20
242.2927791196743
 30
232.3789672851562
  0
VERTEX
  5
2B6
  8
DEFAULT
 10
89.75646342561475
 20
242.2513327563017
 30
232.3789672851562
  0
VERTEX
  5
2B7
  8
DEFAULT
 10
89.77692884437255
 20
242.2091499709291
 30
232.3789672851562
  0
VERTEX
  5
2B8
  8
DEFAULT
 10
89.79591649722333
 20
242.1662816867794
 30
232.3789672851562
  0
VERTEX
  5
2B9
  8
DEFAULT
 10
89.81340346219855
 20
242.1227796546122
 30
232.3789672851562
  0
VERTEX
  5
2BA
  8
DEFAULT
 10
89.82936862896597
 20
242.0786963902502
 30
232.3789672851562
  0
VERTEX
  5
2BB
  8
DEFAULT
 10
89.84379272431408
 20
242.0340851111819
 30
232.3789672851562
  0
VERTEX
  5
2BC
  8
DEFAULT
 10
89.8566583354188
 20
241.9889996723172
 30
232.3789672851562
  0
VERTEX
  5
2BD
  8
DEFAULT
 10
89.86794993086423
 20
241.9434945009735
 30
232.3789672851562
  0
VERTEX
  5
2BE
  8
DEFAULT
 10
89.87765387939243
 20
241.897624531171
 30
232.3789672851562
  0
VERTEX
  5
2BF
  8
DEFAULT
 10
89.88575846635885
 20
241.8514451373159
 30
232.3789672851562
  0
VERTEX
  5
2C0
  8
DEFAULT
 10
89.89225390787458
 20
241.8050120673524
 30
232.3789672851562
  0
VERTEX
  5
2C1
  8
DEFAULT
 10
89.89713236261733
 20
241.7583813754634
 30
232.3789672851562
  0
VERTEX
  5
2C2
  8
DEFAULT
 10
89.90038794129748
 20
241.7116093544019
 30
232.3789672851562
  0
VERTEX
  5
2C3
  8
DEFAULT
 10
89.90201671376778
 20
241.6647524675339
 30
232.3789672851562
  0
VERTEX
  5
2C4
  8
DEFAULT
 10
89.9020167137678
 20
241.6178672806757
 30
232.3789672851562
  0
VERTEX
  5
2C5
  8
DEFAULT
 10
89.90038794129747
 20
241.5710103938077
 30
232.3789672851562
  0
VERTEX
  5
2C6
  8
DEFAULT
 10
89.89713236261731
 20
241.5242383727462
 30
232.3789672851562
  0
VERTEX
  5
2C7
  8
DEFAULT
 10
89.89225390787458
 20
241.4776076808572
 30
232.3789672851562
  0
VERTEX
  5
2C8
  8
DEFAULT
 10
89.88575846635884
 20
241.4311746108937
 30
232.3789672851562
  0
VERTEX
  5
2C9
  8
DEFAULT
 10
89.87765387939241
 20
241.3849952170386
 30
232.3789672851562
  0
VERTEX
  5
2CA
  8
DEFAULT
 10
89.86794993086423
 20
241.3391252472361
 30
232.3789672851562
  0
VERTEX
  5
2CB
  8
DEFAULT
 10
89.85665833541877
 20
241.2936200758924
 30
232.3789672851562
  0
VERTEX
  5
2CC
  8
DEFAULT
 10
89.84379272431407
 20
241.2485346370277
 30
232.3789672851562
  0
VERTEX
  5
2CD
  8
DEFAULT
 10
89.82936862896595
 20
241.2039233579594
 30
232.3789672851562
  0
VERTEX
  5
2CE
  8
DEFAULT
 10
89.81340346219854
 20
241.1598400935974
 30
232.3789672851562
  0
VERTEX
  5
2CF
  8
DEFAULT
 10
89.79591649722332
 20
241.1163380614302
 30
232.3789672851562
  0
VERTEX
  5
2D0
  8
DEFAULT
 10
89.77692884437253
 20
241.0734697772805
 30
232.3789672851562
  0
VERTEX
  5
2D1
  8
DEFAULT
 10
89.75646342561473
 20
241.0312869919079
 30
232.3789672851562
  0
VERTEX
  5
2D2
  8
DEFAULT
 10
89.7345449468831
 20
240.9898406285353
 30
232.3789672851562
  0
VERTEX
  5
2D3
  8
DEFAULT
 10
89.71119986825063
 20
240.9491807213741
 30
232.3789672851562
  0
VERTEX
  5
2D4
  8
DEFAULT
 10
89.68645637198713
 20
240.9093563552223
 30
232.3789672851562
  0
VERTEX
  5
2D5
  8
DEFAULT
 10
89.66034432853775
 20
240.8704156062104
 30
232.3789672851562
  0
VERTEX
  5
2D6
  8
DEFAULT
 10
89.632895260463
 20
240.8324054837618
 30
232.3789672851562
  0
VERTEX
  5
2D7
  8
DEFAULT
 10
89.60414230438485
 20
240.7953718738448
 30
232.3789672851562
  0
VERTEX
  5
2D8
  8
DEFAULT
 10
89.5741201709839
 20
240.7593594835773
 30
232.3789672851562
  0
VERTEX
  5
2D9
  8
DEFAULT
 10
89.54286510309652
 20
240.7244117872573
 30
232.3789672851562
  0
VERTEX
  5
2DA
  8
DEFAULT
 10
89.51041483196244
 20
240.6905709738799
 30
232.3789672851562
  0
VERTEX
  5
2DB
  8
DEFAULT
 10
89.47680853167542
 20
240.6578778962067
 30
232.3789672851562
  0
VERTEX
  5
2DC
  8
DEFAULT
 10
89.44208677189206
 20
240.6263720214487
 30
232.3789672851562
  0
VERTEX
  5
2DD
  8
DEFAULT
 10
89.4062914688561
 20
240.5960913836205
 30
232.3789672851562
  0
VERTEX
  5
2DE
  8
DEFAULT
 10
89.36946583479674
 20
240.5670725376261
 30
232.3789672851562
  0
VERTEX
  5
2DF
  8
DEFAULT
 10
89.33165432576294
 20
240.5393505151294
 30
232.3789672851562
  0
VERTEX
  5
2E0
  8
DEFAULT
 10
89.29290258795568
 20
240.5129587822639
 30
232.3789672851562
  0
VERTEX
  5
2E1
  8
DEFAULT
 10
89.25325740262384
 20
240.4879291992325
 30
232.3789672851562
  0
VERTEX
  5
2E2
  8
DEFAULT
 10
89.21276662958961
 20
240.4642919818453
 30
232.3789672851562
  0
VERTEX
  5
2E3
  8
DEFAULT
 10
89.17147914947198
 20
240.4420756650431
 30
232.3789672851562
  0
VERTEX
  5
2E4
  8
DEFAULT
 10
89.12944480467772
 20
240.4213070684502
 30
232.3789672851562
  0
VERTEX
  5
2E5
  8
DEFAULT
 10
89.08671433923165
 20
240.4020112639973
 30
232.3789672851562
  0
VERTEX
  5
2E6
  8
DEFAULT
 10
89.04333933751813
 20
240.3842115456547
 30
232.3789672851562
  0
VERTEX
  5
2E7
  8
DEFAULT
 10
88.9993721620083
 20
240.3679294013118
 30
232.3789672851562
  0
VERTEX
  5
2E8
  8
DEFAULT
 10
88.95486589004759
 20
240.3531844868365
 30
232.3789672851562
  0
VERTEX
  5
2E9
  8
DEFAULT
 10
88.90987424978097
 20
240.3399946023472
 30
232.3789672851562
  0
VERTEX
  5
2EA
  8
DEFAULT
 10
88.86445155529185
 20
240.3283756707237
 30
232.3789672851562
  0
VERTEX
  5
2EB
  8
DEFAULT
 10
88.81865264103399
 20
240.3183417183857
 30
232.3789672851562
  0
VERTEX
  5
2EC
  8
DEFAULT
 10
88.77253279563509
 20
240.3099048583593
 30
232.3789672851562
  0
VERTEX
  5
2ED
  8
DEFAULT
 10
88.72614769515226
 20
240.303075275655
 30
232.3789672851562
  0
VERTEX
  5
2EE
  8
DEFAULT
 10
88.6795533358594
 20
240.2978612149716
 30
232.3789672851562
  0
VERTEX
  5
2EF
  8
DEFAULT
 10
88.63280596664863
 20
240.2942689707434
 30
232.3789672851562
  0
VERTEX
  5
2F0
  8
DEFAULT
 10
88.63280596664862
 20
239.0475850953808
 30
232.3789672851562
  0
VERTEX
  5
2F1
  8
DEFAULT
 10
91.19981561359246
 20
239.0475850953808
 30
232.3789672851562
  0
VERTEX
  5
2F2
  8
DEFAULT
 10
90.90722381350848
 20
241.0151701907621
 30
232.3789672851562
  0
VERTEX
  5
2F3
  8
DEFAULT
 10
93.25643270243428
 20
241.0151701907621
 30
232.3789672851562
  0
VERTEX
  5
2F4
  8
DEFAULT
 10
92.96384090235028
 20
239.0475850953808
 30
232.3789672851562
  0
VERTEX
  5
2F5
  8
DEFAULT
 10
95.19981561359242
 20
239.0475850953808
 30
232.3789672851562
  0
VERTEX
  5
2F6
  8
DEFAULT
 10
94.90722381350847
 20
241.0151701907621
 30
232.3789672851562
  0
VERTEX
  5
2F7
  8
DEFAULT
 10
97.25643270243425
 20
241.0151701907621
 30
232.3789672851562
  0
VERTEX
  5
2F8
  8
DEFAULT
 10
96.96384090235031
 20
239.0475850953808
 30
232.3789672851562
  0
VERTEX
  5
2F9
  8
DEFAULT
 10
99.19981561359245
 20
239.0475850953808
 30
232.3789672851562
  0
VERTEX
  5
2FA
  8
DEFAULT
 10
98.90722381350848
 20
241.0151701907621
 30
232.3789672851562
  0
VERTEX
  5
2FB
  8
DEFAULT
 10
101.2564327024343
 20
241.0151701907621
 30
232.3789672851562
  0
VERTEX
  5
2FC
  8
DEFAULT
 10
100.9638409023503
 20
239.0475850953808
 30
232.3789672851562
  0
VERTEX
  5
2FD
  8
DEFAULT
 10
103.7103203511959
 20
239.0475850953808
 30
232.3789672851562
  0
VERTEX
  5
2FE
  8
DEFAULT
 10
103.6802421371458
 20
239.2376634357622
 30
232.3789672851562
  0
VERTEX
  5
2FF
  8
DEFAULT
 10
103.6752670975116
 20
239.269067479764
 30
232.3789672851562
  0
VERTEX
  5
300
  8
DEFAULT
 10
103.6349661366501
 20
239.5231730442462
 30
232.3789672851562
  0
VERTEX
  5
301
  8
DEFAULT
 10
103.6310291542697
 20
239.547966424691
 30
232.3789672851562
  0
VERTEX
  5
302
  8
DEFAULT
 10
103.627620130783
 20
239.558333984765
 30
232.3789672851562
  0
VERTEX
  5
303
  8
DEFAULT
 10
103.5865598581527
 20
239.8178818380527
 30
232.3789672851562
  0
VERTEX
  5
304
  8
DEFAULT
 10
103.5816635852921
 20
239.8487954258352
 30
232.3789672851562
  0
VERTEX
  5
305
  8
DEFAULT
 10
103.5616676758587
 20
239.9750196066958
 30
232.3789672851562
  0
VERTEX
  5
306
  8
DEFAULT
 10
103.5486890246037
 20
239.9830467389006
 30
232.3789672851562
  0
VERTEX
  5
307
  8
DEFAULT
 10
103.5478803927854
 20
239.9835469042006
 30
232.3789672851562
  0
VERTEX
  5
308
  8
DEFAULT
 10
103.3597344637965
 20
240.0995880044065
 30
232.3789672851562
  0
VERTEX
  5
309
  8
DEFAULT
 10
103.3340818006708
 20
240.1227500108306
 30
232.3789672851562
  0
VERTEX
  5
30A
  8
DEFAULT
 10
103.3326686159283
 20
240.12472855363
 30
232.3789672851562
  0
VERTEX
  5
30B
  8
DEFAULT
 10
103.3312958591807
 20
240.1266440305367
 30
232.3789672851562
  0
VERTEX
  5
30C
  8
DEFAULT
 10
103.0106070380124
 20
240.5751780972942
 30
232.3789672851562
  0
VERTEX
  5
30D
  8
DEFAULT
 10
103.0076811717227
 20
240.5792714457648
 30
232.3789672851562
  0
VERTEX
  5
30E
  8
DEFAULT
 10
102.9967058154046
 20
240.5946262020103
 30
232.3789672851562
  0
VERTEX
  5
30F
  8
DEFAULT
 10
102.9937509541741
 20
240.6132674407239
 30
232.3789672851562
  0
VERTEX
  5
310
  8
DEFAULT
 10
102.9928479729939
 20
240.6189640513831
 30
232.3789672851562
  0
VERTEX
  5
311
  8
DEFAULT
 10
102.7934244126655
 20
241.8781086353718
 30
232.3789672851562
  0
VERTEX
  5
312
  8
DEFAULT
 10
102.787791574431
 20
241.9136709416969
 30
232.3789672851562
  0
VERTEX
  5
313
  8
DEFAULT
 10
102.7934931663294
 20
241.9316785302792
 30
232.3789672851562
  0
VERTEX
  5
314
  8
DEFAULT
 10
102.7957262007322
 20
241.9387312201721
 30
232.3789672851562
  0
VERTEX
  5
315
  8
DEFAULT
 10
102.9621061937688
 20
242.4644320259267
 30
232.3789672851562
  0
VERTEX
  5
316
  8
DEFAULT
 10
102.9628544097269
 20
242.4667990138587
 30
232.3789672851562
  0
VERTEX
  5
317
  8
DEFAULT
 10
102.9677075876938
 20
242.4821520331305
 30
232.3789672851562
  0
VERTEX
  5
318
  8
DEFAULT
 10
102.978122531218
 20
242.4944319960183
 30
232.3789672851562
  0
VERTEX
  5
319
  8
DEFAULT
 10
102.9787749186208
 20
242.4952012060929
 30
232.3789672851562
  0
VERTEX
  5
31A
  8
DEFAULT
 10
103.1218755599361
 20
242.6638567428631
 30
232.3789672851562
  0
VERTEX
  5
31B
  8
DEFAULT
 10
103.12383042089
 20
242.666154690766
 30
232.3789672851562
  0
VERTEX
  5
31C
  8
DEFAULT
 10
103.133258064388
 20
242.6772366762974
 30
232.3789672851562
  0
VERTEX
  5
31D
  8
DEFAULT
 10
103.0698234836141
 20
243.0701943566686
 30
232.3789672851562
  0
VERTEX
  5
31E
  8
DEFAULT
 10
103.0681662953885
 20
243.0908265178575
 30
232.3789672851562
  0
VERTEX
  5
31F
  8
DEFAULT
 10
103.0652118357074
 20
243.109451751418
 30
232.3789672851562
  0
VERTEX
  5
320
  8
DEFAULT
 10
103.0602736780479
 20
243.1406224371042
 30
232.3789672851562
  0
VERTEX
  5
321
  8
DEFAULT
 10
103.0200201791915
 20
243.3948938191875
 30
232.3789672851562
  0
VERTEX
  5
322
  8
DEFAULT
 10
103.0150526771266
 20
243.4263227299654
 30
232.3789672851562
  0
VERTEX
  5
323
  8
DEFAULT
 10
102.9750080806389
 20
243.6791007215417
 30
232.3789672851562
  0
VERTEX
  5
324
  8
DEFAULT
 10
102.8623267634294
 20
243.9001321528443
 30
232.3789672851562
  0
VERTEX
  5
325
  8
DEFAULT
 10
102.8478814458505
 20
243.9284789776019
 30
232.3789672851562
  0
VERTEX
  5
326
  8
DEFAULT
 10
102.7310533226432
 20
244.1578235675761
 30
232.3789672851562
  0
VERTEX
  5
327
  8
DEFAULT
 10
102.7189368825842
 20
244.1816085425202
 30
232.3789672851562
  0
VERTEX
  5
328
  8
DEFAULT
 10
102.7052492796934
 20
244.2019524160698
 30
232.3789672851562
  0
VERTEX
  5
329
  8
DEFAULT
 10
102.5866648916762
 20
244.4345415142533
 30
232.3789672851562
  0
VERTEX
  5
32A
  8
DEFAULT
 10
102.5724315929817
 20
244.462476416706
 30
232.3789672851562
  0
VERTEX
  5
32B
  8
DEFAULT
 10
102.5205145862648
 20
244.5644933480935
 30
232.3789672851562
  0
VERTEX
  5
32C
  8
DEFAULT
 10
102.5063896111851
 20
244.5678201331959
 30
232.3789672851562
  0
VERTEX
  5
32D
  8
DEFAULT
 10
102.5051094829856
 20
244.5681229264659
 30
232.3789672851562
  0
VERTEX
  5
32E
  8
DEFAULT
 10
102.2899318278833
 20
244.6206050435321
 30
232.3789672851562
  0
VERTEX
  5
32F
  8
DEFAULT
 10
101.7804832943386
 20
245.0011100618236
 30
232.3789672851562
  0
VERTEX
  5
330
  8
DEFAULT
 10
101.7761802518689
 20
245.009543889495
 30
232.3789672851562
  0
VERTEX
  5
331
  8
DEFAULT
 10
101.1974472553414
 20
246.1454287801816
 30
232.3789672851562
  0
VERTEX
  5
332
  8
DEFAULT
 10
101.185409133627
 20
246.1690570163136
 30
232.3789672851562
  0
VERTEX
  5
333
  8
DEFAULT
 10
101.1852714684803
 20
246.1879533690833
 30
232.3789672851562
  0
VERTEX
  5
334
  8
DEFAULT
 10
101.1852534132894
 20
246.1904318126411
 30
232.3789672851562
  0
VERTEX
  5
335
  8
DEFAULT
 10
101.1811159723844
 20
246.7418132796901
 30
232.3789672851562
  0
VERTEX
  5
336
  8
DEFAULT
 10
101.1810601929324
 20
246.7492123969312
 30
232.3789672851562
  0
VERTEX
  5
337
  8
DEFAULT
 10
101.1809075274964
 20
246.7694634017692
 30
232.3789672851562
  0
VERTEX
  5
338
  8
DEFAULT
 10
101.1890851075074
 20
246.7848564935545
 30
232.3789672851562
  0
VERTEX
  5
339
  8
DEFAULT
 10
101.2715271079517
 20
246.9857744458769
 30
232.3789672851562
  0
VERTEX
  5
33A
  8
DEFAULT
 10
101.2726582540604
 20
246.9885293752311
 30
232.3789672851562
  0
VERTEX
  5
33B
  8
DEFAULT
 10
101.2783340376248
 20
247.0023528480984
 30
232.3789672851562
  0
VERTEX
  5
33C
  8
DEFAULT
 10
101.0990262838419
 20
247.3543002006314
 30
232.3789672851562
  0
VERTEX
  5
33D
  8
DEFAULT
 10
101.0902276364253
 20
247.3715800821257
 30
232.3789672851562
  0
VERTEX
  5
33E
  8
DEFAULT
 10
101.0822874567395
 20
247.3871562189148
 30
232.3789672851562
  0
VERTEX
  5
33F
  8
DEFAULT
 10
101.079735056382
 20
247.3921784854494
 30
232.3789672851562
  0
VERTEX
  5
340
  8
DEFAULT
 10
100.8223474665868
 20
247.8972153330035
 30
232.3789672851562
  0
VERTEX
  5
341
  8
DEFAULT
 10
100.6442346294862
 20
248.0754304202928
 30
232.3789672851562
  0
VERTEX
  5
342
  8
DEFAULT
 10
100.1883235538918
 20
248.5313598527216
 30
232.3789672851562
  0
VERTEX
  5
343
  8
DEFAULT
 10
100.1111360212599
 20
248.608512261213
 30
232.3789672851562
  0
VERTEX
  5
344
  8
DEFAULT
 10
100.095999705898
 20
248.6062425545172
 30
232.3789672851562
  0
VERTEX
  5
345
  8
DEFAULT
 10
99.87556218617256
 20
248.589708963358
 30
232.3789672851562
  0
VERTEX
  5
346
  8
DEFAULT
 10
99.8726923487087
 20
248.589487017688
 30
232.3789672851562
  0
VERTEX
  5
347
  8
DEFAULT
 10
99.84107708605029
 20
248.5934050244506
 30
232.3789672851562
  0
VERTEX
  5
348
  8
DEFAULT
 10
99.83879031094648
 20
248.5941724441872
 30
232.3789672851562
  0
VERTEX
  5
349
  8
DEFAULT
 10
99.31568724656245
 20
248.768506690627
 30
232.3789672851562
  0
VERTEX
  5
34A
  8
DEFAULT
 10
99.30862103360772
 20
248.7708699043292
 30
232.3789672851562
  0
VERTEX
  5
34B
  8
DEFAULT
 10
99.29075414859945
 20
248.7768453376051
 30
232.3789672851562
  0
VERTEX
  5
34C
  8
DEFAULT
 10
99.277431354417
 20
248.7901657932244
 30
232.3789672851562
  0
VERTEX
  5
34D
  8
DEFAULT
 10
99.27335398869353
 20
248.7942424434744
 30
232.3789672851562
  0
VERTEX
  5
34E
  8
DEFAULT
 10
98.3720543416702
 20
249.6955466209354
 30
232.3789672851562
  0
VERTEX
  5
34F
  8
DEFAULT
 10
98.35995483640184
 20
249.7076423122089
 30
232.3789672851562
  0
VERTEX
  5
350
  8
DEFAULT
 10
98.3466003254248
 20
249.7209926143895
 30
232.3789672851562
  0
VERTEX
  5
351
  8
DEFAULT
 10
98.34062515569092
 20
249.7389054834618
 30
232.3789672851562
  0
VERTEX
  5
352
  8
DEFAULT
 10
98.33983481643757
 20
249.7412748300915
 30
232.3789672851562
  0
VERTEX
  5
353
  8
DEFAULT
 10
98.16541552059752
 20
250.2643581979
 30
232.3789672851562
  0
VERTEX
  5
354
  8
DEFAULT
 10
98.16307600798055
 20
250.2713698265007
 30
232.3789672851562
  0
VERTEX
  5
355
  8
DEFAULT
 10
98.15797143309962
 20
250.2866684811372
 30
232.3789672851562
  0
VERTEX
  5
356
  8
DEFAULT
 10
98.15919300536214
 20
250.3027499387705
 30
232.3789672851562
  0
VERTEX
  5
357
  8
DEFAULT
 10
98.15926626797099
 20
250.3037142832513
 30
232.3789672851562
  0
VERTEX
  5
358
  8
DEFAULT
 10
98.17587277740299
 20
250.5243440387708
 30
232.3789672851562
  0
VERTEX
  5
359
  8
DEFAULT
 10
98.17716140097662
 20
250.5414650129858
 30
232.3789672851562
  0
VERTEX
  5
35A
  8
DEFAULT
 10
98.10026790596476
 20
250.6171041010703
 30
232.3789672851562
  0
VERTEX
  5
35B
  8
DEFAULT
 10
98.0781627809061
 20
250.6392097544363
 30
232.3789672851562
  0
VERTEX
  5
35C
  8
DEFAULT
 10
97.89661977420838
 20
250.8208578226986
 30
232.3789672851562
  0
VERTEX
  5
35D
  8
DEFAULT
 10
97.864453426164
 20
250.8538091166496
 30
232.3789672851562
  0
VERTEX
  5
35E
  8
DEFAULT
 10
97.60010770454402
 20
251.1247600544123
 30
232.3789672851562
  0
VERTEX
  5
35F
  8
DEFAULT
 10
97.56752147832216
 20
251.1615578311737
 30
232.3789672851562
  0
VERTEX
  5
360
  8
DEFAULT
 10
97.56620045615281
 20
251.1640523253091
 30
232.3789672851562
  0
VERTEX
  5
361
  8
DEFAULT
 10
97.56343570709444
 20
251.1666379027823
 30
232.3789672851562
  0
VERTEX
  5
362
  8
DEFAULT
 10
97.47694367268062
 20
251.2475386487603
 30
232.3789672851562
  0
VERTEX
  5
363
  8
DEFAULT
 10
97.45354372111562
 20
251.2594561838717
 30
232.3789672851562
  0
VERTEX
  5
364
  8
DEFAULT
 10
97.44646366120645
 20
251.261586186748
 30
232.3789672851562
  0
VERTEX
  5
365
  8
DEFAULT
 10
96.52585549516249
 20
251.6893815809425
 30
232.3789672851562
  0
VERTEX
  5
366
  8
DEFAULT
 10
96.35272564689512
 20
251.6183467157534
 30
232.3789672851562
  0
VERTEX
  5
367
  8
DEFAULT
 10
96.31910093766342
 20
251.6112232213615
 30
232.3789672851562
  0
VERTEX
  5
368
  8
DEFAULT
 10
96.31654865803176
 20
251.6112388890348
 30
232.3789672851562
  0
VERTEX
  5
369
  8
DEFAULT
 10
95.76508216971702
 20
251.6154356653455
 30
232.3789672851562
  0
VERTEX
  5
36A
  8
DEFAULT
 10
94.53782543680865
 20
252.2370039989604
 30
232.3789672851562
  0
VERTEX
  5
36B
  8
DEFAULT
 10
94.53631193983841
 20
252.2390483965765
 30
232.3789672851562
  0
VERTEX
  5
36C
  8
DEFAULT
 10
94.2088564466094
 20
252.6826640141197
 30
232.3789672851562
  0
VERTEX
  5
36D
  8
DEFAULT
 10
94.19106150786524
 20
252.717295052262
 30
232.3789672851562
  0
VERTEX
  5
36E
  8
DEFAULT
 10
94.1908375535802
 20
252.7182189911034
 30
232.3789672851562
  0
VERTEX
  5
36F
  8
DEFAULT
 10
94.14539447027693
 20
252.9045636209498
 30
232.3789672851562
  0
VERTEX
  5
370
  8
DEFAULT
 10
93.83044714005318
 20
253.1039013194764
 30
232.3789672851562
  0
VERTEX
  5
371
  8
DEFAULT
 10
93.79660627866315
 20
253.1227541871373
 30
232.3789672851562
  0
VERTEX
  5
372
  8
DEFAULT
 10
93.79508828964842
 20
253.1235998643698
 30
232.3789672851562
  0
VERTEX
  5
373
  8
DEFAULT
 10
93.35305173291933
 20
253.3956591637858
 30
232.3789672851562
  0
VERTEX
  5
374
  8
DEFAULT
 10
93.31460406526462
 20
253.4193220268731
 30
232.3789672851562
  0
VERTEX
  5
375
  8
DEFAULT
 10
92.20995902702185
 20
253.532075017125
 30
232.3789672851562
  0
VERTEX
  5
376
  8
DEFAULT
 10
92.0664412187395
 20
253.4102349040394
 30
232.3789672851562
  0
VERTEX
  5
377
  8
DEFAULT
 10
92.06417789179979
 20
253.4083132922464
 30
232.3789672851562
  0
VERTEX
  5
378
  8
DEFAULT
 10
92.05184356076558
 20
253.3978411880708
 30
232.3789672851562
  0
VERTEX
  5
379
  8
DEFAULT
 10
92.03640911601038
 20
253.3929854076983
 30
232.3789672851562
  0
VERTEX
  5
37A
  8
DEFAULT
 10
92.03409719941371
 20
253.392258123355
 30
232.3789672851562
  0
VERTEX
  5
37B
  8
DEFAULT
 10
91.83951346304093
 20
253.3306781497668
 30
232.3789672851562
  0
VERTEX
  5
37C
  8
DEFAULT
 10
91.46470811365198
 20
253.2209844317848
 30
232.3789672851562
  0
VERTEX
  5
37D
  8
DEFAULT
 10
91.4606949336605
 20
253.2216248638411
 30
232.3789672851562
  0
VERTEX
  5
37E
  8
DEFAULT
 10
91.45925330299842
 20
253.2218471770527
 30
232.3789672851562
  0
VERTEX
  5
37F
  8
DEFAULT
 10
90.200003802045
 20
253.4212914408487
 30
232.3789672851562
  0
VERTEX
  5
380
  8
DEFAULT
 10
89.67086154254505
 20
253.7875263447375
 30
232.3789672851562
  0
VERTEX
  5
381
  8
DEFAULT
 10
89.67038076894735
 20
253.7883090270927
 30
232.3789672851562
  0
VERTEX
  5
382
  8
DEFAULT
 10
89.56690961244749
 20
253.9559263589472
 30
232.3789672851562
  0
VERTEX
  5
383
  8
DEFAULT
 10
89.42987499892479
 20
254.0084923899849
 30
232.3789672851562
  0
VERTEX
  5
384
  8
DEFAULT
 10
88.83349917613572
 20
254.1028687554273
 30
232.3789672851562
  0
VERTEX
  5
385
  8
DEFAULT
 10
88.76190489520216
 20
254.1142234164299
 30
232.3789672851562
  0
VERTEX
  5
386
  8
DEFAULT
 10
88.75987546941026
 20
254.1145452779853
 30
232.3789672851562
  0
VERTEX
  5
387
  8
DEFAULT
 10
88.730618974171
 20
254.1207396716842
 30
232.3789672851562
  0
VERTEX
  5
388
  8
DEFAULT
 10
88.72033017091591
 20
254.1223705903425
 30
232.3789672851562
  0
VERTEX
  5
389
  8
DEFAULT
 10
88.71139046176593
 20
254.1237876587898
 30
232.3789672851562
  0
VERTEX
  5
38A
  8
DEFAULT
 10
88.63280596663732
 20
254.1554061558217
 30
232.3789672851562
  0
SEQEND
  5
38B
  8
DEFAULT
  0
ENDSEC
  0
EOF
