  0
SECTION
  2
HEADER
  9
$ACADVER
  1
AC1009
  9
$DWGCODEPAGE
  3
ansi_1252
  9
$INSBASE
 10
0.0
 20
0.0
 30
0.0
  9
$EXTMIN
 10
155.0873030504603
 20
223.8253533324937
 30
195.0
  9
$EXTMAX
 10
170.1588833381826
 20
254.1098168582684
 30
214.8789672851562
  9
$LIMMIN
 10
0.0
 20
0.0
  9
$LIMMAX
 10
12.0
 20
9.0
  9
$ORTHOMODE
 70
     0
  9
$REGENMODE
 70
     1
  9
$FILLMODE
 70
     1
  9
$QTEXTMODE
 70
     0
  9
$MIRRTEXT
 70
     1
  9
$DRAGMODE
 70
     2
  9
$LTSCALE
 40
1.0
  9
$OSMODE
 70
    37
  9
$ATTMODE
 70
     1
  9
$TEXTSIZE
 40
0.2
  9
$TRACEWID
 40
0.05
  9
$TEXTSTYLE
  7
STANDARD
  9
$CLAYER
  8
DEFAULT
  9
$CELTYPE
  6
BYLAYER
  9
$CECOLOR
 62
   256
  9
$DIMSCALE
 40
1.0
  9
$DIMASZ
 40
0.18
  9
$DIMEXO
 40
0.0625
  9
$DIMDLI
 40
0.38
  9
$DIMRND
 40
0.0
  9
$DIMDLE
 40
0.0
  9
$DIMEXE
 40
0.18
  9
$DIMTP
 40
0.0
  9
$DIMTM
 40
0.0
  9
$DIMTXT
 40
0.18
  9
$DIMCEN
 40
0.09
  9
$DIMTSZ
 40
0.0
  9
$DIMTOL
 70
     0
  9
$DIMLIM
 70
     0
  9
$DIMTIH
 70
     1
  9
$DIMTOH
 70
     1
  9
$DIMSE1
 70
     0
  9
$DIMSE2
 70
     0
  9
$DIMTAD
 70
     0
  9
$DIMZIN
 70
     0
  9
$DIMBLK
  1

  9
$DIMASO
 70
     1
  9
$DIMSHO
 70
     1
  9
$DIMPOST
  1

  9
$DIMAPOST
  1

  9
$DIMALT
 70
     0
  9
$DIMALTD
 70
     2
  9
$DIMALTF
 40
25.4
  9
$DIMLFAC
 40
1.0
  9
$DIMTOFL
 70
     0
  9
$DIMTVP
 40
0.0
  9
$DIMTIX
 70
     0
  9
$DIMSOXD
 70
     0
  9
$DIMSAH
 70
     0
  9
$DIMBLK1
  1

  9
$DIMBLK2
  1

  9
$DIMSTYLE
  2
STANDARD_ACAD
  9
$DIMCLRD
 70
     0
  9
$DIMCLRE
 70
     0
  9
$DIMCLRT
 70
     0
  9
$DIMTFAC
 40
1.0
  9
$DIMGAP
 40
0.09
  9
$LUNITS
 70
     2
  9
$LUPREC
 70
     3
  9
$SKETCHINC
 40
0.1
  9
$FILLETRAD
 40
0.0
  9
$AUNITS
 70
     0
  9
$AUPREC
 70
     0
  9
$MENU
  1
.
  9
$ELEVATION
 40
0.0
  9
$PELEVATION
 40
0.0
  9
$THICKNESS
 40
0.0
  9
$LIMCHECK
 70
     0
  9
$CHAMFERA
 40
0.0
  9
$CHAMFERB
 40
0.0
  9
$SKPOLY
 70
     0
  9
$TDCREATE
 40
2460731.57259794
  9
$TDUPDATE
 40
2460731.572612419
  9
$TDINDWG
 40
0.0000000116
  9
$TDUSRTIMER
 40
0.0000000116
  9
$USRTIMER
 70
     1
  9
$ANGBASE
 50
0.0
  9
$ANGDIR
 70
     0
  9
$PDMODE
 70
     0
  9
$PDSIZE
 40
0.0
  9
$PLINEWID
 40
0.0
  9
$COORDS
 70
     1
  9
$SPLFRAME
 70
     0
  9
$SPLINETYPE
 70
     6
  9
$SPLINESEGS
 70
     8
  9
$ATTDIA
 70
     0
  9
$ATTREQ
 70
     1
  9
$HANDLING
 70
     1
  9
$HANDSEED
  5
2F8
  9
$SURFTAB1
 70
     6
  9
$SURFTAB2
 70
     6
  9
$SURFTYPE
 70
     6
  9
$SURFU
 70
     6
  9
$SURFV
 70
     6
  9
$UCSNAME
  2

  9
$UCSORG
 10
0.0
 20
0.0
 30
0.0
  9
$UCSXDIR
 10
1.0
 20
0.0
 30
0.0
  9
$UCSYDIR
 10
0.0
 20
1.0
 30
0.0
  9
$PUCSNAME
  2

  9
$PUCSORG
 10
0.0
 20
0.0
 30
0.0
  9
$PUCSXDIR
 10
1.0
 20
0.0
 30
0.0
  9
$PUCSYDIR
 10
0.0
 20
1.0
 30
0.0
  9
$USERI1
 70
     0
  9
$USERI2
 70
     0
  9
$USERI3
 70
     0
  9
$USERI4
 70
     0
  9
$USERI5
 70
     0
  9
$USERR1
 40
0.0
  9
$USERR2
 40
0.0
  9
$USERR3
 40
0.0
  9
$USERR4
 40
0.0
  9
$USERR5
 40
0.0
  9
$WORLDVIEW
 70
     1
  9
$SHADEDGE
 70
     3
  9
$SHADEDIF
 70
    70
  9
$TILEMODE
 70
     1
  9
$MAXACTVP
 70
    64
  9
$PLIMCHECK
 70
     0
  9
$PEXTMIN
 10
1.000000000000000E+20
 20
1.000000000000000E+20
 30
1.000000000000000E+20
  9
$PEXTMAX
 10
-1.000000000000000E+20
 20
-1.000000000000000E+20
 30
-1.000000000000000E+20
  9
$PLIMMIN
 10
0.0
 20
0.0
  9
$PLIMMAX
 10
12.0
 20
9.0
  9
$UNITMODE
 70
     0
  9
$VISRETAIN
 70
     1
  9
$PLINEGEN
 70
     0
  9
$PSLTSCALE
 70
     1
  0
ENDSEC
  0
SECTION
  2
TABLES
  0
TABLE
  2
VPORT
 70
     1
  0
VPORT
  2
*ACTIVE
 70
     0
 10
0.0
 20
0.0
 11
1.0
 21
1.0
 12
10.42990654205607
 22
4.5
 13
0.0
 23
0.0
 14
0.5
 24
0.5
 15
0.5
 25
0.5
 16
0.0
 26
0.0
 36
1.0
 17
0.0
 27
0.0
 37
0.0
 40
9.0
 41
1.972972972850329
 42
50.0
 43
0.0
 44
0.0
 50
0.0
 51
0.0
 71
     0
 72
   100
 73
     1
 74
     3
 75
     0
 76
     0
 77
     0
 78
     0
  0
ENDTAB
  0
TABLE
  2
LTYPE
 70
     1
  0
LTYPE
  2
CONTINUOUS
 70
     0
  3
Solid line
 72
    65
 73
     0
 40
0.0
  0
ENDTAB
  0
TABLE
  2
LAYER
 70
     2
  0
LAYER
  2
0
 70
     0
 62
     7
  6
CONTINUOUS
  0
LAYER
  2
DEFAULT
 70
     0
 62
     7
  6
CONTINUOUS
  0
ENDTAB
  0
TABLE
  2
STYLE
 70
     1
  0
STYLE
  2
STANDARD
 70
     0
 40
0.0
 41
1.0
 50
0.0
 71
     0
 42
0.2
  3
txt
  4

  0
ENDTAB
  0
TABLE
  2
VIEW
 70
     0
  0
ENDTAB
  0
TABLE
  2
UCS
 70
     0
  0
ENDTAB
  0
TABLE
  2
APPID
 70
     2
  0
APPID
  2
ACAD
 70
     0
  0
APPID
  2
RHINO
 70
     0
  0
ENDTAB
  0
TABLE
  2
DIMSTYLE
 70
     1
  0
DIMSTYLE
  2
STANDARD_ACAD
 70
     0
  3

  4

  5

  6

  7

 40
1.0
 41
0.18
 42
0.0625
 43
0.38
 44
0.18
 45
0.0
 46
0.0
 47
0.0
 48
0.0
140
0.18
141
0.09
142
0.0
143
25.4
144
1.0
145
0.0
146
1.0
147
0.09
 71
     0
 72
     0
 73
     1
 74
     1
 75
     0
 76
     0
 77
     0
 78
     0
170
     0
171
     2
172
     0
173
     0
174
     0
175
     0
176
     0
177
     0
178
     0
  0
ENDTAB
  0
ENDSEC
  0
SECTION
  2
BLOCKS
  0
BLOCK
  8
0
  2
$MODEL_SPACE
 70
     0
 10
0.0
 20
0.0
 30
0.0
  3
$MODEL_SPACE
  1

  0
ENDBLK
  5
21
  8
0
  0
BLOCK
 67
     1
  8
0
  2
$PAPER_SPACE
 70
     0
 10
0.0
 20
0.0
 30
0.0
  3
$PAPER_SPACE
  1

  0
ENDBLK
  5
1D
 67
     1
  8
0
  0
ENDSEC
  0
SECTION
  2
ENTITIES
  0
POLYLINE
  5
60
  8
DEFAULT
 66
     1
 10
0.0
 20
0.0
 30
195.0
 70
     1
  0
VERTEX
  5
61
  8
DEFAULT
 10
155.0886165405254
 20
254.1098168582684
 30
195.0
  0
VERTEX
  5
62
  8
DEFAULT
 10
155.088937139653
 20
254.1097659615975
 30
195.0
  0
VERTEX
  5
63
  8
DEFAULT
 10
155.1673930471942
 20
254.097310713271
 30
195.0
  0
VERTEX
  5
64
  8
DEFAULT
 10
155.384381709197
 20
254.0630075782007
 30
195.0
  0
VERTEX
  5
65
  8
DEFAULT
 10
155.8050038802047
 20
253.996326518065
 30
195.0
  0
VERTEX
  5
66
  8
DEFAULT
 10
156.0207024230439
 20
253.9369267756644
 30
195.0
  0
VERTEX
  5
67
  8
DEFAULT
 10
156.0348939866044
 20
253.9077467140887
 30
195.0
  0
VERTEX
  5
68
  8
DEFAULT
 10
156.1339042334891
 20
253.7473077495025
 30
195.0
  0
VERTEX
  5
69
  8
DEFAULT
 10
156.2619934285133
 20
253.6557960459593
 30
195.0
  0
VERTEX
  5
6A
  8
DEFAULT
 10
156.618957403981
 20
253.4005575519093
 30
195.0
  0
VERTEX
  5
6B
  8
DEFAULT
 10
156.6376110096701
 20
253.3976031837174
 30
195.0
  0
VERTEX
  5
6C
  8
DEFAULT
 10
157.5964192266957
 20
253.2457466152456
 30
195.0
  0
VERTEX
  5
6D
  8
DEFAULT
 10
157.6805215805658
 20
253.2324415994051
 30
195.0
  0
VERTEX
  5
6E
  8
DEFAULT
 10
157.9379355089692
 20
253.1916449117648
 30
195.0
  0
VERTEX
  5
6F
  8
DEFAULT
 10
158.3562908218873
 20
253.3240592524309
 30
195.0
  0
VERTEX
  5
70
  8
DEFAULT
 10
158.4910743747562
 20
253.3667895408224
 30
195.0
  0
VERTEX
  5
71
  8
DEFAULT
 10
158.5103758543532
 20
253.3729086689657
 30
195.0
  0
VERTEX
  5
72
  8
DEFAULT
 10
158.5244422160359
 20
253.3874732945696
 30
195.0
  0
VERTEX
  5
73
  8
DEFAULT
 10
158.5692777354125
 20
253.4338970407276
 30
195.0
  0
VERTEX
  5
74
  8
DEFAULT
 10
158.6762060145801
 20
253.5448982724671
 30
195.0
  0
VERTEX
  5
75
  8
DEFAULT
 10
158.7724895634344
 20
253.5376492896038
 30
195.0
  0
VERTEX
  5
76
  8
DEFAULT
 10
159.3656001634212
 20
253.4323396663828
 30
195.0
  0
VERTEX
  5
77
  8
DEFAULT
 10
159.5048861706306
 20
253.4112633354748
 30
195.0
  0
VERTEX
  5
78
  8
DEFAULT
 10
159.621261036309
 20
253.3946623467951
 30
195.0
  0
VERTEX
  5
79
  8
DEFAULT
 10
159.6696788667207
 20
253.3829727960847
 30
195.0
  0
VERTEX
  5
7A
  8
DEFAULT
 10
159.7632113709902
 20
253.3875003435168
 30
195.0
  0
VERTEX
  5
7B
  8
DEFAULT
 10
159.7788558017174
 20
253.3794847425497
 30
195.0
  0
VERTEX
  5
7C
  8
DEFAULT
 10
159.8149507749647
 20
253.3611311640749
 30
195.0
  0
VERTEX
  5
7D
  8
DEFAULT
 10
159.9576669675636
 20
253.2884354377937
 30
195.0
  0
VERTEX
  5
7E
  8
DEFAULT
 10
160.0069505479773
 20
253.2627603574731
 30
195.0
  0
VERTEX
  5
7F
  8
DEFAULT
 10
160.6003794749137
 20
252.8895302622354
 30
195.0
  0
VERTEX
  5
80
  8
DEFAULT
 10
160.6047123574233
 20
252.8584284754541
 30
195.0
  0
VERTEX
  5
81
  8
DEFAULT
 10
160.6493943899363
 20
252.6753277917617
 30
195.0
  0
VERTEX
  5
82
  8
DEFAULT
 10
160.7428570897578
 20
252.5486263596971
 30
195.0
  0
VERTEX
  5
83
  8
DEFAULT
 10
161.0034708948382
 20
252.1955284558306
 30
195.0
  0
VERTEX
  5
84
  8
DEFAULT
 10
161.8852273066591
 20
251.7462813110672
 30
195.0
  0
VERTEX
  5
85
  8
DEFAULT
 10
162.193313808036
 20
251.5892682404722
 30
195.0
  0
VERTEX
  5
86
  8
DEFAULT
 10
162.6321517983088
 20
251.5859514501571
 30
195.0
  0
VERTEX
  5
87
  8
DEFAULT
 10
162.7937528201146
 20
251.584835026418
 30
195.0
  0
VERTEX
  5
88
  8
DEFAULT
 10
162.8686749467595
 20
251.6246224292374
 30
195.0
  0
VERTEX
  5
89
  8
DEFAULT
 10
163.0055762420995
 20
251.6976166475587
 30
195.0
  0
VERTEX
  5
8A
  8
DEFAULT
 10
163.0910743107906
 20
251.6645046787592
 30
195.0
  0
VERTEX
  5
8B
  8
DEFAULT
 10
163.1951879298344
 20
251.5996163479684
 30
195.0
  0
VERTEX
  5
8C
  8
DEFAULT
 10
163.2784522960927
 20
251.5536773872741
 30
195.0
  0
VERTEX
  5
8D
  8
DEFAULT
 10
163.4090914918615
 20
251.5054887782688
 30
195.0
  0
VERTEX
  5
8E
  8
DEFAULT
 10
163.7932030679812
 20
251.3098171896247
 30
195.0
  0
VERTEX
  5
8F
  8
DEFAULT
 10
163.891413214986
 20
251.2451755441672
 30
195.0
  0
VERTEX
  5
90
  8
DEFAULT
 10
163.9265817986403
 20
251.2235516177311
 30
195.0
  0
VERTEX
  5
91
  8
DEFAULT
 10
164.0216068336538
 20
251.1570803341146
 30
195.0
  0
VERTEX
  5
92
  8
DEFAULT
 10
164.0438028410663
 20
251.1378713670371
 30
195.0
  0
VERTEX
  5
93
  8
DEFAULT
 10
164.1062743029421
 20
251.0666268157933
 30
195.0
  0
VERTEX
  5
94
  8
DEFAULT
 10
164.1076967295196
 20
251.06516255314
 30
195.0
  0
VERTEX
  5
95
  8
DEFAULT
 10
164.2492091432853
 20
250.9194938109952
 30
195.0
  0
VERTEX
  5
96
  8
DEFAULT
 10
164.4715705594441
 20
250.6970046808609
 30
195.0
  0
VERTEX
  5
97
  8
DEFAULT
 10
164.5075901518732
 20
250.6607509560262
 30
195.0
  0
VERTEX
  5
98
  8
DEFAULT
 10
164.6384049960888
 20
250.5143309427839
 30
195.0
  0
VERTEX
  5
99
  8
DEFAULT
 10
164.6266842764051
 20
250.4484414915891
 30
195.0
  0
VERTEX
  5
9A
  8
DEFAULT
 10
164.612541216572
 20
250.2604139521655
 30
195.0
  0
VERTEX
  5
9B
  8
DEFAULT
 10
164.6623022446185
 20
250.1109949173629
 30
195.0
  0
VERTEX
  5
9C
  8
DEFAULT
 10
164.8010878394736
 20
249.6947656844672
 30
195.0
  0
VERTEX
  5
9D
  8
DEFAULT
 10
165.0162168296881
 20
249.4795065523403
 30
195.0
  0
VERTEX
  5
9E
  8
DEFAULT
 10
165.0455235137413
 20
249.4501998657566
 30
195.0
  0
VERTEX
  5
9F
  8
DEFAULT
 10
165.731987173583
 20
248.7637972411272
 30
195.0
  0
VERTEX
  5
A0
  8
DEFAULT
 10
165.7453390885908
 20
248.7504465132723
 30
195.0
  0
VERTEX
  5
A1
  8
DEFAULT
 10
166.1616348825702
 20
248.6116599891245
 30
195.0
  0
VERTEX
  5
A2
  8
DEFAULT
 10
166.3149770303913
 20
248.5605692044793
 30
195.0
  0
VERTEX
  5
A3
  8
DEFAULT
 10
166.3945631033444
 20
248.574636291387
 30
195.0
  0
VERTEX
  5
A4
  8
DEFAULT
 10
166.5606915159461
 20
248.5871925086185
 30
195.0
  0
VERTEX
  5
A5
  8
DEFAULT
 10
166.6359085874979
 20
248.5119754380796
 30
195.0
  0
VERTEX
  5
A6
  8
DEFAULT
 10
166.7640213804666
 20
248.3838016099546
 30
195.0
  0
VERTEX
  5
A7
  8
DEFAULT
 10
166.9173428244987
 20
248.2304801654287
 30
195.0
  0
VERTEX
  5
A8
  8
DEFAULT
 10
167.0713391753532
 20
248.076422780183
 30
195.0
  0
VERTEX
  5
A9
  8
DEFAULT
 10
167.2569526891291
 20
247.8908703004529
 30
195.0
  0
VERTEX
  5
AA
  8
DEFAULT
 10
167.2768102991813
 20
247.8710126898733
 30
195.0
  0
VERTEX
  5
AB
  8
DEFAULT
 10
167.3080439457434
 20
247.8097823752429
 30
195.0
  0
VERTEX
  5
AC
  8
DEFAULT
 10
167.3621015941795
 20
247.7037415521734
 30
195.0
  0
VERTEX
  5
AD
  8
DEFAULT
 10
167.4082410761377
 20
247.6130493847845
 30
195.0
  0
VERTEX
  5
AE
  8
DEFAULT
 10
167.678090993536
 20
247.083481874292
 30
195.0
  0
VERTEX
  5
AF
  8
DEFAULT
 10
167.7365522554953
 20
246.9687809603506
 30
195.0
  0
VERTEX
  5
B0
  8
DEFAULT
 10
167.7069867404025
 20
246.9134495144339
 30
195.0
  0
VERTEX
  5
B1
  8
DEFAULT
 10
167.6354393961936
 20
246.7390571338981
 30
195.0
  0
VERTEX
  5
B2
  8
DEFAULT
 10
167.6365950143661
 20
246.5814855696611
 30
195.0
  0
VERTEX
  5
B3
  8
DEFAULT
 10
167.6399754622245
 20
246.1426648054326
 30
195.0
  0
VERTEX
  5
B4
  8
DEFAULT
 10
167.7969242497398
 20
245.8347068812274
 30
195.0
  0
VERTEX
  5
B5
  8
DEFAULT
 10
168.2461664023108
 20
244.9528980455738
 30
195.0
  0
VERTEX
  5
B6
  8
DEFAULT
 10
168.5992734215713
 20
244.692149961228
 30
195.0
  0
VERTEX
  5
B7
  8
DEFAULT
 10
168.7293986975136
 20
244.5962314176277
 30
195.0
  0
VERTEX
  5
B8
  8
DEFAULT
 10
168.8094277599448
 20
244.5850716830701
 30
195.0
  0
VERTEX
  5
B9
  8
DEFAULT
 10
168.9711598529269
 20
244.5457395963023
 30
195.0
  0
VERTEX
  5
BA
  8
DEFAULT
 10
169.0195151244701
 20
244.4508042668673
 30
195.0
  0
VERTEX
  5
BB
  8
DEFAULT
 10
169.1017924190398
 20
244.2893015059225
 30
195.0
  0
VERTEX
  5
BC
  8
DEFAULT
 10
169.2001818906153
 20
244.0961847018943
 30
195.0
  0
VERTEX
  5
BD
  8
DEFAULT
 10
169.3179817560179
 20
243.8649795778377
 30
195.0
  0
VERTEX
  5
BE
  8
DEFAULT
 10
169.4182162308704
 20
243.6682953870293
 30
195.0
  0
VERTEX
  5
BF
  8
DEFAULT
 10
169.430374109661
 20
243.6444809697589
 30
195.0
  0
VERTEX
  5
C0
  8
DEFAULT
 10
169.4353014510235
 20
243.6150087745039
 30
195.0
  0
VERTEX
  5
C1
  8
DEFAULT
 10
169.4697931881344
 20
243.397323834152
 30
195.0
  0
VERTEX
  5
C2
  8
DEFAULT
 10
169.5041543789632
 20
243.1805370785676
 30
195.0
  0
VERTEX
  5
C3
  8
DEFAULT
 10
169.5383359473554
 20
242.9644607702881
 30
195.0
  0
VERTEX
  5
C4
  8
DEFAULT
 10
169.5634250779378
 20
242.8064785586805
 30
195.0
  0
VERTEX
  5
C5
  8
DEFAULT
 10
169.5893721085602
 20
242.6430787965867
 30
195.0
  0
VERTEX
  5
C6
  8
DEFAULT
 10
169.5441579248493
 20
242.5994073540523
 30
195.0
  0
VERTEX
  5
C7
  8
DEFAULT
 10
169.4222171008202
 20
242.4558109327025
 30
195.0
  0
VERTEX
  5
C8
  8
DEFAULT
 10
169.374695065861
 20
242.3055624347641
 30
195.0
  0
VERTEX
  5
C9
  8
DEFAULT
 10
169.2422889480877
 20
241.8872968702876
 30
195.0
  0
VERTEX
  5
CA
  8
DEFAULT
 10
169.2963913275994
 20
241.5457675297167
 30
195.0
  0
VERTEX
  5
CB
  8
DEFAULT
 10
169.4107712020747
 20
240.8235996135967
 30
195.0
  0
VERTEX
  5
CC
  8
DEFAULT
 10
169.4512014214308
 20
240.568375622913
 30
195.0
  0
VERTEX
  5
CD
  8
DEFAULT
 10
169.5443913245323
 20
240.4380342916797
 30
195.0
  0
VERTEX
  5
CE
  8
DEFAULT
 10
169.6279463096315
 20
240.3210939310618
 30
195.0
  0
VERTEX
  5
CF
  8
DEFAULT
 10
169.8004345991884
 20
240.0797938222641
 30
195.0
  0
VERTEX
  5
D0
  8
DEFAULT
 10
169.818749865891
 20
240.0709055311046
 30
195.0
  0
VERTEX
  5
D1
  8
DEFAULT
 10
169.8732029108761
 20
240.0444797886854
 30
195.0
  0
VERTEX
  5
D2
  8
DEFAULT
 10
170.0148370639291
 20
239.9570140638443
 30
195.0
  0
VERTEX
  5
D3
  8
DEFAULT
 10
170.0617637880323
 20
239.660684370791
 30
195.0
  0
VERTEX
  5
D4
  8
DEFAULT
 10
170.0861827307335
 20
239.6120715447685
 30
195.0
  0
VERTEX
  5
D5
  8
DEFAULT
 10
170.0929332468248
 20
239.4640102251647
 30
195.0
  0
VERTEX
  5
D6
  8
DEFAULT
 10
170.0936283505017
 20
239.4596123576706
 30
195.0
  0
VERTEX
  5
D7
  8
DEFAULT
 10
170.0999730928389
 20
239.4194696889374
 30
195.0
  0
VERTEX
  5
D8
  8
DEFAULT
 10
170.1063246538585
 20
239.379161830528
 30
195.0
  0
VERTEX
  5
D9
  8
DEFAULT
 10
170.1407520689249
 20
239.1622201644233
 30
195.0
  0
VERTEX
  5
DA
  8
DEFAULT
 10
170.1588833381826
 20
239.047585095381
 30
195.0
  0
VERTEX
  5
DB
  8
DEFAULT
 10
168.0664552116261
 20
239.0475850953811
 30
195.0
  0
VERTEX
  5
DC
  8
DEFAULT
 10
168.0785851373203
 20
239.1358959780452
 30
195.0
  0
VERTEX
  5
DD
  8
DEFAULT
 10
168.0845651447232
 20
239.268763510949
 30
195.0
  0
VERTEX
  5
DE
  8
DEFAULT
 10
168.078585077783
 20
239.4016000856261
 30
195.0
  0
VERTEX
  5
DF
  8
DEFAULT
 10
168.0598877619045
 20
239.5377242887173
 30
195.0
  0
VERTEX
  5
E0
  8
DEFAULT
 10
168.0275146668355
 20
239.6754601729575
 30
195.0
  0
VERTEX
  5
E1
  8
DEFAULT
 10
167.9807993007443
 20
239.8128113347985
 30
195.0
  0
VERTEX
  5
E2
  8
DEFAULT
 10
167.9194644199385
 20
239.9475802969899
 30
195.0
  0
VERTEX
  5
E3
  8
DEFAULT
 10
167.8436687207855
 20
240.0775065630276
 30
195.0
  0
VERTEX
  5
E4
  8
DEFAULT
 10
167.7540504097483
 20
240.2003047419781
 30
195.0
  0
VERTEX
  5
E5
  8
DEFAULT
 10
167.6517165970487
 20
240.3138100160625
 30
195.0
  0
VERTEX
  5
E6
  8
DEFAULT
 10
167.5382042602373
 20
240.4161546264347
 30
195.0
  0
VERTEX
  5
E7
  8
DEFAULT
 10
167.4154076914194
 20
240.505754540149
 30
195.0
  0
VERTEX
  5
E8
  8
DEFAULT
 10
167.2854874941087
 20
240.5815409858377
 30
195.0
  0
VERTEX
  5
E9
  8
DEFAULT
 10
167.1507133123437
 20
240.6428745712193
 30
195.0
  0
VERTEX
  5
EA
  8
DEFAULT
 10
167.0133729204657
 20
240.6895916788251
 30
195.0
  0
VERTEX
  5
EB
  8
DEFAULT
 10
166.8756465326881
 20
240.7219855511678
 30
195.0
  0
VERTEX
  5
EC
  8
DEFAULT
 10
166.7901118899863
 20
240.733732248889
 30
195.0
  0
VERTEX
  5
ED
  8
DEFAULT
 10
166.7395029640836
 20
240.740669145703
 30
195.0
  0
VERTEX
  5
EE
  8
DEFAULT
 10
166.6066608606156
 20
240.7466404839393
 30
195.0
  0
VERTEX
  5
EF
  8
DEFAULT
 10
166.4738273269676
 20
240.7406697122149
 30
195.0
  0
VERTEX
  5
F0
  8
DEFAULT
 10
166.4670750952049
 20
240.7397463252237
 30
195.0
  0
VERTEX
  5
F1
  8
DEFAULT
 10
166.3376784077839
 20
240.7219863086938
 30
195.0
  0
VERTEX
  5
F2
  8
DEFAULT
 10
166.1999451246904
 20
240.6895917630913
 30
195.0
  0
VERTEX
  5
F3
  8
DEFAULT
 10
166.0626044850842
 20
240.6428745712193
 30
195.0
  0
VERTEX
  5
F4
  8
DEFAULT
 10
165.9278303033191
 20
240.5815409858377
 30
195.0
  0
VERTEX
  5
F5
  8
DEFAULT
 10
165.7979095642421
 20
240.50575422412
 30
195.0
  0
VERTEX
  5
F6
  8
DEFAULT
 10
165.6751168860401
 20
240.4161542064186
 30
195.0
  0
VERTEX
  5
F7
  8
DEFAULT
 10
165.5616050150764
 20
240.3138100160625
 30
195.0
  0
VERTEX
  5
F8
  8
DEFAULT
 10
165.459271777874
 20
240.2003053803005
 30
195.0
  0
VERTEX
  5
F9
  8
DEFAULT
 10
165.3696489621472
 20
240.0775065551159
 30
195.0
  0
VERTEX
  5
FA
  8
DEFAULT
 10
165.293857308411
 20
239.9475803104098
 30
195.0
  0
VERTEX
  5
FB
  8
DEFAULT
 10
165.2325188167765
 20
239.8128122759263
 30
195.0
  0
VERTEX
  5
FC
  8
DEFAULT
 10
165.1858031305923
 20
239.6754601729575
 30
195.0
  0
VERTEX
  5
FD
  8
DEFAULT
 10
165.1534297687926
 20
239.5377231538739
 30
195.0
  0
VERTEX
  5
FE
  8
DEFAULT
 10
165.1347364819214
 20
239.4015989211927
 30
195.0
  0
VERTEX
  5
FF
  8
DEFAULT
 10
165.1287564674019
 20
239.268763510949
 30
195.0
  0
VERTEX
  5
100
  8
DEFAULT
 10
165.1347364223968
 20
239.1358971424797
 30
195.0
  0
VERTEX
  5
101
  8
DEFAULT
 10
165.1468638915335
 20
239.0475850953811
 30
195.0
  0
VERTEX
  5
102
  8
DEFAULT
 10
163.8632278547911
 20
239.047585095381
 30
195.0
  0
VERTEX
  5
103
  8
DEFAULT
 10
163.8458717829129
 20
239.2367569155979
 30
195.0
  0
VERTEX
  5
104
  8
DEFAULT
 10
163.766780361415
 20
239.511854706395
 30
195.0
  0
VERTEX
  5
105
  8
DEFAULT
 10
163.6296462897881
 20
239.7765562942138
 30
195.0
  0
VERTEX
  5
106
  8
DEFAULT
 10
163.4376894759057
 20
240.0128604718547
 30
195.0
  0
VERTEX
  5
107
  8
DEFAULT
 10
163.2013888516914
 20
240.2048015431388
 30
195.0
  0
VERTEX
  5
108
  8
DEFAULT
 10
162.9366878731749
 20
240.3419251436075
 30
195.0
  0
VERTEX
  5
109
  8
DEFAULT
 10
162.6616037850345
 20
240.4210414633682
 30
195.0
  0
VERTEX
  5
10A
  8
DEFAULT
 10
162.392412148836
 20
240.4457171278469
 30
195.0
  0
VERTEX
  5
10B
  8
DEFAULT
 10
162.1232205126375
 20
240.4210414633682
 30
195.0
  0
VERTEX
  5
10C
  8
DEFAULT
 10
161.8481364244971
 20
240.3419251436075
 30
195.0
  0
VERTEX
  5
10D
  8
DEFAULT
 10
161.5834354459806
 20
240.2048015431388
 30
195.0
  0
VERTEX
  5
10E
  8
DEFAULT
 10
161.3471344990982
 20
240.0128602097595
 30
195.0
  0
VERTEX
  5
10F
  8
DEFAULT
 10
161.1551816313998
 20
239.7765559251879
 30
195.0
  0
VERTEX
  5
110
  8
DEFAULT
 10
161.0180478767684
 20
239.5118549492462
 30
195.0
  0
VERTEX
  5
111
  8
DEFAULT
 10
160.9389545300038
 20
239.2367574761519
 30
195.0
  0
VERTEX
  5
112
  8
DEFAULT
 10
160.9215969880167
 20
239.0475850953811
 30
195.0
  0
VERTEX
  5
113
  8
DEFAULT
 10
158.8632292170039
 20
239.047585095381
 30
195.0
  0
VERTEX
  5
114
  8
DEFAULT
 10
158.8458716750168
 20
239.2367574761519
 30
195.0
  0
VERTEX
  5
115
  8
DEFAULT
 10
158.7667783282523
 20
239.5118549492462
 30
195.0
  0
VERTEX
  5
116
  8
DEFAULT
 10
158.6296445736209
 20
239.7765559251879
 30
195.0
  0
VERTEX
  5
117
  8
DEFAULT
 10
158.4376917059225
 20
240.0128602097595
 30
195.0
  0
VERTEX
  5
118
  8
DEFAULT
 10
158.2013906614222
 20
240.2048016224313
 30
195.0
  0
VERTEX
  5
119
  8
DEFAULT
 10
157.9366877523873
 20
240.3419251783469
 30
195.0
  0
VERTEX
  5
11A
  8
DEFAULT
 10
157.6616037850345
 20
240.4210414633682
 30
195.0
  0
VERTEX
  5
11B
  8
DEFAULT
 10
157.3924121214551
 20
240.4457171303568
 30
195.0
  0
VERTEX
  5
11C
  8
DEFAULT
 10
157.1232224718099
 20
240.4210414629383
 30
195.0
  0
VERTEX
  5
11D
  8
DEFAULT
 10
156.8481364943431
 20
240.3419251797899
 30
195.0
  0
VERTEX
  5
11E
  8
DEFAULT
 10
156.5834354459806
 20
240.2048015431388
 30
195.0
  0
VERTEX
  5
11F
  8
DEFAULT
 10
156.3471344990982
 20
240.0128602097595
 30
195.0
  0
VERTEX
  5
120
  8
DEFAULT
 10
156.1551816313998
 20
239.7765559251879
 30
195.0
  0
VERTEX
  5
121
  8
DEFAULT
 10
156.0180478767684
 20
239.5118549492462
 30
195.0
  0
VERTEX
  5
122
  8
DEFAULT
 10
155.9389545300038
 20
239.2367574761519
 30
195.0
  0
VERTEX
  5
123
  8
DEFAULT
 10
155.9215969880167
 20
239.0475850953811
 30
195.0
  0
VERTEX
  5
124
  8
DEFAULT
 10
155.0873032010821
 20
239.047585095381
 30
195.0
  0
VERTEX
  5
125
  8
DEFAULT
 10
155.0873032010821
 20
240.1385690256929
 30
195.0
  0
VERTEX
  5
126
  8
DEFAULT
 10
155.2194245016474
 20
240.1480971671827
 30
195.0
  0
VERTEX
  5
127
  8
DEFAULT
 10
155.429260282949
 20
240.1942993930467
 30
195.0
  0
VERTEX
  5
128
  8
DEFAULT
 10
155.630177136286
 20
240.2704435229409
 30
195.0
  0
VERTEX
  5
129
  8
DEFAULT
 10
155.8162552528356
 20
240.3738067955979
 30
195.0
  0
VERTEX
  5
12A
  8
DEFAULT
 10
155.9952213702974
 20
240.5114308527573
 30
195.0
  0
VERTEX
  5
12B
  8
DEFAULT
 10
156.1567839058612
 20
240.6816261622542
 30
195.0
  0
VERTEX
  5
12C
  8
DEFAULT
 10
156.2925150725332
 20
240.8807633381326
 30
195.0
  0
VERTEX
  5
12D
  8
DEFAULT
 10
156.3952126697692
 20
241.1024197921103
 30
195.0
  0
VERTEX
  5
12E
  8
DEFAULT
 10
156.4599909503994
 20
241.3379801093216
 30
195.0
  0
VERTEX
  5
12F
  8
DEFAULT
 10
156.4850099848016
 20
241.5776724205323
 30
195.0
  0
VERTEX
  5
130
  8
DEFAULT
 10
156.4716160051877
 20
241.8119480868431
 30
195.0
  0
VERTEX
  5
131
  8
DEFAULT
 10
156.4238439202575
 20
242.0327885436631
 30
195.0
  0
VERTEX
  5
132
  8
DEFAULT
 10
156.3429896882288
 20
242.2437505291179
 30
195.0
  0
VERTEX
  5
133
  8
DEFAULT
 10
156.2259938304252
 20
242.4471795017683
 30
195.0
  0
VERTEX
  5
134
  8
DEFAULT
 10
156.073887658769
 20
242.6341190554899
 30
195.0
  0
VERTEX
  5
135
  8
DEFAULT
 10
155.8907725381965
 20
242.7958287006599
 30
195.0
  0
VERTEX
  5
136
  8
DEFAULT
 10
155.6835262655061
 20
242.9251418571855
 30
195.0
  0
VERTEX
  5
137
  8
DEFAULT
 10
155.4609470559782
 20
243.0175790363767
 30
195.0
  0
VERTEX
  5
138
  8
DEFAULT
 10
155.2325728996034
 20
243.0716244542355
 30
195.0
  0
VERTEX
  5
139
  8
DEFAULT
 10
155.0873032010821
 20
243.0827424913036
 30
195.0
  0
VERTEX
  5
13A
  8
DEFAULT
 10
155.0873032010821
 20
245.1385690256929
 30
195.0
  0
VERTEX
  5
13B
  8
DEFAULT
 10
155.2194245016474
 20
245.1480971671827
 30
195.0
  0
VERTEX
  5
13C
  8
DEFAULT
 10
155.429260282949
 20
245.1942993930467
 30
195.0
  0
VERTEX
  5
13D
  8
DEFAULT
 10
155.630177136286
 20
245.2704435229409
 30
195.0
  0
VERTEX
  5
13E
  8
DEFAULT
 10
155.8162552528356
 20
245.3738067955979
 30
195.0
  0
VERTEX
  5
13F
  8
DEFAULT
 10
155.9952213702974
 20
245.5114308527573
 30
195.0
  0
VERTEX
  5
140
  8
DEFAULT
 10
156.1567839058612
 20
245.6816261622542
 30
195.0
  0
VERTEX
  5
141
  8
DEFAULT
 10
156.2925150725332
 20
245.8807633381326
 30
195.0
  0
VERTEX
  5
142
  8
DEFAULT
 10
156.3952126697692
 20
246.1024197921103
 30
195.0
  0
VERTEX
  5
143
  8
DEFAULT
 10
156.4599909503994
 20
246.3379801093216
 30
195.0
  0
VERTEX
  5
144
  8
DEFAULT
 10
156.4850099848016
 20
246.5776724205323
 30
195.0
  0
VERTEX
  5
145
  8
DEFAULT
 10
156.4716160051877
 20
246.8119480868431
 30
195.0
  0
VERTEX
  5
146
  8
DEFAULT
 10
156.4238439202575
 20
247.0327885436631
 30
195.0
  0
VERTEX
  5
147
  8
DEFAULT
 10
156.3429896882288
 20
247.2437505291179
 30
195.0
  0
VERTEX
  5
148
  8
DEFAULT
 10
156.2259938304252
 20
247.4471795017683
 30
195.0
  0
VERTEX
  5
149
  8
DEFAULT
 10
156.073887658769
 20
247.6341190554899
 30
195.0
  0
VERTEX
  5
14A
  8
DEFAULT
 10
155.8907725381965
 20
247.7958287006599
 30
195.0
  0
VERTEX
  5
14B
  8
DEFAULT
 10
155.6835262655061
 20
247.9251418571855
 30
195.0
  0
VERTEX
  5
14C
  8
DEFAULT
 10
155.4609470559782
 20
248.0175790363767
 30
195.0
  0
VERTEX
  5
14D
  8
DEFAULT
 10
155.2325728996034
 20
248.0716244542355
 30
195.0
  0
VERTEX
  5
14E
  8
DEFAULT
 10
155.0873032010821
 20
248.0827424913036
 30
195.0
  0
VERTEX
  5
14F
  8
DEFAULT
 10
155.0873032010821
 20
250.1385690256929
 30
195.0
  0
VERTEX
  5
150
  8
DEFAULT
 10
155.2194245016474
 20
250.1480971671827
 30
195.0
  0
VERTEX
  5
151
  8
DEFAULT
 10
155.429260282949
 20
250.1942993930467
 30
195.0
  0
VERTEX
  5
152
  8
DEFAULT
 10
155.630177136286
 20
250.2704435229409
 30
195.0
  0
VERTEX
  5
153
  8
DEFAULT
 10
155.8162552528356
 20
250.3738067955979
 30
195.0
  0
VERTEX
  5
154
  8
DEFAULT
 10
155.9952213702974
 20
250.5114308527573
 30
195.0
  0
VERTEX
  5
155
  8
DEFAULT
 10
156.1567839058612
 20
250.6816261622542
 30
195.0
  0
VERTEX
  5
156
  8
DEFAULT
 10
156.2925150725332
 20
250.8807633381326
 30
195.0
  0
VERTEX
  5
157
  8
DEFAULT
 10
156.3952126697692
 20
251.1024197921103
 30
195.0
  0
VERTEX
  5
158
  8
DEFAULT
 10
156.4599909503994
 20
251.3379801093216
 30
195.0
  0
VERTEX
  5
159
  8
DEFAULT
 10
156.4850099848016
 20
251.5776724205323
 30
195.0
  0
VERTEX
  5
15A
  8
DEFAULT
 10
156.4716160051877
 20
251.8119480868431
 30
195.0
  0
VERTEX
  5
15B
  8
DEFAULT
 10
156.4238439202575
 20
252.0327885436631
 30
195.0
  0
VERTEX
  5
15C
  8
DEFAULT
 10
156.3429896882288
 20
252.2437505291179
 30
195.0
  0
VERTEX
  5
15D
  8
DEFAULT
 10
156.2259938304252
 20
252.4471795017683
 30
195.0
  0
VERTEX
  5
15E
  8
DEFAULT
 10
156.073887658769
 20
252.6341190554899
 30
195.0
  0
VERTEX
  5
15F
  8
DEFAULT
 10
155.8907725381965
 20
252.7958287006599
 30
195.0
  0
VERTEX
  5
160
  8
DEFAULT
 10
155.6835262655061
 20
252.9251418571855
 30
195.0
  0
VERTEX
  5
161
  8
DEFAULT
 10
155.4609470559782
 20
253.0175790363767
 30
195.0
  0
VERTEX
  5
162
  8
DEFAULT
 10
155.2325728996034
 20
253.0716244542356
 30
195.0
  0
VERTEX
  5
163
  8
DEFAULT
 10
155.0873031831529
 20
253.0827424926758
 30
195.0
  0
VERTEX
  5
164
  8
DEFAULT
 10
155.0873030504603
 20
253.6312326483774
 30
195.0
  0
SEQEND
  5
165
  8
DEFAULT
  0
POLYLINE
  5
166
  8
DEFAULT
 66
     1
 10
0.0
 20
0.0
 30
214.8789672851562
 70
     1
  0
VERTEX
  5
167
  8
DEFAULT
 10
155.0886165405253
 20
223.8253533324937
 30
214.8789672851562
  0
VERTEX
  5
168
  8
DEFAULT
 10
155.088937139653
 20
223.8254042291646
 30
214.8789672851562
  0
VERTEX
  5
169
  8
DEFAULT
 10
155.1673930471942
 20
223.8378594774911
 30
214.8789672851562
  0
VERTEX
  5
16A
  8
DEFAULT
 10
155.384381709197
 20
223.8721626125615
 30
214.8789672851562
  0
VERTEX
  5
16B
  8
DEFAULT
 10
155.8050038802047
 20
223.9388436726971
 30
214.8789672851562
  0
VERTEX
  5
16C
  8
DEFAULT
 10
156.0207024230439
 20
223.9982434150977
 30
214.8789672851562
  0
VERTEX
  5
16D
  8
DEFAULT
 10
156.0348939866043
 20
224.0274234766734
 30
214.8789672851562
  0
VERTEX
  5
16E
  8
DEFAULT
 10
156.1339042334891
 20
224.1878624412596
 30
214.8789672851562
  0
VERTEX
  5
16F
  8
DEFAULT
 10
156.2619934285132
 20
224.2793741448029
 30
214.8789672851562
  0
VERTEX
  5
170
  8
DEFAULT
 10
156.6189574039809
 20
224.5346126388529
 30
214.8789672851562
  0
VERTEX
  5
171
  8
DEFAULT
 10
156.6376110096701
 20
224.5375670070448
 30
214.8789672851562
  0
VERTEX
  5
172
  8
DEFAULT
 10
157.5964192266956
 20
224.6894235755165
 30
214.8789672851562
  0
VERTEX
  5
173
  8
DEFAULT
 10
157.6805215805658
 20
224.702728591357
 30
214.8789672851562
  0
VERTEX
  5
174
  8
DEFAULT
 10
157.9379355089692
 20
224.7435252789973
 30
214.8789672851562
  0
VERTEX
  5
175
  8
DEFAULT
 10
158.3562908218873
 20
224.6111109383313
 30
214.8789672851562
  0
VERTEX
  5
176
  8
DEFAULT
 10
158.4910743747561
 20
224.5683806499398
 30
214.8789672851562
  0
VERTEX
  5
177
  8
DEFAULT
 10
158.5103758543532
 20
224.5622615217964
 30
214.8789672851562
  0
VERTEX
  5
178
  8
DEFAULT
 10
158.5244422160359
 20
224.5476968961926
 30
214.8789672851562
  0
VERTEX
  5
179
  8
DEFAULT
 10
158.5692777354125
 20
224.5012731500345
 30
214.8789672851562
  0
VERTEX
  5
17A
  8
DEFAULT
 10
158.6762060145801
 20
224.390271918295
 30
214.8789672851562
  0
VERTEX
  5
17B
  8
DEFAULT
 10
158.7724895634344
 20
224.3975209011583
 30
214.8789672851562
  0
VERTEX
  5
17C
  8
DEFAULT
 10
159.3656001634212
 20
224.5028305243794
 30
214.8789672851562
  0
VERTEX
  5
17D
  8
DEFAULT
 10
159.5048861706305
 20
224.5239068552873
 30
214.8789672851562
  0
VERTEX
  5
17E
  8
DEFAULT
 10
159.621261036309
 20
224.540507843967
 30
214.8789672851562
  0
VERTEX
  5
17F
  8
DEFAULT
 10
159.6696788667207
 20
224.5521973946774
 30
214.8789672851562
  0
VERTEX
  5
180
  8
DEFAULT
 10
159.7632113709902
 20
224.5476698472453
 30
214.8789672851562
  0
VERTEX
  5
181
  8
DEFAULT
 10
159.7788558017174
 20
224.5556854482124
 30
214.8789672851562
  0
VERTEX
  5
182
  8
DEFAULT
 10
159.8149507749647
 20
224.5740390266872
 30
214.8789672851562
  0
VERTEX
  5
183
  8
DEFAULT
 10
159.9576669675636
 20
224.6467347529684
 30
214.8789672851562
  0
VERTEX
  5
184
  8
DEFAULT
 10
160.0069505479773
 20
224.672409833289
 30
214.8789672851562
  0
VERTEX
  5
185
  8
DEFAULT
 10
160.6003794749137
 20
225.0456399285268
 30
214.8789672851562
  0
VERTEX
  5
186
  8
DEFAULT
 10
160.6047123574233
 20
225.076741715308
 30
214.8789672851562
  0
VERTEX
  5
187
  8
DEFAULT
 10
160.6493943899363
 20
225.2598423990004
 30
214.8789672851562
  0
VERTEX
  5
188
  8
DEFAULT
 10
160.7428570897578
 20
225.386543831065
 30
214.8789672851562
  0
VERTEX
  5
189
  8
DEFAULT
 10
161.0034708948382
 20
225.7396417349316
 30
214.8789672851562
  0
VERTEX
  5
18A
  8
DEFAULT
 10
161.8852273066591
 20
226.1888888796949
 30
214.8789672851562
  0
VERTEX
  5
18B
  8
DEFAULT
 10
162.1933138080359
 20
226.3459019502899
 30
214.8789672851562
  0
VERTEX
  5
18C
  8
DEFAULT
 10
162.6321517983088
 20
226.349218740605
 30
214.8789672851562
  0
VERTEX
  5
18D
  8
DEFAULT
 10
162.7937528201146
 20
226.3503351643441
 30
214.8789672851562
  0
VERTEX
  5
18E
  8
DEFAULT
 10
162.8686749467595
 20
226.3105477615247
 30
214.8789672851562
  0
VERTEX
  5
18F
  8
DEFAULT
 10
163.0055762420995
 20
226.2375535432034
 30
214.8789672851562
  0
VERTEX
  5
190
  8
DEFAULT
 10
163.0910743107906
 20
226.2706655120029
 30
214.8789672851562
  0
VERTEX
  5
191
  8
DEFAULT
 10
163.1951879298343
 20
226.3355538427938
 30
214.8789672851562
  0
VERTEX
  5
192
  8
DEFAULT
 10
163.2784522960927
 20
226.381492803488
 30
214.8789672851562
  0
VERTEX
  5
193
  8
DEFAULT
 10
163.4090914918615
 20
226.4296814124933
 30
214.8789672851562
  0
VERTEX
  5
194
  8
DEFAULT
 10
163.7932030679812
 20
226.6253530011375
 30
214.8789672851562
  0
VERTEX
  5
195
  8
DEFAULT
 10
163.891413214986
 20
226.6899946465949
 30
214.8789672851562
  0
VERTEX
  5
196
  8
DEFAULT
 10
163.9265817986403
 20
226.711618573031
 30
214.8789672851562
  0
VERTEX
  5
197
  8
DEFAULT
 10
164.0216068336538
 20
226.7780898566475
 30
214.8789672851562
  0
VERTEX
  5
198
  8
DEFAULT
 10
164.0438028410663
 20
226.797298823725
 30
214.8789672851562
  0
VERTEX
  5
199
  8
DEFAULT
 10
164.1062743029421
 20
226.8685433749689
 30
214.8789672851562
  0
VERTEX
  5
19A
  8
DEFAULT
 10
164.1076967295196
 20
226.8700076376221
 30
214.8789672851562
  0
VERTEX
  5
19B
  8
DEFAULT
 10
164.2492091432852
 20
227.0156763797669
 30
214.8789672851562
  0
VERTEX
  5
19C
  8
DEFAULT
 10
164.471570559444
 20
227.2381655099013
 30
214.8789672851562
  0
VERTEX
  5
19D
  8
DEFAULT
 10
164.5075901518732
 20
227.2744192347359
 30
214.8789672851562
  0
VERTEX
  5
19E
  8
DEFAULT
 10
164.6384049960888
 20
227.4208392479783
 30
214.8789672851562
  0
VERTEX
  5
19F
  8
DEFAULT
 10
164.626684276405
 20
227.4867286991731
 30
214.8789672851562
  0
VERTEX
  5
1A0
  8
DEFAULT
 10
164.6125412165719
 20
227.6747562385966
 30
214.8789672851562
  0
VERTEX
  5
1A1
  8
DEFAULT
 10
164.6623022446184
 20
227.8241752733992
 30
214.8789672851562
  0
VERTEX
  5
1A2
  8
DEFAULT
 10
164.8010878394736
 20
228.2404045062949
 30
214.8789672851562
  0
VERTEX
  5
1A3
  8
DEFAULT
 10
165.0162168296881
 20
228.4556636384219
 30
214.8789672851562
  0
VERTEX
  5
1A4
  8
DEFAULT
 10
165.0455235137413
 20
228.4849703250055
 30
214.8789672851562
  0
VERTEX
  5
1A5
  8
DEFAULT
 10
165.7453390885907
 20
229.1847236774899
 30
214.8789672851562
  0
VERTEX
  5
1A6
  8
DEFAULT
 10
166.1616348825701
 20
229.3235102016377
 30
214.8789672851562
  0
VERTEX
  5
1A7
  8
DEFAULT
 10
166.3149770303912
 20
229.3746009862828
 30
214.8789672851562
  0
VERTEX
  5
1A8
  8
DEFAULT
 10
166.3945631033444
 20
229.3605338993752
 30
214.8789672851562
  0
VERTEX
  5
1A9
  8
DEFAULT
 10
166.5606915159461
 20
229.3479776821436
 30
214.8789672851562
  0
VERTEX
  5
1AA
  8
DEFAULT
 10
166.6359085874978
 20
229.4231947526825
 30
214.8789672851562
  0
VERTEX
  5
1AB
  8
DEFAULT
 10
166.7640213804666
 20
229.5513685808075
 30
214.8789672851562
  0
VERTEX
  5
1AC
  8
DEFAULT
 10
166.9173428244987
 20
229.7046900253334
 30
214.8789672851562
  0
VERTEX
  5
1AD
  8
DEFAULT
 10
167.0713391753531
 20
229.8587474105792
 30
214.8789672851562
  0
VERTEX
  5
1AE
  8
DEFAULT
 10
167.2569526891291
 20
230.0442998903093
 30
214.8789672851562
  0
VERTEX
  5
1AF
  8
DEFAULT
 10
167.2768102991812
 20
230.0641575008888
 30
214.8789672851562
  0
VERTEX
  5
1B0
  8
DEFAULT
 10
167.3080439457433
 20
230.1253878155193
 30
214.8789672851562
  0
VERTEX
  5
1B1
  8
DEFAULT
 10
167.3621015941795
 20
230.2314286385887
 30
214.8789672851562
  0
VERTEX
  5
1B2
  8
DEFAULT
 10
167.4082410761377
 20
230.3221208059777
 30
214.8789672851562
  0
VERTEX
  5
1B3
  8
DEFAULT
 10
167.678090993536
 20
230.8516883164701
 30
214.8789672851562
  0
VERTEX
  5
1B4
  8
DEFAULT
 10
167.7365522554952
 20
230.9663892304116
 30
214.8789672851562
  0
VERTEX
  5
1B5
  8
DEFAULT
 10
167.7069867404024
 20
231.0217206763282
 30
214.8789672851562
  0
VERTEX
  5
1B6
  8
DEFAULT
 10
167.6354393961936
 20
231.196113056864
 30
214.8789672851562
  0
VERTEX
  5
1B7
  8
DEFAULT
 10
167.636595014366
 20
231.353684621101
 30
214.8789672851562
  0
VERTEX
  5
1B8
  8
DEFAULT
 10
167.6399754622245
 20
231.7925053853295
 30
214.8789672851562
  0
VERTEX
  5
1B9
  8
DEFAULT
 10
167.7969242497398
 20
232.1004633095347
 30
214.8789672851562
  0
VERTEX
  5
1BA
  8
DEFAULT
 10
168.2461664023107
 20
232.9822721451884
 30
214.8789672851562
  0
VERTEX
  5
1BB
  8
DEFAULT
 10
168.5992734215713
 20
233.2430202295341
 30
214.8789672851562
  0
VERTEX
  5
1BC
  8
DEFAULT
 10
168.7293986975135
 20
233.3389387731344
 30
214.8789672851562
  0
VERTEX
  5
1BD
  8
DEFAULT
 10
168.8094277599448
 20
233.3500985076921
 30
214.8789672851562
  0
VERTEX
  5
1BE
  8
DEFAULT
 10
168.9711598529269
 20
233.3894305944598
 30
214.8789672851562
  0
VERTEX
  5
1BF
  8
DEFAULT
 10
169.0195151244701
 20
233.4843659238949
 30
214.8789672851562
  0
VERTEX
  5
1C0
  8
DEFAULT
 10
169.1017924190397
 20
233.6458686848397
 30
214.8789672851562
  0
VERTEX
  5
1C1
  8
DEFAULT
 10
169.2001818906153
 20
233.8389854888679
 30
214.8789672851562
  0
VERTEX
  5
1C2
  8
DEFAULT
 10
169.3179817560179
 20
234.0701906129244
 30
214.8789672851562
  0
VERTEX
  5
1C3
  8
DEFAULT
 10
169.4182162308704
 20
234.2668748037328
 30
214.8789672851562
  0
VERTEX
  5
1C4
  8
DEFAULT
 10
169.4303741096609
 20
234.2906892210032
 30
214.8789672851562
  0
VERTEX
  5
1C5
  8
DEFAULT
 10
169.4353014510235
 20
234.3201614162583
 30
214.8789672851562
  0
VERTEX
  5
1C6
  8
DEFAULT
 10
169.4697931881343
 20
234.5378463566101
 30
214.8789672851562
  0
VERTEX
  5
1C7
  8
DEFAULT
 10
169.5041543789631
 20
234.7546331121945
 30
214.8789672851562
  0
VERTEX
  5
1C8
  8
DEFAULT
 10
169.5383359473553
 20
234.970709420474
 30
214.8789672851562
  0
VERTEX
  5
1C9
  8
DEFAULT
 10
169.5634250779378
 20
235.1286916320816
 30
214.8789672851562
  0
VERTEX
  5
1CA
  8
DEFAULT
 10
169.5893721085602
 20
235.2920913941754
 30
214.8789672851562
  0
VERTEX
  5
1CB
  8
DEFAULT
 10
169.5441579248493
 20
235.3357628367098
 30
214.8789672851562
  0
VERTEX
  5
1CC
  8
DEFAULT
 10
169.4222171008201
 20
235.4793592580596
 30
214.8789672851562
  0
VERTEX
  5
1CD
  8
DEFAULT
 10
169.374695065861
 20
235.6296077559981
 30
214.8789672851562
  0
VERTEX
  5
1CE
  8
DEFAULT
 10
169.2422889480877
 20
236.0478733204745
 30
214.8789672851562
  0
VERTEX
  5
1CF
  8
DEFAULT
 10
169.2963913275993
 20
236.3894026610454
 30
214.8789672851562
  0
VERTEX
  5
1D0
  8
DEFAULT
 10
169.4107712020746
 20
237.1115705771655
 30
214.8789672851562
  0
VERTEX
  5
1D1
  8
DEFAULT
 10
169.4512014214308
 20
237.3667945678491
 30
214.8789672851562
  0
VERTEX
  5
1D2
  8
DEFAULT
 10
169.5443913245322
 20
237.4971358990825
 30
214.8789672851562
  0
VERTEX
  5
1D3
  8
DEFAULT
 10
169.6279463096314
 20
237.6140762597003
 30
214.8789672851562
  0
VERTEX
  5
1D4
  8
DEFAULT
 10
169.8004345991884
 20
237.855376368498
 30
214.8789672851562
  0
VERTEX
  5
1D5
  8
DEFAULT
 10
169.8187498658909
 20
237.8642646596575
 30
214.8789672851562
  0
VERTEX
  5
1D6
  8
DEFAULT
 10
169.8732029108761
 20
237.8906904020768
 30
214.8789672851562
  0
VERTEX
  5
1D7
  8
DEFAULT
 10
170.0148370639291
 20
237.9781561269179
 30
214.8789672851562
  0
VERTEX
  5
1D8
  8
DEFAULT
 10
170.0617637880323
 20
238.2744858199711
 30
214.8789672851562
  0
VERTEX
  5
1D9
  8
DEFAULT
 10
170.0861827307334
 20
238.3230986459937
 30
214.8789672851562
  0
VERTEX
  5
1DA
  8
DEFAULT
 10
170.0929332468248
 20
238.4711599655974
 30
214.8789672851562
  0
VERTEX
  5
1DB
  8
DEFAULT
 10
170.0936283505017
 20
238.4755578330916
 30
214.8789672851562
  0
VERTEX
  5
1DC
  8
DEFAULT
 10
170.0999730928388
 20
238.5157005018247
 30
214.8789672851562
  0
VERTEX
  5
1DD
  8
DEFAULT
 10
170.1063246538585
 20
238.5560083602342
 30
214.8789672851562
  0
VERTEX
  5
1DE
  8
DEFAULT
 10
170.1407520689249
 20
238.7729500263388
 30
214.8789672851562
  0
VERTEX
  5
1DF
  8
DEFAULT
 10
170.1588833381826
 20
238.8875850953811
 30
214.8789672851562
  0
VERTEX
  5
1E0
  8
DEFAULT
 10
168.066455211626
 20
238.8875850953811
 30
214.8789672851562
  0
VERTEX
  5
1E1
  8
DEFAULT
 10
168.0785851373203
 20
238.799274212717
 30
214.8789672851562
  0
VERTEX
  5
1E2
  8
DEFAULT
 10
168.0845651447232
 20
238.6664066798131
 30
214.8789672851562
  0
VERTEX
  5
1E3
  8
DEFAULT
 10
168.078585077783
 20
238.5335701051361
 30
214.8789672851562
  0
VERTEX
  5
1E4
  8
DEFAULT
 10
168.0598877619045
 20
238.3974459020448
 30
214.8789672851562
  0
VERTEX
  5
1E5
  8
DEFAULT
 10
168.0275146668355
 20
238.2597100178047
 30
214.8789672851562
  0
VERTEX
  5
1E6
  8
DEFAULT
 10
167.9807993007442
 20
238.1223588559636
 30
214.8789672851562
  0
VERTEX
  5
1E7
  8
DEFAULT
 10
167.9194644199384
 20
237.9875898937723
 30
214.8789672851562
  0
VERTEX
  5
1E8
  8
DEFAULT
 10
167.8436687207854
 20
237.8576636277346
 30
214.8789672851562
  0
VERTEX
  5
1E9
  8
DEFAULT
 10
167.7540504097483
 20
237.7348654487841
 30
214.8789672851562
  0
VERTEX
  5
1EA
  8
DEFAULT
 10
167.6517165970487
 20
237.6213601746996
 30
214.8789672851562
  0
VERTEX
  5
1EB
  8
DEFAULT
 10
167.5382042602373
 20
237.5190155643274
 30
214.8789672851562
  0
VERTEX
  5
1EC
  8
DEFAULT
 10
167.4154076914194
 20
237.4294156506132
 30
214.8789672851562
  0
VERTEX
  5
1ED
  8
DEFAULT
 10
167.2854874941087
 20
237.3536292049244
 30
214.8789672851562
  0
VERTEX
  5
1EE
  8
DEFAULT
 10
167.1507133123437
 20
237.2922956195428
 30
214.8789672851562
  0
VERTEX
  5
1EF
  8
DEFAULT
 10
167.0133729204657
 20
237.245578511937
 30
214.8789672851562
  0
VERTEX
  5
1F0
  8
DEFAULT
 10
166.8756465326881
 20
237.2131846395944
 30
214.8789672851562
  0
VERTEX
  5
1F1
  8
DEFAULT
 10
166.7901118899862
 20
237.2014379418732
 30
214.8789672851562
  0
VERTEX
  5
1F2
  8
DEFAULT
 10
166.7395029640836
 20
237.1945010450592
 30
214.8789672851562
  0
VERTEX
  5
1F3
  8
DEFAULT
 10
166.6066608606155
 20
237.1885297068228
 30
214.8789672851562
  0
VERTEX
  5
1F4
  8
DEFAULT
 10
166.4738273269676
 20
237.1945004785473
 30
214.8789672851562
  0
VERTEX
  5
1F5
  8
DEFAULT
 10
166.4670750952048
 20
237.1954238655384
 30
214.8789672851562
  0
VERTEX
  5
1F6
  8
DEFAULT
 10
166.3376784077838
 20
237.2131838820683
 30
214.8789672851562
  0
VERTEX
  5
1F7
  8
DEFAULT
 10
166.1999451246904
 20
237.2455784276709
 30
214.8789672851562
  0
VERTEX
  5
1F8
  8
DEFAULT
 10
166.0626044850841
 20
237.2922956195428
 30
214.8789672851562
  0
VERTEX
  5
1F9
  8
DEFAULT
 10
165.9278303033191
 20
237.3536292049244
 30
214.8789672851562
  0
VERTEX
  5
1FA
  8
DEFAULT
 10
165.797909564242
 20
237.4294159666421
 30
214.8789672851562
  0
VERTEX
  5
1FB
  8
DEFAULT
 10
165.67511688604
 20
237.5190159843435
 30
214.8789672851562
  0
VERTEX
  5
1FC
  8
DEFAULT
 10
165.5616050150764
 20
237.6213601746996
 30
214.8789672851562
  0
VERTEX
  5
1FD
  8
DEFAULT
 10
165.459271777874
 20
237.7348648104616
 30
214.8789672851562
  0
VERTEX
  5
1FE
  8
DEFAULT
 10
165.3696489621471
 20
237.8576636356462
 30
214.8789672851562
  0
VERTEX
  5
1FF
  8
DEFAULT
 10
165.293857308411
 20
237.9875898803523
 30
214.8789672851562
  0
VERTEX
  5
200
  8
DEFAULT
 10
165.2325188167765
 20
238.1223579148359
 30
214.8789672851562
  0
VERTEX
  5
201
  8
DEFAULT
 10
165.1858031305923
 20
238.2597100178047
 30
214.8789672851562
  0
VERTEX
  5
202
  8
DEFAULT
 10
165.1534297687926
 20
238.3974470368882
 30
214.8789672851562
  0
VERTEX
  5
203
  8
DEFAULT
 10
165.1347364819214
 20
238.5335712695695
 30
214.8789672851562
  0
VERTEX
  5
204
  8
DEFAULT
 10
165.1287564674019
 20
238.6664066798131
 30
214.8789672851562
  0
VERTEX
  5
205
  8
DEFAULT
 10
165.1347364223968
 20
238.7992730482824
 30
214.8789672851562
  0
VERTEX
  5
206
  8
DEFAULT
 10
165.1468638915335
 20
238.8875850953811
 30
214.8789672851562
  0
VERTEX
  5
207
  8
DEFAULT
 10
163.8632278547911
 20
238.8875850953811
 30
214.8789672851562
  0
VERTEX
  5
208
  8
DEFAULT
 10
163.8458717829129
 20
238.6984132751642
 30
214.8789672851562
  0
VERTEX
  5
209
  8
DEFAULT
 10
163.7667803614149
 20
238.4233154843672
 30
214.8789672851562
  0
VERTEX
  5
20A
  8
DEFAULT
 10
163.629646289788
 20
238.1586138965483
 30
214.8789672851562
  0
VERTEX
  5
20B
  8
DEFAULT
 10
163.4376894759057
 20
237.9223097189074
 30
214.8789672851562
  0
VERTEX
  5
20C
  8
DEFAULT
 10
163.2013888516914
 20
237.7303686476234
 30
214.8789672851562
  0
VERTEX
  5
20D
  8
DEFAULT
 10
162.9366878731749
 20
237.5932450471547
 30
214.8789672851562
  0
VERTEX
  5
20E
  8
DEFAULT
 10
162.6616037850345
 20
237.5141287273939
 30
214.8789672851562
  0
VERTEX
  5
20F
  8
DEFAULT
 10
162.392412148836
 20
237.4894530629152
 30
214.8789672851562
  0
VERTEX
  5
210
  8
DEFAULT
 10
162.1232205126374
 20
237.5141287273939
 30
214.8789672851562
  0
VERTEX
  5
211
  8
DEFAULT
 10
161.848136424497
 20
237.5932450471547
 30
214.8789672851562
  0
VERTEX
  5
212
  8
DEFAULT
 10
161.5834354459805
 20
237.7303686476234
 30
214.8789672851562
  0
VERTEX
  5
213
  8
DEFAULT
 10
161.3471344990981
 20
237.9223099810027
 30
214.8789672851562
  0
VERTEX
  5
214
  8
DEFAULT
 10
161.1551816313998
 20
238.1586142655742
 30
214.8789672851562
  0
VERTEX
  5
215
  8
DEFAULT
 10
161.0180478767683
 20
238.4233152415159
 30
214.8789672851562
  0
VERTEX
  5
216
  8
DEFAULT
 10
160.9389545300038
 20
238.6984127146103
 30
214.8789672851562
  0
VERTEX
  5
217
  8
DEFAULT
 10
160.9215969880166
 20
238.8875850953811
 30
214.8789672851562
  0
VERTEX
  5
218
  8
DEFAULT
 10
158.8632292170039
 20
238.8875850953811
 30
214.8789672851562
  0
VERTEX
  5
219
  8
DEFAULT
 10
158.8458716750168
 20
238.6984127146103
 30
214.8789672851562
  0
VERTEX
  5
21A
  8
DEFAULT
 10
158.7667783282523
 20
238.4233152415159
 30
214.8789672851562
  0
VERTEX
  5
21B
  8
DEFAULT
 10
158.6296445736208
 20
238.1586142655742
 30
214.8789672851562
  0
VERTEX
  5
21C
  8
DEFAULT
 10
158.4376917059225
 20
237.9223099810027
 30
214.8789672851562
  0
VERTEX
  5
21D
  8
DEFAULT
 10
158.2013906614222
 20
237.7303685683308
 30
214.8789672851562
  0
VERTEX
  5
21E
  8
DEFAULT
 10
157.9366877523873
 20
237.5932450124152
 30
214.8789672851562
  0
VERTEX
  5
21F
  8
DEFAULT
 10
157.6616037850345
 20
237.5141287273939
 30
214.8789672851562
  0
VERTEX
  5
220
  8
DEFAULT
 10
157.3924121214551
 20
237.4894530604053
 30
214.8789672851562
  0
VERTEX
  5
221
  8
DEFAULT
 10
157.1232224718099
 20
237.5141287278238
 30
214.8789672851562
  0
VERTEX
  5
222
  8
DEFAULT
 10
156.848136494343
 20
237.5932450109722
 30
214.8789672851562
  0
VERTEX
  5
223
  8
DEFAULT
 10
156.5834354459805
 20
237.7303686476234
 30
214.8789672851562
  0
VERTEX
  5
224
  8
DEFAULT
 10
156.3471344990981
 20
237.9223099810027
 30
214.8789672851562
  0
VERTEX
  5
225
  8
DEFAULT
 10
156.1551816313998
 20
238.1586142655742
 30
214.8789672851562
  0
VERTEX
  5
226
  8
DEFAULT
 10
156.0180478767683
 20
238.4233152415159
 30
214.8789672851562
  0
VERTEX
  5
227
  8
DEFAULT
 10
155.9389545300038
 20
238.6984127146103
 30
214.8789672851562
  0
VERTEX
  5
228
  8
DEFAULT
 10
155.9215969880166
 20
238.8875850953811
 30
214.8789672851562
  0
VERTEX
  5
229
  8
DEFAULT
 10
155.0873032010821
 20
238.8875850953811
 30
214.8789672851562
  0
VERTEX
  5
22A
  8
DEFAULT
 10
155.0873032010821
 20
237.7966011650692
 30
214.8789672851562
  0
VERTEX
  5
22B
  8
DEFAULT
 10
155.2194245016473
 20
237.7870730235795
 30
214.8789672851562
  0
VERTEX
  5
22C
  8
DEFAULT
 10
155.4292602829489
 20
237.7408707977154
 30
214.8789672851562
  0
VERTEX
  5
22D
  8
DEFAULT
 10
155.630177136286
 20
237.6647266678213
 30
214.8789672851562
  0
VERTEX
  5
22E
  8
DEFAULT
 10
155.8162552528356
 20
237.5613633951643
 30
214.8789672851562
  0
VERTEX
  5
22F
  8
DEFAULT
 10
155.9952213702974
 20
237.4237393380048
 30
214.8789672851562
  0
VERTEX
  5
230
  8
DEFAULT
 10
156.1567839058612
 20
237.2535440285079
 30
214.8789672851562
  0
VERTEX
  5
231
  8
DEFAULT
 10
156.2925150725332
 20
237.0544068526296
 30
214.8789672851562
  0
VERTEX
  5
232
  8
DEFAULT
 10
156.3952126697692
 20
236.8327503986518
 30
214.8789672851562
  0
VERTEX
  5
233
  8
DEFAULT
 10
156.4599909503993
 20
236.5971900814406
 30
214.8789672851562
  0
VERTEX
  5
234
  8
DEFAULT
 10
156.4850099848016
 20
236.3574977702298
 30
214.8789672851562
  0
VERTEX
  5
235
  8
DEFAULT
 10
156.4716160051876
 20
236.1232221039191
 30
214.8789672851562
  0
VERTEX
  5
236
  8
DEFAULT
 10
156.4238439202575
 20
235.9023816470991
 30
214.8789672851562
  0
VERTEX
  5
237
  8
DEFAULT
 10
156.3429896882288
 20
235.6914196616442
 30
214.8789672851562
  0
VERTEX
  5
238
  8
DEFAULT
 10
156.2259938304252
 20
235.4879906889939
 30
214.8789672851562
  0
VERTEX
  5
239
  8
DEFAULT
 10
156.073887658769
 20
235.3010511352723
 30
214.8789672851562
  0
VERTEX
  5
23A
  8
DEFAULT
 10
155.8907725381964
 20
235.1393414901023
 30
214.8789672851562
  0
VERTEX
  5
23B
  8
DEFAULT
 10
155.6835262655061
 20
235.0100283335766
 30
214.8789672851562
  0
VERTEX
  5
23C
  8
DEFAULT
 10
155.4609470559782
 20
234.9175911543854
 30
214.8789672851562
  0
VERTEX
  5
23D
  8
DEFAULT
 10
155.2325728996034
 20
234.8635457365266
 30
214.8789672851562
  0
VERTEX
  5
23E
  8
DEFAULT
 10
155.0873032010821
 20
234.8524276994585
 30
214.8789672851562
  0
VERTEX
  5
23F
  8
DEFAULT
 10
155.0873032010821
 20
232.7966011650692
 30
214.8789672851562
  0
VERTEX
  5
240
  8
DEFAULT
 10
155.2194245016473
 20
232.7870730235795
 30
214.8789672851562
  0
VERTEX
  5
241
  8
DEFAULT
 10
155.4292602829489
 20
232.7408707977154
 30
214.8789672851562
  0
VERTEX
  5
242
  8
DEFAULT
 10
155.630177136286
 20
232.6647266678213
 30
214.8789672851562
  0
VERTEX
  5
243
  8
DEFAULT
 10
155.8162552528356
 20
232.5613633951643
 30
214.8789672851562
  0
VERTEX
  5
244
  8
DEFAULT
 10
155.9952213702974
 20
232.4237393380048
 30
214.8789672851562
  0
VERTEX
  5
245
  8
DEFAULT
 10
156.1567839058612
 20
232.2535440285079
 30
214.8789672851562
  0
VERTEX
  5
246
  8
DEFAULT
 10
156.2925150725332
 20
232.0544068526296
 30
214.8789672851562
  0
VERTEX
  5
247
  8
DEFAULT
 10
156.3952126697692
 20
231.8327503986518
 30
214.8789672851562
  0
VERTEX
  5
248
  8
DEFAULT
 10
156.4599909503993
 20
231.5971900814406
 30
214.8789672851562
  0
VERTEX
  5
249
  8
DEFAULT
 10
156.4850099848016
 20
231.3574977702298
 30
214.8789672851562
  0
VERTEX
  5
24A
  8
DEFAULT
 10
156.4716160051876
 20
231.1232221039191
 30
214.8789672851562
  0
VERTEX
  5
24B
  8
DEFAULT
 10
156.4238439202575
 20
230.9023816470991
 30
214.8789672851562
  0
VERTEX
  5
24C
  8
DEFAULT
 10
156.3429896882288
 20
230.6914196616442
 30
214.8789672851562
  0
VERTEX
  5
24D
  8
DEFAULT
 10
156.2259938304252
 20
230.4879906889939
 30
214.8789672851562
  0
VERTEX
  5
24E
  8
DEFAULT
 10
156.073887658769
 20
230.3010511352723
 30
214.8789672851562
  0
VERTEX
  5
24F
  8
DEFAULT
 10
155.8907725381964
 20
230.1393414901023
 30
214.8789672851562
  0
VERTEX
  5
250
  8
DEFAULT
 10
155.6835262655061
 20
230.0100283335766
 30
214.8789672851562
  0
VERTEX
  5
251
  8
DEFAULT
 10
155.4609470559782
 20
229.9175911543854
 30
214.8789672851562
  0
VERTEX
  5
252
  8
DEFAULT
 10
155.2325728996034
 20
229.8635457365266
 30
214.8789672851562
  0
VERTEX
  5
253
  8
DEFAULT
 10
155.0873032010821
 20
229.8524276994585
 30
214.8789672851562
  0
VERTEX
  5
254
  8
DEFAULT
 10
155.0873032010821
 20
227.7966011650692
 30
214.8789672851562
  0
VERTEX
  5
255
  8
DEFAULT
 10
155.2194245016473
 20
227.7870730235794
 30
214.8789672851562
  0
VERTEX
  5
256
  8
DEFAULT
 10
155.4292602829489
 20
227.7408707977154
 30
214.8789672851562
  0
VERTEX
  5
257
  8
DEFAULT
 10
155.630177136286
 20
227.6647266678213
 30
214.8789672851562
  0
VERTEX
  5
258
  8
DEFAULT
 10
155.8162552528356
 20
227.5613633951643
 30
214.8789672851562
  0
VERTEX
  5
259
  8
DEFAULT
 10
155.9952213702974
 20
227.4237393380048
 30
214.8789672851562
  0
VERTEX
  5
25A
  8
DEFAULT
 10
156.1567839058612
 20
227.2535440285079
 30
214.8789672851562
  0
VERTEX
  5
25B
  8
DEFAULT
 10
156.2925150725332
 20
227.0544068526296
 30
214.8789672851562
  0
VERTEX
  5
25C
  8
DEFAULT
 10
156.3952126697692
 20
226.8327503986518
 30
214.8789672851562
  0
VERTEX
  5
25D
  8
DEFAULT
 10
156.4599909503993
 20
226.5971900814406
 30
214.8789672851562
  0
VERTEX
  5
25E
  8
DEFAULT
 10
156.4850099848016
 20
226.3574977702298
 30
214.8789672851562
  0
VERTEX
  5
25F
  8
DEFAULT
 10
156.4716160051876
 20
226.1232221039191
 30
214.8789672851562
  0
VERTEX
  5
260
  8
DEFAULT
 10
156.4238439202575
 20
225.9023816470991
 30
214.8789672851562
  0
VERTEX
  5
261
  8
DEFAULT
 10
156.3429896882288
 20
225.6914196616442
 30
214.8789672851562
  0
VERTEX
  5
262
  8
DEFAULT
 10
156.2259938304252
 20
225.4879906889939
 30
214.8789672851562
  0
VERTEX
  5
263
  8
DEFAULT
 10
156.073887658769
 20
225.3010511352723
 30
214.8789672851562
  0
VERTEX
  5
264
  8
DEFAULT
 10
155.8907725381964
 20
225.1393414901023
 30
214.8789672851562
  0
VERTEX
  5
265
  8
DEFAULT
 10
155.6835262655061
 20
225.0100283335766
 30
214.8789672851562
  0
VERTEX
  5
266
  8
DEFAULT
 10
155.4609470559782
 20
224.9175911543854
 30
214.8789672851562
  0
VERTEX
  5
267
  8
DEFAULT
 10
155.2325728996034
 20
224.8635457365266
 30
214.8789672851562
  0
VERTEX
  5
268
  8
DEFAULT
 10
155.0873031831528
 20
224.8524276980863
 30
214.8789672851562
  0
VERTEX
  5
269
  8
DEFAULT
 10
155.0873030504603
 20
224.3039375423848
 30
214.8789672851562
  0
SEQEND
  5
26A
  8
DEFAULT
  0
POLYLINE
  5
26B
  8
DEFAULT
 66
     1
 10
0.0
 20
0.0
 30
214.8789672851562
 70
     1
  0
VERTEX
  5
26C
  8
DEFAULT
 10
158.628496133211
 20
250.0485482301467
 30
214.8789672851562
  0
VERTEX
  5
26D
  8
DEFAULT
 10
158.7540969480303
 20
250.0542092408889
 30
214.8789672851562
  0
VERTEX
  5
26E
  8
DEFAULT
 10
158.8796972860125
 20
250.0485482301467
 30
214.8789672851562
  0
VERTEX
  5
26F
  8
DEFAULT
 10
159.0084490407732
 20
250.0308632936233
 30
214.8789672851562
  0
VERTEX
  5
270
  8
DEFAULT
 10
159.1387195218828
 20
250.0002541627639
 30
214.8789672851562
  0
VERTEX
  5
271
  8
DEFAULT
 10
159.2686285604265
 20
249.9560647096389
 30
214.8789672851562
  0
VERTEX
  5
272
  8
DEFAULT
 10
159.3961095441607
 20
249.8980507936233
 30
214.8789672851562
  0
VERTEX
  5
273
  8
DEFAULT
 10
159.5189995397356
 20
249.8263497438186
 30
214.8789672851562
  0
VERTEX
  5
274
  8
DEFAULT
 10
159.6351427663592
 20
249.7415871705764
 30
214.8789672851562
  0
VERTEX
  5
275
  8
DEFAULT
 10
159.7425076593188
 20
249.6447854127639
 30
214.8789672851562
  0
VERTEX
  5
276
  8
DEFAULT
 10
159.7629735101488
 20
249.622095593428
 30
214.8789672851562
  0
VERTEX
  5
277
  8
DEFAULT
 10
159.8393017877367
 20
249.5374245729201
 30
214.8789672851562
  0
VERTEX
  5
278
  8
DEFAULT
 10
159.9240691293505
 20
249.4212899293655
 30
214.8789672851562
  0
VERTEX
  5
279
  8
DEFAULT
 10
159.9957613576678
 20
249.2983956422561
 30
214.8789672851562
  0
VERTEX
  5
27A
  8
DEFAULT
 10
160.053777181032
 20
249.1709084596389
 30
214.8789672851562
  0
VERTEX
  5
27B
  8
DEFAULT
 10
160.0979632962969
 20
249.0410103883498
 30
214.8789672851562
  0
VERTEX
  5
27C
  8
DEFAULT
 10
160.1285845865038
 20
248.9107308473342
 30
214.8789672851562
  0
VERTEX
  5
27D
  8
DEFAULT
 10
160.1462664235857
 20
248.7819771852248
 30
214.8789672851562
  0
VERTEX
  5
27E
  8
DEFAULT
 10
160.1519207586077
 20
248.6563820924514
 30
214.8789672851562
  0
VERTEX
  5
27F
  8
DEFAULT
 10
160.1511506665972
 20
248.6392769899123
 30
214.8789672851562
  0
VERTEX
  5
280
  8
DEFAULT
 10
160.1462664235857
 20
248.530786999678
 30
214.8789672851562
  0
VERTEX
  5
281
  8
DEFAULT
 10
160.1285845865038
 20
248.4020333375686
 30
214.8789672851562
  0
VERTEX
  5
282
  8
DEFAULT
 10
160.0979632962969
 20
248.271753796553
 30
214.8789672851562
  0
VERTEX
  5
283
  8
DEFAULT
 10
160.053777181032
 20
248.1418557252639
 30
214.8789672851562
  0
VERTEX
  5
284
  8
DEFAULT
 10
159.9957613576678
 20
248.0143685426467
 30
214.8789672851562
  0
VERTEX
  5
285
  8
DEFAULT
 10
159.9240691293505
 20
247.8914742555373
 30
214.8789672851562
  0
VERTEX
  5
286
  8
DEFAULT
 10
159.8393017877367
 20
247.7753396119826
 30
214.8789672851562
  0
VERTEX
  5
287
  8
DEFAULT
 10
159.7425076593188
 20
247.6679635133498
 30
214.8789672851562
  0
VERTEX
  5
288
  8
DEFAULT
 10
159.6351427663592
 20
247.5711770143264
 30
214.8789672851562
  0
VERTEX
  5
289
  8
DEFAULT
 10
159.5189995397356
 20
247.4864144410842
 30
214.8789672851562
  0
VERTEX
  5
28A
  8
DEFAULT
 10
159.3961095441607
 20
247.4147133912795
 30
214.8789672851562
  0
VERTEX
  5
28B
  8
DEFAULT
 10
159.2686285604265
 20
247.3566994752639
 30
214.8789672851562
  0
VERTEX
  5
28C
  8
DEFAULT
 10
159.1387195218828
 20
247.3125100221389
 30
214.8789672851562
  0
VERTEX
  5
28D
  8
DEFAULT
 10
159.0084490407732
 20
247.2819008912795
 30
214.8789672851562
  0
VERTEX
  5
28E
  8
DEFAULT
 10
158.8796972860125
 20
247.2642159547561
 30
214.8789672851562
  0
VERTEX
  5
28F
  8
DEFAULT
 10
158.7540969480303
 20
247.2585549440139
 30
214.8789672851562
  0
VERTEX
  5
290
  8
DEFAULT
 10
158.628496133211
 20
247.2642159547561
 30
214.8789672851562
  0
VERTEX
  5
291
  8
DEFAULT
 10
158.4997443784502
 20
247.2819008912795
 30
214.8789672851562
  0
VERTEX
  5
292
  8
DEFAULT
 10
158.3694738973406
 20
247.3125100221389
 30
214.8789672851562
  0
VERTEX
  5
293
  8
DEFAULT
 10
158.2395653356341
 20
247.3566994752639
 30
214.8789672851562
  0
VERTEX
  5
294
  8
DEFAULT
 10
158.1120838750628
 20
247.4147133912795
 30
214.8789672851562
  0
VERTEX
  5
295
  8
DEFAULT
 10
157.9891938794878
 20
247.4864144410842
 30
214.8789672851562
  0
VERTEX
  5
296
  8
DEFAULT
 10
157.8730511297015
 20
247.5711770143264
 30
214.8789672851562
  0
VERTEX
  5
297
  8
DEFAULT
 10
157.7656859983233
 20
247.6679635133498
 30
214.8789672851562
  0
VERTEX
  5
298
  8
DEFAULT
 10
157.6688918699053
 20
247.7753396119826
 30
214.8789672851562
  0
VERTEX
  5
299
  8
DEFAULT
 10
157.5841245282915
 20
247.8914742555373
 30
214.8789672851562
  0
VERTEX
  5
29A
  8
DEFAULT
 10
157.5124320615557
 20
248.0143685426467
 30
214.8789672851562
  0
VERTEX
  5
29B
  8
DEFAULT
 10
157.4544167150286
 20
248.1418557252639
 30
214.8789672851562
  0
VERTEX
  5
29C
  8
DEFAULT
 10
157.4102305997637
 20
248.271753796553
 30
214.8789672851562
  0
VERTEX
  5
29D
  8
DEFAULT
 10
157.3796090711382
 20
248.4020333375686
 30
214.8789672851562
  0
VERTEX
  5
29E
  8
DEFAULT
 10
157.3619274724749
 20
248.530786999678
 30
214.8789672851562
  0
VERTEX
  5
29F
  8
DEFAULT
 10
157.3562731374529
 20
248.6563820924514
 30
214.8789672851562
  0
VERTEX
  5
2A0
  8
DEFAULT
 10
157.3619274724749
 20
248.7819771852248
 30
214.8789672851562
  0
VERTEX
  5
2A1
  8
DEFAULT
 10
157.3796090711382
 20
248.9107308473342
 30
214.8789672851562
  0
VERTEX
  5
2A2
  8
DEFAULT
 10
157.4102305997637
 20
249.0410103883498
 30
214.8789672851562
  0
VERTEX
  5
2A3
  8
DEFAULT
 10
157.4544167150286
 20
249.1709084596389
 30
214.8789672851562
  0
VERTEX
  5
2A4
  8
DEFAULT
 10
157.5124320615557
 20
249.2983956422561
 30
214.8789672851562
  0
VERTEX
  5
2A5
  8
DEFAULT
 10
157.5841245282915
 20
249.4212899293655
 30
214.8789672851562
  0
VERTEX
  5
2A6
  8
DEFAULT
 10
157.6688918699053
 20
249.5374245729201
 30
214.8789672851562
  0
VERTEX
  5
2A7
  8
DEFAULT
 10
157.7656859983233
 20
249.6447854127639
 30
214.8789672851562
  0
VERTEX
  5
2A8
  8
DEFAULT
 10
157.8730511297015
 20
249.7415871705764
 30
214.8789672851562
  0
VERTEX
  5
2A9
  8
DEFAULT
 10
157.9891938794878
 20
249.8263497438186
 30
214.8789672851562
  0
VERTEX
  5
2AA
  8
DEFAULT
 10
158.1120838750628
 20
249.8980507936233
 30
214.8789672851562
  0
VERTEX
  5
2AB
  8
DEFAULT
 10
158.2395653356341
 20
249.9560647096389
 30
214.8789672851562
  0
VERTEX
  5
2AC
  8
DEFAULT
 10
158.3694738973406
 20
250.0002541627639
 30
214.8789672851562
  0
VERTEX
  5
2AD
  8
DEFAULT
 10
158.4997443784502
 20
250.0308632936233
 30
214.8789672851562
  0
SEQEND
  5
2AE
  8
DEFAULT
  0
POLYLINE
  5
2AF
  8
DEFAULT
 66
     1
 10
0.0
 20
0.0
 30
214.8789672851562
 70
     1
  0
VERTEX
  5
2B0
  8
DEFAULT
 10
158.2668127645281
 20
231.7393288697951
 30
214.8789672851562
  0
VERTEX
  5
2B1
  8
DEFAULT
 10
158.3924135793474
 20
231.7449898805373
 30
214.8789672851562
  0
VERTEX
  5
2B2
  8
DEFAULT
 10
158.5180139173296
 20
231.7393288697951
 30
214.8789672851562
  0
VERTEX
  5
2B3
  8
DEFAULT
 10
158.6467656720904
 20
231.7216439332717
 30
214.8789672851562
  0
VERTEX
  5
2B4
  8
DEFAULT
 10
158.7770361532
 20
231.6910348024123
 30
214.8789672851562
  0
VERTEX
  5
2B5
  8
DEFAULT
 10
158.9069451917437
 20
231.6468453492873
 30
214.8789672851562
  0
VERTEX
  5
2B6
  8
DEFAULT
 10
159.0344261754778
 20
231.5888314332717
 30
214.8789672851562
  0
VERTEX
  5
2B7
  8
DEFAULT
 10
159.1573161710528
 20
231.517130383467
 30
214.8789672851562
  0
VERTEX
  5
2B8
  8
DEFAULT
 10
159.2734593976763
 20
231.4323678102248
 30
214.8789672851562
  0
VERTEX
  5
2B9
  8
DEFAULT
 10
159.3808240522173
 20
231.3355660524123
 30
214.8789672851562
  0
VERTEX
  5
2BA
  8
DEFAULT
 10
159.4776181806353
 20
231.2282052125686
 30
214.8789672851562
  0
VERTEX
  5
2BB
  8
DEFAULT
 10
159.5623855222491
 20
231.1120705690139
 30
214.8789672851562
  0
VERTEX
  5
2BC
  8
DEFAULT
 10
159.6340779889849
 20
230.9891762819045
 30
214.8789672851562
  0
VERTEX
  5
2BD
  8
DEFAULT
 10
159.6920938123492
 20
230.8616890992873
 30
214.8789672851562
  0
VERTEX
  5
2BE
  8
DEFAULT
 10
159.736279927614
 20
230.7317910279983
 30
214.8789672851562
  0
VERTEX
  5
2BF
  8
DEFAULT
 10
159.766901217821
 20
230.6015114869826
 30
214.8789672851562
  0
VERTEX
  5
2C0
  8
DEFAULT
 10
159.7845830549029
 20
230.4727578248733
 30
214.8789672851562
  0
VERTEX
  5
2C1
  8
DEFAULT
 10
159.7902373899248
 20
230.3471627320998
 30
214.8789672851562
  0
VERTEX
  5
2C2
  8
DEFAULT
 10
159.7845830549029
 20
230.2215676393264
 30
214.8789672851562
  0
VERTEX
  5
2C3
  8
DEFAULT
 10
159.766901217821
 20
230.092813977217
 30
214.8789672851562
  0
VERTEX
  5
2C4
  8
DEFAULT
 10
159.736279927614
 20
229.9625344362014
 30
214.8789672851562
  0
VERTEX
  5
2C5
  8
DEFAULT
 10
159.6920938123492
 20
229.8326363649123
 30
214.8789672851562
  0
VERTEX
  5
2C6
  8
DEFAULT
 10
159.6340779889849
 20
229.7051491822951
 30
214.8789672851562
  0
VERTEX
  5
2C7
  8
DEFAULT
 10
159.5623855222491
 20
229.5822548951858
 30
214.8789672851562
  0
VERTEX
  5
2C8
  8
DEFAULT
 10
159.4776181806353
 20
229.4661202516311
 30
214.8789672851562
  0
VERTEX
  5
2C9
  8
DEFAULT
 10
159.3808240522173
 20
229.3587441529983
 30
214.8789672851562
  0
VERTEX
  5
2CA
  8
DEFAULT
 10
159.2734593976763
 20
229.2619576539748
 30
214.8789672851562
  0
VERTEX
  5
2CB
  8
DEFAULT
 10
159.1573161710528
 20
229.1771950807326
 30
214.8789672851562
  0
VERTEX
  5
2CC
  8
DEFAULT
 10
159.0344261754778
 20
229.105494030928
 30
214.8789672851562
  0
VERTEX
  5
2CD
  8
DEFAULT
 10
158.9069451917437
 20
229.0474801149123
 30
214.8789672851562
  0
VERTEX
  5
2CE
  8
DEFAULT
 10
158.7770361532
 20
229.0032906617873
 30
214.8789672851562
  0
VERTEX
  5
2CF
  8
DEFAULT
 10
158.6467656720904
 20
228.972681530928
 30
214.8789672851562
  0
VERTEX
  5
2D0
  8
DEFAULT
 10
158.5180139173296
 20
228.9549965944045
 30
214.8789672851562
  0
VERTEX
  5
2D1
  8
DEFAULT
 10
158.3924135793474
 20
228.9493355836623
 30
214.8789672851562
  0
VERTEX
  5
2D2
  8
DEFAULT
 10
158.2668127645281
 20
228.9549965944045
 30
214.8789672851562
  0
VERTEX
  5
2D3
  8
DEFAULT
 10
158.1380610097674
 20
228.972681530928
 30
214.8789672851562
  0
VERTEX
  5
2D4
  8
DEFAULT
 10
158.0077905286578
 20
229.0032906617873
 30
214.8789672851562
  0
VERTEX
  5
2D5
  8
DEFAULT
 10
157.8778819669512
 20
229.0474801149123
 30
214.8789672851562
  0
VERTEX
  5
2D6
  8
DEFAULT
 10
157.7504005063799
 20
229.105494030928
 30
214.8789672851562
  0
VERTEX
  5
2D7
  8
DEFAULT
 10
157.627510510805
 20
229.1771950807326
 30
214.8789672851562
  0
VERTEX
  5
2D8
  8
DEFAULT
 10
157.5113677610186
 20
229.2619576539748
 30
214.8789672851562
  0
VERTEX
  5
2D9
  8
DEFAULT
 10
157.4040026296404
 20
229.3587441529983
 30
214.8789672851562
  0
VERTEX
  5
2DA
  8
DEFAULT
 10
157.3072085012224
 20
229.4661202516311
 30
214.8789672851562
  0
VERTEX
  5
2DB
  8
DEFAULT
 10
157.2224411596087
 20
229.5822548951858
 30
214.8789672851562
  0
VERTEX
  5
2DC
  8
DEFAULT
 10
157.1507486928728
 20
229.7051491822951
 30
214.8789672851562
  0
VERTEX
  5
2DD
  8
DEFAULT
 10
157.0927333463457
 20
229.8326363649123
 30
214.8789672851562
  0
VERTEX
  5
2DE
  8
DEFAULT
 10
157.0485472310808
 20
229.9625344362014
 30
214.8789672851562
  0
VERTEX
  5
2DF
  8
DEFAULT
 10
157.0179257024554
 20
230.092813977217
 30
214.8789672851562
  0
VERTEX
  5
2E0
  8
DEFAULT
 10
157.000244103792
 20
230.2215676393264
 30
214.8789672851562
  0
VERTEX
  5
2E1
  8
DEFAULT
 10
156.9945897687701
 20
230.3471627320998
 30
214.8789672851562
  0
VERTEX
  5
2E2
  8
DEFAULT
 10
157.000244103792
 20
230.4727578248733
 30
214.8789672851562
  0
VERTEX
  5
2E3
  8
DEFAULT
 10
157.0179257024554
 20
230.6015114869826
 30
214.8789672851562
  0
VERTEX
  5
2E4
  8
DEFAULT
 10
157.0485472310808
 20
230.7317910279983
 30
214.8789672851562
  0
VERTEX
  5
2E5
  8
DEFAULT
 10
157.0927333463457
 20
230.8616890992873
 30
214.8789672851562
  0
VERTEX
  5
2E6
  8
DEFAULT
 10
157.1507486928728
 20
230.9891762819045
 30
214.8789672851562
  0
VERTEX
  5
2E7
  8
DEFAULT
 10
157.2224411596087
 20
231.1120705690139
 30
214.8789672851562
  0
VERTEX
  5
2E8
  8
DEFAULT
 10
157.3072085012224
 20
231.2282052125686
 30
214.8789672851562
  0
VERTEX
  5
2E9
  8
DEFAULT
 10
157.4040026296404
 20
231.3355660524123
 30
214.8789672851562
  0
VERTEX
  5
2EA
  8
DEFAULT
 10
157.5113677610186
 20
231.4323678102248
 30
214.8789672851562
  0
VERTEX
  5
2EB
  8
DEFAULT
 10
157.627510510805
 20
231.517130383467
 30
214.8789672851562
  0
VERTEX
  5
2EC
  8
DEFAULT
 10
157.7504005063799
 20
231.5888314332717
 30
214.8789672851562
  0
VERTEX
  5
2ED
  8
DEFAULT
 10
157.8778819669512
 20
231.6468453492873
 30
214.8789672851562
  0
VERTEX
  5
2EE
  8
DEFAULT
 10
158.0077905286578
 20
231.6910348024123
 30
214.8789672851562
  0
VERTEX
  5
2EF
  8
DEFAULT
 10
158.1380610097674
 20
231.7216439332717
 30
214.8789672851562
  0
SEQEND
  5
2F0
  8
DEFAULT
  0
ENDSEC
  0
EOF
