  0
SECTION
  2
HEADER
  9
$ACADVER
  1
AC1009
  9
$DWGCODEPAGE
  3
ansi_1252
  9
$INSBASE
 10
0.0
 20
0.0
 30
0.0
  9
$EXTMIN
 10
79.0
 20
181.8199513788489
 30
147.0000000000001
  9
$EXTMAX
 10
94.09543624662194
 20
212.1352189069224
 30
182.0000000000001
  9
$LIMMIN
 10
0.0
 20
0.0
  9
$LIMMAX
 10
12.0
 20
9.0
  9
$ORTHOMODE
 70
     0
  9
$REGENMODE
 70
     1
  9
$FILLMODE
 70
     1
  9
$QTEXTMODE
 70
     0
  9
$MIRRTEXT
 70
     1
  9
$DRAGMODE
 70
     2
  9
$LTSCALE
 40
1.0
  9
$OSMODE
 70
    37
  9
$ATTMODE
 70
     1
  9
$TEXTSIZE
 40
0.2
  9
$TRACEWID
 40
0.05
  9
$TEXTSTYLE
  7
STANDARD
  9
$CLAYER
  8
DEFAULT
  9
$CELTYPE
  6
BYLAYER
  9
$CECOLOR
 62
   256
  9
$DIMSCALE
 40
1.0
  9
$DIMASZ
 40
0.18
  9
$DIMEXO
 40
0.0625
  9
$DIMDLI
 40
0.38
  9
$DIMRND
 40
0.0
  9
$DIMDLE
 40
0.0
  9
$DIMEXE
 40
0.18
  9
$DIMTP
 40
0.0
  9
$DIMTM
 40
0.0
  9
$DIMTXT
 40
0.18
  9
$DIMCEN
 40
0.09
  9
$DIMTSZ
 40
0.0
  9
$DIMTOL
 70
     0
  9
$DIMLIM
 70
     0
  9
$DIMTIH
 70
     1
  9
$DIMTOH
 70
     1
  9
$DIMSE1
 70
     0
  9
$DIMSE2
 70
     0
  9
$DIMTAD
 70
     0
  9
$DIMZIN
 70
     0
  9
$DIMBLK
  1

  9
$DIMASO
 70
     1
  9
$DIMSHO
 70
     1
  9
$DIMPOST
  1

  9
$DIMAPOST
  1

  9
$DIMALT
 70
     0
  9
$DIMALTD
 70
     2
  9
$DIMALTF
 40
25.4
  9
$DIMLFAC
 40
1.0
  9
$DIMTOFL
 70
     0
  9
$DIMTVP
 40
0.0
  9
$DIMTIX
 70
     0
  9
$DIMSOXD
 70
     0
  9
$DIMSAH
 70
     0
  9
$DIMBLK1
  1

  9
$DIMBLK2
  1

  9
$DIMSTYLE
  2
STANDARD_ACAD
  9
$DIMCLRD
 70
     0
  9
$DIMCLRE
 70
     0
  9
$DIMCLRT
 70
     0
  9
$DIMTFAC
 40
1.0
  9
$DIMGAP
 40
0.09
  9
$LUNITS
 70
     2
  9
$LUPREC
 70
     3
  9
$SKETCHINC
 40
0.1
  9
$FILLETRAD
 40
0.0
  9
$AUNITS
 70
     0
  9
$AUPREC
 70
     0
  9
$MENU
  1
.
  9
$ELEVATION
 40
0.0
  9
$PELEVATION
 40
0.0
  9
$THICKNESS
 40
0.0
  9
$LIMCHECK
 70
     0
  9
$CHAMFERA
 40
0.0
  9
$CHAMFERB
 40
0.0
  9
$SKPOLY
 70
     0
  9
$TDCREATE
 40
2460731.696841528
  9
$TDUPDATE
 40
2460731.696855127
  9
$TDINDWG
 40
0.0000000116
  9
$TDUSRTIMER
 40
0.0000000116
  9
$USRTIMER
 70
     1
  9
$ANGBASE
 50
0.0
  9
$ANGDIR
 70
     0
  9
$PDMODE
 70
     0
  9
$PDSIZE
 40
0.0
  9
$PLINEWID
 40
0.0
  9
$COORDS
 70
     1
  9
$SPLFRAME
 70
     0
  9
$SPLINETYPE
 70
     6
  9
$SPLINESEGS
 70
     8
  9
$ATTDIA
 70
     0
  9
$ATTREQ
 70
     1
  9
$HANDLING
 70
     1
  9
$HANDSEED
  5
230
  9
$SURFTAB1
 70
     6
  9
$SURFTAB2
 70
     6
  9
$SURFTYPE
 70
     6
  9
$SURFU
 70
     6
  9
$SURFV
 70
     6
  9
$UCSNAME
  2

  9
$UCSORG
 10
0.0
 20
0.0
 30
0.0
  9
$UCSXDIR
 10
1.0
 20
0.0
 30
0.0
  9
$UCSYDIR
 10
0.0
 20
1.0
 30
0.0
  9
$PUCSNAME
  2

  9
$PUCSORG
 10
0.0
 20
0.0
 30
0.0
  9
$PUCSXDIR
 10
1.0
 20
0.0
 30
0.0
  9
$PUCSYDIR
 10
0.0
 20
1.0
 30
0.0
  9
$USERI1
 70
     0
  9
$USERI2
 70
     0
  9
$USERI3
 70
     0
  9
$USERI4
 70
     0
  9
$USERI5
 70
     0
  9
$USERR1
 40
0.0
  9
$USERR2
 40
0.0
  9
$USERR3
 40
0.0
  9
$USERR4
 40
0.0
  9
$USERR5
 40
0.0
  9
$WORLDVIEW
 70
     1
  9
$SHADEDGE
 70
     3
  9
$SHADEDIF
 70
    70
  9
$TILEMODE
 70
     1
  9
$MAXACTVP
 70
    64
  9
$PLIMCHECK
 70
     0
  9
$PEXTMIN
 10
1.000000000000000E+20
 20
1.000000000000000E+20
 30
1.000000000000000E+20
  9
$PEXTMAX
 10
-1.000000000000000E+20
 20
-1.000000000000000E+20
 30
-1.000000000000000E+20
  9
$PLIMMIN
 10
0.0
 20
0.0
  9
$PLIMMAX
 10
12.0
 20
9.0
  9
$UNITMODE
 70
     0
  9
$VISRETAIN
 70
     1
  9
$PLINEGEN
 70
     0
  9
$PSLTSCALE
 70
     1
  0
ENDSEC
  0
SECTION
  2
TABLES
  0
TABLE
  2
VPORT
 70
     1
  0
VPORT
  2
*ACTIVE
 70
     0
 10
0.0
 20
0.0
 11
1.0
 21
1.0
 12
10.42990654205607
 22
4.5
 13
0.0
 23
0.0
 14
0.5
 24
0.5
 15
0.5
 25
0.5
 16
0.0
 26
0.0
 36
1.0
 17
0.0
 27
0.0
 37
0.0
 40
9.0
 41
1.972972972850329
 42
50.0
 43
0.0
 44
0.0
 50
0.0
 51
0.0
 71
     0
 72
   100
 73
     1
 74
     3
 75
     0
 76
     0
 77
     0
 78
     0
  0
ENDTAB
  0
TABLE
  2
LTYPE
 70
     1
  0
LTYPE
  2
CONTINUOUS
 70
     0
  3
Solid line
 72
    65
 73
     0
 40
0.0
  0
ENDTAB
  0
TABLE
  2
LAYER
 70
     2
  0
LAYER
  2
0
 70
     0
 62
     7
  6
CONTINUOUS
  0
LAYER
  2
DEFAULT
 70
     0
 62
     7
  6
CONTINUOUS
  0
ENDTAB
  0
TABLE
  2
STYLE
 70
     1
  0
STYLE
  2
STANDARD
 70
     0
 40
0.0
 41
1.0
 50
0.0
 71
     0
 42
0.2
  3
txt
  4

  0
ENDTAB
  0
TABLE
  2
VIEW
 70
     0
  0
ENDTAB
  0
TABLE
  2
UCS
 70
     0
  0
ENDTAB
  0
TABLE
  2
APPID
 70
     2
  0
APPID
  2
ACAD
 70
     0
  0
APPID
  2
RHINO
 70
     0
  0
ENDTAB
  0
TABLE
  2
DIMSTYLE
 70
     1
  0
DIMSTYLE
  2
STANDARD_ACAD
 70
     0
  3

  4

  5

  6

  7

 40
1.0
 41
0.18
 42
0.0625
 43
0.38
 44
0.18
 45
0.0
 46
0.0
 47
0.0
 48
0.0
140
0.18
141
0.09
142
0.0
143
25.4
144
1.0
145
0.0
146
1.0
147
0.09
 71
     0
 72
     0
 73
     1
 74
     1
 75
     0
 76
     0
 77
     0
 78
     0
170
     0
171
     2
172
     0
173
     0
174
     0
175
     0
176
     0
177
     0
178
     0
  0
ENDTAB
  0
ENDSEC
  0
SECTION
  2
BLOCKS
  0
BLOCK
  8
0
  2
$MODEL_SPACE
 70
     0
 10
0.0
 20
0.0
 30
0.0
  3
$MODEL_SPACE
  1

  0
ENDBLK
  5
21
  8
0
  0
BLOCK
 67
     1
  8
0
  2
$PAPER_SPACE
 70
     0
 10
0.0
 20
0.0
 30
0.0
  3
$PAPER_SPACE
  1

  0
ENDBLK
  5
1D
 67
     1
  8
0
  0
ENDSEC
  0
SECTION
  2
ENTITIES
  0
POLYLINE
  5
60
  8
DEFAULT
 66
     1
 10
0.0
 20
0.0
 30
182.0
 70
     1
  0
VERTEX
  5
61
  8
DEFAULT
 10
90.39375655174251
 20
198.0533950586353
 30
182.0
  0
VERTEX
  5
62
  8
DEFAULT
 10
90.51935736656185
 20
198.0590408105885
 30
182.0
  0
VERTEX
  5
63
  8
DEFAULT
 10
90.64495770454403
 20
198.0533950586353
 30
182.0
  0
VERTEX
  5
64
  8
DEFAULT
 10
90.66614262580867
 20
198.0504806299244
 30
182.0
  0
VERTEX
  5
65
  8
DEFAULT
 10
90.77370945930477
 20
198.0357101221119
 30
182.0
  0
VERTEX
  5
66
  8
DEFAULT
 10
90.90397994041439
 20
198.0050857324635
 30
182.0
  0
VERTEX
  5
67
  8
DEFAULT
 10
91.03388897895809
 20
197.9608962793385
 30
182.0
  0
VERTEX
  5
68
  8
DEFAULT
 10
91.11484305381771
 20
197.9240539331471
 30
182.0
  0
VERTEX
  5
69
  8
DEFAULT
 10
91.16136996269222
 20
197.9028823633228
 30
182.0
  0
VERTEX
  5
6A
  8
DEFAULT
 10
91.28425995826717
 20
197.8311965723072
 30
182.0
  0
VERTEX
  5
6B
  8
DEFAULT
 10
91.4004031848907
 20
197.746418740276
 30
182.0
  0
VERTEX
  5
6C
  8
DEFAULT
 10
91.5077680778503
 20
197.6496322412525
 30
182.0
  0
VERTEX
  5
6D
  8
DEFAULT
 10
91.60456220626827
 20
197.5422714014088
 30
182.0
  0
VERTEX
  5
6E
  8
DEFAULT
 10
91.68932954788204
 20
197.426121499065
 30
182.0
  0
VERTEX
  5
6F
  8
DEFAULT
 10
91.76102153778072
 20
197.3032272119557
 30
182.0
  0
VERTEX
  5
70
  8
DEFAULT
 10
91.81903736114498
 20
197.1757552881275
 30
182.0
  0
VERTEX
  5
71
  8
DEFAULT
 10
91.86322347640987
 20
197.0458419580494
 30
182.0
  0
VERTEX
  5
72
  8
DEFAULT
 10
91.89384500503536
 20
196.9155776758228
 30
182.0
  0
VERTEX
  5
73
  8
DEFAULT
 10
91.91152660369869
 20
196.7868240137135
 30
182.0
  0
VERTEX
  5
74
  8
DEFAULT
 10
91.91718093872066
 20
196.661213662151
 30
182.0
  0
VERTEX
  5
75
  8
DEFAULT
 10
91.91152660369869
 20
196.5356185693775
 30
182.0
  0
VERTEX
  5
76
  8
DEFAULT
 10
91.89384500503536
 20
196.4068649072682
 30
182.0
  0
VERTEX
  5
77
  8
DEFAULT
 10
91.86322347640987
 20
196.2766006250416
 30
182.0
  0
VERTEX
  5
78
  8
DEFAULT
 10
91.81903736114498
 20
196.1466872949635
 30
182.0
  0
VERTEX
  5
79
  8
DEFAULT
 10
91.76102153778072
 20
196.0192153711353
 30
182.0
  0
VERTEX
  5
7A
  8
DEFAULT
 10
91.68932954788204
 20
195.896321084026
 30
182.0
  0
VERTEX
  5
7B
  8
DEFAULT
 10
91.60456220626827
 20
195.7801711816822
 30
182.0
  0
VERTEX
  5
7C
  8
DEFAULT
 10
91.5077680778503
 20
195.6728103418385
 30
182.0
  0
VERTEX
  5
7D
  8
DEFAULT
 10
91.4004031848907
 20
195.576008584026
 30
182.0
  0
VERTEX
  5
7E
  8
DEFAULT
 10
91.28425995826717
 20
195.4912460107838
 30
182.0
  0
VERTEX
  5
7F
  8
DEFAULT
 10
91.16136996269222
 20
195.4195602197682
 30
182.0
  0
VERTEX
  5
80
  8
DEFAULT
 10
91.03388897895809
 20
195.3615463037525
 30
182.0
  0
VERTEX
  5
81
  8
DEFAULT
 10
90.90397994041439
 20
195.3173568506275
 30
182.0
  0
VERTEX
  5
82
  8
DEFAULT
 10
90.77370945930477
 20
195.2867324609791
 30
182.0
  0
VERTEX
  5
83
  8
DEFAULT
 10
90.69193522453304
 20
195.2755019922291
 30
182.0
  0
VERTEX
  5
84
  8
DEFAULT
 10
90.64495770454403
 20
195.2690475244557
 30
182.0
  0
VERTEX
  5
85
  8
DEFAULT
 10
90.51935736656185
 20
195.2634017725025
 30
182.0
  0
VERTEX
  5
86
  8
DEFAULT
 10
90.39375655174251
 20
195.2690475244557
 30
182.0
  0
VERTEX
  5
87
  8
DEFAULT
 10
90.39063016891475
 20
195.2694747705494
 30
182.0
  0
VERTEX
  5
88
  8
DEFAULT
 10
90.26500479698177
 20
195.2867324609791
 30
182.0
  0
VERTEX
  5
89
  8
DEFAULT
 10
90.13473431587215
 20
195.3173568506275
 30
182.0
  0
VERTEX
  5
8A
  8
DEFAULT
 10
90.00482575416561
 20
195.3615463037525
 30
182.0
  0
VERTEX
  5
8B
  8
DEFAULT
 10
89.87734429359432
 20
195.4195602197682
 30
182.0
  0
VERTEX
  5
8C
  8
DEFAULT
 10
89.75445429801937
 20
195.4912460107838
 30
182.0
  0
VERTEX
  5
8D
  8
DEFAULT
 10
89.63831154823299
 20
195.576008584026
 30
182.0
  0
VERTEX
  5
8E
  8
DEFAULT
 10
89.53094641685482
 20
195.6728103418385
 30
182.0
  0
VERTEX
  5
8F
  8
DEFAULT
 10
89.43415228843685
 20
195.7801711816822
 30
182.0
  0
VERTEX
  5
90
  8
DEFAULT
 10
89.34938494682308
 20
195.896321084026
 30
182.0
  0
VERTEX
  5
91
  8
DEFAULT
 10
89.27769248008724
 20
196.0192153711353
 30
182.0
  0
VERTEX
  5
92
  8
DEFAULT
 10
89.21967713356014
 20
196.1466872949635
 30
182.0
  0
VERTEX
  5
93
  8
DEFAULT
 10
89.17549101829525
 20
196.2766006250416
 30
182.0
  0
VERTEX
  5
94
  8
DEFAULT
 10
89.14486948966976
 20
196.4068649072682
 30
182.0
  0
VERTEX
  5
95
  8
DEFAULT
 10
89.12718789100643
 20
196.5356185693775
 30
182.0
  0
VERTEX
  5
96
  8
DEFAULT
 10
89.12153355598446
 20
196.661213662151
 30
182.0
  0
VERTEX
  5
97
  8
DEFAULT
 10
89.12718789100643
 20
196.7868240137135
 30
182.0
  0
VERTEX
  5
98
  8
DEFAULT
 10
89.14486948966976
 20
196.9155776758228
 30
182.0
  0
VERTEX
  5
99
  8
DEFAULT
 10
89.17549101829525
 20
197.0458419580494
 30
182.0
  0
VERTEX
  5
9A
  8
DEFAULT
 10
89.21967713356014
 20
197.1757552881275
 30
182.0
  0
VERTEX
  5
9B
  8
DEFAULT
 10
89.27769248008724
 20
197.3032272119557
 30
182.0
  0
VERTEX
  5
9C
  8
DEFAULT
 10
89.32995883941646
 20
197.3928191919361
 30
182.0
  0
VERTEX
  5
9D
  8
DEFAULT
 10
89.34938494682308
 20
197.426121499065
 30
182.0
  0
VERTEX
  5
9E
  8
DEFAULT
 10
89.43415228843685
 20
197.5422714014088
 30
182.0
  0
VERTEX
  5
9F
  8
DEFAULT
 10
89.53094641685482
 20
197.6496322412525
 30
182.0
  0
VERTEX
  5
A0
  8
DEFAULT
 10
89.58382336616512
 20
197.6973006982838
 30
182.0
  0
VERTEX
  5
A1
  8
DEFAULT
 10
89.63831154823299
 20
197.746418740276
 30
182.0
  0
VERTEX
  5
A2
  8
DEFAULT
 10
89.75445429801937
 20
197.8311965723072
 30
182.0
  0
VERTEX
  5
A3
  8
DEFAULT
 10
89.87734429359432
 20
197.9028823633228
 30
182.0
  0
VERTEX
  5
A4
  8
DEFAULT
 10
90.00482575416561
 20
197.9608962793385
 30
182.0
  0
VERTEX
  5
A5
  8
DEFAULT
 10
90.13473431587215
 20
198.0050857324635
 30
182.0
  0
VERTEX
  5
A6
  8
DEFAULT
 10
90.26500479698177
 20
198.0357101221119
 30
182.0
  0
SEQEND
  5
A7
  8
DEFAULT
  0
POLYLINE
  5
A8
  8
DEFAULT
 66
     1
 10
0.0
 20
0.0
 30
182.0
 70
     1
  0
VERTEX
  5
A9
  8
DEFAULT
 10
79.0
 20
212.1352189069224
 30
182.0
  0
VERTEX
  5
AA
  8
DEFAULT
 10
79.0353751340599
 20
212.1210067614005
 30
182.0
  0
VERTEX
  5
AB
  8
DEFAULT
 10
79.12972979003541
 20
212.1059942969466
 30
182.0
  0
VERTEX
  5
AC
  8
DEFAULT
 10
79.33745336594222
 20
212.0620445541747
 30
182.0
  0
VERTEX
  5
AD
  8
DEFAULT
 10
79.83933501122169
 20
211.9824669239322
 30
182.0
  0
VERTEX
  5
AE
  8
DEFAULT
 10
79.93413882381537
 20
211.9461744858891
 30
182.0
  0
VERTEX
  5
AF
  8
DEFAULT
 10
80.00834666895673
 20
211.8260284878785
 30
182.0
  0
VERTEX
  5
B0
  8
DEFAULT
 10
80.03810922848356
 20
211.7777252733607
 30
182.0
  0
VERTEX
  5
B1
  8
DEFAULT
 10
80.04657414598216
 20
211.7639871220458
 30
182.0
  0
VERTEX
  5
B2
  8
DEFAULT
 10
80.05970270726482
 20
211.7546045557845
 30
182.0
  0
VERTEX
  5
B3
  8
DEFAULT
 10
80.40129860022455
 20
211.510476714029
 30
182.0
  0
VERTEX
  5
B4
  8
DEFAULT
 10
80.53164114991114
 20
211.4172167501501
 30
182.0
  0
VERTEX
  5
B5
  8
DEFAULT
 10
81.50906010251066
 20
211.262412634098
 30
182.0
  0
VERTEX
  5
B6
  8
DEFAULT
 10
81.59318216162256
 20
211.2489824299635
 30
182.0
  0
VERTEX
  5
B7
  8
DEFAULT
 10
81.8320162822805
 20
211.2112524457339
 30
182.0
  0
VERTEX
  5
B8
  8
DEFAULT
 10
81.85065238709194
 20
211.2083083962784
 30
182.0
  0
VERTEX
  5
B9
  8
DEFAULT
 10
81.86864010309262
 20
211.2140017202624
 30
182.0
  0
VERTEX
  5
BA
  8
DEFAULT
 10
82.2689562250203
 20
211.3407064445011
 30
182.0
  0
VERTEX
  5
BB
  8
DEFAULT
 10
82.41907763986848
 20
211.38816330204
 30
182.0
  0
VERTEX
  5
BC
  8
DEFAULT
 10
82.56284477893905
 20
211.510201377495
 30
182.0
  0
VERTEX
  5
BD
  8
DEFAULT
 10
82.58239203742198
 20
211.5304943079637
 30
182.0
  0
VERTEX
  5
BE
  8
DEFAULT
 10
82.73369639520735
 20
211.5104887253553
 30
182.0
  0
VERTEX
  5
BF
  8
DEFAULT
 10
83.60014270785996
 20
211.4221675714997
 30
182.0
  0
VERTEX
  5
C0
  8
DEFAULT
 10
83.66229696325024
 20
211.4072353326377
 30
182.0
  0
VERTEX
  5
C1
  8
DEFAULT
 10
84.02658439751036
 20
211.1830218317733
 30
182.0
  0
VERTEX
  5
C2
  8
DEFAULT
 10
84.28322016020797
 20
211.0400808300429
 30
182.0
  0
VERTEX
  5
C3
  8
DEFAULT
 10
84.51259173151368
 20
210.8948554867374
 30
182.0
  0
VERTEX
  5
C4
  8
DEFAULT
 10
84.54485037365555
 20
210.7626641361843
 30
182.0
  0
VERTEX
  5
C5
  8
DEFAULT
 10
84.5582721450341
 20
210.7075128238988
 30
182.0
  0
VERTEX
  5
C6
  8
DEFAULT
 10
84.56207999063844
 20
210.6918660352012
 30
182.0
  0
VERTEX
  5
C7
  8
DEFAULT
 10
84.57164516584902
 20
210.6789111472472
 30
182.0
  0
VERTEX
  5
C8
  8
DEFAULT
 10
84.82102429892944
 20
210.3411568409569
 30
182.0
  0
VERTEX
  5
C9
  8
DEFAULT
 10
84.91615753154224
 20
210.2121907643686
 30
182.0
  0
VERTEX
  5
CA
  8
DEFAULT
 10
85.79792410557701
 20
209.7629384422902
 30
182.0
  0
VERTEX
  5
CB
  8
DEFAULT
 10
86.10601060695382
 20
209.6059253716953
 30
182.0
  0
VERTEX
  5
CC
  8
DEFAULT
 10
86.54481405770701
 20
209.6026088349085
 30
182.0
  0
VERTEX
  5
CD
  8
DEFAULT
 10
86.70226662158194
 20
209.6013851093498
 30
182.0
  0
VERTEX
  5
CE
  8
DEFAULT
 10
86.71716444486253
 20
209.6075006279304
 30
182.0
  0
VERTEX
  5
CF
  8
DEFAULT
 10
86.87296443264955
 20
209.6714561344278
 30
182.0
  0
VERTEX
  5
D0
  8
DEFAULT
 10
86.89302554936643
 20
209.6796767518839
 30
182.0
  0
VERTEX
  5
D1
  8
DEFAULT
 10
87.5782103404535
 20
209.3612950024749
 30
182.0
  0
VERTEX
  5
D2
  8
DEFAULT
 10
87.63541208629516
 20
209.3441344787224
 30
182.0
  0
VERTEX
  5
D3
  8
DEFAULT
 10
87.78294580279663
 20
209.2689923061653
 30
182.0
  0
VERTEX
  5
D4
  8
DEFAULT
 10
87.82995535489073
 20
209.2597168788463
 30
182.0
  0
VERTEX
  5
D5
  8
DEFAULT
 10
87.85115415898929
 20
209.2528022474665
 30
182.0
  0
VERTEX
  5
D6
  8
DEFAULT
 10
87.9153314989025
 20
209.1927711963679
 30
182.0
  0
VERTEX
  5
D7
  8
DEFAULT
 10
87.93514178674451
 20
209.1553890712875
 30
182.0
  0
VERTEX
  5
D8
  8
DEFAULT
 10
88.11572595072869
 20
208.9514831698234
 30
182.0
  0
VERTEX
  5
D9
  8
DEFAULT
 10
88.1170765698883
 20
208.9500990642383
 30
182.0
  0
VERTEX
  5
DA
  8
DEFAULT
 10
88.33897837893102
 20
208.7226998507362
 30
182.0
  0
VERTEX
  5
DB
  8
DEFAULT
 10
88.49212999311743
 20
208.5695456870011
 30
182.0
  0
VERTEX
  5
DC
  8
DEFAULT
 10
88.54340025191942
 20
208.5190612849563
 30
182.0
  0
VERTEX
  5
DD
  8
DEFAULT
 10
88.53065567811694
 20
208.3496261662091
 30
182.0
  0
VERTEX
  5
DE
  8
DEFAULT
 10
88.52517305267259
 20
208.2769422311465
 30
182.0
  0
VERTEX
  5
DF
  8
DEFAULT
 10
88.66307795252465
 20
207.8633542829293
 30
182.0
  0
VERTEX
  5
E0
  8
DEFAULT
 10
88.7137900075196
 20
207.7112873020598
 30
182.0
  0
VERTEX
  5
E1
  8
DEFAULT
 10
89.65797444376568
 20
206.7671028658173
 30
182.0
  0
VERTEX
  5
E2
  8
DEFAULT
 10
90.07433342561825
 20
206.6283165389262
 30
182.0
  0
VERTEX
  5
E3
  8
DEFAULT
 10
90.22370279716887
 20
206.5785494106195
 30
182.0
  0
VERTEX
  5
E4
  8
DEFAULT
 10
90.41162452087127
 20
206.592757959724
 30
182.0
  0
VERTEX
  5
E5
  8
DEFAULT
 10
90.47341789539502
 20
206.6036696496591
 30
182.0
  0
VERTEX
  5
E6
  8
DEFAULT
 10
90.52412791024318
 20
206.5529269413398
 30
182.0
  0
VERTEX
  5
E7
  8
DEFAULT
 10
90.70356921917818
 20
206.3734856338756
 30
182.0
  0
VERTEX
  5
E8
  8
DEFAULT
 10
90.85811579327236
 20
206.2188169905611
 30
182.0
  0
VERTEX
  5
E9
  8
DEFAULT
 10
91.01345590090557
 20
206.0635379147569
 30
182.0
  0
VERTEX
  5
EA
  8
DEFAULT
 10
91.1692882258659
 20
205.9076464229955
 30
182.0
  0
VERTEX
  5
EB
  8
DEFAULT
 10
91.19019152529387
 20
205.886399177076
 30
182.0
  0
VERTEX
  5
EC
  8
DEFAULT
 10
91.28481465660911
 20
205.7006105233249
 30
182.0
  0
VERTEX
  5
ED
  8
DEFAULT
 10
91.38447693945011
 20
205.5050698491926
 30
182.0
  0
VERTEX
  5
EE
  8
DEFAULT
 10
91.4022368356546
 20
205.4701603579259
 30
182.0
  0
VERTEX
  5
EF
  8
DEFAULT
 10
91.45741818695876
 20
205.3618730461982
 30
182.0
  0
VERTEX
  5
F0
  8
DEFAULT
 10
91.51869768120179
 20
205.2415113307656
 30
182.0
  0
VERTEX
  5
F1
  8
DEFAULT
 10
91.6493306625519
 20
204.9851654369018
 30
182.0
  0
VERTEX
  5
F2
  8
DEFAULT
 10
91.58609427141738
 20
204.8311775836811
 30
182.0
  0
VERTEX
  5
F3
  8
DEFAULT
 10
91.54810095369339
 20
204.7597776666707
 30
182.0
  0
VERTEX
  5
F4
  8
DEFAULT
 10
91.55142800124992
 20
204.3195838078951
 30
182.0
  0
VERTEX
  5
F5
  8
DEFAULT
 10
91.55260426811532
 20
204.1593346070641
 30
182.0
  0
VERTEX
  5
F6
  8
DEFAULT
 10
91.75735028192622
 20
203.7576145210761
 30
182.0
  0
VERTEX
  5
F7
  8
DEFAULT
 10
92.00191464507827
 20
203.2775188663828
 30
182.0
  0
VERTEX
  5
F8
  8
DEFAULT
 10
92.15887148638598
 20
202.9694160088116
 30
182.0
  0
VERTEX
  5
F9
  8
DEFAULT
 10
92.51195465511614
 20
202.708940644512
 30
182.0
  0
VERTEX
  5
FA
  8
DEFAULT
 10
92.63858542067669
 20
202.6154119546472
 30
182.0
  0
VERTEX
  5
FB
  8
DEFAULT
 10
92.81786116086522
 20
202.5716796426399
 30
182.0
  0
VERTEX
  5
FC
  8
DEFAULT
 10
92.88771480088576
 20
202.5546610351169
 30
182.0
  0
VERTEX
  5
FD
  8
DEFAULT
 10
92.93765421342152
 20
202.4566992701248
 30
182.0
  0
VERTEX
  5
FE
  8
DEFAULT
 10
93.03689641330686
 20
202.2619990131532
 30
182.0
  0
VERTEX
  5
FF
  8
DEFAULT
 10
93.0390929416721
 20
202.2576897108854
 30
182.0
  0
VERTEX
  5
100
  8
DEFAULT
 10
93.13442344424902
 20
202.1159756091045
 30
182.0
  0
VERTEX
  5
101
  8
DEFAULT
 10
93.23189714988354
 20
201.9246095973621
 30
182.0
  0
VERTEX
  5
102
  8
DEFAULT
 10
93.32912721321321
 20
201.7338207623267
 30
182.0
  0
VERTEX
  5
103
  8
DEFAULT
 10
93.33711306969167
 20
201.7086191649975
 30
182.0
  0
VERTEX
  5
104
  8
DEFAULT
 10
93.34183825662382
 20
201.6718677110812
 30
182.0
  0
VERTEX
  5
105
  8
DEFAULT
 10
93.37650574930063
 20
201.4525728235276
 30
182.0
  0
VERTEX
  5
106
  8
DEFAULT
 10
93.41087153164835
 20
201.2356349976612
 30
182.0
  0
VERTEX
  5
107
  8
DEFAULT
 10
93.43431507550736
 20
201.087797136285
 30
182.0
  0
VERTEX
  5
108
  8
DEFAULT
 10
93.44579913889623
 20
200.9448571983598
 30
182.0
  0
VERTEX
  5
109
  8
DEFAULT
 10
93.49218555406867
 20
200.6578095351047
 30
182.0
  0
VERTEX
  5
10A
  8
DEFAULT
 10
93.38201380182687
 20
200.5279488229915
 30
182.0
  0
VERTEX
  5
10B
  8
DEFAULT
 10
93.33491857120515
 20
200.4724689201986
 30
182.0
  0
VERTEX
  5
10C
  8
DEFAULT
 10
93.28739394854142
 20
200.3223482222984
 30
182.0
  0
VERTEX
  5
10D
  8
DEFAULT
 10
93.15498684410971
 20
199.9039519777925
 30
182.0
  0
VERTEX
  5
10E
  8
DEFAULT
 10
93.30979605144603
 20
198.9264388561455
 30
182.0
  0
VERTEX
  5
10F
  8
DEFAULT
 10
93.36389888727729
 20
198.5849066345115
 30
182.0
  0
VERTEX
  5
110
  8
DEFAULT
 10
93.54065015792747
 20
198.3377412006548
 30
182.0
  0
VERTEX
  5
111
  8
DEFAULT
 10
93.61907810047865
 20
198.2280031129382
 30
182.0
  0
VERTEX
  5
112
  8
DEFAULT
 10
93.71066785866668
 20
198.0998998418366
 30
182.0
  0
VERTEX
  5
113
  8
DEFAULT
 10
93.86768650668466
 20
198.003067218124
 30
182.0
  0
VERTEX
  5
114
  8
DEFAULT
 10
93.92329943396459
 20
197.96875734562
 30
182.0
  0
VERTEX
  5
115
  8
DEFAULT
 10
93.93785498440445
 20
197.9082958284083
 30
182.0
  0
VERTEX
  5
116
  8
DEFAULT
 10
93.96067473347745
 20
197.7642088264097
 30
182.0
  0
VERTEX
  5
117
  8
DEFAULT
 10
93.99586148287597
 20
197.542029637349
 30
182.0
  0
VERTEX
  5
118
  8
DEFAULT
 10
93.99787254778431
 20
197.5359135121123
 30
182.0
  0
VERTEX
  5
119
  8
DEFAULT
 10
94.01954818660914
 20
197.4699927548614
 30
182.0
  0
VERTEX
  5
11A
  8
DEFAULT
 10
94.05296289959642
 20
197.2595511709374
 30
182.0
  0
VERTEX
  5
11B
  8
DEFAULT
 10
94.08750678614336
 20
197.0415462765882
 30
182.0
  0
VERTEX
  5
11C
  8
DEFAULT
 10
94.08842399576349
 20
197.0357578086333
 30
182.0
  0
VERTEX
  5
11D
  8
DEFAULT
 10
94.09543624662194
 20
197.0133594540405
 30
182.0
  0
VERTEX
  5
11E
  8
DEFAULT
 10
94.08876600856365
 20
196.9910359437549
 30
182.0
  0
VERTEX
  5
11F
  8
DEFAULT
 10
94.05344892605103
 20
196.7677569396352
 30
182.0
  0
VERTEX
  5
120
  8
DEFAULT
 10
94.01902145277643
 20
196.5508149055197
 30
182.0
  0
VERTEX
  5
121
  8
DEFAULT
 10
94.01266989175673
 20
196.5105070471103
 30
182.0
  0
VERTEX
  5
122
  8
DEFAULT
 10
94.00632514941958
 20
196.4703643783771
 30
182.0
  0
VERTEX
  5
123
  8
DEFAULT
 10
94.00563004550565
 20
196.4659665109204
 30
182.0
  0
VERTEX
  5
124
  8
DEFAULT
 10
94.00542725666679
 20
196.4615186704847
 30
182.0
  0
VERTEX
  5
125
  8
DEFAULT
 10
93.99887952965133
 20
196.3179051912792
 30
182.0
  0
VERTEX
  5
126
  8
DEFAULT
 10
93.97446058695022
 20
196.2692923652567
 30
182.0
  0
VERTEX
  5
127
  8
DEFAULT
 10
93.92753386284704
 20
195.9729626722034
 30
182.0
  0
VERTEX
  5
128
  8
DEFAULT
 10
93.78589970979397
 20
195.8854969473623
 30
182.0
  0
VERTEX
  5
129
  8
DEFAULT
 10
93.71313139813441
 20
195.8501829137628
 30
182.0
  0
VERTEX
  5
12A
  8
DEFAULT
 10
93.54064310854932
 20
195.6088828049859
 30
182.0
  0
VERTEX
  5
12B
  8
DEFAULT
 10
93.45708812345009
 20
195.491942444368
 30
182.0
  0
VERTEX
  5
12C
  8
DEFAULT
 10
93.36389822024285
 20
195.3616011132087
 30
182.0
  0
VERTEX
  5
12D
  8
DEFAULT
 10
93.32346800099253
 20
195.106377122451
 30
182.0
  0
VERTEX
  5
12E
  8
DEFAULT
 10
93.20908812651726
 20
194.3842092063309
 30
182.0
  0
VERTEX
  5
12F
  8
DEFAULT
 10
93.15498574703253
 20
194.0426798657684
 30
182.0
  0
VERTEX
  5
130
  8
DEFAULT
 10
93.2873918647789
 20
193.6244143012836
 30
182.0
  0
VERTEX
  5
131
  8
DEFAULT
 10
93.33005247369954
 20
193.4895359772293
 30
182.0
  0
VERTEX
  5
132
  8
DEFAULT
 10
93.33491389967003
 20
193.474165803323
 30
182.0
  0
VERTEX
  5
133
  8
DEFAULT
 10
93.45685472376721
 20
193.3305693819954
 30
182.0
  0
VERTEX
  5
134
  8
DEFAULT
 10
93.50206890747808
 20
193.2868979394609
 30
182.0
  0
VERTEX
  5
135
  8
DEFAULT
 10
93.47612187685564
 20
193.1234981773671
 30
182.0
  0
VERTEX
  5
136
  8
DEFAULT
 10
93.45103274627326
 20
192.9655159657596
 30
182.0
  0
VERTEX
  5
137
  8
DEFAULT
 10
93.41685117788103
 20
192.7494396574801
 30
182.0
  0
VERTEX
  5
138
  8
DEFAULT
 10
93.38248998705222
 20
192.5326529018956
 30
182.0
  0
VERTEX
  5
139
  8
DEFAULT
 10
93.34799824994144
 20
192.3149679615438
 30
182.0
  0
VERTEX
  5
13A
  8
DEFAULT
 10
93.34307090857885
 20
192.2854957662888
 30
182.0
  0
VERTEX
  5
13B
  8
DEFAULT
 10
93.33091302978829
 20
192.2616813490183
 30
182.0
  0
VERTEX
  5
13C
  8
DEFAULT
 10
93.23067855493576
 20
192.0649971582099
 30
182.0
  0
VERTEX
  5
13D
  8
DEFAULT
 10
93.1128786895332
 20
191.8337920341534
 30
182.0
  0
VERTEX
  5
13E
  8
DEFAULT
 10
93.01448921795759
 20
191.6406752301252
 30
182.0
  0
VERTEX
  5
13F
  8
DEFAULT
 10
92.93221192338797
 20
191.4791724691804
 30
182.0
  0
VERTEX
  5
140
  8
DEFAULT
 10
92.88385665184478
 20
191.3842371397454
 30
182.0
  0
VERTEX
  5
141
  8
DEFAULT
 10
92.72212455886267
 20
191.3449050529776
 30
182.0
  0
VERTEX
  5
142
  8
DEFAULT
 10
92.64209549707306
 20
191.3337453175227
 30
182.0
  0
VERTEX
  5
143
  8
DEFAULT
 10
92.51197022048922
 20
191.2378267748196
 30
182.0
  0
VERTEX
  5
144
  8
DEFAULT
 10
92.15886320102567
 20
190.9770786907453
 30
182.0
  0
VERTEX
  5
145
  8
DEFAULT
 10
91.70962104865771
 20
190.0952698548202
 30
182.0
  0
VERTEX
  5
146
  8
DEFAULT
 10
91.55267226119486
 20
189.7873119306198
 30
182.0
  0
VERTEX
  5
147
  8
DEFAULT
 10
91.54929181328396
 20
189.3484911663865
 30
182.0
  0
VERTEX
  5
148
  8
DEFAULT
 10
91.5481361949503
 20
189.1909196021495
 30
182.0
  0
VERTEX
  5
149
  8
DEFAULT
 10
91.6196835393203
 20
189.0165272216137
 30
182.0
  0
VERTEX
  5
14A
  8
DEFAULT
 10
91.64924905441313
 20
188.9611957756971
 30
182.0
  0
VERTEX
  5
14B
  8
DEFAULT
 10
91.59078779245391
 20
188.8464948617556
 30
182.0
  0
VERTEX
  5
14C
  8
DEFAULT
 10
91.32093787505556
 20
188.3169273512632
 30
182.0
  0
VERTEX
  5
14D
  8
DEFAULT
 10
91.2747983930974
 20
188.2262351838743
 30
182.0
  0
VERTEX
  5
14E
  8
DEFAULT
 10
91.22074074466127
 20
188.1201943608048
 30
182.0
  0
VERTEX
  5
14F
  8
DEFAULT
 10
91.18950709809917
 20
188.0589640461743
 30
182.0
  0
VERTEX
  5
150
  8
DEFAULT
 10
91.16964948804696
 20
188.0391064355948
 30
182.0
  0
VERTEX
  5
151
  8
DEFAULT
 10
90.98403597427102
 20
187.8535539558647
 30
182.0
  0
VERTEX
  5
152
  8
DEFAULT
 10
90.83003962341661
 20
187.6994965706189
 30
182.0
  0
VERTEX
  5
153
  8
DEFAULT
 10
90.67671817938447
 20
187.546175126093
 30
182.0
  0
VERTEX
  5
154
  8
DEFAULT
 10
90.54860538641572
 20
187.418001297968
 30
182.0
  0
VERTEX
  5
155
  8
DEFAULT
 10
90.473388314864
 20
187.3427842274291
 30
182.0
  0
VERTEX
  5
156
  8
DEFAULT
 10
90.30725990226222
 20
187.3553404446607
 30
182.0
  0
VERTEX
  5
157
  8
DEFAULT
 10
90.22767382932443
 20
187.36940753152
 30
182.0
  0
VERTEX
  5
158
  8
DEFAULT
 10
90.07433168148805
 20
187.3183167469232
 30
182.0
  0
VERTEX
  5
159
  8
DEFAULT
 10
89.65803588750373
 20
187.17953022279
 30
182.0
  0
VERTEX
  5
15A
  8
DEFAULT
 10
88.9582203126592
 20
186.479776870291
 30
182.0
  0
VERTEX
  5
15B
  8
DEFAULT
 10
88.92891362860593
 20
186.4504701837074
 30
182.0
  0
VERTEX
  5
15C
  8
DEFAULT
 10
88.7137846384054
 20
186.2352110516043
 30
182.0
  0
VERTEX
  5
15D
  8
DEFAULT
 10
88.57499904353631
 20
185.8189818186847
 30
182.0
  0
VERTEX
  5
15E
  8
DEFAULT
 10
88.5303166942818
 20
185.6848126964295
 30
182.0
  0
VERTEX
  5
15F
  8
DEFAULT
 10
88.52523801534028
 20
185.6695627839307
 30
182.0
  0
VERTEX
  5
160
  8
DEFAULT
 10
88.52644361596055
 20
185.6535347041942
 30
182.0
  0
VERTEX
  5
161
  8
DEFAULT
 10
88.53938107532292
 20
185.4815352444586
 30
182.0
  0
VERTEX
  5
162
  8
DEFAULT
 10
88.55110179500662
 20
185.4156457932638
 30
182.0
  0
VERTEX
  5
163
  8
DEFAULT
 10
88.42028695079108
 20
185.2692257800214
 30
182.0
  0
VERTEX
  5
164
  8
DEFAULT
 10
88.38426735836197
 20
185.2329720551868
 30
182.0
  0
VERTEX
  5
165
  8
DEFAULT
 10
88.16190594220313
 20
185.0104829250524
 30
182.0
  0
VERTEX
  5
166
  8
DEFAULT
 10
88.02039352843747
 20
184.8648141829077
 30
182.0
  0
VERTEX
  5
167
  8
DEFAULT
 10
88.0189710872778
 20
184.8633499344197
 30
182.0
  0
VERTEX
  5
168
  8
DEFAULT
 10
88.0176252069557
 20
184.8618150165464
 30
182.0
  0
VERTEX
  5
169
  8
DEFAULT
 10
87.95649963998414
 20
184.7921053690105
 30
182.0
  0
VERTEX
  5
16A
  8
DEFAULT
 10
87.9343036325717
 20
184.7728964019331
 30
182.0
  0
VERTEX
  5
16B
  8
DEFAULT
 10
87.83927859755818
 20
184.7064251183165
 30
182.0
  0
VERTEX
  5
16C
  8
DEFAULT
 10
87.80411001390388
 20
184.6848011918804
 30
182.0
  0
VERTEX
  5
16D
  8
DEFAULT
 10
87.70589986689913
 20
184.620159546423
 30
182.0
  0
VERTEX
  5
16E
  8
DEFAULT
 10
87.32178829077941
 20
184.4244879577788
 30
182.0
  0
VERTEX
  5
16F
  8
DEFAULT
 10
87.19114909501059
 20
184.3762993487735
 30
182.0
  0
VERTEX
  5
170
  8
DEFAULT
 10
87.10788472875225
 20
184.3303603880793
 30
182.0
  0
VERTEX
  5
171
  8
DEFAULT
 10
87.00377110970851
 20
184.2654720572884
 30
182.0
  0
VERTEX
  5
172
  8
DEFAULT
 10
86.91827304101736
 20
184.2323600884889
 30
182.0
  0
VERTEX
  5
173
  8
DEFAULT
 10
86.78137174567735
 20
184.3053543068102
 30
182.0
  0
VERTEX
  5
174
  8
DEFAULT
 10
86.72430602359339
 20
184.335659078728
 30
182.0
  0
VERTEX
  5
175
  8
DEFAULT
 10
86.7064496232374
 20
184.3451417171984
 30
182.0
  0
VERTEX
  5
176
  8
DEFAULT
 10
86.68623200412765
 20
184.3450020363481
 30
182.0
  0
VERTEX
  5
177
  8
DEFAULT
 10
86.54484859722663
 20
184.3440252858906
 30
182.0
  0
VERTEX
  5
178
  8
DEFAULT
 10
86.12490073720068
 20
184.3408512698081
 30
182.0
  0
VERTEX
  5
179
  8
DEFAULT
 10
86.1060106069537
 20
184.3407084957677
 30
182.0
  0
VERTEX
  5
17A
  8
DEFAULT
 10
85.79792410557701
 20
184.1836954249804
 30
182.0
  0
VERTEX
  5
17B
  8
DEFAULT
 10
84.91616769378231
 20
183.7344482801988
 30
182.0
  0
VERTEX
  5
17C
  8
DEFAULT
 10
84.65555388867568
 20
183.3813503763505
 30
182.0
  0
VERTEX
  5
17D
  8
DEFAULT
 10
84.56209118878456
 20
183.2546489443365
 30
182.0
  0
VERTEX
  5
17E
  8
DEFAULT
 10
84.51740915634116
 20
183.0715482605935
 30
182.0
  0
VERTEX
  5
17F
  8
DEFAULT
 10
84.51307627383159
 20
183.0404464738123
 30
182.0
  0
VERTEX
  5
180
  8
DEFAULT
 10
83.91964734689515
 20
182.6672163785746
 30
182.0
  0
VERTEX
  5
181
  8
DEFAULT
 10
83.87036376648149
 20
182.6415412982539
 30
182.0
  0
VERTEX
  5
182
  8
DEFAULT
 10
83.72764757388256
 20
182.5688455719727
 30
182.0
  0
VERTEX
  5
183
  8
DEFAULT
 10
83.69155260063525
 20
182.5504919934979
 30
182.0
  0
VERTEX
  5
184
  8
DEFAULT
 10
83.67590816990804
 20
182.5424763925308
 30
182.0
  0
VERTEX
  5
185
  8
DEFAULT
 10
83.58237566563855
 20
182.547003939963
 30
182.0
  0
VERTEX
  5
186
  8
DEFAULT
 10
83.53395783522689
 20
182.5353143892526
 30
182.0
  0
VERTEX
  5
187
  8
DEFAULT
 10
83.41758296954845
 20
182.5187134005728
 30
182.0
  0
VERTEX
  5
188
  8
DEFAULT
 10
83.27930694047353
 20
182.497789907064
 30
182.0
  0
VERTEX
  5
189
  8
DEFAULT
 10
83.27829696154845
 20
182.4976370748894
 30
182.0
  0
VERTEX
  5
18A
  8
DEFAULT
 10
83.2772912158324
 20
182.4974584945633
 30
182.0
  0
VERTEX
  5
18B
  8
DEFAULT
 10
82.68518636235228
 20
182.3923274464438
 30
182.0
  0
VERTEX
  5
18C
  8
DEFAULT
 10
82.58890281349795
 20
182.3850784635806
 30
182.0
  0
VERTEX
  5
18D
  8
DEFAULT
 10
82.48197453433033
 20
182.49607969532
 30
182.0
  0
VERTEX
  5
18E
  8
DEFAULT
 10
82.4371390149538
 20
182.5425034414781
 30
182.0
  0
VERTEX
  5
18F
  8
DEFAULT
 10
82.42307265706768
 20
182.5570680706425
 30
182.0
  0
VERTEX
  5
190
  8
DEFAULT
 10
82.40377117367404
 20
182.5631871952253
 30
182.0
  0
VERTEX
  5
191
  8
DEFAULT
 10
82.2689876208052
 20
182.6059174836168
 30
182.0
  0
VERTEX
  5
192
  8
DEFAULT
 10
81.85063230792684
 20
182.7383318243195
 30
182.0
  0
VERTEX
  5
193
  8
DEFAULT
 10
81.59321837948369
 20
182.6975351366425
 30
182.0
  0
VERTEX
  5
194
  8
DEFAULT
 10
81.50911602561354
 20
182.6842301208021
 30
182.0
  0
VERTEX
  5
195
  8
DEFAULT
 10
80.53165420293885
 20
182.5294191840857
 30
182.0
  0
VERTEX
  5
196
  8
DEFAULT
 10
80.17469022743114
 20
182.2741806900884
 30
182.0
  0
VERTEX
  5
197
  8
DEFAULT
 10
80.0466010323014
 20
182.1826689866907
 30
182.0
  0
VERTEX
  5
198
  8
DEFAULT
 10
79.94759078552227
 20
182.022230021959
 30
182.0
  0
VERTEX
  5
199
  8
DEFAULT
 10
79.93339922196179
 20
181.9930499603832
 30
182.0
  0
VERTEX
  5
19A
  8
DEFAULT
 10
79.71770067912257
 20
181.9336502179826
 30
182.0
  0
VERTEX
  5
19B
  8
DEFAULT
 10
79.29707850811491
 20
181.866969157847
 30
182.0
  0
VERTEX
  5
19C
  8
DEFAULT
 10
79.08008984611206
 20
181.8326660227767
 30
182.0
  0
VERTEX
  5
19D
  8
DEFAULT
 10
79.00163393857088
 20
181.8202107744501
 30
182.0
  0
VERTEX
  5
19E
  8
DEFAULT
 10
79.0
 20
181.8199513788489
 30
182.0
  0
SEQEND
  5
19F
  8
DEFAULT
  0
POLYLINE
  5
1A0
  8
DEFAULT
 66
     1
 10
0.0
 20
0.0
 30
147.0000000000001
 70
     1
  0
VERTEX
  5
1A1
  8
DEFAULT
 10
82.53662725489764
 20
208.0054835510258
 30
147.0000000000001
  0
VERTEX
  5
1A2
  8
DEFAULT
 10
82.66222806971697
 20
208.011144561768
 30
147.0000000000001
  0
VERTEX
  5
1A3
  8
DEFAULT
 10
82.78782840769915
 20
208.0054835510258
 30
147.0000000000001
  0
VERTEX
  5
1A4
  8
DEFAULT
 10
82.9165801624599
 20
207.9877986145024
 30
147.0000000000001
  0
VERTEX
  5
1A5
  8
DEFAULT
 10
83.04685064356951
 20
207.957189483643
 30
147.0000000000001
  0
VERTEX
  5
1A6
  8
DEFAULT
 10
83.17675968211321
 20
207.913000030518
 30
147.0000000000001
  0
VERTEX
  5
1A7
  8
DEFAULT
 10
83.30424066584735
 20
207.8549861145024
 30
147.0000000000001
  0
VERTEX
  5
1A8
  8
DEFAULT
 10
83.4271306614223
 20
207.7832850646977
 30
147.0000000000001
  0
VERTEX
  5
1A9
  8
DEFAULT
 10
83.54327388804583
 20
207.6985224914555
 30
147.0000000000001
  0
VERTEX
  5
1AA
  8
DEFAULT
 10
83.65063878100543
 20
207.601720733643
 30
147.0000000000001
  0
VERTEX
  5
1AB
  8
DEFAULT
 10
83.6711046318355
 20
207.5790309143071
 30
147.0000000000001
  0
VERTEX
  5
1AC
  8
DEFAULT
 10
83.7474329094234
 20
207.4943598937992
 30
147.0000000000001
  0
VERTEX
  5
1AD
  8
DEFAULT
 10
83.83220025103716
 20
207.3782252502446
 30
147.0000000000001
  0
VERTEX
  5
1AE
  8
DEFAULT
 10
83.90389247935443
 20
207.2553309631352
 30
147.0000000000001
  0
VERTEX
  5
1AF
  8
DEFAULT
 10
83.96190830271868
 20
207.127843780518
 30
147.0000000000001
  0
VERTEX
  5
1B0
  8
DEFAULT
 10
84.00609441798358
 20
206.9979457092289
 30
147.0000000000001
  0
VERTEX
  5
1B1
  8
DEFAULT
 10
84.03671570819048
 20
206.8676661682133
 30
147.0000000000001
  0
VERTEX
  5
1B2
  8
DEFAULT
 10
84.0543975452724
 20
206.7389125061039
 30
147.0000000000001
  0
VERTEX
  5
1B3
  8
DEFAULT
 10
84.06005188029437
 20
206.6133174133305
 30
147.0000000000001
  0
VERTEX
  5
1B4
  8
DEFAULT
 10
84.05928178828387
 20
206.5962123107914
 30
147.0000000000001
  0
VERTEX
  5
1B5
  8
DEFAULT
 10
84.0543975452724
 20
206.4877223205571
 30
147.0000000000001
  0
VERTEX
  5
1B6
  8
DEFAULT
 10
84.03671570819048
 20
206.3589686584477
 30
147.0000000000001
  0
VERTEX
  5
1B7
  8
DEFAULT
 10
84.00609441798358
 20
206.2286891174321
 30
147.0000000000001
  0
VERTEX
  5
1B8
  8
DEFAULT
 10
83.96190830271868
 20
206.098791046143
 30
147.0000000000001
  0
VERTEX
  5
1B9
  8
DEFAULT
 10
83.90389247935443
 20
205.9713038635258
 30
147.0000000000001
  0
VERTEX
  5
1BA
  8
DEFAULT
 10
83.83220025103716
 20
205.8484095764164
 30
147.0000000000001
  0
VERTEX
  5
1BB
  8
DEFAULT
 10
83.7474329094234
 20
205.7322749328617
 30
147.0000000000001
  0
VERTEX
  5
1BC
  8
DEFAULT
 10
83.65063878100543
 20
205.6248988342289
 30
147.0000000000001
  0
VERTEX
  5
1BD
  8
DEFAULT
 10
83.54327388804583
 20
205.5281123352055
 30
147.0000000000001
  0
VERTEX
  5
1BE
  8
DEFAULT
 10
83.4271306614223
 20
205.4433497619633
 30
147.0000000000001
  0
VERTEX
  5
1BF
  8
DEFAULT
 10
83.30424066584735
 20
205.3716487121586
 30
147.0000000000001
  0
VERTEX
  5
1C0
  8
DEFAULT
 10
83.17675968211321
 20
205.313634796143
 30
147.0000000000001
  0
VERTEX
  5
1C1
  8
DEFAULT
 10
83.04685064356951
 20
205.269445343018
 30
147.0000000000001
  0
VERTEX
  5
1C2
  8
DEFAULT
 10
82.9165801624599
 20
205.2388362121586
 30
147.0000000000001
  0
VERTEX
  5
1C3
  8
DEFAULT
 10
82.78782840769915
 20
205.2211512756352
 30
147.0000000000001
  0
VERTEX
  5
1C4
  8
DEFAULT
 10
82.66222806971697
 20
205.215490264893
 30
147.0000000000001
  0
VERTEX
  5
1C5
  8
DEFAULT
 10
82.53662725489764
 20
205.2211512756352
 30
147.0000000000001
  0
VERTEX
  5
1C6
  8
DEFAULT
 10
82.4078755001369
 20
205.2388362121586
 30
147.0000000000001
  0
VERTEX
  5
1C7
  8
DEFAULT
 10
82.27760501902728
 20
205.269445343018
 30
147.0000000000001
  0
VERTEX
  5
1C8
  8
DEFAULT
 10
82.14769645732073
 20
205.313634796143
 30
147.0000000000001
  0
VERTEX
  5
1C9
  8
DEFAULT
 10
82.02021499674944
 20
205.3716487121586
 30
147.0000000000001
  0
VERTEX
  5
1CA
  8
DEFAULT
 10
81.8973250011745
 20
205.4433497619633
 30
147.0000000000001
  0
VERTEX
  5
1CB
  8
DEFAULT
 10
81.78118225138812
 20
205.5281123352055
 30
147.0000000000001
  0
VERTEX
  5
1CC
  8
DEFAULT
 10
81.67381712000994
 20
205.6248988342289
 30
147.0000000000001
  0
VERTEX
  5
1CD
  8
DEFAULT
 10
81.57702299159197
 20
205.7322749328617
 30
147.0000000000001
  0
VERTEX
  5
1CE
  8
DEFAULT
 10
81.4922556499782
 20
205.8484095764164
 30
147.0000000000001
  0
VERTEX
  5
1CF
  8
DEFAULT
 10
81.42056318324236
 20
205.9713038635258
 30
147.0000000000001
  0
VERTEX
  5
1D0
  8
DEFAULT
 10
81.36254783671527
 20
206.098791046143
 30
147.0000000000001
  0
VERTEX
  5
1D1
  8
DEFAULT
 10
81.31836172145037
 20
206.2286891174321
 30
147.0000000000001
  0
VERTEX
  5
1D2
  8
DEFAULT
 10
81.28774019282488
 20
206.3589686584477
 30
147.0000000000001
  0
VERTEX
  5
1D3
  8
DEFAULT
 10
81.27005859416155
 20
206.4877223205571
 30
147.0000000000001
  0
VERTEX
  5
1D4
  8
DEFAULT
 10
81.26440425913958
 20
206.6133174133305
 30
147.0000000000001
  0
VERTEX
  5
1D5
  8
DEFAULT
 10
81.27005859416155
 20
206.7389125061039
 30
147.0000000000001
  0
VERTEX
  5
1D6
  8
DEFAULT
 10
81.28774019282488
 20
206.8676661682133
 30
147.0000000000001
  0
VERTEX
  5
1D7
  8
DEFAULT
 10
81.31836172145037
 20
206.9979457092289
 30
147.0000000000001
  0
VERTEX
  5
1D8
  8
DEFAULT
 10
81.36254783671527
 20
207.127843780518
 30
147.0000000000001
  0
VERTEX
  5
1D9
  8
DEFAULT
 10
81.42056318324236
 20
207.2553309631352
 30
147.0000000000001
  0
VERTEX
  5
1DA
  8
DEFAULT
 10
81.4922556499782
 20
207.3782252502446
 30
147.0000000000001
  0
VERTEX
  5
1DB
  8
DEFAULT
 10
81.57702299159197
 20
207.4943598937992
 30
147.0000000000001
  0
VERTEX
  5
1DC
  8
DEFAULT
 10
81.67381712000994
 20
207.601720733643
 30
147.0000000000001
  0
VERTEX
  5
1DD
  8
DEFAULT
 10
81.78118225138812
 20
207.6985224914555
 30
147.0000000000001
  0
VERTEX
  5
1DE
  8
DEFAULT
 10
81.8973250011745
 20
207.7832850646977
 30
147.0000000000001
  0
VERTEX
  5
1DF
  8
DEFAULT
 10
82.02021499674944
 20
207.8549861145024
 30
147.0000000000001
  0
VERTEX
  5
1E0
  8
DEFAULT
 10
82.14769645732073
 20
207.913000030518
 30
147.0000000000001
  0
VERTEX
  5
1E1
  8
DEFAULT
 10
82.27760501902728
 20
207.957189483643
 30
147.0000000000001
  0
VERTEX
  5
1E2
  8
DEFAULT
 10
82.4078755001369
 20
207.9877986145024
 30
147.0000000000001
  0
SEQEND
  5
1E3
  8
DEFAULT
  0
LINE
  5
1E4
  8
DEFAULT
 10
81.56244396971249
 20
196.8400000000005
 30
147.0000000000001
 11
81.56244396971222
 21
197.0
 31
182.0000000000001
  0
CIRCLE
  5
1E5
  8
DEFAULT
 10
88.66222806971697
 20
202.6133174133305
 30
147.0000000000001
 40
1.397823810577393
  0
POLYLINE
  5
1E6
  8
DEFAULT
 66
     1
 10
0.0
 20
0.0
 30
182.0
 70
     1
  0
VERTEX
  5
1E7
  8
DEFAULT
 10
82.17494388621442
 20
189.8562641906736
 30
182.0
  0
VERTEX
  5
1E8
  8
DEFAULT
 10
82.30054470103376
 20
189.8619252014158
 30
182.0
  0
VERTEX
  5
1E9
  8
DEFAULT
 10
82.42614503901594
 20
189.8562641906736
 30
182.0
  0
VERTEX
  5
1EA
  8
DEFAULT
 10
82.55489679377668
 20
189.8385792541502
 30
182.0
  0
VERTEX
  5
1EB
  8
DEFAULT
 10
82.6851672748863
 20
189.8079701232908
 30
182.0
  0
VERTEX
  5
1EC
  8
DEFAULT
 10
82.81507631343
 20
189.7637806701658
 30
182.0
  0
VERTEX
  5
1ED
  8
DEFAULT
 10
82.94255729716413
 20
189.7057667541502
 30
182.0
  0
VERTEX
  5
1EE
  8
DEFAULT
 10
83.06544729273908
 20
189.6340657043455
 30
182.0
  0
VERTEX
  5
1EF
  8
DEFAULT
 10
83.18159051936262
 20
189.5493031311033
 30
182.0
  0
VERTEX
  5
1F0
  8
DEFAULT
 10
83.28895517390363
 20
189.4525013732908
 30
182.0
  0
VERTEX
  5
1F1
  8
DEFAULT
 10
83.3857493023216
 20
189.3451405334471
 30
182.0
  0
VERTEX
  5
1F2
  8
DEFAULT
 10
83.47051664393537
 20
189.2290058898924
 30
182.0
  0
VERTEX
  5
1F3
  8
DEFAULT
 10
83.54220911067121
 20
189.106111602783
 30
182.0
  0
VERTEX
  5
1F4
  8
DEFAULT
 10
83.60022493403547
 20
188.9786244201658
 30
182.0
  0
VERTEX
  5
1F5
  8
DEFAULT
 10
83.64441104930036
 20
188.8487263488768
 30
182.0
  0
VERTEX
  5
1F6
  8
DEFAULT
 10
83.67503233950727
 20
188.7184468078611
 30
182.0
  0
VERTEX
  5
1F7
  8
DEFAULT
 10
83.69271417658918
 20
188.5896931457518
 30
182.0
  0
VERTEX
  5
1F8
  8
DEFAULT
 10
83.69836851161115
 20
188.4640980529783
 30
182.0
  0
VERTEX
  5
1F9
  8
DEFAULT
 10
83.69271417658918
 20
188.3385029602049
 30
182.0
  0
VERTEX
  5
1FA
  8
DEFAULT
 10
83.67503233950727
 20
188.2097492980955
 30
182.0
  0
VERTEX
  5
1FB
  8
DEFAULT
 10
83.64441104930036
 20
188.0794697570799
 30
182.0
  0
VERTEX
  5
1FC
  8
DEFAULT
 10
83.60022493403547
 20
187.9495716857908
 30
182.0
  0
VERTEX
  5
1FD
  8
DEFAULT
 10
83.54220911067121
 20
187.8220845031736
 30
182.0
  0
VERTEX
  5
1FE
  8
DEFAULT
 10
83.47051664393537
 20
187.6991902160643
 30
182.0
  0
VERTEX
  5
1FF
  8
DEFAULT
 10
83.3857493023216
 20
187.5830555725096
 30
182.0
  0
VERTEX
  5
200
  8
DEFAULT
 10
83.28895517390363
 20
187.4756794738768
 30
182.0
  0
VERTEX
  5
201
  8
DEFAULT
 10
83.18159051936262
 20
187.3788929748533
 30
182.0
  0
VERTEX
  5
202
  8
DEFAULT
 10
83.06544729273908
 20
187.2941304016111
 30
182.0
  0
VERTEX
  5
203
  8
DEFAULT
 10
82.94255729716413
 20
187.2224293518065
 30
182.0
  0
VERTEX
  5
204
  8
DEFAULT
 10
82.81507631343
 20
187.1644154357908
 30
182.0
  0
VERTEX
  5
205
  8
DEFAULT
 10
82.6851672748863
 20
187.1202259826658
 30
182.0
  0
VERTEX
  5
206
  8
DEFAULT
 10
82.55489679377668
 20
187.0896168518065
 30
182.0
  0
VERTEX
  5
207
  8
DEFAULT
 10
82.42614503901594
 20
187.071931915283
 30
182.0
  0
VERTEX
  5
208
  8
DEFAULT
 10
82.30054470103376
 20
187.0662709045408
 30
182.0
  0
VERTEX
  5
209
  8
DEFAULT
 10
82.17494388621442
 20
187.071931915283
 30
182.0
  0
VERTEX
  5
20A
  8
DEFAULT
 10
82.04619213145368
 20
187.0896168518065
 30
182.0
  0
VERTEX
  5
20B
  8
DEFAULT
 10
81.91592165034406
 20
187.1202259826658
 30
182.0
  0
VERTEX
  5
20C
  8
DEFAULT
 10
81.78601308863752
 20
187.1644154357908
 30
182.0
  0
VERTEX
  5
20D
  8
DEFAULT
 10
81.65853162806623
 20
187.2224293518065
 30
182.0
  0
VERTEX
  5
20E
  8
DEFAULT
 10
81.53564163249128
 20
187.2941304016111
 30
182.0
  0
VERTEX
  5
20F
  8
DEFAULT
 10
81.4194988827049
 20
187.3788929748533
 30
182.0
  0
VERTEX
  5
210
  8
DEFAULT
 10
81.31213375132673
 20
187.4756794738768
 30
182.0
  0
VERTEX
  5
211
  8
DEFAULT
 10
81.21533962290876
 20
187.5830555725096
 30
182.0
  0
VERTEX
  5
212
  8
DEFAULT
 10
81.13057228129499
 20
187.6991902160643
 30
182.0
  0
VERTEX
  5
213
  8
DEFAULT
 10
81.05887981455915
 20
187.8220845031736
 30
182.0
  0
VERTEX
  5
214
  8
DEFAULT
 10
81.00086446803205
 20
187.9495716857908
 30
182.0
  0
VERTEX
  5
215
  8
DEFAULT
 10
80.95667835276716
 20
188.0794697570799
 30
182.0
  0
VERTEX
  5
216
  8
DEFAULT
 10
80.92605682414167
 20
188.2097492980955
 30
182.0
  0
VERTEX
  5
217
  8
DEFAULT
 10
80.90837522547834
 20
188.3385029602049
 30
182.0
  0
VERTEX
  5
218
  8
DEFAULT
 10
80.90272089045637
 20
188.4640980529783
 30
182.0
  0
VERTEX
  5
219
  8
DEFAULT
 10
80.90837522547834
 20
188.5896931457518
 30
182.0
  0
VERTEX
  5
21A
  8
DEFAULT
 10
80.92605682414167
 20
188.7184468078611
 30
182.0
  0
VERTEX
  5
21B
  8
DEFAULT
 10
80.95667835276716
 20
188.8487263488768
 30
182.0
  0
VERTEX
  5
21C
  8
DEFAULT
 10
81.00086446803205
 20
188.9786244201658
 30
182.0
  0
VERTEX
  5
21D
  8
DEFAULT
 10
81.05887981455915
 20
189.106111602783
 30
182.0
  0
VERTEX
  5
21E
  8
DEFAULT
 10
81.13057228129499
 20
189.2290058898924
 30
182.0
  0
VERTEX
  5
21F
  8
DEFAULT
 10
81.21533962290876
 20
189.3451405334471
 30
182.0
  0
VERTEX
  5
220
  8
DEFAULT
 10
81.31213375132673
 20
189.4525013732908
 30
182.0
  0
VERTEX
  5
221
  8
DEFAULT
 10
81.4194988827049
 20
189.5493031311033
 30
182.0
  0
VERTEX
  5
222
  8
DEFAULT
 10
81.53564163249128
 20
189.6340657043455
 30
182.0
  0
VERTEX
  5
223
  8
DEFAULT
 10
81.65853162806623
 20
189.7057667541502
 30
182.0
  0
VERTEX
  5
224
  8
DEFAULT
 10
81.78601308863752
 20
189.7637806701658
 30
182.0
  0
VERTEX
  5
225
  8
DEFAULT
 10
81.91592165034406
 20
189.8079701232908
 30
182.0
  0
VERTEX
  5
226
  8
DEFAULT
 10
82.04619213145368
 20
189.8385792541502
 30
182.0
  0
SEQEND
  5
227
  8
DEFAULT
  0
CIRCLE
  5
228
  8
DEFAULT
 10
-88.66222806971662
 20
191.3866825866693
 30
-182.0
 40
1.397823810577393
210
0.0
220
0.0
230
-1.0
  0
ENDSEC
  0
EOF
